<svg width="264" height="122" viewBox="0 0 264 122" fill="none" xmlns="http://www.w3.org/2000/svg">
<path d="M24.7227 121.18C19.9803 121.18 15.9376 120.325 12.5946 118.615C9.25157 116.904 6.68601 114.475 4.89789 111.326C3.10977 108.178 2.21571 104.485 2.21571 100.248C2.21571 96.7881 2.7988 93.7561 3.96496 91.1517C5.13112 88.5472 6.74432 86.3704 8.80454 84.6212C10.9036 82.8719 13.3331 81.5503 16.0931 80.6562C18.853 79.7621 21.8267 79.3151 25.0142 79.3151C26.9578 79.3151 28.882 79.5095 30.7867 79.8982C32.7304 80.248 34.6351 80.8117 36.501 81.5891L38.3668 82.3471L36.501 91.0351L34.1103 90.6269C32.4777 90.3159 30.9422 90.0827 29.504 89.9272C28.0657 89.7717 26.7052 89.694 25.4224 89.694C23.0901 89.694 21.0881 90.0438 19.4166 90.7435C17.784 91.4043 16.5207 92.5122 15.6266 94.0671C14.7325 95.622 14.2855 97.7211 14.2855 100.364C14.2855 102.891 14.6937 104.951 15.51 106.545C16.3263 108.1 17.5508 109.227 19.1834 109.927C20.816 110.627 22.7985 110.976 25.1308 110.976C26.1415 110.976 27.1522 110.938 28.1629 110.86C29.2124 110.743 30.262 110.588 31.3115 110.393V105.437H21.9239V97.2157H41.3988V116.807C40.0772 117.662 38.5029 118.42 36.6759 119.081C34.8878 119.703 32.9636 120.209 30.9034 120.597C28.8431 120.986 26.7829 121.18 24.7227 121.18ZM47.0602 120.656V79.8399H79.7711V89.9272H58.8385V95.4665H77.4388V104.388H58.8385V110.51H80.1793V120.656H47.0602ZM85.3819 120.656V79.8399H95.8774L112.612 100.656H112.728V79.8399H124.39V120.656H114.419L97.2185 99.1982H97.1019V120.656H85.3819ZM131.562 120.656V79.8399H143.34V94.7085H158.617V79.8399H170.395V120.656H158.617V105.029H143.34V120.656H131.562ZM180.952 121.18L176.404 116.691L214.246 79.3151L218.794 83.8048L180.952 121.18ZM197.628 121.18C193.197 121.18 189.368 120.325 186.142 118.615C182.954 116.866 180.505 114.417 178.795 111.268C177.085 108.119 176.229 104.427 176.229 100.189C176.229 95.9524 177.123 92.279 178.912 89.1692C180.7 86.0206 183.207 83.591 186.433 81.8807C189.66 80.1703 193.391 79.3151 197.628 79.3151C202.099 79.3151 205.928 80.1897 209.115 81.939C212.303 83.6494 214.752 86.0789 216.462 89.2275C218.172 92.3373 219.028 96.0301 219.028 100.306C219.028 104.504 218.134 108.178 216.345 111.326C214.596 114.475 212.108 116.904 208.882 118.615C205.694 120.325 201.943 121.18 197.628 121.18ZM197.628 110.393C199.572 110.393 201.244 110.082 202.643 109.46C204.042 108.8 205.111 107.731 205.85 106.254C206.627 104.737 207.016 102.716 207.016 100.189C207.016 97.6628 206.647 95.6803 205.908 94.242C205.209 92.7649 204.159 91.7153 202.76 91.0934C201.36 90.4325 199.65 90.1021 197.628 90.1021C195.724 90.1021 194.072 90.4325 192.672 91.0934C191.273 91.7153 190.184 92.7649 189.407 94.242C188.668 95.7192 188.299 97.7405 188.299 100.306C188.299 102.794 188.649 104.776 189.349 106.254C190.087 107.731 191.156 108.8 192.556 109.46C193.955 110.082 195.646 110.393 197.628 110.393ZM224.832 120.656V79.8399H245.648C248.719 79.8399 251.362 80.3841 253.578 81.4725C255.794 82.5609 257.504 84.0964 258.709 86.0789C259.953 88.0613 260.575 90.4131 260.575 93.1342C260.575 95.6997 260.05 97.8571 259.001 99.6064C257.99 101.317 256.61 102.697 254.861 103.746C253.15 104.757 251.187 105.496 248.972 105.962C246.795 106.39 244.56 106.603 242.266 106.603H236.61V120.656H224.832ZM249.846 120.656L241.566 105.729L252.645 103.688L262.849 120.656H249.846ZM236.61 98.3819H243.257C245.201 98.3819 246.639 98.0126 247.572 97.274C248.505 96.5355 248.972 95.4082 248.972 93.8922C248.972 92.415 248.505 91.346 247.572 90.6852C246.678 89.9855 245.24 89.6357 243.257 89.6357H236.61V98.3819Z" fill="#020202"/>
<path d="M50.8419 17.9291C39.4647 24.4977 39.4647 40.9193 50.8419 47.488L62.2863 54.0953C60.4194 63.2912 49.8533 68.4791 41.2424 63.5075L9.24397 45.0332C-0.237039 39.5594 -0.237018 25.8747 9.24399 20.4008L41.2424 1.92654C49.8486 -3.04223 60.4077 2.13714 62.2831 11.3235L50.8419 17.9291Z" fill="#020202"/>
<path d="M94.2175 16.7251C81.8922 23.8412 81.8922 41.6312 94.2176 48.7473L104.173 54.4949C100.855 62.9771 90.4186 67.2947 81.7737 62.3036L54.0417 46.2925C43.6126 40.2713 43.6127 25.2182 54.0418 19.1969L81.7738 3.18584C90.4138 -1.80252 100.843 2.50761 104.167 10.9806L94.2175 16.7251Z" fill="#020202"/>
<path d="M136.171 15.5211C122.898 23.1845 122.898 42.343 136.171 50.0064L144.309 54.705C139.895 62.5209 129.562 66.1102 120.883 61.0995L97.4174 47.5517C86.0402 40.9831 86.0402 24.5615 97.4174 17.9928L120.883 4.44502C129.557 -0.562895 139.884 3.01976 144.302 10.8267L136.171 15.5211Z" fill="#020202"/>
<path d="M176.702 14.1394C162.481 22.3502 162.481 42.8772 176.702 51.088L182.781 54.5978C177.515 61.7834 167.274 64.7433 158.57 59.7179L139.371 48.6333C127.046 41.5173 127.046 23.7272 139.371 16.6112L158.57 5.52659C167.269 0.503953 177.504 3.45776 182.773 10.6347L176.702 14.1394Z" fill="#020202"/>
<path d="M215.812 12.9354C200.642 21.6936 200.642 43.589 215.812 52.3472L219.534 54.4966C213.58 60.9931 203.5 63.3392 194.835 58.3361L179.902 49.7147C166.629 42.0513 166.629 22.8928 179.902 15.2294L194.835 6.60804C203.599 1.54827 213.809 4.00512 219.735 10.67L215.812 12.9354Z" fill="#020202"/>
<path d="M219.011 50.974C204.79 42.7632 204.79 22.2363 219.011 14.0255L229.678 7.86735C243.899 -0.343453 261.676 9.92006 261.676 26.3417V38.6579C261.676 55.0795 243.899 65.3429 229.678 57.1321L219.011 50.974Z" fill="#020202"/>
</svg>
