<?xml version="1.0" standalone="no"?>
<!DOCTYPE svg PUBLIC "-//W3C//DTD SVG 20010904//EN"
 "http://www.w3.org/TR/2001/REC-SVG-20010904/DTD/svg10.dtd">
<svg version="1.0" xmlns="http://www.w3.org/2000/svg"
 width="3369.000000pt" height="1095.000000pt" viewBox="0 0 3369.000000 1095.000000"
 preserveAspectRatio="xMidYMid meet">

<g transform="translate(0.000000,1095.000000) scale(0.100000,-0.100000)"
fill="#fafafa" stroke="none">
<path d="M3645 10943 c-1128 -47 -2181 -243 -3270 -608 -137 -46 -277 -95
-310 -108 l-60 -23 0 -2800 c0 -2912 -1 -2860 41 -3124 8 -52 19 -129 25 -170
25 -173 87 -468 109 -515 5 -11 19 -54 31 -95 46 -156 93 -297 116 -349 14
-29 41 -95 60 -145 131 -340 426 -830 708 -1178 268 -331 673 -714 981 -928
294 -205 511 -335 784 -471 118 -58 226 -110 240 -114 14 -4 30 -11 35 -15 10
-8 211 -88 343 -136 59 -22 366 -117 458 -143 65 -17 103 -14 236 24 728 210
1383 541 1943 984 416 329 801 743 1072 1151 20 30 54 82 76 115 107 161 304
538 380 725 85 213 132 345 166 465 6 22 22 81 37 130 59 206 93 377 129 660
39 302 39 241 42 3143 l3 2783 -32 13 c-108 45 -641 220 -823 271 -710 199
-1186 297 -1825 379 -524 67 -1209 99 -1695 79z m820 -113 c457 -26 893 -69
1135 -110 30 -6 109 -19 175 -30 256 -42 409 -72 740 -146 307 -68 789 -207
1161 -333 l229 -78 0 -2789 c0 -2916 1 -2815 -41 -3129 -24 -175 -41 -263 -83
-430 -61 -245 -91 -349 -131 -455 -16 -41 -47 -124 -69 -184 -23 -59 -59 -145
-80 -190 -160 -336 -201 -411 -363 -663 -269 -416 -645 -828 -1057 -1157 -374
-298 -822 -564 -1286 -760 -171 -73 -542 -200 -692 -237 l-93 -24 -92 24
c-158 41 -422 129 -606 203 -786 313 -1506 819 -2033 1427 -123 142 -306 384
-381 504 -28 45 -58 89 -65 98 -28 33 -166 279 -219 389 -30 63 -68 140 -83
170 -16 30 -52 118 -81 195 -29 77 -56 145 -60 150 -12 15 -68 196 -101 324
-16 64 -34 125 -38 136 -39 89 -102 495 -133 860 -15 182 -18 5511 -3 5530 20
25 610 216 950 308 617 168 1135 268 1735 337 541 61 1215 86 1665 60z"/>
<path d="M3714 10339 c-4 -7 0 -16 9 -21 101 -56 141 -161 135 -353 l-3 -100
-165 0 c-189 0 -215 9 -295 90 -23 24 -45 41 -49 38 -8 -8 -8 -558 0 -566 4
-4 25 14 47 39 71 80 96 88 295 92 l172 4 0 -245 0 -244 -56 -89 c-31 -49 -77
-123 -101 -164 -51 -86 -131 -215 -213 -345 -31 -49 -76 -121 -99 -160 -24
-38 -60 -97 -80 -130 -21 -33 -50 -82 -65 -110 -16 -27 -34 -57 -41 -65 -7 -8
-44 -67 -83 -130 -38 -63 -100 -164 -137 -225 -38 -60 -93 -150 -122 -199 -30
-49 -72 -116 -94 -148 l-40 -58 200 0 199 0 20 33 c11 17 33 57 49 87 17 30
52 91 80 135 27 44 62 105 79 135 16 30 32 57 37 58 4 2 7 8 7 14 0 5 9 22 20
38 10 15 44 69 73 121 30 52 76 130 102 174 26 44 78 132 115 195 38 63 84
142 103 175 20 33 59 101 88 150 64 111 99 165 109 165 12 0 66 -86 158 -250
13 -25 30 -52 37 -60 11 -14 36 -57 85 -145 12 -22 43 -76 70 -120 115 -194
145 -244 182 -310 22 -38 62 -104 88 -145 26 -41 64 -106 85 -145 20 -38 52
-92 70 -120 17 -27 49 -80 69 -117 l38 -68 194 0 c107 0 194 1 194 3 0 3 -31
54 -197 327 -32 52 -60 100 -62 105 -2 6 -16 28 -31 50 -42 61 -100 155 -100
162 0 3 -10 20 -23 37 -22 29 -91 140 -224 361 -30 50 -72 115 -94 147 -21 31
-39 58 -39 61 0 6 -62 110 -123 207 -52 82 -89 141 -166 268 l-51 83 0 250 0
251 168 -4 c192 -4 219 -12 290 -93 22 -25 42 -45 46 -45 3 0 6 131 6 290 0
169 -4 290 -9 290 -5 0 -23 -18 -41 -39 -18 -23 -55 -52 -88 -68 -54 -26 -66
-28 -215 -31 l-158 -4 3 154 c3 142 5 157 29 203 15 28 44 63 67 80 22 17 41
36 41 43 1 17 -584 18 -595 1z"/>
<path d="M1362 9397 l-22 -23 0 -1062 0 -1062 75 0 75 0 0 1060 0 1061 -25 24
c-31 32 -74 33 -103 2z"/>
<path d="M6556 9394 l-26 -27 0 -1058 0 -1059 80 0 80 0 0 1045 c0 1082 0
1080 -40 1112 -25 21 -65 15 -94 -13z"/>
<path d="M1600 8235 c0 -531 0 -968 0 -972 0 -5 209 -9 464 -11 l464 -2 51 80
c28 44 51 83 51 85 0 3 26 45 58 95 69 108 135 215 222 359 70 116 127 209
224 363 67 107 137 221 286 463 54 88 107 174 118 190 11 17 45 73 76 125 30
53 67 111 81 130 14 18 25 40 25 47 0 11 -195 13 -1060 13 l-1060 0 0 -965z"/>
<path d="M4300 9187 c0 -8 13 -32 28 -53 27 -38 76 -116 112 -179 23 -39 117
-190 177 -285 42 -65 70 -112 117 -195 6 -11 32 -52 57 -90 26 -39 59 -92 74
-120 15 -27 40 -68 55 -90 16 -22 54 -83 86 -135 170 -281 198 -326 218 -354
13 -17 47 -71 76 -121 29 -49 83 -139 119 -200 l67 -110 467 -3 467 -2 0 975
0 975 -1060 0 c-883 0 -1060 -2 -1060 -13z"/>
<path d="M980 6344 l0 -444 385 0 385 0 -2 443 -3 442 -382 2 -383 1 0 -444z"/>
<path d="M2300 6344 l0 -444 390 0 390 0 0 439 0 439 -26 6 c-14 4 -190 6
-390 6 l-364 -2 0 -444z"/>
<path d="M3648 6783 l-28 -4 0 -440 0 -439 390 0 390 0 -2 443 -3 442 -360 1
c-198 1 -372 -1 -387 -3z"/>
<path d="M4950 6344 l0 -444 384 0 c341 0 385 2 390 16 8 21 6 675 -2 784 l-7
85 -382 2 -383 1 0 -444z"/>
<path d="M6293 6783 l-23 -4 0 -440 0 -439 390 0 390 0 0 439 c0 391 -2 440
-16 445 -17 7 -706 6 -741 -1z"/>
<path d="M980 5475 l0 -325 1190 0 1191 0 87 88 c94 93 158 136 271 182 80 33
213 60 292 60 59 0 196 -23 244 -42 137 -52 268 -137 334 -218 19 -24 41 -49
49 -56 11 -12 205 -14 1210 -12 l1197 3 3 323 2 322 -3035 0 -3035 0 0 -325z"/>
<path d="M980 4735 l0 -325 1123 2 1122 3 3 200 c1 110 7 220 13 245 13 54 49
151 61 165 31 35 41 35 -1157 35 l-1165 0 0 -325z"/>
<path d="M4713 5043 c3 -10 14 -43 25 -73 53 -150 56 -169 60 -367 l4 -193
1124 0 1124 0 -2 323 -3 322 -1169 3 c-1110 2 -1168 1 -1163 -15z"/>
<path d="M980 3991 l0 -319 153 -7 c83 -3 589 -5 1122 -3 l970 3 1 245 c0 135
-2 280 -4 323 l-5 77 -1118 0 -1119 0 0 -319z"/>
<path d="M4800 3990 l0 -320 188 -1 c561 -4 2039 -4 2050 -1 9 3 12 77 12 323
l0 319 -1125 0 -1125 0 0 -320z"/>
<path d="M1875 3320 c-152 -14 -242 -44 -452 -146 -168 -82 -230 -97 -403 -97
-158 0 -241 18 -370 83 -44 22 -82 40 -85 40 -10 0 41 -113 157 -348 44 -89
81 -150 96 -160 19 -13 55 -16 195 -15 249 0 339 21 573 133 78 38 162 75 188
84 82 28 226 40 341 27 113 -12 178 -33 325 -106 219 -108 343 -138 575 -138
238 0 356 29 587 144 170 85 241 103 413 102 176 0 226 -13 410 -103 246 -119
341 -143 585 -143 241 0 316 19 570 138 204 97 249 108 425 108 169 0 226 -13
375 -85 184 -89 227 -106 337 -134 94 -23 129 -27 268 -27 204 -1 228 3 249
47 9 19 31 61 49 93 18 32 55 108 81 168 27 61 58 129 69 152 11 24 18 45 15
48 -3 3 -43 -12 -89 -34 -122 -56 -210 -75 -359 -75 -69 0 -152 6 -185 13 -33
7 -134 48 -225 91 -259 122 -338 142 -580 143 -244 1 -354 -26 -610 -151 -69
-34 -152 -68 -185 -76 -135 -33 -336 -29 -453 10 -26 9 -101 42 -167 74 -241
118 -341 143 -580 143 -240 1 -348 -26 -587 -143 -177 -87 -248 -104 -423
-103 -160 0 -220 15 -375 90 -194 94 -216 102 -322 127 -117 28 -305 39 -433
26z"/>
<path d="M1895 2494 c-166 -18 -257 -47 -455 -142 -139 -66 -243 -102 -299
-102 -21 0 -41 -3 -44 -6 -4 -4 10 -30 31 -58 70 -97 233 -296 241 -296 20 0
103 35 227 95 73 35 166 74 206 85 138 38 328 36 454 -5 27 -9 114 -47 194
-85 80 -38 184 -80 232 -94 225 -65 530 -56 733 20 38 15 117 50 175 79 189
94 314 123 481 111 120 -9 202 -34 369 -114 240 -115 322 -134 565 -135 243
-1 348 25 581 141 194 97 334 125 515 104 116 -14 160 -28 304 -97 135 -64
170 -80 215 -94 34 -12 36 -11 73 31 33 37 118 145 209 265 16 20 28 40 28 44
0 5 -17 9 -38 9 -63 0 -174 37 -299 98 -206 102 -325 136 -514 148 -129 8
-291 -9 -407 -42 -48 -14 -157 -58 -242 -99 -203 -97 -249 -108 -425 -108
-173 0 -219 12 -412 104 -249 120 -338 142 -573 142 -244 1 -334 -20 -580
-137 -203 -97 -249 -109 -425 -109 -176 0 -222 12 -425 109 -229 109 -321 133
-525 139 -71 1 -148 1 -170 -1z"/>
<path d="M1825 1654 c-92 -14 -185 -41 -185 -52 0 -4 35 -38 77 -77 270 -246
281 -255 329 -255 41 0 185 -23 219 -36 11 -3 90 -40 176 -80 86 -40 195 -85
242 -98 188 -55 475 -55 663 -1 49 15 159 59 244 100 194 93 256 109 420 109
164 0 227 -17 420 -109 86 -40 195 -85 242 -99 123 -35 302 -50 453 -37 178
16 273 45 455 136 50 25 115 55 144 65 64 25 192 50 249 50 39 0 51 8 157 99
63 54 149 130 190 168 l75 70 -60 18 c-150 44 -339 55 -515 30 -136 -20 -202
-41 -390 -131 -205 -97 -249 -108 -425 -107 -175 0 -224 12 -414 105 -175 84
-259 112 -395 133 -130 19 -243 19 -371 0 -134 -20 -201 -43 -387 -131 -206
-97 -248 -108 -423 -108 -176 0 -219 11 -424 108 -86 41 -185 84 -221 95 -151
48 -369 62 -545 35z"/>
<path d="M16972 10039 c-262 -34 -503 -180 -609 -369 -205 -366 -122 -849 184
-1079 167 -125 352 -181 598 -181 345 0 606 122 759 354 101 153 131 264 130
476 -1 115 -5 161 -22 225 -85 315 -326 519 -676 571 -98 15 -263 16 -364 3z
m310 -310 c206 -69 348 -273 348 -499 0 -149 -53 -275 -160 -382 -191 -191
-454 -191 -651 -1 -168 161 -208 412 -101 633 51 106 184 217 307 256 64 20
186 17 257 -7z"/>
<path d="M20659 10040 c-238 -28 -420 -109 -565 -254 -66 -66 -89 -98 -127
-176 -59 -121 -77 -188 -84 -326 -23 -430 197 -726 625 -842 91 -24 111 -26
312 -26 203 0 223 2 370 32 85 18 172 37 193 42 l37 11 0 334 c0 184 -3 335
-7 335 -40 2 -178 3 -260 1 l-103 -1 0 -209 c0 -155 -3 -211 -12 -219 -25 -20
-139 -35 -223 -29 -210 15 -402 133 -486 299 -74 146 -77 310 -9 455 41 89
107 155 201 202 114 57 204 75 353 68 132 -5 201 -23 334 -83 41 -19 76 -33
77 -32 10 11 145 270 145 276 0 23 -219 103 -342 127 -98 18 -328 27 -429 15z"/>
<path d="M10230 9230 l0 -790 190 0 190 0 2 323 3 322 25 1 c14 1 141 2 283 3
l258 1 -3 143 -3 142 -282 3 -283 2 0 175 0 175 293 2 c160 0 316 0 345 -1
l52 -3 0 146 0 146 -535 0 -535 0 0 -790z"/>
<path d="M11921 9998 c-5 -13 -25 -70 -46 -128 -20 -58 -44 -116 -51 -130 -8
-14 -41 -99 -73 -190 -33 -91 -69 -187 -81 -213 -12 -27 -41 -104 -65 -172
-24 -67 -53 -143 -64 -169 -12 -25 -48 -119 -80 -209 -32 -90 -64 -172 -70
-183 -10 -17 -61 -151 -61 -160 0 -2 90 -4 200 -4 234 0 199 -25 275 194 l52
151 243 0 243 0 27 -75 c15 -41 31 -84 36 -95 5 -11 20 -54 34 -95 l25 -75
198 -3 c143 -2 197 1 197 9 0 14 -72 211 -105 289 -13 30 -48 123 -79 205 -30
83 -68 184 -85 225 -16 41 -44 116 -62 165 -17 50 -46 126 -65 170 -18 44 -58
148 -89 230 -31 83 -68 180 -82 218 l-26 67 -169 0 c-166 0 -169 0 -177 -22z
m202 -450 c2 -13 30 -118 61 -235 31 -116 56 -216 56 -222 0 -8 -48 -11 -150
-11 -82 0 -150 3 -150 7 0 17 93 304 155 481 7 18 22 7 28 -20z"/>
<path d="M13605 10008 c-13 -43 -46 -128 -59 -154 -9 -17 -32 -78 -52 -135
-19 -57 -64 -176 -98 -264 -35 -88 -76 -196 -91 -240 -15 -44 -36 -96 -45
-115 -10 -19 -43 -105 -73 -190 -30 -86 -64 -176 -75 -200 -17 -38 -75 -190
-96 -253 -5 -16 7 -17 195 -15 l201 3 15 40 c8 22 30 78 48 125 17 47 40 106
49 133 l18 47 241 -2 242 -3 46 -135 c25 -74 53 -152 62 -172 l16 -38 200 0
200 0 -28 78 c-16 43 -35 91 -43 108 -9 16 -26 58 -38 94 -42 123 -92 255
-110 295 -10 22 -39 99 -65 170 -61 174 -67 188 -76 200 -4 6 -33 82 -65 170
-31 88 -64 176 -74 195 -10 20 -34 81 -53 135 -19 55 -38 108 -42 118 -6 15
-25 17 -176 17 -127 0 -171 -3 -174 -12z m205 -510 c12 -46 26 -87 30 -93 4
-5 10 -21 12 -35 3 -14 19 -78 37 -143 17 -65 31 -124 31 -132 0 -13 -24 -15
-144 -15 -80 0 -147 4 -150 8 -2 4 6 41 19 82 13 41 41 134 63 205 39 126 68
205 76 205 2 0 14 -37 26 -82z"/>
<path d="M14810 9229 l0 -790 413 3 c352 4 421 7 472 21 194 56 290 156 317
332 14 89 0 209 -33 285 -25 58 -111 142 -164 161 -19 7 -35 18 -35 24 0 5 18
20 40 33 22 12 58 45 79 72 55 70 75 135 75 250 1 88 -2 101 -32 162 -38 78
-97 135 -182 178 -109 55 -155 60 -572 60 l-378 0 0 -791z m687 495 c43 -31
66 -86 66 -158 0 -84 -23 -129 -77 -156 -36 -17 -62 -20 -169 -20 l-127 0 0
181 0 181 139 -4 c122 -3 143 -6 168 -24z m-36 -635 c86 -22 140 -82 147 -162
5 -66 -10 -116 -46 -152 -49 -49 -85 -58 -232 -59 l-135 -1 -3 185 c-1 101 -1
189 2 196 5 13 210 8 267 -7z"/>
<path d="M18365 10008 c-3 -7 -4 -362 -3 -788 l3 -775 188 -3 187 -2 0 315 0
315 44 0 c44 0 44 0 81 -67 40 -69 72 -131 200 -378 43 -82 85 -158 93 -167
13 -16 37 -18 224 -18 114 0 208 2 208 5 0 3 -26 51 -59 108 -114 199 -228
403 -251 447 -12 25 -29 57 -37 72 l-14 27 73 34 c169 78 237 216 225 454 -10
217 -91 338 -272 405 -58 22 -74 23 -473 26 -334 3 -413 1 -417 -10z m658
-279 c116 -32 163 -202 86 -311 -41 -56 -89 -72 -234 -72 l-130 -1 -3 198 -2
197 122 0 c68 0 140 -5 161 -11z"/>
<path d="M22825 9964 c-4 -31 -3 -386 1 -790 l7 -734 163 0 164 0 0 440 c0
242 3 440 8 440 4 0 45 -84 92 -187 145 -324 299 -654 315 -679 14 -22 23 -24
89 -24 l73 0 96 203 c224 472 337 702 347 705 7 3 10 -144 10 -447 l0 -451
170 0 170 0 0 790 0 790 -192 -2 -191 -3 -49 -110 c-298 -672 -414 -925 -424
-925 -6 0 -33 51 -59 113 -157 368 -375 876 -386 900 l-12 27 -192 0 -193 0
-7 -56z"/>
<path d="M25080 9230 l0 -790 190 0 190 0 0 790 0 790 -190 0 -190 0 0 -790z"/>
<path d="M25960 9230 l0 -791 418 3 c414 4 418 4 515 31 183 49 322 133 422
254 106 129 154 270 162 475 17 418 -198 699 -607 794 -63 14 -142 18 -492 21
l-418 5 0 -792z m801 462 c138 -45 236 -135 290 -267 21 -53 24 -75 24 -190 0
-114 -3 -137 -24 -190 -53 -130 -158 -227 -298 -275 -58 -20 -94 -24 -239 -28
l-171 -4 -7 32 c-8 42 -8 913 0 935 6 15 24 17 183 13 144 -4 188 -9 242 -26z"/>
<path d="M27580 9875 l0 -145 240 0 240 0 0 -645 0 -645 190 0 190 0 0 645 0
645 240 0 240 0 0 145 0 145 -670 0 -670 0 0 -145z"/>
<path d="M29210 9230 l0 -790 185 0 185 0 0 320 0 320 285 0 285 0 0 150 0
150 -285 0 -285 0 0 175 0 175 345 0 345 0 0 145 0 145 -530 0 -530 0 0 -790z"/>
<path d="M30486 9933 c52 -97 98 -185 181 -343 31 -58 63 -118 73 -135 20 -35
145 -273 172 -327 16 -33 18 -68 18 -363 l0 -325 190 0 190 0 0 333 0 332 71
125 c39 69 79 139 89 155 10 17 44 75 75 130 63 110 69 119 145 250 29 50 63
108 75 130 12 22 31 57 43 78 12 21 22 40 22 42 0 3 -85 5 -188 5 l-188 0 -17
-32 c-21 -42 -113 -208 -186 -338 -17 -30 -40 -73 -51 -95 -11 -22 -29 -51
-39 -64 l-18 -23 -25 43 c-24 42 -50 91 -188 354 -35 66 -68 128 -74 138 -10
15 -31 17 -214 17 l-202 0 46 -87z"/>
<path d="M32120 9230 l0 -790 170 0 170 0 0 505 c0 304 4 505 9 505 12 0 34
-29 83 -106 20 -33 125 -189 233 -349 107 -159 237 -352 287 -428 l92 -137
185 2 186 3 3 793 2 792 -175 0 -175 0 0 -512 -1 -513 -34 40 c-19 22 -35 43
-35 46 0 4 -17 33 -38 65 -42 64 -83 127 -156 244 -26 41 -72 113 -102 160
-30 47 -73 114 -96 150 -22 36 -61 97 -86 135 -24 39 -61 96 -81 127 l-36 57
-202 1 -203 0 0 -790z"/>
<path d="M21847 9403 c-4 -3 -7 -84 -7 -180 l0 -173 305 0 305 0 -2 178 -3
177 -296 3 c-162 1 -298 -1 -302 -5z"/>
<path d="M12310 7291 c-199 -42 -331 -124 -489 -301 -45 -50 -97 -162 -127
-275 -57 -212 -21 -453 95 -631 167 -257 495 -401 829 -364 232 25 400 106
549 264 57 60 83 98 123 179 60 126 80 214 80 355 0 153 -16 213 -103 391 -67
136 -241 281 -412 344 -161 59 -374 74 -545 38z m393 -205 c128 -41 261 -143
326 -251 74 -122 105 -323 72 -465 -39 -168 -155 -316 -306 -391 -199 -99
-426 -86 -615 36 -164 105 -259 288 -260 501 -1 234 120 432 325 532 53 25 80
35 170 56 40 10 241 -3 288 -18z"/>
<path d="M10292 6513 l3 -768 115 0 115 0 3 768 2 767 -120 0 -120 0 2 -767z"/>
<path d="M11171 7218 c-28 -35 -85 -103 -126 -153 -139 -166 -230 -275 -290
-349 -33 -40 -84 -100 -112 -133 -29 -34 -53 -65 -53 -69 0 -5 30 -43 68 -85
37 -42 101 -116 143 -165 42 -49 132 -154 200 -233 68 -79 141 -165 162 -190
21 -25 50 -58 63 -73 l24 -28 165 0 c91 0 165 3 165 8 0 4 -43 54 -96 112 -53
58 -131 143 -173 189 -79 87 -134 147 -290 316 -51 55 -101 112 -111 126 l-19
26 41 49 c22 27 67 79 99 115 33 37 69 80 81 95 12 16 25 31 28 34 23 20 400
459 400 465 0 3 -72 5 -159 5 l-159 0 -51 -62z"/>
<path d="M13760 6515 l0 -765 23 -5 c12 -3 65 -5 117 -3 l95 3 3 568 c1 312 6
567 10 567 5 0 17 -28 27 -62 10 -35 22 -70 26 -78 26 -50 98 -213 141 -320
27 -69 55 -134 62 -145 7 -11 32 -67 55 -125 24 -58 61 -143 83 -190 22 -47
49 -110 60 -140 11 -30 27 -61 36 -67 10 -8 48 -13 99 -13 l84 0 21 48 c11 26
39 88 63 137 23 50 64 140 90 200 26 61 51 115 55 120 5 6 36 75 70 155 33 79
65 149 69 155 13 17 149 328 156 358 21 84 25 -14 24 -540 -1 -313 -1 -583 0
-600 l1 -33 115 0 115 0 0 770 0 770 -152 0 -153 -1 -20 -42 c-10 -23 -39 -87
-62 -142 -24 -55 -66 -145 -93 -200 -27 -55 -63 -136 -80 -180 -17 -44 -44
-102 -60 -130 -16 -27 -45 -90 -65 -140 -21 -49 -61 -140 -91 -201 -30 -62
-54 -116 -54 -120 0 -5 -5 -26 -11 -47 -10 -36 -29 -43 -29 -10 0 17 -96 261
-110 278 -4 6 -29 62 -55 125 -26 63 -64 151 -85 195 -21 44 -59 132 -85 195
-26 63 -54 126 -62 140 -8 14 -38 81 -66 150 l-52 125 -158 3 -157 3 0 -766z"/>
<path d="M16002 6513 l3 -768 115 0 115 0 5 570 c3 325 9 557 13 540 5 -16 18
-50 29 -75 11 -25 26 -58 34 -75 21 -49 111 -258 181 -425 36 -85 68 -159 72
-165 5 -5 36 -78 70 -161 34 -82 71 -164 81 -182 l20 -32 90 0 89 0 27 58 c14
31 34 77 44 102 10 25 39 89 65 143 149 317 385 849 385 870 0 9 4 19 10 22 6
4 11 -200 12 -592 l3 -598 118 -3 117 -3 0 771 0 771 -155 -3 -156 -3 -80
-175 c-83 -181 -162 -354 -294 -645 -43 -93 -90 -197 -105 -231 -15 -33 -36
-86 -46 -117 -11 -31 -22 -57 -25 -57 -4 0 -9 15 -13 33 -3 17 -17 55 -30 82
-25 51 -122 273 -226 517 -33 75 -69 156 -81 180 -12 23 -45 99 -74 168 -29
69 -66 153 -81 188 l-29 62 -152 0 -153 0 2 -767z"/>
<path d="M18182 6718 c4 -619 4 -612 69 -745 52 -108 165 -185 346 -239 174
-51 369 -44 551 21 158 57 239 122 293 239 54 115 59 185 59 762 l0 524 -115
0 -114 0 -3 -542 c-3 -539 -3 -543 -26 -599 -62 -154 -170 -224 -362 -236
-212 -13 -369 69 -432 225 -23 57 -23 59 -26 605 l-3 547 -120 0 -120 0 3
-562z"/>
<path d="M19990 7258 c-1 -20 0 -1400 0 -1486 l0 -33 108 3 107 3 5 605 c5
569 6 603 21 575 20 -35 394 -517 777 -1000 l158 -200 107 -3 107 -3 0 781 0
780 -105 0 -105 0 0 -594 c0 -362 -4 -597 -9 -601 -6 -3 -18 14 -29 37 -19 42
-110 160 -644 833 l-254 320 -122 3 c-121 3 -122 2 -122 -20z"/>
<path d="M21927 7273 c-9 -8 -9 -1460 -1 -1502 l7 -31 478 0 479 0 0 100 0
100 -362 2 -363 3 -3 243 -2 242 257 0 c142 0 275 3 296 6 l37 7 0 93 0 94
-279 0 c-154 0 -286 3 -295 6 -14 5 -16 35 -16 225 l0 219 330 2 c182 1 340 2
353 2 28 1 38 44 30 134 l-6 62 -467 0 c-257 0 -470 -3 -473 -7z"/>
</g>
</svg>
