<svg width="406" height="100" viewBox="0 0 406 100" fill="#fafafa" xmlns="http://www.w3.org/2000/svg">
<path d="M58.2062 54.0103C58.2062 60.7915 52.7154 66.2731 45.9562 66.2731C39.1971 66.2731 33.7062 60.7765 33.7062 54.0103C33.7062 47.2441 39.1971 41.7474 45.9562 41.7474C52.7154 41.7474 58.2062 47.2441 58.2062 54.0103Z" />
<path d="M82.7212 73.2037V62.7183C82.7212 61.8221 83.7656 61.3292 84.452 61.9117C88.5254 65.4367 93.7477 67.6324 99.1192 67.6324C102.267 67.6324 103.954 66.3628 103.954 64.2716C103.954 62.6585 102.834 61.8221 100.522 60.8363L92.5391 57.4009C86.3768 54.7422 83.0196 50.1866 83.0196 44.0775C83.0196 34.7572 90.7934 28.439 101.298 28.439C106.774 28.439 111.324 29.8729 115.353 32.681C115.637 32.8752 115.801 33.2038 115.801 33.5473V43.8386C115.801 44.7049 114.801 45.1978 114.115 44.675C110.444 41.9416 105.207 40.0895 101.73 40.0895C98.6566 40.0895 97.1049 41.2097 97.1049 43.032C97.1049 44.5107 98.015 45.4218 100.044 46.1836L108.728 49.4099C114.816 51.6503 118.039 56.3553 118.039 63.0021C118.039 73.3829 110.34 79.6114 98.2239 79.6114C92.2407 79.6114 86.8393 77.5651 83.0644 73.9654C82.8555 73.7712 82.751 73.4875 82.751 73.2037" />
<path d="M151.282 30.5451C151.282 29.9626 151.745 29.4995 152.327 29.4995H183.213C183.795 29.4995 184.258 29.9775 184.258 30.5451V40.2239C184.258 40.8064 183.795 41.2695 183.213 41.2695H164.86C164.666 41.2695 164.502 41.4338 164.502 41.628V48.3643C164.502 48.5585 164.666 48.7228 164.86 48.7228H179.289C179.871 48.7228 180.333 49.1858 180.333 49.7683V59.4472C180.333 60.0297 179.871 60.4927 179.289 60.4927H164.86C164.666 60.4927 164.502 60.657 164.502 60.8512V77.5352C164.502 78.1178 164.04 78.5808 163.458 78.5808H152.327C151.745 78.5808 151.282 78.1178 151.282 77.5352V30.5451Z" />
<path d="M225.499 67.961C228.259 67.961 230.452 66.4524 230.885 63.9281C231.422 60.8213 228.886 58.0133 225.738 58.0133H220.112C219.918 58.0133 219.754 58.1776 219.754 58.3717V67.6174C219.754 67.8116 219.918 67.961 220.112 67.961H225.499ZM224.305 48.2C227.946 48.2 229.423 46.3778 229.423 43.7191C229.423 41.0604 227.946 39.2381 224.305 39.2381H220.097C219.903 39.2381 219.739 39.3875 219.739 39.5817V47.8565C219.739 48.0506 219.903 48.2 220.097 48.2H224.305ZM206.46 72.4568V30.5451C206.46 29.9626 206.922 29.4995 207.504 29.4995H227.677C237.689 29.4995 243.076 33.9207 243.076 41.4188C243.076 45.9297 240.614 50.545 235.257 52.0536C234.914 52.1582 234.914 52.6511 235.257 52.7258C241.3 54.0999 244.389 58.5809 244.389 63.7041C244.389 72.6809 238.361 78.5659 227.588 78.5659H207.489C206.907 78.5659 206.445 78.1028 206.445 77.5203V72.4718L206.46 72.4568Z" />
<path d="M277.737 58.1178L273.171 43.6444C273.066 43.3158 272.604 43.3158 272.499 43.6444L267.934 58.1178C267.859 58.3419 268.038 58.5809 268.262 58.5809H277.393C277.632 58.5809 277.796 58.3568 277.722 58.1178M250.775 69.2306L265.71 30.1567C265.86 29.7535 266.263 29.4846 266.695 29.4846H279.109C279.542 29.4846 279.93 29.7535 280.094 30.1567L295.313 69.9326L298.059 77.132C298.327 77.819 297.805 78.5659 297.074 78.5659H284.943C284.481 78.5659 284.078 78.2671 283.944 77.834L281.721 70.784L281.586 70.3956C281.541 70.2462 281.407 70.1566 281.258 70.1566H264.397C264.248 70.1566 264.114 70.2612 264.069 70.4105L263.801 71.2918L261.727 77.8489C261.592 78.2821 261.189 78.5808 260.727 78.5808H248.731C247.999 78.5808 247.492 77.834 247.746 77.1469L250.775 69.2455V69.2306Z" />
<path d="M304.415 30.5451C304.415 29.9626 304.878 29.4995 305.46 29.4995H316.516C316.874 29.4995 317.202 29.6788 317.396 29.9626L334.585 55.728C334.779 56.0118 335.227 55.8774 335.227 55.5338V30.5451C335.227 29.9626 335.704 29.4995 336.271 29.4995H346.85C347.432 29.4995 347.894 29.9775 347.894 30.5451V77.5054C347.894 78.0879 347.417 78.5509 346.85 78.5509H335.794C335.436 78.5509 335.107 78.3717 334.913 78.0879L317.725 52.3225C317.531 52.0387 317.083 52.1731 317.083 52.5166V77.5054C317.083 78.0879 316.62 78.5509 316.038 78.5509H305.46C304.878 78.5509 304.415 78.0879 304.415 77.5054V30.5451Z" />
<path d="M372.962 57.3262C372.753 57.0723 372.335 57.2067 372.335 57.5502V77.5054C372.335 78.0879 371.872 78.5509 371.29 78.5509H360.159C359.578 78.5509 359.115 78.073 359.115 77.5054V30.5451C359.115 29.9626 359.578 29.4995 360.159 29.4995H371.29C371.872 29.4995 372.335 29.9626 372.335 30.5451V48.8871C372.335 49.2157 372.738 49.3651 372.947 49.1111L381.989 38.6705L389.658 29.8431C389.852 29.619 390.15 29.4846 390.449 29.4846H404.385C405.295 29.4846 405.772 30.575 405.161 31.2471L397.596 39.507L385.823 52.3225C385.704 52.4569 385.704 52.6511 385.823 52.7855L401.386 71.5457C402.863 73.2933 404.295 75.0707 405.758 76.8332C406.325 77.5203 405.832 78.5509 404.952 78.5509H390.27C389.941 78.5509 389.643 78.4016 389.449 78.1476L372.947 57.3262H372.962Z" />
<path d="M117.263 91.6054C117.263 92.2029 117.755 92.6808 118.352 92.6509C122.411 92.4717 126.007 92.0236 129.155 90.3209C132.572 88.4687 135.243 86.4523 137.167 83.002C139.092 79.5517 140.062 75.3993 140.062 70.53V30.5451C140.062 29.9626 139.599 29.4995 139.018 29.4995H127.887C127.305 29.4995 126.842 29.9626 126.842 30.5451V70.306C126.842 74.8765 126.215 76.8183 123.947 78.6405C122.843 79.5218 120.889 80.6868 118.292 80.8213C117.725 80.8511 117.278 81.2992 117.278 81.8668V91.6054H117.263Z" />
<path d="M45.9562 22.1657C45.9562 22.808 45.4489 23.3308 44.8073 23.3606C28.4093 23.9581 15.3088 37.4607 15.3088 54.0103C15.3088 70.5599 28.4093 84.0625 44.8073 84.6599C45.4489 84.6898 45.9562 85.2126 45.9562 85.8549V98.8048C45.9562 99.4919 45.3892 100.015 44.7178 99.9997C19.9044 99.3425 0 78.999 0 54.0103C0 29.0216 19.8895 8.67809 44.7029 8.02089C45.3892 8.00595 45.9413 8.54366 45.9413 9.2158V22.1657H45.9562Z" />
<path d="M235.302 7.6176C236.57 7.00521 237.331 5.8551 237.331 4.19715C237.331 1.67288 235.555 0.164301 232.914 0.164301H227.797V12.0537H231.019V8.12544H232.139L234.227 12.0537H237.734L235.317 7.6176H235.302ZM232.139 5.61611H231.005V2.74831H232.139C233.273 2.74831 233.959 3.18147 233.959 4.19715C233.959 5.21283 233.287 5.61611 232.139 5.61611Z" />
<path d="M235.302 7.6176C236.57 7.00521 237.331 5.8551 237.331 4.19715C237.331 1.67288 235.555 0.164301 232.914 0.164301H227.797V12.0537H231.019V8.12544H232.139L234.227 12.0537H237.734L235.317 7.6176H235.302ZM232.139 5.61611H231.005V2.74831H232.139C233.273 2.74831 233.959 3.18147 233.959 4.19715C233.959 5.21283 233.287 5.61611 232.139 5.61611Z" />
<path d="M219.948 0C216.695 0 214.174 2.13592 214.174 6.10902C214.174 10.0821 216.695 12.2031 219.948 12.2031C223.201 12.2031 225.723 10.0672 225.723 6.10902C225.723 2.15085 223.186 0 219.948 0ZM219.948 9.39504C218.352 9.39504 217.486 8.24493 217.486 6.10902C217.486 3.9731 218.352 2.80806 219.948 2.80806C221.545 2.80806 222.41 3.9731 222.41 6.10902C222.41 8.24493 221.56 9.39504 219.948 9.39504Z" />
<path d="M219.948 0C216.695 0 214.174 2.13592 214.174 6.10902C214.174 10.0821 216.695 12.2031 219.948 12.2031C223.201 12.2031 225.723 10.0672 225.723 6.10902C225.723 2.15085 223.186 0 219.948 0ZM219.948 9.39504C218.352 9.39504 217.486 8.24493 217.486 6.10902C217.486 3.9731 218.352 2.80806 219.948 2.80806C221.545 2.80806 222.41 3.9731 222.41 6.10902C222.41 8.24493 221.56 9.39504 219.948 9.39504Z" />
<path d="M204.102 12.0537H207.325V7.97608H211.951V5.43688H207.325V2.76325H212.458V0.164301H204.102V12.0537Z" />
<path d="M204.102 12.0537H207.325V7.97608H211.951V5.43688H207.325V2.76325H212.458V0.164301H204.102V12.0537Z" />
<path d="M187.048 12.0537H190.36V7.70722C190.36 6.93052 190.271 5.61611 190.181 4.2569C190.748 5.58624 191.196 6.49737 191.942 7.70722L194.583 12.0537H198.089V0.164301H194.777V4.52575C194.777 5.407 194.881 6.85584 194.956 8.0657C194.463 6.72141 193.986 5.81029 193.389 4.83942L190.554 0.179238H187.048V12.0687V12.0537Z" />
<path d="M187.048 12.0537H190.36V7.70722C190.36 6.93052 190.271 5.61611 190.181 4.2569C190.748 5.58624 191.196 6.49737 191.942 7.70722L194.583 12.0537H198.089V0.164301H194.777V4.52575C194.777 5.407 194.881 6.85584 194.956 8.0657C194.463 6.72141 193.986 5.81029 193.389 4.83942L190.554 0.179238H187.048V12.0687V12.0537Z" />
<path d="M176.305 12.0537H184.839V9.45479H179.528V7.30394H184.422V4.77967H179.528V2.76325H184.869V0.164301H176.305V12.0537Z" />
<path d="M176.305 12.0537H184.839V9.45479H179.528V7.30394H184.422V4.77967H179.528V2.76325H184.869V0.164301H176.305V12.0537Z" />
<path d="M163.771 0.164301V12.0537H168.352C171.963 12.0537 174.246 9.8282 174.246 6.10902C174.246 2.38984 171.963 0.164301 168.307 0.164301H163.771ZM168.203 9.30542H166.979V2.89768H168.113C169.978 2.89768 170.993 3.61463 170.993 6.10902C170.993 8.60341 169.978 9.30542 168.203 9.30542Z" />
<path d="M163.771 0.164301V12.0537H168.352C171.963 12.0537 174.246 9.8282 174.246 6.10902C174.246 2.38984 171.963 0.164301 168.307 0.164301H163.771ZM168.203 9.30542H166.979V2.89768H168.113C169.978 2.89768 170.993 3.61463 170.993 6.10902C170.993 8.60341 169.978 9.30542 168.203 9.30542Z" />
<path d="M150.447 12.0537H153.759V7.70722C153.759 6.93052 153.67 5.61611 153.58 4.2569C154.147 5.58624 154.595 6.49737 155.341 7.70722L157.982 12.0537H161.488V0.164301H158.176V4.52575C158.176 5.407 158.28 6.85584 158.355 8.0657C157.863 6.72141 157.385 5.81029 156.788 4.83942L153.953 0.179238H150.447V12.0687V12.0537Z" />
<path d="M150.447 12.0537H153.759V7.70722C153.759 6.93052 153.67 5.61611 153.58 4.2569C154.147 5.58624 154.595 6.49737 155.341 7.70722L157.982 12.0537H161.488V0.164301H158.176V4.52575C158.176 5.407 158.28 6.85584 158.355 8.0657C157.863 6.72141 157.385 5.81029 156.788 4.83942L153.953 0.179238H150.447V12.0687V12.0537Z" />
<path d="M142.613 0C139.376 0 136.839 2.13592 136.839 6.10902C136.839 10.0821 139.361 12.2031 142.613 12.2031C145.866 12.2031 148.388 10.0672 148.388 6.10902C148.388 2.15085 145.851 0 142.613 0ZM142.613 9.39504C141.017 9.39504 140.152 8.24493 140.152 6.10902C140.152 3.9731 141.017 2.80806 142.613 2.80806C144.21 2.80806 145.075 3.9731 145.075 6.10902C145.075 8.24493 144.225 9.39504 142.613 9.39504Z" />
<path d="M142.613 0C139.376 0 136.839 2.13592 136.839 6.10902C136.839 10.0821 139.361 12.2031 142.613 12.2031C145.866 12.2031 148.388 10.0672 148.388 6.10902C148.388 2.15085 145.851 0 142.613 0ZM142.613 9.39504C141.017 9.39504 140.152 8.24493 140.152 6.10902C140.152 3.9731 141.017 2.80806 142.613 2.80806C144.21 2.80806 145.075 3.9731 145.075 6.10902C145.075 8.24493 144.225 9.39504 142.613 9.39504Z" />
<path d="M126.768 12.0537H129.99V7.97608H134.601V5.43688H129.99V2.76325H135.123V0.164301H126.768V12.0537Z" />
<path d="M126.768 12.0537H129.99V7.97608H134.601V5.43688H129.99V2.76325H135.123V0.164301H126.768V12.0537Z" />
</svg>
