<?xml version="1.0" standalone="no"?>
<!DOCTYPE svg PUBLIC "-//W3C//DTD SVG 20010904//EN"
 "http://www.w3.org/TR/2001/REC-SVG-20010904/DTD/svg10.dtd">
<svg version="1.0" xmlns="http://www.w3.org/2000/svg"
 width="1148.000000pt" height="400.000000pt" viewBox="0 0 1148.000000 400.000000"
 preserveAspectRatio="xMidYMid meet">

<g transform="translate(0.000000,400.000000) scale(0.100000,-0.100000)"
fill="#fafafa" stroke="none">
<path d="M9320 3950 c-689 -60 -1283 -461 -1595 -1075 -111 -219 -173 -438
-201 -714 -15 -153 -15 -176 1 -330 39 -392 157 -703 380 -1006 69 -93 242
-274 335 -350 481 -391 1130 -530 1741 -371 544 142 1015 532 1262 1047 45 92
59 128 96 239 77 233 107 479 91 737 -46 700 -468 1325 -1101 1631 -120 59
-175 80 -315 121 -205 60 -488 89 -694 71z m510 -165 c861 -179 1467 -911
1473 -1780 2 -279 -59 -545 -183 -800 -445 -919 -1551 -1295 -2465 -838 -428
214 -746 579 -907 1038 -70 200 -98 369 -98 590 0 489 186 940 530 1285 255
256 570 427 920 500 163 34 221 39 420 35 149 -3 209 -9 310 -30z"/>
<path d="M9700 3313 c-216 -22 -425 -108 -618 -254 -70 -52 -97 -67 -106 -59
-7 5 -11 21 -8 35 3 18 -1 26 -14 31 -11 3 -27 10 -37 15 -27 15 -37 2 -34
-44 2 -33 6 -42 24 -47 34 -8 112 -118 113 -157 0 -25 4 -33 18 -33 10 0 23
-5 29 -11 21 -21 42 -3 40 33 -3 42 -13 58 -37 58 -15 0 -30 18 -30 36 0 9
168 113 225 139 150 69 265 95 419 95 136 0 236 -23 346 -78 73 -37 76 -38
110 -23 22 9 68 15 126 15 l91 1 -19 25 c-56 71 -227 166 -358 199 -76 19
-216 31 -280 24z"/>
<path d="M8510 3020 c-2 -47 -3 -131 -4 -187 l-1 -102 -40 80 c-22 44 -53 95
-68 114 -28 35 -84 71 -94 61 -4 -3 2 -34 11 -69 14 -53 29 -77 87 -143 55
-63 74 -92 89 -143 11 -35 18 -66 16 -68 -2 -2 -18 13 -35 35 -35 43 -97 82
-130 82 -11 0 -21 -2 -21 -4 0 -2 18 -36 41 -75 46 -80 76 -108 125 -117 34
-6 34 -7 34 -61 l0 -55 -39 34 c-22 18 -58 43 -80 56 l-41 23 0 -29 c0 -50 50
-114 133 -168 36 -24 37 -25 37 -89 0 -37 -4 -65 -10 -65 -5 0 -10 5 -10 11 0
35 -126 146 -144 128 -8 -8 51 -167 74 -199 12 -17 35 -37 51 -45 34 -18 38
-49 9 -65 -11 -6 -26 -24 -35 -39 l-14 -29 38 5 c23 3 41 1 45 -6 4 -6 0 -11
-9 -11 -49 0 -98 -56 -87 -102 3 -16 5 -16 28 -2 13 9 31 13 40 10 13 -5 11
-11 -15 -35 -24 -23 -31 -37 -31 -68 0 -41 25 -87 41 -77 5 3 7 9 4 14 -8 13
32 50 54 50 35 0 65 -34 65 -74 0 -28 4 -36 16 -34 8 2 20 13 25 26 6 14 16
21 26 19 26 -7 47 11 54 44 4 19 16 34 32 40 33 12 169 11 218 -2 30 -9 40 -8
43 1 11 33 82 95 139 122 82 38 94 60 57 99 -28 29 -28 29 -48 10 -35 -33 -73
-41 -184 -41 l-107 0 50 45 50 44 -39 1 c-29 0 -47 -7 -73 -30 -68 -60 -189
-105 -226 -84 -29 16 -77 123 -77 170 0 32 4 44 15 44 21 0 93 72 99 100 3 14
14 60 24 103 10 42 17 77 15 77 -2 0 -16 -6 -31 -14 -37 -19 -65 -52 -94 -110
l-25 -49 -7 87 -7 88 39 51 c22 29 44 61 49 72 12 24 14 125 3 125 -14 0 -58
-59 -71 -95 -7 -19 -16 -35 -20 -35 -4 0 -11 25 -14 55 -9 65 7 161 41 258 13
38 24 87 24 111 0 47 -33 122 -78 176 l-29 34 -3 -84z"/>
<path d="M9581 3059 c-14 -46 -19 -67 -28 -115 -5 -30 -3 -32 48 -48 70 -23
189 -78 251 -116 26 -16 50 -30 52 -30 13 0 105 145 97 153 -10 10 -51 -8 -51
-23 0 -6 -13 -10 -28 -10 -15 0 -33 -5 -38 -10 -16 -16 -44 -1 -44 23 0 11 -7
29 -16 39 -14 14 -15 20 -4 33 20 24 -2 65 -31 58 -12 -3 -24 -14 -26 -25 -3
-10 -13 -18 -22 -18 -9 0 -29 -7 -44 -15 -35 -18 -54 -11 -60 23 -11 56 -26
105 -35 114 -5 5 -14 -8 -21 -33z"/>
<path d="M8825 2960 c-3 -5 -17 -10 -31 -10 -42 0 -61 -17 -68 -60 -5 -31 -12
-43 -31 -50 -18 -7 -25 -17 -25 -37 -1 -16 -7 -39 -14 -52 -32 -57 26 -116 84
-86 39 20 46 35 18 35 -14 0 -33 7 -44 15 -17 13 -15 14 26 9 33 -4 50 -1 65
11 15 12 16 18 7 22 -17 7 -74 55 -70 59 2 2 22 -3 43 -11 22 -8 48 -14 57
-15 16 0 15 3 -3 35 -25 42 -22 43 27 10 20 -14 41 -25 45 -25 5 0 9 24 9 53
0 42 -5 60 -23 80 -23 27 -60 36 -72 17z"/>
<path d="M9492 2855 c-21 -9 -38 -26 -45 -45 -6 -16 -16 -30 -22 -30 -24 0
-85 -52 -85 -71 0 -16 4 -19 18 -14 9 3 31 9 47 12 33 6 30 2 -27 -41 -41 -29
-50 -65 -22 -88 9 -7 26 -23 39 -35 29 -29 35 -29 35 2 0 14 6 25 13 25 8 0
19 11 25 25 13 29 52 41 81 25 41 -21 21 -143 -28 -170 -11 -5 -36 -10 -55
-10 -29 0 -36 4 -36 20 0 11 -4 20 -9 20 -5 0 -13 -9 -16 -20 -8 -26 -20 -25
-32 3 -10 21 -11 21 -29 -16 -18 -37 -18 -40 -1 -69 17 -29 17 -30 0 -23 -10
4 -46 15 -81 25 -34 10 -71 25 -81 34 -24 22 -31 20 -31 -9 0 -27 51 -91 81
-100 24 -8 25 -27 2 -24 -32 5 -117 -13 -154 -32 -23 -11 -52 -41 -76 -76 -39
-60 -99 -103 -142 -103 -20 0 -22 -2 -11 -16 32 -38 119 -54 188 -35 20 6 32
6 32 0 0 -16 -27 -64 -44 -78 -28 -23 -18 -28 40 -20 61 8 74 16 120 67 l32
35 17 -34 c20 -39 44 -69 57 -69 4 0 8 17 8 38 0 30 7 45 35 72 l35 34 16 -22
c48 -69 97 -83 108 -31 4 20 28 53 68 92 l62 60 15 -24 c41 -66 143 -134 165
-111 3 2 -5 20 -16 40 -11 20 -22 60 -25 90 -5 45 -2 58 17 83 l22 31 -26 27
c-34 35 -60 121 -38 121 5 0 14 -11 19 -23 11 -24 96 -87 117 -87 7 0 10 17 8
45 -2 26 5 79 17 123 18 70 19 82 7 140 -22 100 -64 133 -273 216 -106 41 -97
40 -141 21z m93 -107 c14 -6 25 -14 25 -18 0 -16 -30 -31 -57 -28 -22 2 -29 9
-31 31 -3 21 1 27 17 27 11 0 32 -5 46 -12z"/>
<path d="M8960 2844 c0 -12 -5 -35 -11 -53 -9 -25 -17 -31 -39 -31 -35 0 -75
-32 -100 -80 -12 -24 -30 -42 -50 -48 -16 -6 -30 -16 -30 -22 0 -6 29 -40 64
-75 43 -42 68 -76 76 -101 8 -31 28 -220 30 -292 0 -24 37 6 69 58 32 52 91
97 142 107 16 3 28 11 26 17 -3 6 -34 50 -69 97 -36 47 -78 113 -93 145 -26
56 -27 61 -15 104 18 61 24 155 11 177 -10 17 -10 17 -11 -3z"/>
<path d="M10234 2792 c-89 -37 -143 -91 -177 -180 -40 -102 -5 -247 89 -366
30 -39 84 -107 119 -150 35 -43 79 -106 97 -140 29 -54 32 -70 33 -142 0 -73
-3 -84 -28 -117 -37 -49 -79 -60 -157 -41 -100 23 -200 76 -260 139 -37 38
-83 71 -140 100 -94 48 -136 86 -172 159 l-25 48 -37 -43 c-20 -24 -39 -55
-42 -69 -11 -48 -13 -50 -56 -50 -44 0 -108 30 -108 51 0 8 -5 7 -16 -2 -16
-13 -16 -60 1 -101 6 -14 2 -18 -18 -18 -16 0 -33 -11 -51 -34 -14 -19 -48
-44 -76 -57 -27 -12 -50 -26 -50 -31 0 -14 73 -89 101 -104 40 -20 71 -18 136
13 47 22 72 27 135 27 68 -1 81 -4 113 -28 20 -16 41 -40 47 -54 6 -15 14 -91
19 -168 8 -157 25 -209 90 -272 39 -38 58 -41 52 -8 -10 52 57 44 118 -13 38
-37 39 -40 39 -102 0 -95 -48 -167 -121 -184 -24 -6 -28 -3 -39 29 -19 59 -79
56 -138 -7 l-23 -24 28 -6 c15 -3 37 -13 48 -21 20 -15 20 -15 -3 -31 -60 -43
-77 -89 -51 -136 9 -18 12 -19 22 -6 7 8 26 18 43 22 30 6 32 4 37 -33 8 -44
40 -78 87 -92 37 -11 50 -6 32 12 -41 41 32 148 101 148 37 0 52 -12 59 -45 3
-17 7 -15 32 18 28 37 30 43 28 129 -2 87 0 94 35 160 35 66 72 108 98 108 6
0 20 -9 30 -20 10 -11 21 -20 25 -20 12 0 4 104 -9 128 -12 23 -12 24 18 17
35 -8 38 0 17 48 -22 52 -48 68 -126 78 -39 5 -85 17 -101 26 -28 17 -79 103
-79 135 0 30 -50 116 -90 156 -23 23 -36 42 -29 42 7 0 52 -22 99 -49 106 -60
165 -81 231 -81 138 0 229 104 229 263 0 68 -4 88 -34 150 -41 89 -96 163
-214 289 -100 107 -124 145 -142 231 -20 101 19 192 103 241 88 51 202 53 253
5 23 -21 23 -23 7 -41 -12 -13 -19 -41 -21 -87 -4 -73 17 -135 63 -185 35 -38
46 -32 29 16 -14 41 -11 78 6 78 5 0 19 -14 32 -30 l22 -30 13 22 c7 13 12 52
13 88 0 70 -21 125 -54 144 -11 6 -33 26 -49 44 -48 53 -95 72 -179 71 -45 0
-89 -7 -114 -17z"/>
<path d="M9432 1615 c-63 -29 -166 -125 -228 -211 -41 -57 -97 -164 -90 -171
2 -2 22 4 45 13 23 9 44 14 47 12 2 -3 7 -27 10 -54 11 -91 -25 -171 -104
-231 -69 -52 -86 -53 -132 -3 -35 38 -42 41 -72 35 -18 -4 -49 -19 -68 -33
l-35 -27 42 -7 c45 -7 83 -24 83 -36 0 -5 -16 -14 -35 -21 -39 -14 -80 -61
-91 -105 -6 -26 -5 -28 12 -21 58 25 126 11 117 -24 -8 -30 25 -88 60 -105
l32 -15 3 54 c2 41 9 59 28 78 51 51 129 43 141 -15 7 -37 17 -35 43 7 15 24
21 47 19 74 -3 38 0 42 58 89 85 68 118 80 154 60 26 -15 27 -15 33 5 15 58 6
146 -24 220 -16 42 -30 87 -30 101 0 32 30 53 90 62 55 9 94 45 109 102 17 61
4 121 -35 160 -27 27 -39 32 -80 32 -31 0 -69 -9 -102 -25z"/>
<path d="M8535 1610 c-4 -12 -4 -48 0 -79 l7 -56 -44 41 c-46 45 -77 64 -103
64 -12 0 -8 -14 21 -67 47 -87 49 -90 106 -119 34 -17 50 -32 54 -52 21 -86
115 -232 150 -232 7 0 21 12 30 26 16 24 16 26 -4 52 -12 15 -38 53 -57 84
l-36 58 34 30 c28 24 38 44 52 99 9 38 15 79 13 90 -3 21 -4 21 -27 5 -31 -22
-81 -102 -81 -131 0 -70 -35 18 -55 137 -9 55 -14 65 -32 68 -15 2 -23 -4 -28
-18z"/>
<path d="M2642 3041 l4 -170 -25 26 c-42 42 -98 63 -174 63 -80 0 -122 -15
-169 -62 -60 -60 -80 -118 -86 -241 -7 -153 13 -222 82 -293 54 -55 97 -74
171 -74 65 0 115 19 159 60 l41 39 20 -42 20 -42 68 -3 67 -3 0 456 0 455 -91
0 -92 0 5 -169z m-37 -251 c32 -30 45 -77 45 -165 0 -136 -32 -186 -122 -192
-92 -7 -138 39 -153 154 -11 77 11 161 51 201 33 33 37 34 94 30 45 -3 66 -10
85 -28z"/>
<path d="M4675 3198 c-52 -28 -62 -92 -20 -133 34 -34 112 -36 142 -2 30 33
34 54 18 93 -20 49 -90 70 -140 42z"/>
<path d="M5834 3198 c-24 -11 -44 -48 -44 -79 0 -11 13 -34 29 -50 68 -67 189
-12 167 76 -11 43 -41 65 -88 64 -24 0 -53 -5 -64 -11z"/>
<path d="M30 2725 l0 -425 100 0 100 0 0 170 0 170 165 0 165 0 0 70 0 70
-162 2 -163 3 0 110 0 110 173 3 172 2 0 70 0 70 -275 0 -275 0 0 -425z"/>
<path d="M5310 2959 c-164 -28 -244 -131 -249 -324 -4 -163 48 -268 159 -319
67 -30 236 -30 303 1 l47 22 0 70 c0 39 -2 71 -4 71 -2 0 -23 -9 -47 -19 -61
-27 -139 -36 -183 -21 -20 6 -48 27 -63 47 -23 30 -27 47 -31 119 -5 100 13
162 58 194 35 25 127 27 190 5 24 -8 44 -14 45 -13 9 14 45 114 45 124 0 7
-15 17 -32 23 -34 11 -155 32 -173 30 -5 -1 -35 -5 -65 -10z"/>
<path d="M6383 2955 c-35 -8 -76 -21 -92 -30 l-30 -15 27 -55 c22 -44 31 -54
47 -50 11 3 45 12 75 20 106 29 172 16 195 -38 27 -65 20 -71 -96 -80 -234
-17 -303 -66 -303 -212 1 -81 18 -122 67 -159 86 -66 258 -48 332 34 25 28 30
26 48 -20 l15 -40 61 0 61 0 0 243 0 243 -27 55 c-24 46 -36 58 -87 83 -50 25
-73 30 -145 33 -48 1 -113 -4 -148 -12z m231 -397 c-2 -85 -52 -132 -142 -132
-45 0 -58 4 -73 23 -30 37 -24 79 16 117 38 36 61 42 145 40 l54 -1 0 -47z"/>
<path d="M1059 2940 c-19 -10 -52 -37 -72 -59 -38 -42 -43 -42 -51 2 -12 67
-12 67 -87 67 l-69 0 0 -325 0 -325 89 0 89 0 4 193 c3 172 5 196 23 227 29
48 76 73 154 79 l66 6 3 78 3 77 -58 0 c-37 -1 -71 -8 -94 -20z"/>
<path d="M1545 2948 c-65 -23 -123 -77 -157 -146 -31 -62 -33 -73 -33 -172 0
-146 34 -224 126 -284 84 -56 246 -71 382 -36 57 15 69 36 60 108 l-5 49 -47
-18 c-63 -24 -176 -34 -227 -20 -42 11 -88 52 -97 86 -3 11 -8 30 -12 43 l-6
22 215 0 216 0 0 89 c0 81 -3 95 -33 152 -34 67 -82 108 -148 128 -46 14 -194
13 -234 -1z m180 -122 c36 -16 65 -59 65 -101 l0 -25 -125 0 c-125 0 -125 0
-125 24 0 30 39 87 70 103 33 17 73 16 115 -1z"/>
<path d="M3298 2950 c-80 -20 -152 -84 -190 -165 -20 -43 -23 -66 -23 -165 0
-106 2 -119 27 -165 32 -59 52 -83 93 -112 75 -52 206 -70 337 -46 104 19 108
22 108 99 0 55 -3 65 -15 60 -116 -44 -240 -53 -295 -21 -38 23 -64 62 -75
113 l-7 32 217 0 217 0 -4 93 c-6 135 -45 204 -143 254 -55 29 -180 40 -247
23z m170 -136 c26 -18 52 -64 52 -92 0 -17 -10 -20 -77 -26 -42 -3 -98 -6
-125 -6 -45 0 -48 2 -48 25 0 34 24 80 52 99 13 10 43 16 73 16 30 0 60 -6 73
-16z"/>
<path d="M4250 2944 c-19 -8 -53 -35 -77 -60 l-42 -46 -16 57 -17 56 -66 -3
c-56 -3 -67 -6 -66 -20 0 -10 1 -155 2 -323 l2 -305 89 0 90 0 3 204 c3 202 3
205 28 232 36 39 97 64 158 64 l52 0 2 65 c0 36 1 71 2 78 2 18 -102 20 -144
1z"/>
<path d="M4640 2625 l0 -325 90 0 90 0 0 309 c0 170 -3 316 -6 325 -5 13 -23
16 -90 16 l-84 0 0 -325z"/>
<path d="M5802 2635 c3 -267 5 -317 18 -325 8 -5 48 -10 88 -10 l72 0 0 325 0
325 -91 0 -90 0 3 -315z"/>
<path d="M30 1460 l0 -430 105 0 105 0 0 155 0 155 40 25 c23 14 45 23 49 21
5 -3 63 -84 131 -181 l122 -175 114 0 c90 0 113 3 108 13 -5 6 -79 112 -166
235 -87 123 -158 228 -158 233 0 5 66 84 148 176 81 93 153 176 161 186 13 16
7 17 -97 17 l-111 0 -128 -143 c-70 -79 -147 -165 -170 -192 l-42 -50 -1 193
0 192 -105 0 -105 0 0 -430z"/>
<path d="M1179 1690 c-108 -19 -191 -87 -228 -185 -27 -70 -26 -221 0 -291 35
-94 121 -168 219 -189 54 -12 150 -8 203 9 137 42 208 149 210 316 1 101 -19
168 -69 234 -64 84 -207 130 -335 106z m150 -155 c46 -23 65 -77 65 -180 0
-142 -35 -190 -140 -190 -55 0 -67 3 -89 26 -53 52 -69 213 -29 290 33 65 124
90 193 54z"/>
<path d="M2107 1686 c-46 -13 -79 -34 -105 -68 -20 -27 -29 -22 -41 27 l-11
45 -70 0 -70 0 0 -330 0 -330 93 0 92 0 0 198 c0 270 21 322 130 322 99 0 105
-18 105 -301 l0 -219 94 0 95 0 3 218 c3 188 5 222 21 245 26 40 61 59 112 59
94 0 105 -31 105 -307 l0 -215 90 0 90 0 0 255 c0 207 -3 263 -15 292 -35 83
-95 117 -210 117 -89 0 -127 -14 -183 -67 l-32 -31 -30 32 c-16 18 -45 39 -63
47 -51 21 -145 27 -200 11z"/>
<path d="M3445 1691 c-44 -11 -76 -29 -112 -64 l-32 -30 -9 24 c-5 13 -11 33
-13 44 -4 18 -12 20 -74 20 l-70 0 -3 -327 -2 -328 94 0 95 0 3 218 c3 235 7
251 62 287 31 21 99 22 129 2 39 -25 47 -78 47 -301 l0 -206 89 0 89 0 4 213
c3 179 6 217 21 244 24 46 58 65 113 65 37 0 52 -6 73 -26 l26 -26 3 -235 3
-235 96 0 95 0 -4 253 c-3 212 -7 258 -21 292 -37 82 -96 118 -202 119 -86 1
-136 -16 -187 -62 l-40 -36 -24 31 c-13 17 -42 38 -65 47 -48 20 -142 28 -184
17z"/>
<path d="M5659 1690 c-57 -10 -85 -23 -125 -62 l-32 -30 -17 46 -18 46 -63 0
c-57 0 -63 -2 -66 -22 -2 -13 -2 -161 0 -330 l3 -308 89 0 90 0 1 198 c1 215
2 235 24 269 54 82 191 78 221 -7 8 -23 13 -106 13 -247 l1 -213 90 0 90 0 0
240 c0 218 -2 244 -21 295 -21 56 -58 94 -109 113 -40 15 -121 20 -171 12z"/>
<path d="M6440 1690 c-154 -19 -240 -127 -248 -310 -8 -192 59 -301 213 -345
70 -21 245 -16 310 8 l40 15 3 67 c3 61 1 67 -15 62 -140 -44 -247 -50 -300
-17 -40 24 -62 57 -70 104 l-6 36 217 0 216 0 0 81 c0 211 -138 326 -360 299z
m131 -137 c30 -18 59 -67 59 -102 0 -20 -5 -21 -131 -21 -115 0 -130 2 -125
16 3 9 6 25 6 36 0 11 15 35 34 54 29 29 41 34 81 34 26 0 60 -8 76 -17z"/>
<path d="M4420 1444 c0 -277 5 -309 60 -364 42 -42 95 -60 176 -60 80 0 125
14 179 55 l45 35 9 -22 c5 -13 12 -31 15 -40 4 -15 17 -18 76 -18 l70 0 -2
328 -3 327 -86 3 -87 3 -5 -203 c-6 -282 -22 -319 -140 -326 -56 -3 -64 -1
-85 21 -35 38 -42 83 -42 305 l0 202 -90 0 -90 0 0 -246z"/>
</g>
</svg>
