<?xml version="1.0" standalone="no"?>
<!DOCTYPE svg PUBLIC "-//W3C//DTD SVG 20010904//EN"
 "http://www.w3.org/TR/2001/REC-SVG-20010904/DTD/svg10.dtd">
<svg version="1.0" xmlns="http://www.w3.org/2000/svg"
 width="4272.000000pt" height="3024.000000pt" viewBox="0 0 4272.000000 3024.000000"
 preserveAspectRatio="xMidYMid meet">

<g transform="translate(0.000000,3024.000000) scale(0.100000,-0.100000)"
fill="#fafafa" stroke="none">
<path d="M2373 30229 c-6 -6 -54 -13 -106 -15 -52 -2 -114 -8 -138 -13 -24 -6
-69 -13 -99 -16 -63 -6 -91 -12 -285 -56 -198 -45 -331 -91 -475 -166 -290
-150 -529 -381 -692 -668 -62 -109 -75 -137 -143 -300 -25 -60 -50 -119 -54
-130 -28 -65 -68 -203 -95 -325 -7 -30 -18 -71 -24 -90 -11 -34 -44 -185 -76
-345 -9 -44 -25 -147 -36 -230 -51 -385 -58 -443 -92 -800 -11 -115 -24 -241
-28 -280 -24 -189 -32 -479 -25 -900 3 -242 6 -451 5 -465 0 -14 4 -70 9 -125
17 -163 30 -338 41 -550 10 -182 33 -479 60 -756 16 -166 54 -435 69 -484 6
-16 13 -50 16 -75 13 -85 136 -565 166 -650 78 -214 126 -320 207 -450 29 -47
55 -92 59 -100 23 -52 188 -249 273 -326 101 -91 251 -182 389 -235 31 -12 79
-30 106 -41 191 -72 488 -131 840 -165 169 -16 293 -18 1100 -18 1117 0 1257
9 1670 105 232 54 398 120 544 218 63 42 81 56 165 125 178 146 381 434 496
702 12 28 28 64 36 80 8 17 18 44 23 60 5 17 24 68 41 115 18 47 36 103 40
125 5 22 25 103 45 180 105 408 128 589 207 1585 17 203 16 1480 -1 1840 -13
294 -43 745 -65 975 -8 83 -20 202 -26 265 -15 162 -45 338 -91 530 -43 184
-106 423 -120 458 -5 12 -13 32 -19 45 -5 12 -30 73 -55 136 -131 322 -335
619 -531 771 -31 25 -74 60 -94 78 -21 17 -41 32 -45 32 -5 0 -16 6 -24 14
-22 19 -173 98 -250 131 -178 75 -665 183 -848 188 -29 1 -58 8 -64 15 -18 17
-1989 18 -2006 1z m1272 -1628 c296 -39 503 -124 625 -257 41 -46 50 -62 50
-93 0 -47 -55 -162 -123 -256 -82 -115 -152 -216 -157 -229 -5 -11 -40 -66
-146 -229 -29 -45 -73 -113 -97 -152 -25 -38 -97 -149 -161 -247 -64 -97 -116
-180 -116 -184 0 -4 -15 -25 -33 -48 -28 -34 -88 -125 -132 -198 -17 -27 -148
-226 -182 -276 -18 -26 -44 -67 -57 -92 -13 -25 -89 -143 -168 -263 -78 -119
-169 -257 -200 -305 -31 -48 -77 -116 -101 -152 -92 -135 -167 -250 -167 -256
0 -4 -18 -33 -40 -65 -22 -32 -40 -61 -40 -64 0 -3 -18 -30 -40 -60 -22 -30
-40 -58 -40 -64 0 -5 -4 -11 -8 -13 -5 -1 -25 -31 -47 -66 -43 -71 -73 -104
-128 -140 l-38 -25 -22 22 -22 22 -3 762 c-6 1313 25 1814 135 2207 38 136 60
195 102 280 127 261 339 392 716 444 119 17 505 15 640 -3z m960 -1818 c9 -21
16 -53 15 -73 0 -19 -4 -476 -9 -1015 -6 -590 -13 -1004 -20 -1040 -5 -33 -15
-114 -21 -180 -11 -132 -33 -287 -57 -410 -9 -44 -21 -114 -29 -155 -7 -41
-18 -91 -23 -110 -6 -19 -11 -47 -11 -62 0 -34 -85 -289 -115 -345 -99 -187
-292 -288 -632 -328 -234 -29 -756 -11 -913 31 -130 34 -160 44 -197 65 -163
93 -162 92 -202 150 -46 70 -44 79 54 254 30 53 77 124 227 347 101 149 155
232 187 291 12 21 39 62 59 90 32 44 92 136 145 222 7 10 33 52 60 91 26 39
47 75 47 79 0 5 24 40 54 80 29 39 61 84 70 100 9 17 30 50 46 75 16 25 33 52
37 60 3 8 28 47 55 86 26 39 48 74 48 78 0 4 22 39 49 79 59 87 121 186 121
191 0 5 182 282 197 301 15 19 113 176 113 181 0 3 17 31 37 62 21 31 40 62
43 67 3 6 36 57 75 115 38 58 78 121 88 140 11 19 30 48 42 65 13 16 35 53 51
80 80 146 249 375 276 375 11 0 24 -14 33 -37z"/>
<path d="M38835 30230 c-3 -5 -20 -10 -37 -10 -42 0 -142 -18 -199 -36 -25 -7
-64 -16 -87 -19 -85 -11 -336 -84 -545 -158 -199 -72 -511 -243 -687 -378
-141 -108 -336 -319 -445 -480 -67 -99 -178 -322 -214 -426 -17 -50 -38 -104
-46 -120 -8 -15 -15 -39 -15 -52 0 -14 -9 -54 -19 -90 -46 -154 -70 -389 -71
-666 0 -304 14 -425 67 -605 75 -252 104 -321 208 -503 51 -88 54 -93 114
-177 205 -285 534 -559 961 -802 206 -117 508 -265 705 -344 61 -25 129 -54
152 -64 24 -11 46 -20 49 -20 3 0 20 -7 37 -15 18 -8 68 -28 112 -45 44 -17
94 -37 110 -44 17 -8 53 -24 80 -36 28 -12 79 -35 115 -52 36 -16 74 -33 85
-38 138 -60 492 -233 559 -273 374 -223 584 -420 675 -637 13 -30 30 -68 38
-83 28 -54 63 -207 63 -279 0 -112 -58 -270 -138 -377 -86 -116 -230 -219
-387 -281 -150 -58 -268 -74 -545 -74 -357 -1 -503 25 -665 117 -150 86 -275
230 -347 402 -21 49 -47 108 -58 131 -11 23 -20 44 -20 47 0 4 -16 39 -35 80
-52 110 -60 113 -266 99 -182 -12 -1351 -15 -1546 -4 -163 9 -168 8 -167 -49
1 -48 53 -300 80 -389 9 -30 24 -82 34 -115 10 -33 30 -103 45 -155 15 -52 33
-109 41 -127 8 -17 14 -37 14 -45 1 -7 9 -31 20 -53 11 -22 19 -43 20 -47 1
-21 154 -323 194 -382 25 -38 46 -70 46 -73 0 -4 101 -144 140 -195 34 -44
210 -220 274 -273 65 -55 172 -135 182 -135 3 0 20 -11 37 -25 39 -29 298
-159 347 -173 19 -6 63 -22 97 -36 102 -43 312 -99 528 -140 478 -92 1543 -84
2029 14 160 33 440 110 561 156 133 49 320 135 410 188 33 19 73 43 90 52 54
31 224 165 304 240 130 123 306 333 366 439 106 185 227 450 255 560 10 39 23
83 29 98 6 16 11 44 11 62 0 19 9 72 19 117 21 92 34 181 52 366 10 96 10 158
1 295 -18 247 -25 290 -83 460 -88 261 -201 470 -374 697 -166 216 -571 576
-793 705 -10 6 -69 44 -132 86 -163 106 -169 111 -225 139 -27 14 -66 36 -85
48 -36 23 -358 183 -445 222 -43 19 -233 109 -360 171 -22 10 -43 19 -47 19
-3 0 -80 36 -170 80 -89 44 -170 80 -178 80 -8 0 -26 9 -40 20 -14 11 -30 20
-35 20 -6 0 -35 13 -66 29 -67 35 -72 37 -189 95 -52 25 -131 67 -175 91 -44
25 -90 49 -101 54 -12 5 -57 34 -100 63 -44 29 -99 65 -124 80 -25 14 -55 34
-67 45 -12 10 -37 29 -55 43 -91 67 -288 299 -288 338 0 5 -7 22 -15 39 -8 16
-19 59 -24 96 -8 55 -6 81 9 145 45 182 109 305 215 406 40 39 147 112 195
133 14 6 50 22 80 36 69 31 204 71 295 89 91 17 400 17 475 -1 367 -85 452
-123 585 -256 81 -80 115 -133 220 -343 35 -70 76 -139 91 -153 l26 -24 801 1
c441 1 855 5 920 9 158 10 155 -17 46 320 -11 33 -42 137 -70 230 -28 94 -65
213 -84 265 -18 52 -45 129 -60 170 -83 238 -280 536 -484 733 -100 96 -292
250 -331 265 -8 3 -46 24 -84 45 -108 61 -300 146 -416 183 -146 48 -378 103
-464 110 -39 4 -86 14 -105 22 -19 9 -47 15 -62 14 -15 -1 -34 5 -42 13 -14
13 -104 15 -706 15 -449 0 -692 -3 -696 -10z"/>
<path d="M33940 30089 c-3075 -14 -3589 -19 -3606 -36 -13 -13 -14 -134 -7
-972 11 -1278 10 -4044 -1 -5918 -7 -1259 -7 -1525 4 -1538 8 -9 27 -24 44
-33 28 -15 116 -16 986 -13 525 2 1005 4 1065 6 61 2 831 4 1713 5 999 0 1623
5 1655 11 92 17 88 3 86 345 -2 164 -1 502 0 749 l4 451 -24 27 -24 28 -1738
2 -1739 2 -20 25 c-19 24 -19 35 -13 725 6 652 12 1158 14 1161 8 13 200 17
1106 20 589 2 1098 7 1132 10 103 9 93 -74 95 787 1 555 -2 761 -10 769 -8 8
-305 12 -1109 15 -604 1 -1123 6 -1153 10 -44 7 -57 13 -67 33 -11 20 -12 149
-8 665 8 842 11 1024 16 1029 28 24 115 26 1721 26 1016 0 1697 4 1733 10 32
5 65 16 73 23 20 21 18 1483 -2 1532 -18 43 -43 55 -108 53 -29 -1 -847 -5
-1818 -9z"/>
<path d="M13547 30084 c-4 -4 -1219 -8 -2700 -9 -1482 -2 -2704 -6 -2715 -10
-12 -3 -26 -14 -31 -23 -6 -11 -10 -1707 -12 -4203 -3 -3941 -2 -4188 14
-4212 10 -15 30 -30 45 -34 58 -17 5332 1 5419 18 28 6 56 16 63 24 16 19 14
1498 -2 1525 -7 10 -21 24 -33 30 -14 7 -541 11 -1740 13 -946 1 -1728 6
-1737 10 -10 5 -19 25 -23 50 -3 23 -2 420 2 882 5 462 5 863 2 890 -7 58 -4
72 23 86 13 7 365 12 1071 15 579 2 1089 7 1134 10 58 4 86 10 96 22 12 14 15
130 20 759 5 704 4 744 -13 765 l-18 23 -1093 3 c-1064 2 -1181 4 -1210 23
-11 7 -14 50 -14 226 0 199 4 1394 5 1453 0 14 9 33 21 43 20 16 107 17 1523
17 1920 0 1972 1 1991 48 4 9 9 350 12 757 l6 741 -24 27 c-24 27 -69 44 -82
31z"/>
<path d="M15650 30079 c-184 -4 -435 -9 -558 -11 l-223 -3 -19 -25 c-17 -22
-20 -45 -22 -185 -1 -88 -1 -250 0 -360 1 -110 3 -1925 5 -4033 l4 -3833 22
-22 22 -22 607 -3 c724 -3 1294 9 1334 28 15 7 29 18 31 24 2 6 0 85 -4 176
-4 91 -8 798 -8 1571 -1 1293 0 1408 15 1420 26 22 292 34 493 23 218 -12 194
9 345 -289 36 -72 66 -134 66 -138 0 -8 54 -122 70 -147 8 -13 36 -74 75 -165
7 -16 30 -68 53 -115 22 -47 51 -110 65 -140 13 -30 43 -93 65 -140 22 -47 65
-139 96 -205 31 -66 65 -137 76 -157 11 -20 20 -43 20 -50 0 -7 9 -24 20 -38
11 -14 20 -31 20 -38 0 -8 8 -26 18 -40 10 -15 31 -56 46 -92 15 -36 31 -72
37 -80 5 -8 12 -22 15 -30 3 -8 33 -70 65 -137 32 -67 59 -128 59 -135 0 -7 9
-24 20 -38 11 -14 20 -31 20 -38 0 -7 19 -50 41 -95 64 -126 68 -134 98 -202
13 -27 29 -61 36 -75 25 -48 68 -135 85 -175 10 -22 27 -62 39 -90 12 -27 26
-57 32 -65 5 -8 41 -79 80 -157 85 -174 86 -175 244 -180 61 -2 538 0 1060 4
989 10 995 10 995 51 0 21 -153 326 -315 627 -131 244 -555 1078 -555 1092 0
4 -6 14 -14 22 -8 9 -49 86 -92 171 -42 85 -80 157 -84 160 -3 3 -38 68 -77
145 -101 198 -245 479 -285 553 -18 34 -63 120 -99 190 -114 220 -181 346
-199 372 -35 51 -80 139 -80 158 0 17 76 82 96 82 6 0 87 36 138 62 10 6 54
25 96 43 97 41 184 95 325 201 139 104 355 324 438 448 16 22 35 50 43 61 63
88 104 151 114 178 7 18 33 74 57 125 108 227 188 527 229 857 21 170 21 589
0 765 -32 267 -79 523 -120 665 -60 203 -74 241 -141 380 -108 224 -220 376
-408 553 -77 74 -209 182 -221 182 -1 0 -43 24 -92 53 -172 102 -293 151 -547
218 -195 51 -400 77 -702 89 -280 11 -2675 10 -3165 -1z m2450 -1599 c191 -13
305 -39 420 -97 82 -40 109 -61 195 -147 55 -56 110 -119 122 -141 42 -76 81
-164 88 -197 4 -18 11 -38 16 -44 33 -41 62 -392 49 -579 -10 -134 -49 -331
-81 -410 -4 -11 -11 -31 -15 -45 -3 -14 -29 -64 -56 -113 -111 -193 -282 -309
-538 -364 -77 -16 -140 -18 -665 -17 -631 0 -742 5 -778 34 l-22 18 2 1043 c3
978 4 1043 20 1062 18 19 30 19 563 13 300 -4 606 -11 680 -16z"/>
<path d="M22533 30080 c-113 -6 -128 -17 -137 -98 -3 -31 -6 -1923 -7 -4203 0
-3336 2 -4151 12 -4167 27 -43 84 -45 916 -32 428 6 798 16 822 21 86 19 82 8
76 202 -2 95 -5 1155 -5 2357 -1 1799 -3 2226 -15 2420 -19 302 -20 280 8 280
13 0 33 -10 44 -22 49 -55 179 -315 218 -438 33 -103 45 -137 78 -215 14 -33
29 -72 32 -88 4 -15 11 -30 16 -33 5 -3 9 -12 9 -21 0 -8 6 -29 14 -46 8 -18
20 -52 28 -77 16 -48 125 -342 139 -375 5 -11 15 -40 23 -65 8 -25 24 -70 36
-100 37 -94 69 -181 104 -285 19 -55 48 -134 65 -175 17 -41 31 -79 31 -83 0
-5 7 -23 14 -40 19 -42 56 -144 66 -183 4 -18 15 -46 24 -64 9 -18 16 -38 16
-44 0 -6 6 -23 14 -37 7 -14 28 -68 46 -120 18 -52 37 -102 42 -112 5 -10 16
-40 23 -65 14 -51 40 -125 55 -157 31 -69 54 -130 77 -200 27 -87 54 -157 84
-220 10 -22 19 -46 19 -53 0 -7 9 -31 19 -55 11 -23 31 -78 46 -122 14 -44 33
-94 41 -112 8 -17 14 -36 14 -42 0 -6 9 -26 20 -46 11 -20 20 -41 20 -48 1 -7
9 -30 20 -52 11 -22 19 -46 20 -53 0 -7 9 -30 20 -52 11 -22 20 -46 20 -55 0
-9 7 -32 16 -53 9 -20 30 -73 45 -116 16 -43 35 -88 42 -100 8 -12 17 -37 21
-56 3 -19 12 -47 20 -62 8 -15 17 -41 21 -59 4 -19 11 -40 16 -49 18 -34 53
-117 65 -155 6 -22 22 -65 34 -95 12 -30 28 -75 36 -99 8 -25 21 -55 29 -68 8
-12 15 -29 15 -37 0 -7 16 -45 34 -84 19 -38 38 -82 42 -98 14 -53 62 -149 88
-173 l26 -24 647 1 c928 3 1622 12 1665 23 20 5 40 14 43 19 3 6 6 1903 5
4217 l0 4207 -22 23 -22 23 -854 -2 -854 -3 -18 -22 c-15 -19 -18 -51 -24
-230 -9 -324 -10 -4553 -1 -4879 8 -292 5 -344 -18 -344 -31 0 -80 72 -126
185 -18 44 -36 89 -41 100 -17 37 -41 100 -75 190 -18 50 -42 113 -54 140 -11
28 -36 97 -57 155 -21 58 -40 110 -44 115 -4 6 -22 51 -40 100 -43 119 -64
173 -155 405 -121 310 -162 417 -225 590 -23 63 -57 151 -75 195 -18 44 -41
105 -50 135 -10 30 -20 60 -24 65 -3 6 -13 30 -22 55 -9 25 -41 110 -71 190
-31 80 -63 165 -71 190 -9 25 -25 68 -35 95 -11 28 -63 163 -115 300 -53 138
-108 282 -123 320 -53 136 -112 291 -130 340 -9 28 -21 55 -24 60 -4 6 -17 42
-30 80 -12 39 -46 129 -75 200 -29 72 -62 157 -73 190 -11 33 -30 85 -42 115
-38 98 -92 243 -125 335 -17 50 -37 99 -42 110 -13 24 -103 289 -133 390 -11
39 -26 77 -33 86 -35 45 -1 44 -1092 44 -566 1 -1071 -2 -1122 -5z"/>
<path d="M33265 19533 c-320 -10 -728 -63 -980 -129 -305 -79 -457 -136 -655
-247 -19 -11 -55 -31 -80 -45 -228 -127 -553 -401 -657 -554 -16 -24 -52 -74
-80 -113 -28 -38 -67 -99 -85 -135 -19 -36 -44 -83 -56 -105 -40 -76 -89 -200
-121 -305 -17 -58 -38 -125 -46 -150 -7 -25 -16 -67 -20 -95 -4 -27 -13 -84
-20 -126 -62 -344 -30 -867 71 -1159 9 -25 19 -58 23 -75 8 -32 113 -249 157
-325 47 -80 135 -203 213 -295 75 -89 238 -252 270 -269 9 -5 18 -12 21 -15 3
-3 26 -23 52 -44 26 -21 53 -43 61 -50 7 -7 20 -16 29 -22 37 -22 204 -135
215 -144 7 -6 15 -11 19 -11 4 0 15 -6 23 -14 9 -7 45 -29 81 -49 36 -19 88
-48 115 -64 28 -16 91 -48 140 -71 50 -24 101 -50 115 -58 41 -23 118 -59 225
-104 55 -24 111 -49 125 -56 14 -7 59 -27 100 -44 41 -17 90 -38 108 -46 17
-8 47 -20 65 -28 120 -53 149 -65 207 -85 36 -13 83 -31 105 -41 68 -32 134
-60 139 -60 4 0 56 -23 211 -95 452 -208 686 -352 881 -543 107 -104 182 -211
240 -342 9 -19 22 -48 29 -65 40 -89 59 -339 35 -440 -7 -27 -31 -88 -53 -135
-33 -69 -57 -101 -126 -171 -47 -47 -98 -92 -112 -100 -201 -108 -266 -131
-434 -154 -291 -41 -774 -2 -945 77 -141 64 -273 202 -353 370 -31 63 -87 223
-87 247 0 24 -45 115 -70 144 -14 16 -40 29 -69 35 -69 14 -1869 6 -1886 -8
-8 -6 -17 -24 -20 -40 -6 -29 14 -149 40 -230 32 -103 78 -258 87 -295 20 -78
89 -291 107 -330 11 -22 31 -69 46 -105 15 -36 33 -79 41 -97 8 -17 14 -37 14
-45 0 -8 4 -18 9 -24 5 -5 21 -31 36 -59 87 -158 103 -185 192 -310 75 -106
204 -254 263 -301 19 -16 59 -49 87 -75 111 -99 381 -255 543 -314 200 -72
256 -90 330 -112 240 -68 405 -98 755 -134 173 -19 273 -23 565 -23 224 -1
407 4 495 12 172 17 388 47 475 67 36 9 97 22 135 31 39 8 88 21 110 29 22 7
78 23 125 35 111 28 246 75 345 120 11 5 54 23 95 41 70 29 96 43 190 96 163
93 337 223 461 344 195 192 313 354 434 597 59 118 81 177 115 302 23 85 45
166 51 180 5 14 14 50 19 80 5 30 18 93 29 140 74 334 60 663 -45 1005 -59
190 -116 325 -202 477 -136 240 -385 514 -689 759 -128 103 -315 238 -331 239
-4 1 -38 23 -77 50 -38 27 -96 63 -128 80 -32 17 -70 39 -85 49 -40 27 -167
101 -174 101 -4 0 -53 26 -110 58 -127 72 -400 206 -668 329 -30 14 -86 40
-125 58 -38 19 -106 50 -150 70 -72 34 -155 73 -315 150 -30 14 -62 30 -70 35
-8 5 -40 20 -70 35 -30 15 -62 33 -70 40 -8 7 -26 16 -40 20 -25 8 -205 111
-290 165 -25 17 -52 33 -61 37 -18 9 -144 111 -207 168 -49 44 -119 131 -150
186 -11 20 -30 76 -42 124 -20 81 -21 98 -12 210 9 114 12 127 55 216 56 116
102 176 194 251 72 59 247 154 305 165 18 3 41 10 52 15 32 17 198 38 301 38
126 0 313 -16 430 -36 317 -54 488 -165 639 -414 41 -68 73 -136 91 -195 35
-114 45 -134 69 -147 26 -14 1802 -13 1839 1 15 6 30 18 34 27 10 28 -58 299
-133 524 -8 25 -28 90 -44 145 -75 265 -232 592 -374 780 -133 178 -331 366
-509 486 -77 52 -321 179 -344 179 -4 0 -20 6 -34 14 -40 21 -273 93 -359 111
-153 33 -349 66 -475 80 -71 8 -161 19 -200 25 -38 6 -160 15 -270 20 -190 9
-262 10 -470 3z"/>
<path d="M8164 19356 c-13 -21 -14 -487 -12 -4218 3 -4033 4 -4195 21 -4222
l18 -27 982 3 c932 3 984 4 1016 21 l34 19 -9 66 c-4 37 -9 904 -9 1927 -1
1023 -5 1878 -9 1900 -8 46 10 82 37 72 18 -7 99 -107 133 -165 12 -20 38 -70
58 -110 20 -41 44 -86 55 -100 10 -15 43 -74 74 -132 30 -58 80 -149 111 -204
31 -54 56 -103 56 -109 0 -6 6 -18 13 -26 19 -24 102 -163 136 -230 6 -11 16
-31 22 -43 15 -29 57 -104 86 -153 12 -22 37 -67 54 -100 17 -33 38 -73 48
-90 34 -57 58 -100 116 -210 31 -60 63 -117 69 -125 7 -8 18 -26 24 -40 7 -14
29 -56 50 -95 21 -38 56 -101 77 -140 20 -38 41 -75 46 -81 5 -6 24 -39 42
-75 41 -78 87 -162 138 -251 21 -36 43 -77 49 -90 6 -12 19 -36 29 -53 31 -50
63 -107 99 -175 19 -36 50 -92 69 -125 19 -33 39 -68 44 -77 21 -41 35 -64 45
-78 7 -8 15 -26 19 -40 4 -14 24 -50 44 -80 48 -74 41 -62 176 -315 21 -38 43
-77 50 -85 7 -8 16 -25 19 -37 4 -11 13 -27 21 -33 8 -7 15 -19 15 -26 0 -8
15 -35 34 -61 18 -27 46 -73 62 -103 34 -65 78 -120 110 -138 13 -7 54 -13 91
-14 176 -5 2071 5 2093 11 38 10 37 47 -5 119 -19 34 -50 88 -68 120 -18 31
-50 83 -70 115 -20 31 -37 61 -37 66 0 4 -12 26 -27 47 -28 41 -75 121 -126
214 -16 30 -38 69 -47 85 -28 48 -67 120 -147 270 -41 77 -81 147 -89 156 -8
8 -14 18 -14 22 0 5 -24 47 -142 255 -10 17 -26 47 -36 65 -11 17 -47 82 -82
142 -34 61 -78 139 -98 175 -19 36 -42 76 -51 90 -19 27 -65 110 -125 225 -37
71 -48 90 -77 135 -9 14 -36 63 -61 110 -26 47 -63 114 -83 150 -21 36 -51 90
-68 120 -16 30 -36 65 -43 77 -22 35 -53 91 -102 183 -25 47 -50 92 -57 100
-7 8 -26 40 -42 70 -34 62 -120 217 -150 270 -25 42 -228 401 -256 450 -10 19
-22 40 -27 45 -4 6 -29 51 -55 100 -97 184 -128 240 -135 250 -33 44 -140 270
-140 296 0 42 33 111 127 264 15 25 101 174 138 240 15 28 37 64 49 80 12 17
32 50 45 75 13 25 30 52 36 60 13 15 51 83 127 229 21 41 42 79 47 85 11 14
53 91 106 191 23 44 65 118 92 165 27 47 75 132 106 190 32 58 68 123 80 145
43 74 80 140 107 190 15 28 51 94 81 148 30 53 66 119 80 145 76 138 140 254
174 312 20 36 56 101 80 145 23 44 63 116 90 160 26 44 63 109 81 145 19 36
47 88 62 115 15 28 45 82 66 120 21 39 55 99 75 135 48 86 67 122 125 236 27
53 60 112 74 132 75 111 123 196 120 215 -2 13 -13 23 -28 26 -14 3 -484 4
-1045 1 l-1020 -5 -30 -22 c-17 -12 -37 -34 -45 -50 -8 -15 -34 -56 -57 -91
-24 -35 -43 -68 -43 -73 0 -6 -15 -33 -33 -62 -18 -29 -61 -108 -96 -177 -35
-69 -69 -132 -76 -140 -7 -8 -41 -69 -75 -135 -35 -66 -81 -151 -103 -190 -50
-89 -75 -133 -122 -220 -21 -38 -52 -94 -69 -123 -74 -127 -86 -150 -113 -202
-16 -30 -45 -83 -66 -116 -20 -34 -37 -66 -37 -70 0 -5 -11 -25 -23 -44 -28
-41 -57 -92 -134 -238 -31 -59 -70 -129 -86 -157 -17 -27 -54 -96 -83 -152
-29 -56 -64 -119 -77 -140 -22 -34 -41 -69 -127 -228 -15 -27 -44 -79 -64
-113 -20 -35 -36 -67 -36 -72 0 -4 -11 -23 -24 -42 -13 -20 -57 -98 -96 -174
-40 -77 -79 -150 -87 -164 -56 -103 -112 -211 -118 -231 -7 -22 -104 -176
-130 -206 -5 -7 -16 -19 -23 -28 -17 -20 -28 -13 -36 22 -11 50 -18 2544 -8
3078 9 475 8 522 -7 543 l-16 23 -1003 4 -1002 4 -16 -23z"/>
<path d="M15219 19364 c-7 -9 -10 -263 -8 -851 2 -461 4 -1610 4 -2553 1
-1478 4 -1755 18 -2005 17 -285 47 -663 68 -840 6 -49 14 -129 19 -176 14
-132 58 -383 87 -489 14 -52 29 -113 34 -135 4 -22 13 -53 20 -70 6 -16 15
-46 19 -65 11 -51 46 -143 86 -226 19 -40 34 -76 34 -81 0 -4 9 -19 20 -33 11
-14 20 -32 20 -41 0 -9 9 -28 20 -42 11 -14 20 -30 20 -36 0 -5 28 -54 62
-108 270 -430 672 -679 1260 -783 468 -83 1071 -123 1533 -101 529 25 841 64
1240 158 218 50 342 97 496 185 123 70 318 248 436 398 58 74 175 247 206 305
89 168 209 504 252 710 10 44 24 107 31 140 60 260 94 536 129 1055 32 469 35
743 35 3179 1 2379 1 2475 -17 2492 -17 16 -80 17 -1005 21 -542 1 -989 0
-993 -4 -4 -3 -11 -24 -16 -45 -4 -21 -9 -1164 -9 -2598 0 -1565 -4 -2622 -10
-2720 -6 -88 -14 -250 -20 -360 -16 -333 -35 -507 -65 -605 -8 -25 -19 -75
-25 -112 -7 -36 -27 -97 -46 -134 -19 -37 -34 -72 -34 -77 0 -19 -90 -134
-149 -190 -65 -62 -160 -113 -266 -141 -123 -34 -619 -30 -795 5 -85 16 -118
28 -206 70 -134 64 -242 193 -303 361 -93 251 -109 434 -137 1538 -13 538 -15
977 -11 2650 2 1103 8 2075 12 2160 6 143 6 157 -11 177 l-19 22 -1002 4
c-814 4 -1005 2 -1014 -9z"/>
<path d="M23526 19372 c-459 -2 -511 -4 -528 -19 -18 -16 -18 -54 -13 -1017 3
-551 6 -2439 6 -4196 1 -2223 4 -3201 12 -3217 6 -13 22 -26 35 -30 45 -11
1684 5 1724 17 21 6 41 19 46 28 4 9 4 339 1 732 -4 393 -7 1478 -7 2410 0
1134 -3 1754 -11 1873 -11 184 -7 217 26 217 8 0 30 -15 48 -34 29 -31 54 -85
117 -256 12 -30 27 -68 34 -85 55 -127 77 -187 124 -325 21 -63 52 -149 69
-190 17 -41 31 -81 31 -88 0 -8 7 -28 15 -45 8 -18 21 -52 29 -77 8 -25 24
-69 35 -97 53 -133 65 -165 103 -273 22 -63 44 -119 49 -125 5 -5 9 -15 9 -23
0 -8 6 -28 14 -45 19 -41 100 -259 116 -312 7 -22 16 -44 21 -50 5 -5 9 -16 9
-25 1 -8 9 -33 20 -55 11 -22 19 -45 20 -51 0 -5 9 -29 20 -52 11 -22 20 -48
20 -57 0 -9 9 -33 20 -55 11 -22 20 -49 20 -60 0 -11 9 -38 20 -60 11 -22 20
-44 20 -51 0 -6 7 -25 15 -42 16 -36 31 -76 85 -232 21 -60 48 -135 60 -165
12 -30 30 -78 40 -106 10 -28 22 -60 28 -70 13 -26 41 -111 53 -159 6 -21 14
-44 18 -50 5 -5 12 -21 16 -35 4 -14 16 -43 26 -65 20 -44 44 -111 61 -165 5
-19 14 -39 18 -45 4 -5 11 -26 15 -45 4 -19 16 -54 26 -77 11 -23 19 -47 19
-52 0 -6 9 -26 20 -46 11 -20 20 -40 20 -46 0 -6 7 -25 14 -42 8 -18 30 -77
49 -132 19 -55 45 -125 57 -155 12 -30 30 -77 40 -105 10 -27 30 -81 45 -120
15 -38 30 -83 35 -100 7 -31 27 -79 61 -150 19 -41 70 -175 95 -253 7 -23 19
-55 27 -70 8 -15 24 -49 36 -77 46 -103 70 -141 101 -162 l33 -23 1056 1
c1080 0 1271 5 1297 31 13 13 15 242 12 1754 -1 956 -2 1811 -1 1899 0 88 1
1195 2 2459 2 2225 1 2300 -17 2318 -17 18 -57 19 -900 20 -568 1 -886 -2
-893 -9 -14 -14 -13 -4578 1 -4908 18 -417 18 -509 -2 -513 -53 -11 -188 232
-300 538 -27 74 -63 171 -80 215 -16 44 -43 119 -58 166 -26 78 -35 102 -61
164 -7 17 -51 130 -79 200 -4 11 -17 45 -28 75 -11 30 -59 153 -106 272 -47
120 -86 222 -86 227 0 5 -16 44 -35 85 -19 42 -35 81 -35 87 0 6 -9 31 -19 57
-11 26 -34 85 -51 132 -17 47 -42 112 -55 145 -12 33 -44 116 -70 185 -26 69
-59 157 -75 195 -15 39 -49 126 -75 195 -58 155 -75 200 -86 225 -5 11 -47
121 -93 245 -99 266 -123 328 -136 355 -5 11 -25 63 -44 115 -40 113 -163 438
-213 565 -19 50 -50 131 -68 180 -91 252 -240 637 -273 704 -25 52 -45 80 -64
89 -30 14 -719 20 -1752 14z"/>
<path d="M36594 19356 c-11 -16 -14 -124 -15 -570 -4 -949 -3 -961 40 -1000
18 -17 63 -18 653 -18 348 0 774 3 947 7 311 6 314 6 336 -15 l23 -22 1 -3400
c0 -3058 2 -3403 16 -3425 l16 -23 672 2 c370 1 817 4 994 7 315 6 323 7 344
28 l22 22 0 3400 c-1 2607 2 3404 11 3416 11 15 95 16 941 16 685 0 942 3 975
12 39 11 45 16 52 47 11 48 17 350 20 973 3 458 1 528 -12 541 -13 14 -359 16
-3019 18 -2966 3 -3004 3 -3017 -16z"/>
<path d="M16925 8830 c-49 -4 -175 -15 -280 -24 -315 -27 -636 -78 -778 -123
-103 -32 -326 -145 -418 -212 -261 -188 -445 -409 -598 -716 -49 -99 -99 -211
-112 -250 -12 -38 -36 -104 -51 -145 -27 -71 -50 -150 -84 -299 -8 -35 -17
-67 -20 -72 -3 -5 -14 -58 -24 -118 -11 -60 -24 -129 -29 -153 -21 -96 -42
-241 -56 -388 -19 -191 -41 -384 -54 -470 -26 -175 -36 -557 -36 -1385 0 -853
6 -1039 40 -1340 8 -71 19 -179 25 -240 24 -245 50 -467 69 -590 29 -189 59
-364 66 -374 3 -5 10 -33 15 -63 5 -29 16 -75 24 -103 9 -27 27 -95 42 -150
35 -136 76 -256 118 -350 10 -22 24 -53 31 -70 95 -218 134 -287 252 -445 77
-103 226 -256 283 -290 22 -14 60 -39 83 -56 147 -109 423 -208 887 -318 161
-38 222 -58 228 -75 5 -15 2258 -16 2267 -1 12 19 67 41 128 51 119 19 513
122 617 161 160 60 356 158 445 222 104 74 220 189 301 297 35 48 64 89 64 93
0 4 11 22 24 39 40 53 183 345 221 452 92 253 125 374 175 630 16 83 34 173
40 200 28 138 51 296 99 665 38 295 44 519 44 1555 0 990 -7 1262 -39 1607
-19 208 -59 531 -80 643 -85 459 -150 711 -230 893 -7 18 -14 37 -14 42 0 5
-15 41 -34 82 -18 40 -35 78 -37 83 -26 67 -229 390 -276 440 -10 11 -51 55
-90 97 -268 290 -611 451 -1083 507 -47 6 -114 15 -150 20 -265 40 -374 44
-1155 46 -423 2 -810 -1 -860 -5z m1033 -1621 c430 -27 646 -142 780 -414 80
-160 100 -226 128 -425 36 -249 52 -408 69 -690 38 -630 53 -1893 27 -2405
-41 -819 -131 -1199 -328 -1387 -94 -90 -177 -133 -338 -176 l-101 -27 -410 1
c-324 0 -435 4 -530 17 -137 19 -253 46 -319 76 -25 12 -51 21 -59 21 -21 0
-167 131 -205 184 -59 82 -153 315 -166 411 -2 22 -11 81 -20 130 -43 266 -65
705 -77 1585 -11 813 -5 1247 26 1715 45 677 116 928 335 1168 67 73 224 155
355 186 160 37 513 50 833 30z"/>
<path d="M9013 8692 l-833 -2 -15 -24 c-14 -21 -16 -433 -13 -4222 3 -4468 1
-4244 47 -4258 9 -3 456 -7 993 -8 874 -2 979 -1 993 13 14 14 16 193 16 1742
1 1422 3 1729 14 1744 13 17 65 18 1162 23 1201 5 1184 5 1197 47 3 10 6 352
8 760 3 669 1 744 -13 758 -14 15 -128 16 -1176 18 -995 2 -1162 4 -1177 16
-17 14 -17 65 -11 860 3 466 8 856 11 868 2 14 16 25 36 31 21 6 664 11 1756
12 995 0 1733 5 1747 10 13 5 28 17 33 27 4 10 8 356 8 768 -1 796 0 780 -48
806 -21 12 -2654 18 -4735 11z"/>
<path d="M23003 8690 c-456 -4 -534 -7 -547 -20 -12 -13 -15 -154 -17 -995 -2
-797 7 -7440 10 -7468 1 -4 16 -14 34 -21 47 -20 1779 -15 1803 4 13 12 14 29
8 124 -4 61 -8 1175 -9 2476 -3 2322 -4 2537 -20 2593 -5 20 -3 33 10 47 25
28 41 25 78 -14 42 -43 80 -120 112 -226 14 -47 31 -101 39 -120 7 -19 19 -51
26 -70 6 -19 21 -57 32 -85 42 -106 70 -182 85 -230 8 -27 19 -54 24 -60 5 -5
9 -15 9 -23 0 -8 6 -28 14 -45 8 -18 20 -52 29 -77 42 -131 81 -240 98 -278
10 -23 19 -47 19 -53 0 -5 8 -29 18 -52 11 -23 29 -69 41 -102 13 -33 31 -82
42 -109 10 -27 19 -54 19 -60 0 -6 23 -69 51 -141 28 -71 56 -143 61 -160 6
-16 17 -46 25 -65 9 -19 21 -55 28 -80 12 -42 37 -114 52 -150 18 -45 49 -127
83 -225 21 -60 46 -128 55 -150 45 -106 50 -119 102 -270 19 -55 41 -114 49
-132 7 -17 14 -36 14 -42 0 -6 9 -26 20 -46 11 -20 20 -41 20 -48 1 -7 9 -30
20 -52 11 -22 19 -46 20 -53 0 -7 9 -30 20 -52 11 -22 20 -49 20 -60 0 -12 9
-40 20 -62 11 -23 20 -46 20 -51 0 -5 7 -23 15 -40 16 -36 31 -76 85 -232 21
-60 48 -135 60 -165 20 -51 38 -99 70 -190 7 -19 21 -57 31 -84 11 -27 19 -55
19 -63 0 -8 9 -33 20 -55 11 -23 20 -47 20 -52 1 -6 9 -29 20 -51 11 -22 19
-44 20 -50 0 -11 32 -96 62 -162 10 -24 18 -52 18 -63 0 -10 9 -35 20 -55 11
-20 20 -40 20 -46 0 -9 34 -90 59 -139 4 -8 27 -75 51 -149 36 -109 51 -142
80 -173 36 -37 39 -38 111 -39 41 0 578 -1 1193 0 l1120 0 18 23 c12 15 16 30
11 43 -4 11 -9 1907 -10 4214 -2 2845 -6 4198 -13 4206 -6 7 -24 15 -39 18
-16 4 -417 7 -892 7 -824 2 -863 1 -880 -17 -17 -17 -18 -123 -20 -2383 -2
-2287 1 -2693 22 -2904 10 -98 2 -156 -23 -156 -14 0 -56 50 -80 95 -11 22
-31 54 -43 70 -13 17 -35 66 -50 110 -15 44 -33 94 -40 110 -8 17 -32 85 -54
151 -39 117 -127 350 -265 709 -37 94 -70 179 -76 190 -41 88 -75 178 -102
265 -5 19 -13 40 -17 45 -4 6 -15 33 -25 60 -10 28 -22 59 -27 70 -9 22 -33
89 -53 150 -7 22 -36 99 -64 170 -111 284 -132 339 -132 349 -1 6 -9 29 -20
51 -11 22 -19 45 -20 51 0 11 -13 42 -60 149 -10 22 -22 56 -28 75 -5 19 -29
87 -54 150 -84 216 -108 279 -108 285 0 5 -17 49 -106 278 -20 50 -42 110 -49
132 -7 22 -22 63 -33 90 -32 82 -271 714 -298 790 -35 97 -73 192 -95 242 -10
23 -19 46 -19 50 0 4 -21 58 -46 118 -25 61 -58 146 -74 190 -16 44 -40 112
-54 150 -25 70 -61 115 -94 115 -170 4 -1321 4 -1719 0z"/>
<path d="M30907 8691 c-472 -6 -499 -7 -512 -25 -12 -15 -14 -352 -17 -2070
-5 -3907 1 -6233 17 -6355 9 -72 -113 -66 1408 -69 1761 -4 2132 7 2482 68
130 23 298 57 340 70 17 5 68 18 115 30 137 34 194 54 355 125 17 8 57 25 90
39 58 24 224 114 281 153 16 11 58 39 94 63 60 41 183 136 220 170 93 86 123
116 177 176 62 70 72 84 221 304 97 144 239 422 277 543 14 45 39 117 56 160
16 42 36 103 45 135 43 153 73 276 89 362 9 52 27 145 40 205 63 305 96 539
117 840 14 207 13 1231 -2 1520 -11 202 -42 546 -60 665 -45 290 -50 315 -110
595 -56 257 -144 538 -216 692 -19 40 -34 75 -34 79 0 20 -132 263 -197 362
-106 161 -184 259 -305 383 -230 235 -443 381 -738 504 -36 15 -74 31 -85 36
-72 31 -172 69 -184 69 -8 0 -40 8 -70 18 -31 11 -99 28 -151 40 -322 72 -546
99 -895 107 -396 8 -2271 12 -2848 6z m2573 -1611 c317 -19 528 -84 700 -216
157 -120 275 -277 361 -479 4 -11 26 -75 48 -142 50 -152 67 -253 108 -643 16
-145 18 -277 18 -1095 0 -890 -1 -941 -23 -1184 -13 -140 -25 -258 -27 -261
-2 -3 -9 -46 -15 -96 -12 -93 -47 -268 -60 -294 -4 -8 -13 -40 -20 -70 -13
-56 -52 -165 -74 -210 -7 -14 -23 -47 -36 -75 -47 -98 -115 -191 -200 -275
-73 -72 -104 -94 -191 -138 -205 -101 -306 -112 -1090 -112 -507 0 -547 1
-561 18 -14 15 -16 135 -19 1072 -6 1732 3 4180 15 4188 6 4 34 9 61 13 81 10
836 9 1005 -1z"/>
</g>
</svg>
