<?xml version="1.0" standalone="no"?>
<!DOCTYPE svg PUBLIC "-//W3C//DTD SVG 20010904//EN"
 "http://www.w3.org/TR/2001/REC-SVG-20010904/DTD/svg10.dtd">
<svg version="1.0" xmlns="http://www.w3.org/2000/svg"
 width="1095.000000pt" height="400.000000pt" viewBox="0 0 1095.000000 400.000000"
 preserveAspectRatio="xMidYMid meet">

<g transform="translate(0.000000,400.000000) scale(0.100000,-0.100000)"
fill="#fafafa" stroke="none">
<path d="M604 3986 c-299 -57 -489 -238 -571 -544 -24 -88 -26 -115 -27 -292
-1 -183 1 -201 27 -294 39 -140 97 -253 251 -484 195 -293 254 -418 296 -621
24 -120 28 -250 16 -581 -10 -272 0 -363 50 -461 84 -166 295 -226 552 -158
144 38 297 126 486 280 l89 72 -6 -39 c-4 -21 -12 -104 -18 -184 -24 -288 31
-432 159 -416 95 12 186 110 278 301 99 204 165 443 166 600 1 94 -13 128 -59
146 -52 19 -160 -24 -288 -116 -43 -31 -79 -54 -81 -52 -2 2 8 45 21 97 81
299 217 599 398 874 l92 138 6 -58 c4 -33 4 -183 1 -334 -10 -500 37 -745 166
-875 67 -67 122 -90 207 -89 112 2 223 56 400 195 36 28 65 48 65 45 0 -3 -23
-85 -50 -183 -76 -269 -103 -409 -104 -538 -1 -99 2 -115 24 -160 33 -67 81
-99 135 -90 122 19 287 211 440 509 202 396 271 779 163 902 -35 40 -77 64
-110 64 -39 0 -140 -54 -218 -117 -41 -34 -76 -60 -77 -59 -2 1 8 54 22 118
85 399 70 727 -42 940 -85 163 -250 268 -418 268 -127 -1 -305 -69 -435 -167
l-64 -50 -31 106 c-82 281 -214 499 -440 727 -238 240 -469 386 -778 493 -253
87 -518 120 -693 87z m383 -307 c183 -25 420 -103 628 -207 316 -157 529 -362
668 -638 42 -83 100 -245 117 -327 l11 -57 -62 -78 c-174 -215 -347 -554 -458
-895 -45 -137 -86 -297 -97 -372 -3 -27 -11 -58 -16 -68 -11 -22 -198 -146
-318 -210 -218 -118 -362 -139 -504 -74 -73 34 -131 95 -172 181 -45 94 -60
184 -68 396 -11 287 -46 480 -121 665 -44 110 -83 180 -196 357 -146 228 -205
364 -228 532 -35 252 20 453 168 609 154 161 372 224 648 186z m2140 -1090
c113 -54 204 -182 259 -364 24 -79 27 -112 32 -266 5 -190 -7 -303 -54 -519
-25 -114 -25 -116 -75 -162 -76 -72 -253 -202 -324 -238 -65 -33 -135 -47
-179 -36 -65 16 -123 101 -156 230 -34 133 -42 261 -45 701 -1 237 -6 442 -10
456 -6 23 1 32 69 87 84 67 197 127 266 141 69 14 148 4 217 -30z m648 -1109
c30 -138 -186 -722 -377 -1018 -48 -73 -114 -152 -129 -152 -4 0 -14 18 -23
40 -44 111 0 377 126 763 l52 157 93 83 c98 86 204 157 234 157 11 0 20 -11
24 -30z m-1550 -300 c16 -26 -52 -258 -136 -462 -57 -140 -105 -230 -144 -273
l-27 -29 -15 28 c-26 49 -35 215 -23 385 6 84 14 159 16 166 11 29 275 194
311 195 6 0 15 -5 18 -10z"/>
<path d="M6551 2864 c-26 -21 -31 -33 -31 -68 0 -69 61 -109 126 -81 62 25 74
97 25 146 -37 37 -79 38 -120 3z"/>
<path d="M4520 2301 l0 -551 75 0 75 0 0 235 0 235 64 0 63 0 71 -202 c39
-112 76 -218 83 -235 l11 -33 84 0 c46 0 84 3 84 8 0 4 -38 115 -84 247 -69
197 -82 242 -71 250 8 6 32 22 54 38 59 41 94 118 99 222 8 150 -41 246 -156
302 -56 27 -61 28 -254 31 l-198 4 0 -551z m390 374 c43 -22 64 -69 64 -140 0
-69 -19 -113 -61 -141 -22 -14 -52 -19 -135 -22 l-108 -4 0 161 0 161 105 0
c75 0 115 -4 135 -15z"/>
<path d="M5374 2566 c-127 -59 -194 -223 -181 -450 11 -212 84 -331 226 -373
92 -26 203 -2 279 61 17 15 32 31 32 34 -1 4 -18 27 -39 51 l-39 43 -48 -28
c-61 -36 -138 -40 -181 -8 -35 26 -72 114 -73 172 l0 42 210 0 210 0 0 83 c-1
197 -74 339 -198 383 -59 21 -140 17 -198 -10z m170 -137 c34 -27 65 -87 73
-144 l6 -45 -143 0 -142 0 7 43 c18 106 67 167 134 167 24 0 49 -8 65 -21z"/>
<path d="M6000 2568 c-57 -31 -114 -112 -135 -193 -36 -138 -28 -362 17 -483
37 -100 119 -162 214 -162 18 0 57 13 88 29 l56 30 0 -40 c0 -49 -20 -97 -51
-125 -27 -24 -106 -54 -144 -54 -14 0 -25 -4 -25 -8 0 -13 32 -106 39 -114 8
-9 86 7 153 32 82 30 132 83 157 165 20 63 21 91 21 496 l0 429 -75 0 c-60 0
-75 -3 -75 -15 0 -20 -5 -19 -41 7 -46 34 -140 37 -199 6z m163 -132 c79 -29
77 -21 77 -277 l0 -227 -30 -26 c-69 -57 -140 -42 -180 39 -22 44 -25 66 -29
189 -5 195 18 280 83 306 28 12 35 11 79 -4z"/>
<path d="M7010 2581 c-132 -43 -202 -164 -216 -376 -21 -302 113 -496 324
-471 118 14 200 89 244 221 33 100 33 308 0 410 -45 143 -130 216 -256 221
-39 2 -82 0 -96 -5z m155 -172 c23 -21 40 -48 50 -82 20 -68 20 -266 0 -334
-42 -142 -172 -163 -235 -38 -23 47 -25 60 -25 205 0 141 2 159 22 197 48 88
122 109 188 52z"/>
<path d="M7720 2574 c-19 -8 -42 -22 -52 -31 -17 -15 -18 -15 -18 5 0 21 -5
22 -75 22 l-75 0 0 -410 0 -410 75 0 75 0 0 314 0 314 34 30 c60 53 127 51
163 -5 16 -24 18 -58 21 -340 l3 -313 75 0 75 0 -3 338 c-3 299 -5 341 -21
377 -23 51 -63 94 -104 111 -42 18 -129 17 -173 -2z"/>
<path d="M6530 2160 l0 -410 75 0 75 0 0 410 0 410 -75 0 -75 0 0 -410z"/>
<path d="M4685 1419 c-65 -8 -124 -38 -165 -85 -51 -58 -64 -98 -64 -194 0
-143 37 -197 224 -330 52 -37 107 -81 122 -96 57 -60 73 -148 40 -214 -44 -89
-180 -79 -264 19 l-34 39 -54 -45 c-30 -25 -56 -51 -58 -58 -6 -23 95 -121
150 -146 75 -34 201 -34 276 0 108 49 157 143 150 290 -7 141 -50 211 -188
309 -139 97 -169 124 -190 166 -23 49 -26 93 -6 140 17 42 60 60 127 54 43 -4
57 -12 94 -48 l44 -43 55 48 c63 54 63 58 -5 119 -68 62 -155 88 -254 75z"/>
<path d="M6128 1392 l-68 -37 0 -137 c0 -76 -2 -138 -5 -138 -3 0 -18 9 -34
21 -85 63 -215 36 -288 -59 -67 -89 -98 -283 -74 -466 29 -212 106 -303 251
-294 54 3 74 9 103 31 l36 27 3 -23 c3 -20 9 -22 81 -25 l77 -3 0 571 c0 313
-3 570 -7 570 -5 0 -38 -17 -75 -38z m-117 -425 l34 -23 3 -224 c2 -150 -1
-232 -9 -246 -28 -54 -128 -73 -167 -31 -43 46 -55 94 -60 241 -5 159 7 231
45 276 21 26 32 30 72 30 33 0 58 -7 82 -23z"/>
<path d="M6788 1392 l-68 -37 0 -138 0 -138 -46 27 c-94 55 -215 25 -280 -70
-52 -74 -66 -133 -71 -293 -11 -319 65 -463 245 -463 47 0 67 6 105 30 l47 30
0 -25 c0 -24 2 -25 75 -25 l75 0 0 570 c0 314 -3 570 -7 570 -5 -1 -38 -18
-75 -38z m-117 -425 l34 -23 3 -219 c1 -121 0 -230 -3 -243 -13 -51 -123 -81
-172 -47 -12 8 -32 41 -44 73 -19 49 -22 77 -23 197 -1 154 10 207 50 255 22
26 33 30 73 30 33 0 58 -7 82 -23z"/>
<path d="M10485 1397 l-60 -32 -3 -538 -2 -538 72 3 73 3 5 135 c5 133 6 136
39 188 24 39 36 50 42 40 5 -7 36 -93 70 -190 l61 -178 85 0 c64 0 84 3 80 13
-2 6 -48 130 -102 273 l-98 262 86 138 87 139 -82 3 c-45 2 -85 -1 -89 -5 -4
-4 -46 -81 -94 -170 -48 -90 -88 -163 -89 -163 0 0 1 146 2 325 3 266 1 325
-10 325 -7 0 -40 -15 -73 -33z"/>
<path d="M7187 1130 c-26 -5 -77 -22 -112 -39 l-65 -30 31 -53 c17 -29 33 -55
35 -57 2 -2 26 6 53 18 54 23 139 28 173 10 28 -15 48 -69 48 -130 0 -45 -2
-50 -17 -44 -10 4 -54 10 -98 12 -100 6 -167 -18 -221 -80 -88 -104 -85 -292
7 -392 50 -54 91 -68 179 -63 55 3 76 9 107 31 l38 27 3 -25 c3 -25 5 -26 75
-23 l72 3 0 345 0 345 -25 50 c-20 39 -35 55 -70 72 -52 24 -144 34 -213 23z
m138 -462 c24 -11 25 -15 25 -99 0 -87 0 -87 -35 -117 -64 -57 -153 -54 -188
5 -23 40 -26 126 -7 172 18 44 60 63 127 56 29 -3 64 -10 78 -17z"/>
<path d="M7897 1126 c-26 -7 -59 -24 -72 -36 l-25 -23 0 26 c0 27 0 27 -75 27
l-75 0 0 -415 0 -416 73 3 72 3 3 317 2 316 35 31 c55 48 137 42 167 -12 10
-16 14 -108 18 -337 l5 -315 73 -3 72 -3 0 313 c0 335 -7 398 -51 459 -42 59
-138 87 -222 65z"/>
<path d="M8585 1131 c-35 -9 -73 -28 -97 -49 -17 -14 -18 -13 -18 11 0 27 0
27 -75 27 l-75 0 0 -415 0 -415 75 0 75 0 0 313 0 313 35 34 c29 28 42 34 82
34 42 1 49 -2 70 -33 23 -34 23 -36 23 -347 l0 -314 75 0 75 0 0 313 c0 342 0
341 60 372 68 35 126 8 141 -65 4 -25 8 -175 9 -333 l0 -288 78 3 77 3 -1 310
c0 329 -8 398 -47 456 -62 91 -239 98 -328 13 l-25 -24 -25 26 c-44 47 -120
70 -184 55z"/>
<path d="M9506 1130 c-56 -10 -97 -25 -143 -52 l-33 -19 19 -37 c40 -76 40
-76 99 -53 76 30 155 28 187 -4 22 -21 25 -33 25 -96 0 -64 -2 -70 -17 -63
-10 4 -50 9 -90 12 -90 5 -157 -15 -206 -64 -60 -60 -72 -96 -72 -209 0 -88 3
-107 26 -150 35 -70 92 -107 169 -113 79 -6 123 4 159 34 l30 25 3 -23 c3 -21
9 -23 76 -26 l72 -3 0 343 c0 194 -4 358 -10 378 -25 92 -154 144 -294 120z
m129 -462 c24 -11 25 -15 25 -101 0 -86 -1 -90 -30 -117 -35 -33 -100 -47
-142 -31 -38 14 -58 50 -65 113 -11 107 41 164 140 153 26 -3 59 -11 72 -17z"/>
<path d="M10209 1126 c-20 -7 -50 -23 -68 -35 l-31 -22 0 26 c0 26 0 26 -72
23 l-73 -3 -3 -407 -2 -408 75 0 75 0 0 310 0 311 24 24 c41 41 119 49 187 21
12 -5 18 4 28 46 6 29 14 63 17 75 5 18 1 25 -17 32 -47 17 -104 21 -140 7z"/>
<path d="M5020 1108 c0 -7 50 -194 112 -416 l112 -402 -42 -135 c-23 -73 -42
-139 -42 -145 0 -7 25 -10 72 -8 l73 3 106 365 c59 201 131 449 162 553 l54
187 -81 0 -81 0 -67 -267 c-37 -148 -70 -284 -74 -303 -6 -29 -14 -3 -55 170
-26 113 -59 250 -72 305 l-24 100 -77 3 c-57 2 -76 0 -76 -10z"/>
</g>
</svg>
