<?xml version="1.0" standalone="no"?>
<!DOCTYPE svg PUBLIC "-//W3C//DTD SVG 20010904//EN"
 "http://www.w3.org/TR/2001/REC-SVG-20010904/DTD/svg10.dtd">
<svg version="1.0" xmlns="http://www.w3.org/2000/svg"
 width="2845.000000pt" height="879.000000pt" viewBox="0 0 2845.000000 879.000000"
 preserveAspectRatio="xMidYMid meet">

<g transform="translate(0.000000,879.000000) scale(0.100000,-0.100000)"
fill="#fafafa" stroke="none">
<path d="M4100 8757 c-3 -2 -52 -7 -110 -11 -188 -11 -318 -29 -538 -72 -1046
-208 -1972 -804 -2614 -1685 -431 -591 -711 -1333 -782 -2074 -13 -127 -26
-433 -21 -485 3 -30 7 -109 10 -175 3 -66 7 -133 9 -150 2 -16 7 -57 11 -90
18 -164 60 -393 105 -570 42 -165 123 -417 146 -452 l14 -23 340 0 c187 0 340
4 340 8 0 4 -24 66 -54 138 -140 339 -226 683 -263 1049 -10 103 -10 577 0
675 79 753 356 1411 839 1994 152 183 438 448 642 596 241 173 588 359 856
459 240 88 520 159 760 191 47 6 99 13 115 15 116 16 532 21 670 10 367 -31
736 -117 1050 -245 54 -22 103 -36 107 -32 5 5 7 159 6 343 l-3 334 -110 38
c-200 70 -570 154 -795 181 -73 9 -131 15 -195 22 -83 8 -529 17 -535 11z"/>
<path d="M4260 7384 c-15 -39 -38 -187 -45 -284 -3 -47 -8 -103 -10 -125 -3
-22 -7 -92 -10 -155 -3 -63 -10 -196 -15 -295 -5 -99 -12 -225 -15 -280 -10
-180 -26 -393 -41 -540 -22 -204 -84 -327 -190 -371 -18 -8 -66 -14 -106 -15
-127 -1 -256 58 -438 201 -268 211 -311 241 -339 238 -14 -2 -27 -10 -29 -19
-4 -24 62 -116 184 -251 154 -172 200 -230 235 -300 100 -199 44 -379 -148
-477 -32 -16 -76 -34 -98 -40 -38 -10 -264 -35 -410 -46 -38 -3 -92 -7 -120
-10 -27 -3 -79 -8 -115 -11 -35 -2 -83 -6 -105 -9 -22 -2 -78 -6 -125 -10
-124 -9 -289 -34 -327 -50 -104 -44 35 -83 392 -110 148 -11 269 -22 350 -30
28 -3 79 -7 115 -10 261 -20 349 -35 432 -76 78 -38 120 -71 153 -120 79 -120
75 -254 -12 -396 -21 -34 -107 -140 -191 -235 -166 -189 -198 -230 -207 -269
-9 -36 16 -44 63 -20 21 11 94 64 162 118 201 159 271 209 346 246 148 74 257
87 349 42 140 -68 177 -200 210 -740 13 -212 15 -245 20 -340 25 -497 36 -667
50 -775 13 -106 17 -128 27 -163 13 -42 28 -59 45 -49 25 16 54 178 67 379 9
120 25 411 31 538 5 114 19 345 30 520 6 79 12 157 20 225 2 19 7 62 10 95 14
122 62 226 132 284 73 60 163 68 289 26 109 -37 167 -71 332 -199 250 -194
266 -206 293 -215 37 -13 53 0 44 37 -7 32 -72 114 -210 267 -129 142 -176
204 -214 285 -33 68 -36 83 -36 160 1 72 5 93 27 135 62 120 207 203 383 220
33 3 80 8 105 10 68 7 186 17 345 30 127 10 276 23 340 30 22 2 69 7 105 10
94 9 203 34 218 49 29 28 -28 51 -173 70 -94 13 -208 24 -420 41 -38 3 -92 8
-120 10 -27 3 -81 7 -120 10 -38 4 -88 8 -110 10 -22 2 -71 7 -110 10 -235 21
-380 96 -445 230 -19 39 -24 66 -24 125 -1 143 41 218 254 456 78 87 157 181
176 209 68 99 30 126 -75 53 -33 -24 -131 -98 -217 -166 -154 -121 -281 -197
-370 -221 -22 -6 -72 -11 -111 -12 -60 -1 -78 3 -122 27 -60 32 -102 85 -131
162 -39 104 -65 372 -95 987 -11 220 -24 450 -30 520 -2 28 -7 86 -10 130 -8
96 -30 217 -45 245 -15 28 -39 25 -50 -6z"/>
<path d="M28073 6502 l-273 -76 0 -393 c0 -216 -2 -393 -5 -393 -3 0 -22 11
-43 24 -95 63 -304 104 -467 91 -442 -33 -784 -282 -966 -706 -91 -209 -131
-416 -133 -674 -1 -216 7 -311 39 -471 99 -491 376 -817 783 -924 283 -74 586
-25 791 129 30 23 56 39 59 37 2 -3 12 -40 21 -83 l16 -78 248 -3 247 -2 0
1800 0 1800 -22 -1 c-13 0 -146 -35 -295 -77z m-443 -1295 c30 -9 81 -33 113
-52 l57 -37 0 -739 0 -740 -47 -47 c-86 -85 -192 -118 -348 -109 -344 22 -552
250 -610 667 -11 82 -5 368 10 452 49 281 172 472 365 566 138 68 311 82 460
39z"/>
<path d="M14139 5786 c-2 -2 -62 -6 -134 -10 -161 -7 -196 -11 -365 -42 -128
-23 -319 -69 -329 -79 -3 -4 213 -460 224 -473 1 -1 60 14 131 33 177 49 227
56 394 61 285 7 451 -68 543 -244 45 -86 62 -150 68 -262 3 -48 3 -48 -83 -43
-121 8 -413 -14 -568 -43 -349 -64 -575 -189 -726 -401 -158 -219 -189 -550
-80 -837 74 -196 261 -371 467 -440 251 -84 563 -69 790 37 83 38 186 112 223
160 14 17 27 29 30 26 3 -3 18 -60 33 -127 l27 -122 241 2 240 3 0 820 c0 744
-4 983 -20 1100 -37 269 -119 450 -274 605 -152 152 -388 248 -646 265 -49 3
-111 8 -136 10 -25 3 -47 3 -50 1z m542 -1688 c-1 -203 -15 -290 -63 -388 -58
-120 -185 -221 -314 -250 -83 -19 -222 -14 -295 10 -187 62 -274 194 -258 394
19 249 228 383 643 412 44 4 82 7 83 8 1 0 47 -1 103 -4 l102 -5 -1 -177z"/>
<path d="M8970 5776 c-3 -3 -37 -6 -75 -7 -256 -6 -551 -106 -718 -243 -100
-82 -197 -224 -241 -353 -96 -284 -20 -602 187 -774 162 -136 344 -205 752
-285 271 -54 358 -80 445 -132 92 -56 125 -110 124 -206 0 -85 -22 -134 -85
-190 -90 -82 -221 -116 -448 -116 -75 0 -152 2 -171 5 -19 4 -75 12 -125 20
-126 20 -328 77 -443 126 -53 22 -104 43 -113 45 -12 4 -50 -55 -157 -246 -78
-138 -142 -253 -142 -256 0 -16 278 -113 440 -154 269 -68 503 -95 749 -87
191 7 220 10 355 38 418 87 673 297 763 630 28 101 25 339 -5 444 -32 109 -76
189 -147 261 -154 157 -382 254 -798 339 -327 67 -447 106 -535 172 -96 72
-97 226 -1 322 45 46 137 87 233 105 91 16 297 15 421 -4 102 -15 320 -71 409
-104 38 -15 73 -23 76 -19 29 32 289 468 283 474 -10 8 -205 72 -303 98 -89
23 -314 68 -386 75 -135 15 -339 28 -344 22z"/>
<path d="M22650 5764 c-361 -46 -632 -205 -831 -487 -196 -278 -284 -682 -246
-1137 15 -186 77 -420 148 -562 83 -167 228 -339 370 -441 360 -256 934 -272
1317 -36 95 58 250 201 322 298 138 184 227 435 260 726 10 99 8 417 -5 505
-48 346 -169 613 -366 810 -216 216 -456 315 -789 324 -80 2 -161 2 -180 0z
m319 -563 c196 -74 331 -249 391 -504 28 -122 32 -158 34 -322 3 -241 -30
-411 -111 -568 -107 -207 -266 -314 -478 -323 -342 -14 -571 235 -630 686 -7
56 -7 301 1 372 41 391 245 650 539 687 70 9 193 -5 254 -28z"/>
<path d="M11680 5757 c-3 -2 -39 -7 -82 -11 -155 -13 -301 -63 -429 -148 -44
-29 -84 -52 -87 -51 -4 1 -16 39 -27 85 l-20 83 -250 0 -250 0 0 -1870 0
-1870 25 3 c14 2 147 33 295 70 l270 67 0 468 c0 412 2 467 15 463 8 -3 45
-16 82 -30 110 -41 219 -59 373 -60 156 -1 235 11 365 56 416 145 729 599 777
1129 10 108 10 381 0 484 -38 396 -155 667 -382 883 -173 164 -320 226 -590
248 -44 3 -82 4 -85 1z m55 -562 c69 -20 160 -80 218 -144 86 -97 160 -286
182 -466 14 -110 12 -351 -2 -452 -59 -404 -302 -648 -643 -645 -124 2 -261
50 -336 120 l-29 27 5 724 5 725 80 43 c177 95 348 118 520 68z"/>
<path d="M17060 5757 c-3 -2 -32 -7 -66 -11 -175 -18 -373 -108 -463 -212 -35
-39 -33 -42 -56 71 -9 44 -19 88 -22 98 -4 16 -25 17 -254 17 l-249 0 0 -1370
0 -1370 293 2 292 3 5 960 5 960 27 45 c70 120 172 205 288 241 125 39 290 24
399 -37 25 -14 48 -21 52 -17 14 15 349 484 349 489 0 20 -243 105 -340 118
-71 9 -254 19 -260 13z"/>
<path d="M25610 5753 c-204 -20 -368 -88 -482 -200 -65 -64 -55 -74 -86 77
l-17 85 -250 0 -250 0 0 -1365 0 -1365 293 -3 292 -2 0 950 0 951 30 58 c42
85 126 171 207 214 91 47 142 59 243 58 98 -2 170 -18 236 -55 25 -14 50 -24
54 -21 4 3 85 113 180 245 194 271 188 250 84 294 -157 65 -364 96 -534 79z"/>
<path d="M18607 5713 c-2 -5 -6 -620 -8 -1368 l-4 -1360 294 -3 294 -2 -6 632
c-4 348 -8 751 -10 896 -2 185 0 259 8 250 5 -8 311 -411 678 -896 l668 -882
258 0 258 0 6 677 c4 372 7 988 7 1370 l0 693 -291 0 -291 0 6 -432 c3 -238 9
-638 12 -888 l6 -455 -157 205 c-86 113 -392 512 -678 887 l-522 683 -262 0
c-144 0 -264 -3 -266 -7z"/>
<path d="M20710 1914 c-292 -50 -477 -151 -631 -341 -142 -177 -210 -374 -210
-608 0 -439 286 -807 711 -915 327 -83 686 20 916 262 118 125 189 252 236
424 17 65 21 107 21 234 0 173 -15 247 -76 389 -114 263 -353 461 -642 532
-76 18 -272 33 -325 23z m249 -370 c198 -45 363 -210 416 -414 19 -74 21 -235
4 -308 -17 -69 -72 -181 -119 -240 -52 -66 -172 -145 -258 -173 -93 -29 -238
-36 -324 -15 -269 63 -448 294 -448 576 0 396 340 664 729 574z"/>
<path d="M18605 1868 c-3 -7 -4 -416 -3 -908 l3 -895 183 -3 182 -2 0 350 0
350 353 2 352 3 3 159 c2 110 -1 163 -9 172 -10 12 -71 14 -353 14 l-341 -1 0
211 0 211 360 2 360 2 0 170 0 170 -543 3 c-429 2 -544 0 -547 -10z"/>
<path d="M22005 1868 c-3 -7 -4 -416 -3 -908 l3 -895 182 -3 183 -2 2 545 3
546 381 -543 381 -543 141 -3 142 -3 0 911 0 910 -182 -2 -183 -3 0 -538 c0
-295 -3 -537 -7 -537 -3 0 -176 243 -385 540 l-378 539 -138 1 c-101 0 -139
-3 -142 -12z"/>
<path d="M23750 970 l0 -910 418 0 c438 1 476 4 606 50 133 46 278 147 366
254 138 170 200 343 206 581 4 154 -11 248 -61 380 -78 209 -262 402 -461 485
-154 64 -203 69 -661 70 l-413 0 0 -910z m885 540 c133 -41 244 -137 305 -264
137 -285 42 -642 -206 -773 -103 -55 -155 -63 -393 -64 -117 0 -215 2 -217 4
-6 5 -5 1107 0 1116 7 11 469 -5 511 -19z"/>
<path d="M25600 970 l0 -910 565 0 565 0 -2 172 -3 173 -373 2 c-205 1 -376 4
-380 7 -4 2 -6 92 -4 200 l3 196 339 0 340 0 0 170 0 170 -338 0 c-186 0 -341
2 -343 4 -2 2 -2 88 1 191 l5 186 370 2 370 2 0 170 0 170 -557 3 -558 2 0
-910z"/>
<path d="M26975 1868 c-3 -7 -4 -416 -3 -908 l3 -895 182 -3 183 -2 2 545 3
546 380 -543 381 -543 142 -3 142 -3 0 911 0 910 -182 -2 -183 -3 -2 -539 c-1
-296 -4 -540 -5 -541 -2 -1 -174 242 -383 541 l-380 543 -138 1 c-101 0 -139
-3 -142 -12z"/>
</g>
</svg>
