<?xml version="1.0" standalone="no"?>
<!DOCTYPE svg PUBLIC "-//W3C//DTD SVG 20010904//EN"
 "http://www.w3.org/TR/2001/REC-SVG-20010904/DTD/svg10.dtd">
<svg version="1.0" xmlns="http://www.w3.org/2000/svg"
 width="1016.000000pt" height="400.000000pt" viewBox="0 0 1016.000000 400.000000"
 preserveAspectRatio="xMidYMid meet">

<g transform="translate(0.000000,400.000000) scale(0.100000,-0.100000)"
fill="#fafafa" stroke="none">
<path d="M33 3028 l3 -943 28 -125 c15 -69 30 -136 32 -150 14 -71 82 -248
135 -350 182 -346 504 -657 854 -825 269 -129 374 -144 555 -80 424 149 787
457 1027 870 88 152 153 352 195 600 23 139 23 143 23 1040 l0 900 -1428 3
-1428 2 4 -942z m2697 882 c0 -5 -13 -10 -29 -10 -49 0 -258 -58 -369 -102
-137 -55 -296 -144 -408 -229 -175 -132 -346 -332 -433 -506 l-31 -62 0 -716
c0 -393 -4 -715 -8 -715 -4 0 -13 30 -20 67 -31 179 -160 479 -294 683 -259
398 -622 713 -996 865 l-57 23 -3 351 -2 351 60 0 c75 0 280 -48 409 -96 120
-45 277 -127 395 -207 179 -121 396 -365 476 -534 14 -29 28 -53 32 -53 5 0 8
200 8 445 l0 445 623 3 c342 1 628 3 635 5 6 1 12 -2 12 -8z m108 -1227 c-4
-518 -5 -531 -31 -675 -29 -165 -70 -312 -119 -426 l-33 -77 -598 -3 -597 -2
0 -471 0 -470 -37 7 c-129 23 -381 138 -535 243 -214 146 -419 357 -548 564
-33 54 -63 104 -67 112 -4 13 72 15 590 15 l595 0 7 48 c57 390 293 829 625
1163 136 137 235 219 375 312 115 76 326 183 368 186 5 1 7 -236 5 -526z"/>
<path d="M5550 3023 c-69 -7 -80 -12 -80 -38 0 -26 3 -27 120 -43 l55 -7 3
-677 2 -676 -42 -7 c-24 -3 -64 -11 -90 -16 -44 -10 -48 -14 -48 -40 l0 -29
235 0 235 0 0 29 c0 32 -3 33 -142 57 l-38 6 0 724 0 724 -87 -2 c-49 0 -104
-3 -123 -5z"/>
<path d="M6125 3023 c-73 -6 -85 -12 -85 -37 0 -27 12 -32 113 -42 l67 -7 0
-678 0 -678 -37 -6 c-139 -23 -144 -25 -141 -53 l3 -27 235 0 c234 0 235 0
238 22 2 13 -4 25 -15 31 -14 8 -142 32 -168 32 -3 0 -5 325 -5 723 l1 722
-83 1 c-46 1 -101 -1 -123 -3z"/>
<path d="M9730 3021 c-62 -7 -80 -15 -80 -37 0 -20 34 -31 119 -40 l71 -7 0
-198 0 -198 -162 2 c-172 1 -230 -9 -323 -55 -106 -54 -187 -155 -231 -291
-24 -72 -27 -99 -28 -217 -2 -248 62 -391 209 -468 46 -25 60 -27 170 -27 120
0 120 0 185 37 77 43 106 72 154 152 l36 59 -8 -69 c-4 -38 -7 -91 -7 -119 l0
-50 85 -3 c47 -1 112 1 145 5 55 7 60 10 63 35 3 29 13 26 -118 45 l-55 8 -3
723 -2 722 -83 -1 c-45 -1 -107 -5 -137 -8z m83 -580 l27 -11 0 -217 c-1 -249
-13 -339 -59 -435 -66 -139 -165 -211 -291 -211 -121 0 -199 59 -251 190 -21
52 -24 74 -24 223 0 159 1 167 29 235 53 128 109 185 220 227 43 16 71 18 186
14 74 -2 147 -9 163 -15z"/>
<path d="M3817 2912 l-148 -3 3 -27 c3 -23 9 -28 53 -39 28 -6 67 -12 88 -12
l37 -1 0 -625 0 -624 -37 -6 c-140 -23 -143 -24 -143 -56 l0 -30 333 3 c332 3
332 3 404 30 128 47 194 105 244 213 94 200 6 424 -189 481 -31 9 -64 19 -72
21 -9 3 0 11 25 21 149 61 237 185 237 332 0 90 -30 167 -86 218 -111 102
-207 116 -749 104z m561 -108 c114 -36 171 -131 159 -263 -16 -182 -181 -277
-467 -269 l-105 3 -3 272 -2 272 52 3 c132 8 310 -1 366 -18z m-58 -641 c132
-27 216 -88 240 -173 12 -43 12 -142 1 -193 -22 -95 -118 -177 -237 -202 -72
-15 -221 -19 -311 -9 l-53 7 0 293 0 293 53 4 c85 6 227 -3 307 -20z"/>
<path d="M5095 2908 c-52 -28 -62 -92 -20 -133 50 -51 135 -15 135 57 -1 37
-14 59 -47 76 -27 15 -42 15 -68 0z"/>
<path d="M8415 2542 c-33 -10 -75 -26 -94 -36 -49 -26 -125 -105 -155 -162
l-26 -49 4 50 c3 28 8 83 12 124 l6 74 -137 -7 c-75 -4 -143 -10 -151 -13 -8
-3 -14 -18 -14 -34 0 -29 0 -29 64 -29 36 0 76 -4 90 -10 l26 -10 0 -429 0
-429 -37 -6 c-140 -24 -143 -25 -143 -57 l0 -29 235 0 235 0 0 29 c0 32 -4 33
-142 56 l-38 6 0 227 c0 346 27 457 136 567 65 65 117 85 219 85 117 0 162
-26 202 -115 16 -36 18 -78 19 -435 1 -217 2 -401 3 -407 1 -10 37 -13 144
-13 79 0 146 2 149 5 3 3 3 16 0 30 -4 25 -16 29 -144 50 l-37 6 -3 377 -3
377 -33 68 c-19 38 -47 78 -66 92 -76 58 -216 78 -321 47z"/>
<path d="M4995 2533 c-92 -5 -105 -10 -105 -39 0 -29 4 -31 100 -38 41 -3 76
-6 78 -6 1 0 2 -196 2 -435 l0 -434 -37 -6 c-139 -23 -144 -25 -141 -53 l3
-27 235 0 c234 0 235 0 238 22 2 13 -4 25 -15 31 -14 8 -142 32 -167 32 -3 0
-6 216 -6 480 l0 480 -62 -2 c-35 -1 -90 -3 -123 -5z"/>
<path d="M6670 2533 c-87 -5 -100 -10 -100 -39 0 -29 4 -31 98 -38 40 -3 77
-8 82 -11 6 -4 10 -152 10 -374 0 -410 2 -425 67 -500 60 -70 100 -85 235 -88
115 -3 117 -2 186 32 77 39 140 100 174 170 24 50 43 60 31 18 -5 -16 -8 -68
-8 -118 l0 -90 85 -3 c47 -1 112 1 145 5 55 7 60 10 63 35 4 29 8 28 -123 45
-50 7 -60 11 -61 28 -1 11 -2 226 -3 479 l-1 459 -127 -7 c-71 -4 -136 -9
-145 -12 -21 -6 -25 -52 -5 -59 9 -3 117 -13 160 -15 4 0 7 -119 7 -264 0
-254 -1 -268 -25 -343 -57 -182 -173 -278 -331 -278 -93 1 -151 33 -186 102
-23 48 -23 51 -26 461 l-3 412 -72 -2 c-40 -1 -97 -3 -127 -5z"/>
<path d="M3793 1063 c-44 -3 -53 -7 -53 -23 0 -16 10 -20 60 -26 l60 -7 -2
-461 -3 -461 -25 -3 c-75 -8 -90 -13 -90 -32 0 -19 8 -20 160 -20 133 0 160 2
160 14 0 21 -15 28 -74 35 l-51 6 -3 158 c-1 96 1 157 7 155 5 -1 71 -85 146
-185 l138 -183 88 0 c87 0 104 5 91 27 -5 8 -102 33 -128 33 -2 0 -215 273
-241 309 -11 14 5 34 109 146 112 119 127 131 171 142 27 6 54 16 60 22 25 25
-11 32 -149 29 -122 -3 -139 -5 -142 -20 -2 -12 5 -19 25 -24 82 -18 85 -8
-42 -147 -65 -70 -121 -127 -126 -127 -5 0 -10 145 -11 323 l-3 322 -40 1
c-22 0 -64 -1 -92 -3z"/>
<path d="M4715 741 c-100 -28 -170 -87 -214 -180 -24 -52 -26 -66 -26 -191 0
-120 3 -141 23 -185 28 -60 73 -109 127 -138 33 -18 57 -22 140 -22 84 0 107
4 142 23 131 69 205 235 182 411 -4 39 -18 93 -30 121 -24 56 -90 122 -146
145 -45 19 -155 28 -198 16z m140 -62 c54 -15 126 -90 144 -149 31 -104 23
-248 -19 -331 -24 -46 -78 -94 -126 -109 -60 -20 -159 -8 -207 27 -135 95
-142 419 -11 519 65 50 140 65 219 43z"/>
<path d="M5590 741 c-64 -20 -131 -74 -159 -128 -7 -13 -16 -23 -22 -23 -5 0
-7 10 -4 23 3 12 7 45 8 72 l2 50 -40 3 c-69 4 -160 -11 -160 -28 0 -10 19
-18 60 -25 l60 -10 0 -295 0 -295 -54 -7 c-29 -3 -58 -11 -63 -16 -25 -25 7
-32 158 -32 146 0 154 1 154 20 0 19 -15 24 -90 32 l-25 3 0 195 c0 193 0 196
28 255 16 33 40 73 55 89 60 63 165 85 227 46 62 -38 65 -57 65 -364 l0 -276
100 0 c92 0 100 1 100 19 0 16 -9 21 -47 26 -27 4 -54 8 -61 11 -11 3 -13 44
-10 201 3 182 5 202 26 248 47 103 130 160 219 153 66 -6 106 -40 122 -103 7
-26 11 -147 11 -299 l0 -256 100 0 c83 0 100 3 100 15 0 19 -40 35 -86 35
l-34 0 0 219 c0 317 -15 375 -111 424 -45 24 -63 28 -114 25 -38 -2 -78 -13
-109 -28 -49 -25 -116 -92 -116 -117 0 -28 -18 -11 -34 32 -20 52 -62 90 -114
105 -42 11 -105 12 -142 1z"/>
<path d="M6884 734 c-52 -19 -114 -71 -139 -118 -22 -40 -38 -48 -30 -13 3 12
6 47 8 77 l2 55 -95 -3 c-87 -3 -117 -13 -104 -33 2 -4 31 -10 64 -14 l60 -7
-2 -296 -3 -297 -48 -7 c-50 -7 -81 -24 -71 -39 3 -5 77 -9 165 -9 132 0 159
2 159 14 0 21 -15 28 -74 35 l-51 6 -3 154 c-4 238 25 328 132 415 34 28 45
31 106 31 54 0 72 -4 90 -20 53 -48 55 -60 58 -357 l4 -278 99 0 c54 0 99 3
99 8 -1 21 -21 32 -70 39 l-55 8 0 195 c0 189 1 197 26 250 34 73 70 114 122
139 78 38 163 23 203 -36 17 -25 19 -54 24 -313 l5 -285 98 -3 c80 -2 97 0 97
12 0 21 -14 27 -74 35 l-51 6 -5 270 c-5 294 -8 309 -66 354 -59 46 -173 52
-251 13 -37 -19 -103 -84 -130 -128 -11 -18 -12 -18 -12 4 -2 52 -60 120 -120
141 -45 15 -117 13 -167 -5z"/>
<path d="M9010 730 c-53 -18 -111 -68 -151 -130 -15 -23 -16 -20 -11 59 l5 84
-69 -6 c-38 -4 -81 -7 -96 -7 -21 0 -28 -5 -28 -18 0 -15 12 -21 58 -28 l57
-9 3 -293 c2 -229 0 -293 -10 -297 -7 -2 -34 -6 -60 -10 -39 -5 -48 -10 -48
-26 0 -18 8 -19 155 -19 147 0 155 1 155 19 0 16 -9 21 -47 26 -27 4 -54 8
-60 10 -19 6 -17 322 1 393 36 134 120 212 228 212 60 0 108 -27 132 -75 19
-37 21 -60 24 -312 l4 -273 93 0 c52 0 96 4 99 8 11 18 -13 32 -64 39 l-55 8
-5 260 c-6 286 -10 308 -69 358 -59 49 -147 60 -241 27z"/>
<path d="M9745 741 c-92 -23 -169 -94 -206 -190 -18 -46 -22 -78 -23 -181 0
-114 2 -130 25 -180 34 -74 67 -111 125 -140 45 -23 59 -25 179 -24 159 1 205
15 205 63 0 36 4 35 -51 15 -25 -9 -87 -17 -140 -19 -82 -3 -102 -1 -138 17
-84 41 -131 134 -131 259 l0 69 243 2 242 3 -3 65 c-2 38 -12 83 -23 107 -50
106 -182 163 -304 134z m150 -71 c45 -22 75 -57 93 -109 26 -75 35 -71 -188
-71 -222 0 -214 -3 -184 68 19 46 69 100 109 118 45 20 122 17 170 -6z"/>
<path d="M7830 731 c-29 -4 -46 -11 -48 -22 -2 -12 11 -17 60 -25 l63 -9 5
-265 c4 -225 8 -270 22 -296 41 -76 111 -103 231 -90 76 8 141 48 181 111 16
25 30 45 32 45 1 0 0 -34 -3 -75 l-6 -76 99 3 c94 3 99 4 102 25 3 20 -1 23
-35 23 -21 0 -48 3 -60 6 l-23 6 0 319 c0 263 -2 321 -14 325 -8 3 -51 2 -97
-3 -65 -6 -84 -12 -87 -24 -2 -13 9 -18 58 -23 l60 -7 0 -174 c0 -196 -9 -254
-50 -318 -46 -73 -91 -101 -170 -105 -86 -5 -125 13 -150 71 -17 37 -19 72
-20 306 0 145 -3 268 -6 272 -6 10 -72 10 -144 0z"/>
</g>
</svg>
