<?xml version="1.0" standalone="no"?>
<!DOCTYPE svg PUBLIC "-//W3C//DTD SVG 20010904//EN"
 "http://www.w3.org/TR/2001/REC-SVG-20010904/DTD/svg10.dtd">
<svg version="1.0" xmlns="http://www.w3.org/2000/svg"
 width="656.000000pt" height="400.000000pt" viewBox="0 0 656.000000 400.000000"
 preserveAspectRatio="xMidYMid meet">

<g transform="translate(0.000000,400.000000) scale(0.100000,-0.100000)"
fill="#fafafa" stroke="none">
<path d="M1794 3924 c-4 -15 -4 -295 -1 -623 5 -555 7 -601 26 -671 66 -248
228 -436 461 -537 332 -144 721 -39 950 256 65 85 98 159 148 331 7 24 10
-187 11 -698 1 -619 3 -737 16 -761 20 -40 116 -125 187 -166 282 -166 638
-100 843 155 71 88 114 178 139 293 l6 27 548 0 c301 0 586 5 633 10 653 75
949 843 509 1322 -65 71 -191 162 -275 198 -65 28 -199 60 -251 60 -42 0 -76
23 -58 39 5 5 45 14 88 20 204 29 408 142 533 296 91 111 162 286 166 412 l2
58 -520 3 c-286 1 -575 -2 -642 -7 -251 -20 -446 -123 -583 -307 -93 -125
-132 -211 -156 -349 -18 -102 -18 -161 1 -270 55 -313 284 -559 595 -638 74
-19 90 -26 70 -31 -14 -4 -250 -5 -525 -4 l-500 3 -6 445 c-7 484 -10 517 -69
661 -92 223 -311 415 -540 474 -192 50 -422 16 -597 -86 -74 -44 -228 -197
-272 -271 -63 -108 -98 -220 -116 -370 -4 -32 -11 -48 -20 -48 -21 0 -32 27
-39 101 -16 163 -95 325 -225 462 -121 127 -288 209 -474 232 -55 7 -56 7 -63
-21z"/>
<path d="M1225 1847 c-3 -6 -4 -165 -3 -352 l3 -340 70 0 70 0 3 353 2 352
-70 0 c-48 0 -72 -4 -75 -13z"/>
<path d="M60 1495 l0 -348 173 6 c180 5 220 13 275 55 113 83 100 259 -22 290
l-30 8 37 22 c74 43 96 124 57 210 -16 36 -29 47 -77 70 -55 25 -67 27 -235
30 l-178 4 0 -347z m324 204 c32 -26 36 -84 7 -120 -17 -21 -27 -24 -96 -24
l-77 0 1 78 c0 42 0 79 1 82 0 3 31 5 69 5 54 0 74 -4 95 -21z m32 -283 c22
-31 18 -83 -10 -111 -25 -25 -85 -39 -150 -33 l-38 3 1 83 c0 45 0 83 1 85 0
1 41 0 91 -3 75 -4 93 -8 105 -24z"/>
<path d="M764 1828 c-22 -10 -44 -47 -44 -74 0 -23 46 -64 73 -64 40 0 77 36
77 75 0 24 -7 39 -26 54 -29 23 -48 25 -80 9z"/>
<path d="M937 1820 c-35 -28 -41 -53 -22 -89 18 -36 54 -48 94 -31 55 23 60
88 9 124 -30 21 -50 20 -81 -4z"/>
<path d="M1630 1641 c-115 -38 -173 -118 -173 -244 0 -142 86 -238 222 -245
96 -6 147 11 202 67 53 52 69 96 69 186 -1 99 -45 176 -125 217 -43 23 -152
33 -195 19z m121 -111 c36 -20 51 -67 47 -146 -3 -60 -8 -77 -27 -98 -25 -26
-76 -35 -116 -20 -34 13 -50 75 -46 177 2 72 80 120 142 87z"/>
<path d="M2877 1636 c-76 -27 -112 -82 -105 -158 7 -66 41 -101 127 -129 83
-27 108 -48 92 -78 -9 -17 -21 -21 -59 -21 -27 0 -57 7 -68 15 -31 24 -61 18
-85 -16 -17 -24 -20 -36 -12 -48 16 -26 93 -50 163 -50 122 -1 200 62 200 161
0 43 -5 55 -32 82 -19 19 -56 40 -88 51 -72 23 -100 41 -100 65 0 36 43 46
105 26 62 -22 74 -19 98 22 17 31 17 31 -8 48 -66 43 -157 55 -228 30z"/>
<path d="M662 1458 c3 -205 13 -242 78 -286 47 -32 130 -30 189 3 51 29 51 29
51 10 0 -22 36 -36 83 -33 l42 3 3 243 2 242 -75 0 -75 0 0 -175 0 -174 -30
-16 c-43 -22 -86 -19 -104 7 -13 18 -16 55 -16 190 l0 168 -76 0 -76 0 4 -182z"/>
<path d="M1980 1633 c0 -5 34 -114 74 -243 l74 -235 61 -3 c76 -4 77 -2 128
181 35 125 53 165 53 120 1 -35 79 -286 92 -294 7 -5 39 -9 70 -9 l57 0 14 48
c26 83 129 416 134 429 7 18 -120 18 -135 0 -6 -7 -26 -76 -43 -152 -18 -77
-35 -144 -39 -148 -4 -4 -24 59 -45 140 -21 81 -43 154 -48 161 -7 9 -30 12
-71 10 l-61 -3 -44 -159 c-25 -89 -47 -152 -51 -145 -4 8 -19 73 -35 144 -15
72 -32 138 -37 148 -7 14 -22 17 -78 17 -39 0 -70 -3 -70 -7z"/>
<path d="M1797 893 c-4 -3 -7 -154 -7 -335 l0 -328 60 0 c46 0 62 4 67 16 3 8
2 106 -3 216 -5 110 -6 202 -2 204 3 2 11 -8 16 -24 5 -15 38 -106 72 -202 34
-96 66 -183 72 -193 7 -14 19 -17 50 -15 l40 3 48 135 c27 74 60 170 75 213
15 42 31 77 35 77 5 0 6 -35 4 -77 -11 -216 -12 -275 -7 -313 l6 -41 61 3 61
3 0 330 0 330 -75 3 c-41 1 -80 -1 -85 -5 -6 -5 -44 -108 -85 -231 -41 -122
-78 -221 -83 -219 -5 1 -42 100 -82 220 -41 119 -76 221 -80 227 -7 11 -148
14 -158 3z"/>
<path d="M2985 887 c-3 -7 -4 -156 -3 -332 l3 -320 58 -3 57 -3 0 68 c0 70 17
113 44 113 7 0 35 -34 61 -76 27 -42 55 -82 62 -90 16 -16 118 -19 128 -4 3 5
-30 62 -73 127 -43 65 -81 123 -85 130 -4 6 27 49 72 101 44 49 77 93 74 96
-4 3 -35 6 -69 6 l-63 0 -67 -77 c-37 -43 -71 -79 -76 -81 -4 -2 -8 78 -8 177
l0 181 -55 0 c-36 0 -57 -5 -60 -13z"/>
<path d="M4360 886 c-120 -25 -187 -116 -160 -217 20 -74 82 -122 208 -164 74
-24 112 -58 112 -100 0 -51 -40 -78 -108 -73 -60 5 -97 33 -107 80 -7 29 -8
29 -68 26 l-62 -3 3 -35 c4 -53 49 -111 111 -143 46 -23 67 -27 135 -27 146 1
226 64 226 178 -1 95 -61 155 -208 210 -84 31 -122 60 -122 95 0 53 94 94 150
65 14 -7 33 -30 43 -51 18 -37 19 -37 78 -37 57 0 59 1 59 25 0 36 -34 98 -70
128 -50 43 -139 60 -220 43z"/>
<path d="M2648 696 c-60 -16 -94 -39 -114 -77 -23 -46 -13 -59 47 -59 43 0 54
4 71 25 15 19 29 25 58 25 42 0 57 -13 66 -57 l6 -30 -78 -6 c-44 -4 -94 -15
-113 -25 -104 -54 -108 -198 -8 -245 45 -22 119 -22 163 -1 32 16 36 16 47 0
17 -23 124 -19 118 4 -2 8 -7 92 -10 187 -5 152 -8 175 -27 200 -41 56 -138
82 -226 59z m132 -295 c0 -31 -6 -44 -26 -60 -32 -25 -81 -27 -106 -4 -24 21
-23 44 3 77 18 22 28 26 75 26 l54 0 0 -39z"/>
<path d="M4060 699 c-13 -6 -32 -17 -41 -25 -15 -13 -17 -13 -22 6 -4 17 -13
20 -61 20 l-56 0 0 -235 0 -235 60 0 60 0 0 151 c0 83 4 159 10 169 11 21 60
40 101 40 28 0 29 1 29 54 0 66 -19 79 -80 55z"/>
<path d="M5320 701 c-76 -16 -140 -69 -140 -117 0 -23 4 -24 59 -24 51 0 61 3
66 21 15 47 100 44 123 -5 21 -43 11 -52 -68 -60 -88 -8 -128 -24 -163 -65
-22 -26 -27 -43 -27 -85 0 -59 21 -96 70 -121 39 -20 121 -19 166 2 34 17 36
17 45 0 8 -13 23 -17 62 -17 l53 0 -3 163 c-2 89 -6 177 -9 195 -8 49 -62 98
-124 111 -56 12 -59 12 -110 2z m120 -296 c0 -48 -37 -85 -84 -85 -62 0 -88
58 -46 100 15 15 33 20 75 20 l55 0 0 -35z"/>
<path d="M5770 701 c-117 -38 -170 -127 -157 -266 12 -128 76 -196 192 -203
35 -2 79 1 98 7 37 13 107 81 107 105 0 8 3 21 6 30 5 14 -3 16 -52 16 -54 0
-60 -2 -75 -29 -29 -51 -100 -49 -135 3 -23 36 -23 166 0 202 39 59 108 53
139 -12 17 -34 18 -35 70 -32 l52 3 -3 34 c-4 48 -37 98 -82 121 -43 22 -124
33 -160 21z"/>
<path d="M6203 694 c-147 -53 -190 -300 -71 -411 62 -58 184 -71 274 -29 62
29 72 48 42 86 -26 33 -40 36 -58 15 -20 -25 -86 -38 -125 -25 -33 11 -85 74
-72 87 3 3 68 6 144 7 l138 1 3 52 c6 112 -41 191 -131 218 -61 18 -89 18
-144 -1z m140 -115 c9 -12 17 -32 17 -45 0 -23 -2 -24 -78 -24 -43 0 -81 3
-85 6 -10 10 13 58 36 77 28 23 85 16 110 -14z"/>
<path d="M3505 683 c-46 -24 -65 -44 -92 -97 -51 -101 -26 -253 51 -310 75
-56 211 -62 286 -12 46 31 49 44 16 83 -21 24 -27 26 -43 15 -84 -59 -159 -48
-199 30 -18 35 -12 37 126 31 150 -5 160 -3 160 45 -1 98 -38 176 -101 211
-46 26 -158 28 -204 4z m149 -95 c14 -13 26 -34 28 -48 3 -25 3 -25 -82 -25
-79 0 -85 1 -82 20 4 29 58 75 87 75 13 0 35 -10 49 -22z"/>
<path d="M4700 468 c0 -128 -3 -263 -6 -300 -4 -37 -4 -78 0 -92 6 -24 10 -26
66 -26 l60 0 0 105 c0 58 2 105 5 105 3 0 17 -8 32 -17 38 -25 120 -23 164 4
56 35 82 93 87 193 5 108 -9 161 -57 213 -35 37 -43 41 -99 45 -50 3 -68 0
-97 -16 -34 -21 -35 -21 -45 -2 -8 16 -21 20 -60 20 l-50 0 0 -232z m249 118
c42 -34 55 -156 22 -216 -25 -48 -79 -63 -119 -33 -26 19 -27 24 -30 123 -2
84 0 106 14 121 26 29 80 32 113 5z"/>
</g>
</svg>
