<?xml version="1.0" standalone="no"?>
<!DOCTYPE svg PUBLIC "-//W3C//DTD SVG 20010904//EN"
 "http://www.w3.org/TR/2001/REC-SVG-20010904/DTD/svg10.dtd">
<svg version="1.0" xmlns="http://www.w3.org/2000/svg"
 width="1124.000000pt" height="400.000000pt" viewBox="0 0 1124.000000 400.000000"
 preserveAspectRatio="xMidYMid meet">

<g transform="translate(0.000000,400.000000) scale(0.100000,-0.100000)"
fill="#fafafa" stroke="none">
<path d="M730 3991 c-8 -5 -40 -14 -70 -20 -44 -9 -61 -19 -83 -46 -15 -19
-27 -41 -27 -50 0 -8 -7 -18 -15 -21 -8 -4 -15 -17 -15 -30 0 -15 -6 -24 -15
-24 -9 0 -18 -12 -21 -29 -4 -16 -14 -31 -23 -34 -16 -4 -54 -74 -124 -227
-30 -66 -33 -79 -24 -106 4 -12 1 -48 -8 -80 -8 -32 -15 -80 -15 -107 0 -30
-6 -54 -15 -63 -8 -9 -15 -28 -15 -43 0 -16 -6 -33 -13 -39 -7 -6 -24 -46 -36
-89 -13 -43 -34 -111 -48 -152 -27 -83 -53 -200 -53 -238 0 -14 -7 -31 -16
-37 -10 -8 -18 -35 -21 -76 -4 -36 -12 -70 -18 -77 -7 -7 -21 -54 -31 -105
-16 -81 -19 -153 -20 -543 -1 -247 2 -477 7 -510 26 -170 51 -290 62 -297 6
-4 16 -9 21 -11 5 -1 1 -28 -8 -58 -14 -49 -14 -75 -5 -200 11 -139 13 -147
55 -237 24 -50 49 -99 56 -108 36 -45 165 -167 189 -179 14 -8 49 -39 77 -70
61 -67 105 -85 136 -56 31 28 57 39 101 42 38 4 40 3 37 -22 -2 -19 4 -29 24
-40 21 -11 28 -11 31 -1 3 6 14 12 26 12 20 1 20 2 5 11 -19 11 -13 39 8 39
27 0 64 32 64 56 0 12 5 26 10 29 6 4 7 11 4 17 -4 6 1 8 16 3 15 -5 20 -4 16
4 -4 6 -3 11 3 11 6 0 34 24 64 53 60 58 81 109 51 121 -13 5 -15 9 -6 18 7 7
12 20 12 30 0 12 8 18 23 18 13 0 32 6 42 14 17 12 18 18 7 52 -15 52 -24 108
-36 242 -6 60 -13 85 -25 92 -10 6 -12 12 -6 17 7 5 8 37 3 93 -4 47 -8 103
-8 125 1 22 -7 54 -17 72 -15 28 -16 36 -4 54 18 30 5 135 -20 160 -26 26 -24
47 5 60 33 15 75 3 85 -24 11 -26 116 -129 149 -146 12 -7 22 -16 22 -20 0 -5
33 -41 74 -81 103 -100 227 -169 316 -176 46 -4 61 -3 50 5 -21 14 -6 25 18
12 17 -9 25 -6 50 19 30 30 55 86 50 111 -2 8 15 17 47 25 73 17 78 20 102 65
20 36 21 44 9 61 -8 11 -11 28 -9 39 7 24 -29 77 -97 144 -27 27 -50 56 -50
65 0 8 -13 34 -30 58 -16 24 -30 46 -32 50 -2 4 -21 16 -43 27 -22 11 -48 29
-59 40 -11 11 -35 29 -53 40 -45 27 -282 190 -313 215 l-25 19 140 133 c77 73
180 172 228 220 48 49 92 88 97 88 5 0 16 13 25 29 8 16 30 39 48 50 25 15 38
33 47 65 7 26 26 58 47 78 49 46 124 144 159 203 15 28 58 93 95 145 114 164
118 174 108 254 -10 81 -37 116 -127 167 l-53 30 -84 -51 c-106 -64 -250 -217
-314 -334 -32 -57 -96 -136 -243 -299 -142 -157 -223 -256 -277 -339 -42 -65
-79 -118 -82 -118 -14 0 -17 151 -5 240 7 52 10 104 6 116 -9 24 6 247 18 272
5 9 16 64 26 122 9 58 22 128 27 155 5 28 9 66 9 85 0 19 2 80 6 134 9 142
-18 345 -52 386 -6 8 -14 24 -18 36 -12 39 -77 88 -191 143 -45 21 -172 36
-195 22z"/>
<path d="M6655 3690 c-102 -47 -117 -58 -198 -143 -127 -131 -140 -153 -166
-280 -12 -59 -23 -140 -24 -180 l-2 -72 -95 -6 c-372 -25 -520 -31 -865 -34
-348 -3 -712 -16 -834 -31 -32 -4 -45 -11 -48 -25 -3 -10 -10 -19 -17 -19 -6
-1 0 -7 14 -15 20 -12 49 -14 148 -9 110 6 122 5 122 -10 0 -25 57 -44 135
-46 245 -5 1040 10 1072 21 28 9 56 9 124 -1 69 -10 94 -10 118 -1 16 7 42 11
57 9 27 -3 29 -6 28 -43 -2 -57 -20 -162 -44 -251 -34 -125 -28 -255 16 -350
13 -28 24 -58 24 -67 0 -9 5 -19 10 -22 6 -3 10 -15 10 -26 0 -11 6 -22 14
-25 7 -3 14 -17 14 -31 0 -14 7 -30 16 -35 9 -5 16 -20 16 -34 0 -14 13 -44
28 -67 16 -23 45 -68 65 -99 20 -31 50 -64 67 -74 16 -10 30 -22 30 -26 0 -17
113 -89 176 -113 83 -31 174 -42 174 -21 0 15 75 56 101 56 8 0 30 11 49 25
19 14 39 25 45 25 6 0 27 15 47 32 144 130 174 155 207 171 48 23 61 43 61 91
0 41 0 41 -38 40 -20 0 -46 -5 -57 -11 -11 -6 -42 -14 -70 -18 -27 -4 -64 -16
-81 -26 -59 -36 -64 -30 -61 74 2 53 8 102 16 116 11 20 11 25 0 32 -8 5 -18
9 -23 9 -5 0 -3 7 4 15 8 10 14 59 15 143 3 105 7 135 25 175 17 37 20 60 16
95 -7 54 21 159 46 173 8 5 48 21 89 36 70 26 83 28 231 28 86 0 154 3 152 7
-6 9 15 12 67 9 51 -3 117 26 134 59 14 27 13 30 -15 53 -16 14 -60 40 -97 59
l-68 33 -268 -3 -267 -3 -10 26 c-11 29 -12 183 -1 230 4 17 2 49 -6 75 -7 25
-13 59 -13 76 0 25 -8 36 -40 58 -59 39 -75 67 -60 111 12 38 2 65 -25 65 -6
0 -26 7 -43 16 -18 8 -56 18 -84 20 -48 5 -64 0 -163 -46z"/>
<path d="M8045 3703 c-76 -17 -152 -74 -189 -142 -34 -63 -57 -166 -44 -200 5
-14 8 -50 7 -81 -2 -40 3 -64 14 -81 10 -13 17 -33 17 -44 1 -41 123 -133 204
-154 27 -6 51 -10 54 -7 2 3 13 1 24 -5 20 -11 20 -11 1 -28 -11 -10 -44 -24
-74 -32 -29 -7 -65 -20 -79 -28 -102 -59 -177 -117 -255 -196 -87 -89 -91 -95
-119 -182 -16 -49 -29 -107 -30 -129 0 -21 -5 -42 -11 -46 -7 -5 -6 -11 1 -18
6 -6 8 -30 4 -61 -6 -47 -5 -51 17 -60 16 -6 23 -17 23 -34 0 -26 -15 -34 -23
-12 -4 9 -8 9 -16 -3 -5 -8 -7 -19 -3 -25 8 -12 12 -32 14 -67 0 -16 4 -28 8
-28 4 0 13 -19 20 -42 15 -49 86 -148 105 -148 8 0 15 -3 17 -7 6 -14 84 -63
100 -63 8 0 21 -7 28 -15 7 -8 21 -15 32 -15 11 0 39 -19 62 -43 47 -49 197
-129 217 -116 7 4 19 3 26 -2 15 -13 143 -19 143 -8 0 5 23 20 50 34 28 14 50
29 50 34 0 5 23 23 50 41 28 18 50 34 50 36 0 1 -5 25 -11 53 -8 38 -7 55 2
73 31 58 26 274 -11 463 -15 74 -7 283 11 312 11 18 7 32 -29 104 -23 46 -42
92 -42 101 0 11 -24 33 -57 55 -63 41 -82 60 -83 82 0 16 58 71 75 71 23 0 42
36 73 135 56 183 55 258 -5 322 -19 21 -46 61 -60 88 -38 74 -73 108 -73 70 0
-19 -14 -19 -30 -1 -21 27 -108 49 -160 42 -29 -4 -51 -2 -55 4 -6 10 -7 11
-40 3z"/>
<path d="M2768 3649 c-16 -9 -18 -32 -18 -253 0 -207 2 -245 15 -256 20 -17
149 -21 238 -9 159 22 222 97 222 269 0 139 -48 209 -171 246 -55 16 -260 19
-286 3z m280 -105 c41 -30 64 -86 64 -153 0 -111 -46 -163 -149 -169 -93 -6
-93 -6 -93 166 0 179 4 186 93 180 36 -3 67 -12 85 -24z"/>
<path d="M3794 3530 c-75 -37 -109 -110 -102 -220 6 -113 63 -173 176 -187 62
-7 124 11 167 48 40 35 43 49 17 72 -25 23 -42 21 -82 -8 -46 -34 -102 -34
-135 0 -29 28 -31 47 -9 69 12 13 39 16 130 16 114 0 115 0 124 26 22 57 -36
161 -107 190 -48 21 -131 17 -179 -6z m142 -83 c35 -31 27 -53 -23 -62 -79
-13 -126 36 -65 69 38 21 57 20 88 -7z"/>
<path d="M4735 3539 c-16 -5 -56 -7 -89 -4 -94 10 -96 7 -96 -200 0 -197 4
-208 65 -203 49 4 53 15 54 163 1 125 13 155 59 155 58 0 72 -34 72 -179 0
-128 7 -144 65 -139 l40 3 7 130 c10 172 4 215 -32 250 -32 31 -95 41 -145 24z"/>
<path d="M10815 3078 c-102 -18 -249 -73 -317 -118 -98 -66 -250 -235 -296
-330 -19 -41 -46 -90 -60 -107 -38 -51 -62 -158 -49 -218 24 -105 34 -129 69
-167 21 -23 40 -50 44 -62 11 -36 86 -106 113 -106 14 0 37 -12 52 -26 19 -18
51 -31 112 -45 46 -10 97 -23 113 -30 44 -16 230 -19 294 -4 30 8 81 19 112
25 32 6 66 19 77 28 11 9 39 53 62 97 23 44 50 91 59 105 20 29 30 83 33 184
l2 68 -43 -6 c-37 -5 -51 -15 -100 -68 -184 -203 -196 -209 -269 -131 -23 26
-43 53 -43 61 0 7 -9 30 -20 52 -11 22 -20 54 -20 72 0 36 5 40 130 109 36 19
92 50 125 68 33 18 67 39 76 47 8 7 30 19 47 25 25 9 39 25 67 81 30 60 35 81
35 138 0 64 -2 71 -44 127 -65 89 -135 130 -201 117 -22 -4 -35 -1 -44 10 -15
17 -39 18 -116 4z m82 -153 c23 -4 44 -13 47 -21 3 -8 14 -14 25 -14 23 0 36
-16 21 -25 -7 -4 -2 -22 15 -50 14 -24 22 -50 19 -58 -3 -8 -26 -29 -51 -48
-26 -18 -68 -52 -94 -75 -31 -28 -70 -49 -116 -64 -37 -13 -74 -25 -80 -28
-18 -6 -16 28 2 52 8 11 15 29 15 40 0 12 16 53 35 92 30 60 34 76 25 98 -7
20 -7 28 3 30 53 16 53 16 34 31 -15 11 -17 17 -7 35 9 16 18 20 38 16 15 -3
46 -8 69 -11z"/>
<path d="M9643 3064 c-3 -8 -12 -14 -19 -14 -8 0 -36 -11 -63 -25 -27 -13 -51
-22 -54 -19 -15 16 -123 -70 -171 -135 -18 -25 -50 -79 -71 -119 -20 -39 -41
-74 -46 -77 -8 -6 -61 -169 -74 -227 -3 -16 -9 -28 -14 -28 -8 0 -101 151
-101 164 0 2 -19 35 -42 72 -55 92 -113 159 -152 178 -45 21 -109 7 -151 -34
-38 -37 -37 -49 12 -140 17 -31 34 -70 38 -88 3 -17 11 -34 16 -37 5 -4 9 -14
9 -24 0 -10 7 -32 15 -47 8 -16 15 -38 15 -48 0 -11 7 -27 16 -37 8 -9 17 -30
19 -45 2 -16 4 -30 6 -31 1 -2 3 -7 4 -13 1 -5 4 -13 5 -17 1 -5 1 -16 0 -27
-1 -10 5 -33 13 -50 8 -17 22 -47 31 -66 39 -84 141 -243 181 -283 16 -15 39
-30 52 -33 13 -4 28 -14 33 -24 15 -28 98 -51 171 -48 35 1 67 6 70 11 3 4 15
10 25 11 12 2 18 10 16 21 -3 13 1 15 18 10 33 -10 100 4 94 20 -7 17 35 45
73 49 21 2 29 9 32 27 1 13 15 35 30 49 14 14 33 37 41 53 7 15 33 50 57 78
24 28 43 57 43 65 0 8 4 14 10 14 16 0 40 56 29 67 -7 7 -3 12 14 17 19 4 26
14 29 41 2 19 1 38 -4 43 -12 12 3 51 23 57 24 8 49 55 49 92 0 15 7 39 14 53
8 14 33 62 55 107 23 46 51 88 63 94 21 11 20 13 -31 60 -29 28 -54 61 -57 77
-3 15 -30 61 -60 102 l-55 74 -79 1 c-43 0 -82 3 -86 8 -4 4 4 7 17 7 23 1 23
1 4 12 -29 17 -106 18 -112 2z"/>
<path d="M5590 2719 c-19 -10 -40 -19 -47 -19 -20 0 -143 -110 -143 -128 0 -9
-7 -30 -16 -47 -8 -16 -16 -41 -17 -54 -1 -14 -8 -26 -15 -29 -20 -6 -72 53
-72 85 -1 49 -23 82 -79 118 -66 42 -138 58 -245 53 -73 -3 -91 -8 -184 -52
-56 -27 -109 -58 -119 -68 -9 -10 -24 -18 -34 -18 -25 0 -119 -89 -179 -170
-54 -73 -67 -82 -76 -52 -52 162 -100 215 -239 262 -107 36 -239 57 -258 41
-8 -6 -17 -8 -20 -4 -4 3 -32 0 -62 -7 -40 -10 -59 -10 -67 -2 -11 11 -30 5
-143 -50 -124 -60 -203 -119 -241 -180 -14 -22 -30 -38 -36 -36 -7 3 -19 31
-28 63 -11 40 -29 74 -56 103 -61 69 -64 72 -81 72 -8 0 -31 7 -50 16 -30 15
-48 15 -151 5 -90 -9 -120 -16 -129 -29 -7 -9 -16 -22 -20 -27 -27 -36 -46
-85 -57 -148 -6 -39 -16 -71 -21 -70 -5 1 -14 17 -20 36 -21 73 -136 134 -290
158 -118 17 -190 -31 -264 -178 -71 -141 -81 -163 -81 -185 0 -13 -9 -43 -20
-67 -22 -47 -26 -111 -10 -157 9 -26 14 -59 24 -164 2 -19 9 -55 16 -80 7 -25
14 -65 15 -88 2 -24 8 -49 14 -55 6 -6 11 -18 11 -27 0 -8 13 -31 28 -50 16
-19 32 -44 36 -55 16 -43 101 -143 132 -154 40 -15 67 -14 58 1 -5 8 -2 9 12
3 31 -13 126 -12 140 2 6 7 34 17 61 23 26 6 59 15 73 21 32 14 86 88 103 140
8 28 25 50 54 72 23 18 47 43 52 57 11 28 10 148 -2 167 -4 7 -7 27 -7 45 0
18 -1 90 -4 160 -5 146 -2 153 80 167 91 16 181 39 202 50 11 6 29 11 40 11
11 0 31 9 45 20 14 11 28 20 30 20 6 0 -32 -119 -43 -135 -3 -5 -6 -64 -6
-130 1 -96 5 -125 18 -144 12 -17 14 -28 7 -37 -7 -8 -7 -14 1 -19 6 -3 8 -10
5 -15 -3 -4 1 -19 8 -31 53 -98 83 -141 113 -164 19 -15 55 -47 80 -70 69 -68
133 -88 284 -91 142 -3 181 6 287 64 93 52 150 105 163 151 5 21 19 50 31 65
26 33 35 124 13 133 -31 12 -60 -7 -82 -52 -29 -60 -56 -70 -146 -57 -75 11
-111 32 -139 79 -17 29 -16 31 4 57 22 28 106 83 177 116 24 11 62 35 85 54
47 38 84 57 141 76 50 16 56 7 56 -87 0 -117 63 -262 155 -355 57 -58 140
-112 164 -105 11 3 26 -2 35 -12 17 -18 106 -27 106 -11 0 6 4 10 10 10 5 0 7
-6 4 -14 -3 -8 4 -16 18 -20 22 -7 22 -8 4 -15 -34 -13 -1 -22 82 -23 82 0
103 -5 81 -19 -10 -6 -5 -9 16 -10 17 -1 47 -3 68 -4 25 -1 41 3 44 11 3 8 10
11 17 7 6 -4 5 1 -3 10 -12 15 -10 17 16 17 42 0 138 51 200 105 28 25 56 45
62 45 6 0 19 -13 29 -30 10 -16 52 -58 93 -93 97 -82 169 -107 312 -104 58 1
101 6 105 13 4 6 18 14 32 17 35 9 52 53 32 84 -20 32 -9 50 36 58 22 3 53 19
71 36 31 28 33 32 26 82 -4 28 -12 57 -19 62 -7 6 -11 15 -9 21 2 5 -6 39 -17
73 -11 35 -20 72 -20 82 0 10 -4 20 -9 23 -14 9 -21 94 -11 121 7 19 5 44 -6
91 -14 54 -15 71 -4 109 7 24 10 51 7 58 -3 8 -1 34 4 57 8 34 7 46 -6 60 -8
9 -15 21 -15 26 0 5 -15 34 -34 65 -63 99 -229 209 -316 208 -14 0 -41 -9 -60
-20z m-1630 -305 c0 -18 18 -45 60 -88 35 -36 60 -72 60 -84 0 -15 -27 -41
-92 -90 -89 -67 -224 -139 -237 -126 -3 3 -6 47 -6 97 1 69 7 109 24 161 26
75 49 103 114 135 57 29 77 27 77 -5z m1268 -126 c50 -51 66 -62 102 -67 l42
-6 -1 -65 c0 -36 -3 -87 -5 -115 -2 -27 0 -54 4 -60 13 -18 18 -55 9 -61 -5
-3 -9 -13 -9 -23 0 -20 -116 -138 -156 -159 -16 -8 -50 -27 -75 -43 -25 -16
-66 -32 -91 -35 -42 -6 -48 -4 -87 31 -50 45 -106 154 -109 210 -4 77 52 200
140 303 15 18 28 39 28 47 0 8 15 22 32 31 18 9 45 30 59 45 15 16 34 29 43
29 9 0 42 -28 74 -62z"/>
<path d="M6918 1099 c-16 -9 -18 -34 -18 -282 0 -199 3 -276 12 -285 17 -17
332 -17 346 1 21 26 22 54 4 76 -17 23 -36 26 -149 30 -72 2 -73 6 -73 235 0
184 -2 204 -18 219 -21 19 -77 22 -104 6z"/>
<path d="M3995 1086 c-52 -20 -112 -84 -120 -130 -23 -121 53 -187 243 -211
55 -7 112 -43 112 -72 0 -31 -54 -70 -107 -78 -44 -6 -60 -2 -122 25 -64 27
-74 29 -98 18 -63 -31 -54 -61 31 -106 46 -25 61 -27 161 -27 99 0 116 3 160
26 63 32 95 83 95 153 0 97 -53 141 -213 172 -89 17 -137 45 -137 79 0 27 45
62 87 70 34 5 51 1 103 -25 70 -35 100 -34 126 5 21 32 10 46 -60 83 -64 32
-197 41 -261 18z"/>
<path d="M6030 1091 c-135 -44 -210 -148 -210 -291 0 -173 102 -287 266 -298
130 -8 227 45 281 155 54 111 32 268 -49 352 -23 24 -62 53 -87 64 -49 22
-160 32 -201 18z m170 -121 c44 -31 72 -98 72 -171 0 -77 -15 -118 -58 -160
-34 -33 -38 -34 -110 -34 -74 0 -76 1 -109 37 -18 20 -38 53 -44 75 -22 79 -6
188 34 233 49 55 153 64 215 20z"/>
<path d="M4876 1074 c-14 -13 -16 -52 -16 -273 0 -284 0 -285 61 -283 47 1 59
17 59 80 0 68 34 133 80 152 40 16 44 12 126 -116 57 -88 72 -105 101 -113 38
-11 83 1 83 21 0 7 -41 81 -91 164 -70 118 -89 158 -84 175 4 12 41 58 82 101
62 67 72 82 61 95 -9 11 -26 14 -67 11 -54 -5 -55 -5 -144 -101 -118 -128
-147 -127 -147 7 0 73 -14 96 -60 96 -16 0 -36 -7 -44 -16z"/>
<path d="M7786 1074 c-14 -13 -16 -52 -16 -269 0 -139 3 -260 6 -269 5 -14 33
-16 208 -16 110 0 207 4 214 9 8 5 12 21 10 37 l-3 29 -130 8 c-172 11 -175
12 -175 81 0 79 10 86 128 86 104 0 142 13 142 49 0 31 -21 38 -134 45 -60 3
-115 11 -122 17 -8 6 -14 29 -14 50 0 59 23 69 152 69 109 0 138 9 138 45 0 7
-7 21 -16 29 -23 24 -365 24 -388 0z"/>
</g>
</svg>
