<?xml version="1.0" standalone="no"?>
<!DOCTYPE svg PUBLIC "-//W3C//DTD SVG 20010904//EN"
 "http://www.w3.org/TR/2001/REC-SVG-20010904/DTD/svg10.dtd">
<svg version="1.0" xmlns="http://www.w3.org/2000/svg"
 width="908.000000pt" height="400.000000pt" viewBox="0 0 908.000000 400.000000"
 preserveAspectRatio="xMidYMid meet">

<g transform="translate(0.000000,400.000000) scale(0.100000,-0.100000)"
fill="#fafafa" stroke="none">
<path d="M4837 3989 c-99 -23 -165 -86 -187 -179 -21 -87 7 -167 82 -236 24
-22 110 -74 195 -118 99 -50 163 -89 182 -112 74 -83 55 -203 -40 -259 -26
-15 -52 -20 -109 -20 -131 1 -215 60 -247 176 -15 55 -19 60 -42 57 -26 -3
-26 -4 -29 -95 -1 -50 1 -113 5 -140 8 -47 9 -48 43 -48 31 0 35 3 32 24 -3
20 -1 22 15 16 88 -37 128 -48 193 -52 229 -16 379 122 340 311 -19 95 -77
148 -262 242 -209 106 -255 151 -245 242 10 86 76 142 169 142 71 0 120 -22
170 -78 32 -35 47 -69 74 -169 4 -15 44 -18 44 -3 0 6 1 71 1 145 0 74 -1 140
-1 146 0 6 -14 9 -32 7 -25 -2 -34 -8 -36 -25 -4 -27 -6 -28 -36 -8 -29 19
-148 45 -201 44 -22 -1 -57 -5 -78 -10z"/>
<path d="M35 3972 c-3 -3 -5 -16 -5 -28 0 -20 6 -23 46 -26 l47 -3 -2 -395
c-2 -433 -3 -435 -61 -447 -24 -4 -30 -11 -30 -30 l0 -25 243 4 c221 4 248 6
307 27 87 31 125 54 189 115 182 173 183 512 2 678 -113 104 -215 130 -518
133 -117 1 -215 0 -218 -3z m440 -64 c196 -42 309 -211 292 -438 -14 -179 -92
-297 -242 -365 -58 -26 -164 -40 -236 -30 l-50 7 3 398 c3 371 4 399 22 418
10 12 28 23 40 25 28 6 108 -2 171 -15z"/>
<path d="M1031 3965 c-19 -26 -5 -40 44 -45 l50 -5 0 -390 c0 -359 -1 -393
-18 -418 -10 -16 -31 -30 -47 -34 -23 -4 -30 -11 -30 -29 l0 -24 349 0 348 0
7 92 c3 50 6 111 6 135 0 39 -2 43 -24 43 -21 0 -24 -5 -28 -50 -6 -62 -41
-114 -93 -140 -33 -16 -67 -19 -195 -22 l-155 -3 -3 208 -2 207 104 0 c121 0
144 -11 155 -76 5 -30 11 -39 26 -39 19 0 20 8 23 143 l3 142 -32 0 -32 0 6
-55 6 -55 -130 0 -129 0 1 143 c1 165 5 183 42 211 25 18 42 21 140 21 158 0
201 -28 214 -136 6 -47 8 -50 32 -47 14 2 25 6 24 11 -2 4 -3 54 -3 112 l0
104 -326 3 c-209 2 -328 -1 -333 -7z"/>
<path d="M2534 3971 c-2 -2 -4 -15 -4 -28 0 -21 5 -23 45 -23 l45 0 0 -350 c0
-192 -3 -350 -7 -350 -5 0 -133 169 -287 375 l-279 375 -83 0 c-83 0 -84 0
-84 -25 0 -23 4 -25 45 -25 l46 0 -3 -401 -3 -401 -28 -24 c-15 -13 -35 -24
-43 -24 -8 0 -14 -10 -14 -25 l0 -26 123 3 122 3 3 28 c3 26 2 27 -47 27 l-51
0 0 350 c0 193 2 350 4 350 2 0 100 -129 217 -287 397 -533 359 -488 399 -488
l35 0 3 435 c4 476 4 475 62 487 20 4 30 12 30 24 0 16 -12 18 -121 21 -66 2
-123 1 -125 -1z"/>
<path d="M3307 3974 c-4 -4 -7 -18 -7 -31 0 -22 3 -23 71 -23 l70 0 -3 -398
c-3 -360 -5 -400 -21 -425 -19 -29 -54 -42 -86 -32 -16 5 -21 15 -21 40 0 39
-22 65 -55 65 -31 0 -65 -36 -65 -70 0 -85 142 -128 253 -75 39 18 78 72 99
137 6 20 13 172 17 376 l6 344 28 24 c15 13 37 24 48 24 12 0 19 7 19 20 0 19
-7 20 -159 20 -88 0 -166 2 -173 5 -8 3 -17 2 -21 -1z"/>
<path d="M4304 3971 c-2 -2 -4 -15 -4 -28 0 -21 4 -23 50 -23 46 0 63 -11 41
-25 -5 -3 -56 -93 -113 -200 -57 -107 -107 -195 -111 -195 -4 0 -45 57 -90
128 -147 226 -152 238 -113 277 16 16 36 25 56 25 23 0 30 4 30 20 0 19 -7 20
-180 20 l-180 0 0 -25 c0 -22 4 -25 40 -25 38 0 40 -2 70 -61 17 -34 89 -156
162 -270 l131 -209 -6 -131 c-6 -141 -10 -153 -65 -176 -22 -9 -32 -19 -30
-31 3 -15 22 -17 166 -20 l162 -2 0 30 c0 30 0 30 -55 30 l-55 0 0 176 0 176
102 190 c113 210 167 281 229 300 30 9 39 16 37 30 -3 17 -15 19 -136 21 -74
1 -136 0 -138 -2z"/>
<path d="M5914 3971 c-2 -2 -4 -15 -4 -28 0 -20 5 -23 35 -23 l34 0 -47 -63
c-26 -34 -83 -120 -127 -190 l-80 -128 -50 3 -50 3 0 161 c0 179 9 209 65 221
21 4 30 11 30 24 0 18 -10 19 -155 19 l-155 0 0 -24 c0 -23 5 -25 48 -28 l47
-3 0 -396 c0 -436 2 -419 -63 -446 -22 -9 -32 -19 -30 -31 3 -15 21 -17 156
-20 l152 -3 0 30 c0 29 -2 30 -47 33 l-48 3 -3 198 -2 197 34 0 c19 0 41 -3
50 -6 9 -3 48 -49 88 -103 161 -213 251 -322 278 -336 19 -10 58 -15 110 -15
79 0 80 0 80 25 0 20 -5 25 -24 25 -45 0 -109 64 -243 240 -73 96 -147 187
-163 201 l-31 26 85 135 c100 158 160 220 237 242 29 9 59 16 66 16 7 0 13 9
13 19 0 19 -9 20 -141 23 -77 2 -143 1 -145 -1z"/>
<path d="M6344 3971 c-2 -2 -4 -15 -4 -27 0 -20 6 -23 46 -26 l45 -3 -1 -395
c-1 -433 -1 -435 -60 -447 -23 -4 -30 -11 -30 -29 l0 -24 353 2 352 3 3 133 3
132 -24 0 c-22 0 -25 -6 -30 -51 -8 -68 -40 -117 -91 -139 -32 -15 -74 -19
-196 -22 -142 -3 -155 -2 -154 15 0 9 1 103 2 207 l2 190 99 0 c115 0 136 -11
149 -75 6 -30 13 -40 27 -40 19 0 20 9 23 143 l3 143 -33 -3 -32 -3 3 -52 2
-53 -120 0 -121 0 0 159 c0 136 2 162 18 180 21 27 76 40 162 41 131 0 190
-37 210 -135 9 -44 15 -55 31 -55 18 0 19 8 19 109 0 61 -4 112 -10 116 -10 6
-639 12 -646 6z"/>
<path d="M227 2550 c-119 -30 -186 -116 -187 -238 0 -125 49 -179 263 -289
165 -84 219 -127 237 -190 58 -195 -233 -294 -387 -132 -32 34 -63 103 -63
141 0 15 -6 19 -27 16 -16 -2 -28 -9 -27 -15 1 -7 2 -71 3 -143 l1 -130 35 0
c31 0 35 3 35 25 0 24 14 34 24 17 3 -5 40 -19 82 -32 158 -46 326 -10 400 87
57 75 65 185 19 273 -26 50 -100 104 -240 175 -76 38 -154 82 -174 98 -147
115 -51 308 140 282 89 -12 160 -83 189 -187 15 -55 20 -63 41 -63 l24 0 0
150 0 150 -35 0 c-30 0 -35 -3 -33 -22 3 -28 3 -28 -73 2 -71 28 -187 40 -247
25z"/>
<path d="M1906 2551 c-3 -5 -76 -200 -162 -433 -85 -232 -162 -434 -171 -447
-8 -13 -28 -28 -44 -34 -20 -8 -29 -18 -29 -34 0 -23 2 -23 125 -23 l125 0 0
30 c0 29 -1 30 -51 30 -37 0 -49 3 -45 13 2 6 19 57 37 112 18 55 37 103 43
107 5 3 85 7 177 8 l167 1 21 -56 c39 -104 45 -142 27 -169 -8 -14 -26 -26
-38 -28 -15 -2 -24 -11 -26 -25 l-3 -23 155 0 156 0 0 30 c0 29 -2 30 -45 30
-42 0 -45 2 -45 26 0 28 -41 140 -218 589 -113 287 -135 330 -156 296z m72
-404 c40 -106 72 -198 72 -205 0 -9 -40 -12 -150 -12 -82 0 -150 1 -150 3 0
23 142 407 150 407 4 0 39 -87 78 -193z"/>
<path d="M5381 2538 c-5 -13 -25 -68 -45 -123 -20 -55 -47 -129 -61 -165 -13
-36 -56 -153 -95 -260 -126 -348 -133 -360 -201 -360 -77 0 -109 29 -278 252
-61 81 -125 160 -141 177 -17 16 -30 35 -30 42 0 23 159 264 202 306 47 46 89
67 156 78 24 4 42 12 42 20 0 29 -28 35 -161 32 l-134 -2 -3 -27 c-3 -25 0
-28 27 -28 17 0 31 -2 31 -5 0 -3 -19 -31 -42 -63 -24 -32 -79 -116 -123 -185
l-80 -127 -50 2 -50 3 -3 138 c-3 177 6 213 59 236 29 12 39 21 37 36 -3 19
-11 20 -153 20 l-150 0 0 -30 c0 -29 2 -30 45 -30 l45 0 0 -392 c0 -382 -1
-392 -21 -420 -12 -16 -33 -29 -47 -31 -21 -3 -27 -9 -27 -28 l0 -24 155 0
155 0 0 29 c0 28 -2 30 -47 33 l-48 3 0 195 0 195 34 3 c44 4 59 -10 200 -198
64 -85 139 -179 167 -207 l50 -53 217 0 217 0 0 30 c0 29 -1 30 -49 30 l-49 0
35 103 c53 153 27 138 225 135 l170 -3 29 -70 c44 -109 35 -165 -26 -177 -12
-2 -21 -13 -23 -26 l-3 -22 160 0 161 0 0 30 c0 29 -1 30 -49 30 l-48 0 -6 43
c-6 41 -33 116 -135 377 -27 69 -73 185 -101 258 -77 199 -98 242 -116 242 -8
0 -19 -10 -24 -22z m29 -250 c13 -35 45 -121 72 -191 26 -71 48 -137 48 -148
0 -18 -9 -19 -144 -19 -80 0 -147 3 -149 8 -5 9 139 412 148 412 1 0 13 -28
25 -62z"/>
<path d="M6099 2546 c-111 -30 -179 -117 -179 -233 0 -121 62 -188 274 -296
167 -84 221 -131 231 -200 18 -117 -62 -197 -196 -197 -135 1 -224 75 -253
213 -5 20 -12 27 -31 27 -13 0 -26 -4 -29 -9 -3 -5 -3 -70 1 -146 l6 -136 36
3 c28 2 36 7 36 23 0 23 -4 23 95 -11 65 -23 87 -26 165 -22 112 5 180 33 234
94 41 47 61 99 61 160 0 126 -60 190 -280 304 -223 115 -268 171 -224 278 32
78 109 112 208 93 91 -17 167 -100 184 -203 6 -34 12 -44 30 -46 12 -2 22 0
22 5 0 4 1 73 1 153 l1 145 -31 3 c-27 3 -31 0 -31 -22 0 -31 -5 -32 -56 -7
-78 38 -193 49 -275 27z"/>
<path d="M6883 2550 c-44 -9 -107 -45 -135 -76 -29 -33 -58 -107 -58 -153 0
-127 60 -194 268 -300 160 -81 216 -125 233 -181 15 -48 4 -121 -22 -153 -79
-102 -300 -81 -376 35 -15 21 -32 60 -38 86 -10 40 -16 47 -39 50 l-27 3 3
-143 3 -143 38 -3 c33 -3 37 -1 37 21 l0 25 63 -26 c54 -23 77 -26 172 -27 99
0 116 3 165 26 101 49 149 119 150 218 0 139 -46 191 -278 310 -171 88 -213
122 -231 186 -21 79 38 170 122 186 62 11 141 -4 183 -36 49 -37 77 -90 98
-187 5 -22 12 -28 31 -28 l26 0 -3 153 -3 152 -30 0 c-24 0 -31 -5 -33 -23 -3
-18 -8 -22 -20 -16 -113 47 -214 62 -299 44z"/>
<path d="M8500 2550 c-100 -21 -178 -108 -187 -207 -13 -142 45 -212 265 -322
78 -39 157 -85 178 -103 90 -79 85 -190 -11 -264 -43 -33 -132 -44 -202 -25
-86 23 -164 107 -178 193 -6 32 -11 38 -31 38 l-24 0 0 -145 0 -145 35 0 c31
0 35 3 35 26 0 21 3 25 18 18 98 -43 160 -56 247 -52 113 6 180 33 235 95 50
57 67 130 51 211 -22 110 -64 148 -288 261 -179 91 -213 124 -213 209 0 68 23
113 72 138 43 23 151 23 195 1 49 -26 109 -101 123 -154 7 -27 14 -56 17 -65
3 -11 14 -18 29 -18 l25 0 -3 153 -3 152 -32 3 c-30 3 -33 1 -33 -22 0 -26
-17 -34 -35 -17 -38 33 -204 57 -285 41z"/>
<path d="M804 2527 c-14 -37 0 -52 46 -52 l45 0 -3 -395 c-3 -360 -5 -397 -21
-420 -10 -13 -29 -27 -42 -30 -15 -4 -25 -14 -27 -28 -3 -22 -3 -22 162 -22
l166 0 0 30 0 30 -61 0 c-52 0 -60 2 -55 16 3 9 6 76 6 150 l0 134 78 0 c151
0 268 44 345 130 57 64 70 104 66 207 -3 66 -9 86 -32 121 -35 54 -90 90 -175
115 -93 27 -488 38 -498 14z m466 -83 c45 -24 60 -39 83 -83 49 -97 30 -219
-43 -285 -64 -58 -105 -73 -203 -77 l-87 -4 0 223 c0 213 1 223 21 243 19 19
30 21 98 17 60 -3 89 -11 131 -34z"/>
<path d="M2434 2527 c-14 -36 0 -52 44 -52 l43 0 -1 -395 c0 -366 -2 -397 -19
-420 -10 -13 -29 -27 -42 -30 -15 -4 -25 -14 -27 -28 -3 -22 -3 -22 152 -22
l156 0 0 30 c0 29 -1 30 -50 30 l-49 0 4 177 c3 97 7 179 10 181 12 13 77 4
95 -13 11 -10 58 -79 105 -154 46 -75 105 -162 130 -193 l45 -58 90 0 c89 0
90 0 90 25 0 20 -5 25 -25 25 -40 0 -95 59 -180 192 -43 68 -91 140 -107 161
-19 23 -25 37 -16 37 7 0 40 13 73 29 109 52 155 125 155 245 0 83 -30 141
-90 178 -79 48 -146 60 -372 65 -182 5 -208 4 -214 -10z m409 -58 c52 -14 114
-72 127 -117 23 -85 2 -180 -51 -229 -39 -36 -99 -55 -186 -61 l-83 -5 0 188
c0 180 1 190 22 212 17 19 32 23 77 23 31 0 73 -5 94 -11z"/>
<path d="M3288 2529 c-5 -4 -8 -17 -6 -30 3 -22 7 -24 51 -21 l49 4 -4 -399
c-3 -434 -4 -436 -61 -451 -22 -6 -33 -15 -35 -30 l-3 -22 355 0 356 0 2 105
c1 58 2 117 2 133 1 21 -4 28 -21 30 -20 3 -23 -1 -24 -30 -1 -44 -19 -91 -47
-123 -41 -47 -84 -58 -249 -63 l-153 -5 0 212 0 211 99 0 c117 0 147 -15 157
-81 6 -33 10 -40 28 -37 20 3 21 8 21 143 l0 140 -27 3 c-26 3 -27 2 -30 -55
l-3 -58 -120 0 -120 0 -3 146 c-4 219 3 228 174 231 154 2 193 -20 217 -128
11 -47 18 -59 33 -59 17 0 19 9 22 109 2 75 -1 113 -10 123 -10 13 -57 14
-326 11 -173 -1 -318 -6 -324 -9z"/>
<path d="M7460 2505 c0 -23 4 -25 45 -25 l45 0 0 -390 c0 -433 -2 -445 -60
-457 -23 -4 -30 -11 -30 -29 l0 -24 350 0 350 0 2 120 c0 66 1 126 2 133 1 6
-8 13 -19 15 -17 2 -22 -6 -32 -57 -24 -129 -73 -155 -294 -155 -82 -1 -149 2
-149 7 0 4 0 97 0 207 l0 200 99 0 c117 0 147 -15 157 -81 5 -29 11 -39 25
-39 18 0 19 10 19 145 l0 145 -25 0 c-22 0 -24 -4 -27 -57 l-3 -58 -120 0
-120 0 -3 150 c-1 92 2 160 8 176 15 36 51 50 145 56 149 10 219 -29 240 -133
8 -41 17 -60 28 -62 26 -5 30 19 22 133 l-7 105 -324 0 -324 0 0 -25z"/>
<path d="M2396 1115 c-15 -25 -30 -45 -35 -45 -4 0 -34 9 -67 21 -45 16 -83
21 -159 21 -149 0 -231 -33 -333 -134 -124 -123 -173 -332 -121 -518 27 -99
60 -156 124 -220 l54 -53 -30 -52 c-16 -28 -29 -57 -29 -63 0 -6 14 -18 30
-27 l30 -16 28 47 c48 81 45 79 83 65 60 -22 226 -26 299 -7 158 41 268 153
318 321 54 184 20 363 -95 501 l-51 61 29 49 c16 27 29 51 29 54 0 8 -56 40
-68 40 -6 0 -22 -20 -36 -45z m-165 -80 c53 -19 82 -44 76 -66 -3 -9 -54 -102
-114 -205 -61 -104 -147 -253 -193 -332 -92 -161 -91 -160 -140 -63 -46 91
-60 155 -60 267 0 198 82 349 217 399 51 18 161 19 214 0z m171 -157 c22 -35
56 -127 67 -186 23 -115 7 -225 -51 -340 -57 -115 -152 -175 -273 -175 -71 0
-149 23 -158 46 -2 7 35 80 84 162 49 83 136 232 195 333 59 100 110 182 114
182 4 0 14 -10 22 -22z"/>
<path d="M243 1110 c-92 -19 -172 -84 -192 -157 -16 -55 -13 -135 4 -178 28
-65 94 -117 253 -198 202 -104 256 -163 238 -261 -8 -44 -59 -104 -103 -122
-43 -19 -140 -18 -194 1 -80 29 -159 131 -159 207 0 15 -6 19 -27 16 -19 -2
-28 -9 -27 -20 0 -10 1 -74 2 -143 l2 -125 35 0 c30 0 35 3 35 24 l0 24 63
-26 c54 -23 76 -27 177 -27 99 0 122 3 166 23 98 44 147 121 147 227 -1 129
-53 188 -257 291 -220 112 -262 153 -254 245 10 99 69 142 189 137 65 -3 81
-7 113 -31 49 -38 85 -97 99 -163 10 -50 13 -55 37 -52 l25 3 0 144 c0 126 -2
145 -17 155 -22 13 -53 -3 -53 -27 0 -20 -7 -19 -61 5 -23 10 -72 22 -110 28
-77 11 -74 11 -131 0z"/>
<path d="M6431 1109 c-127 -22 -255 -117 -318 -236 -133 -250 -50 -582 175
-701 138 -72 353 -70 482 5 250 146 309 532 119 773 -98 124 -286 189 -458
159z m210 -82 c122 -60 229 -264 229 -437 0 -112 -56 -257 -127 -328 -61 -61
-121 -85 -208 -85 -87 0 -143 23 -207 85 -110 108 -161 290 -134 482 17 119
115 256 208 290 58 21 190 17 239 -7z"/>
<path d="M8245 1091 c-77 -6 -80 -7 -80 -31 0 -23 4 -25 45 -28 l45 -3 -3
-396 c-2 -233 -7 -403 -13 -414 -5 -10 -24 -22 -42 -27 -22 -6 -33 -15 -35
-31 l-4 -22 239 2 c263 1 306 8 406 61 172 92 257 273 230 492 -24 198 -141
323 -350 376 -86 22 -302 32 -438 21z m338 -61 c201 -29 322 -184 320 -410 -2
-103 -28 -196 -77 -264 -86 -121 -199 -171 -371 -164 l-76 3 1 394 c0 250 4
401 11 413 20 38 72 45 192 28z"/>
<path d="M758 954 c-2 -75 0 -141 3 -146 4 -5 15 -8 25 -6 15 3 20 16 26 63 9
72 33 129 62 149 14 8 58 15 121 17 l100 4 0 -401 c0 -377 -1 -403 -19 -422
-10 -12 -28 -22 -40 -24 -13 -2 -22 -11 -24 -26 l-3 -22 160 0 161 0 0 30 c0
30 -1 30 -55 30 l-55 0 0 421 0 422 100 -5 c93 -5 103 -7 130 -33 36 -34 48
-64 58 -140 7 -55 9 -60 32 -60 28 0 26 -18 22 180 l-2 105 -399 0 -400 0 -3
-136z"/>
<path d="M2694 1077 c-2 -7 -3 -71 -2 -143 3 -121 4 -129 23 -129 16 0 22 9
28 45 29 160 44 174 183 184 58 4 101 3 107 -3 6 -6 7 -157 2 -400 -7 -363 -9
-393 -26 -416 -11 -13 -29 -25 -42 -27 -14 -2 -23 -11 -25 -25 l-3 -23 166 0
166 0 -3 28 c-3 25 -7 27 -55 30 l-53 3 0 421 0 421 95 -5 c138 -7 164 -31
186 -167 11 -65 14 -71 35 -71 23 0 24 3 24 68 0 38 -3 103 -6 145 l-7 77
-394 0 c-314 0 -395 -3 -399 -13z"/>
<path d="M3570 1083 c0 -5 -2 -70 -4 -145 l-4 -138 23 0 c21 0 24 6 30 58 9
72 36 136 67 155 15 10 56 16 123 19 l100 3 -2 -394 c-1 -429 -2 -435 -57
-449 -21 -6 -32 -15 -34 -30 -3 -22 -3 -22 163 -22 l166 0 -3 28 c-3 25 -7 27
-55 30 l-53 3 0 420 0 419 68 0 c160 -1 195 -32 217 -192 5 -42 9 -48 31 -48
23 0 24 2 24 78 0 42 -3 107 -7 145 l-6 67 -393 0 c-217 0 -394 -3 -394 -7z"/>
<path d="M4472 1063 c3 -26 7 -28 51 -31 l48 -3 -3 -392 c-3 -428 -4 -430 -61
-445 -22 -6 -33 -15 -35 -30 l-3 -22 354 0 354 0 7 126 c5 82 4 130 -2 136
-19 19 -41 0 -47 -39 -12 -74 -16 -83 -49 -116 -42 -43 -56 -46 -243 -54
l-153 -6 0 211 0 212 99 0 c84 0 102 -3 125 -21 15 -12 26 -30 26 -44 0 -39
11 -55 36 -55 l24 0 0 146 0 145 -32 -3 -33 -3 3 -57 3 -58 -126 0 -127 0 3
165 c5 217 -1 210 177 210 107 0 132 -3 156 -18 33 -22 65 -89 66 -135 0 -29
3 -33 23 -30 18 2 22 9 21 36 0 17 -1 70 -2 117 l-2 85 -331 0 -330 0 3 -27z"/>
<path d="M5324 1075 c-12 -31 4 -45 51 -45 l45 0 0 -380 c0 -428 -2 -442 -62
-458 -23 -6 -34 -15 -36 -30 -3 -22 -3 -22 172 -22 l176 0 0 30 0 30 -67 0
-68 0 3 182 c1 101 5 189 7 196 4 11 26 13 94 10 103 -4 128 -18 137 -80 5
-28 11 -38 25 -38 18 0 19 10 19 146 l0 145 -27 -3 c-27 -3 -28 -4 -24 -61 l3
-58 -113 3 -114 3 -3 160 c-3 186 3 210 57 225 45 12 153 13 206 0 58 -13 103
-68 107 -129 3 -39 6 -46 26 -49 22 -3 22 -2 22 117 l0 121 -315 0 c-271 0
-316 -2 -321 -15z"/>
<path d="M7132 1063 c3 -25 7 -28 46 -31 l42 -3 0 -372 c0 -232 -4 -386 -11
-410 -8 -30 -18 -42 -45 -53 -22 -9 -34 -21 -34 -34 0 -19 7 -20 125 -20 l125
0 0 30 c0 29 -1 30 -50 30 l-50 0 0 345 c0 190 3 345 8 345 7 -1 516 -679 555
-741 16 -24 26 -29 58 -29 l38 0 3 439 c3 415 4 440 22 460 11 12 30 21 43 21
18 0 23 5 23 25 l0 25 -126 0 -125 0 3 -27 c3 -25 7 -28 46 -31 l42 -3 0 -352
c0 -203 -4 -347 -9 -341 -5 5 -98 128 -207 274 -108 146 -234 313 -278 372
l-81 108 -83 0 -83 0 3 -27z"/>
</g>
</svg>
