<?xml version="1.0" standalone="no"?>
<!DOCTYPE svg PUBLIC "-//W3C//DTD SVG 20010904//EN"
 "http://www.w3.org/TR/2001/REC-SVG-20010904/DTD/svg10.dtd">
<svg version="1.0" xmlns="http://www.w3.org/2000/svg"
 width="616.000000pt" height="240.000000pt" viewBox="0 0 616.000000 240.000000"
 preserveAspectRatio="xMidYMid meet">

<g transform="translate(0.000000,240.000000) scale(0.100000,-0.100000)"
fill="#fafafa" stroke="none">
<path d="M0 1462 c0 -1053 -4 -994 75 -1100 255 -348 986 -469 1509 -252 166
69 316 196 377 318 l34 67 3 953 2 952 -1000 0 -1000 0 0 -938z m1060 764 c48
-36 55 -47 58 -80 3 -29 -2 -44 -20 -63 -20 -21 -29 -24 -65 -19 -42 5 -43 5
-43 -23 0 -48 9 -62 32 -50 25 14 33 6 19 -19 -6 -12 -11 -46 -11 -76 0 -45 3
-54 15 -50 13 5 13 1 -1 -31 -8 -20 -14 -39 -12 -41 2 -2 21 15 43 37 33 34
37 42 23 50 -8 5 -21 22 -28 38 -15 37 2 78 42 100 23 13 33 14 75 2 26 -8 68
-19 92 -26 28 -7 40 -15 32 -19 -9 -6 -11 -28 -6 -81 7 -72 6 -75 -20 -99 -52
-49 -135 -26 -135 36 0 23 -11 23 -42 -2 -38 -30 -58 -80 -58 -149 0 -49 3
-62 19 -71 26 -14 53 -2 131 56 147 110 202 195 203 308 0 33 -5 74 -12 89 -9
24 -14 26 -30 17 -59 -31 -121 3 -121 68 0 33 8 47 53 93 l52 55 74 -31 c90
-36 117 -67 107 -119 -8 -41 -53 -72 -91 -62 -23 6 -23 5 -13 -32 10 -35 6
-140 -8 -192 -6 -24 -6 -24 9 -5 15 18 16 18 17 3 0 -25 8 -23 70 18 78 52
107 81 151 148 44 67 47 76 20 76 -35 0 -65 34 -65 75 0 51 43 90 110 99 27 4
60 9 74 12 21 4 25 1 26 -20 1 -14 16 -44 33 -68 38 -51 40 -90 6 -123 -30
-31 -96 -34 -123 -7 -17 17 -19 15 -59 -50 l-42 -68 27 0 c25 -1 25 -2 8 -12
-17 -10 -16 -12 14 -24 18 -8 34 -13 34 -12 1 2 6 16 12 33 13 41 55 61 95 44
44 -18 61 -57 50 -115 -5 -27 -5 -58 -1 -70 8 -21 4 -24 -60 -43 -37 -12 -81
-21 -96 -21 -67 0 -104 100 -49 136 14 9 22 20 19 25 -16 27 -123 -15 -214
-84 -52 -39 -54 -41 -30 -48 l25 -6 -25 -10 c-24 -10 -24 -10 12 -22 19 -6 44
-21 54 -32 17 -19 18 -19 45 11 34 37 71 39 104 5 32 -31 32 -67 -1 -123 -14
-24 -24 -54 -22 -65 4 -21 2 -22 -76 -16 -91 7 -112 14 -126 40 -26 48 -4 98
49 114 l24 7 -24 19 c-38 30 -91 41 -130 28 -76 -26 -269 -195 -269 -236 0
-39 25 -37 82 5 72 54 131 82 170 82 l33 -1 -28 -15 c-16 -8 -27 -20 -25 -25
2 -6 27 -18 55 -28 53 -18 92 -44 175 -118 37 -33 57 -43 83 -43 l35 0 -6 43
c-6 40 -4 46 27 71 42 36 92 31 129 -12 14 -16 40 -47 57 -67 32 -37 33 -38
13 -52 -11 -8 -32 -36 -45 -63 -38 -75 -93 -92 -141 -44 -21 20 -25 33 -22 65
l4 39 -38 0 c-21 0 -38 -5 -38 -11 0 -6 -9 -9 -20 -6 -40 10 -19 -49 45 -131
27 -35 45 -49 55 -45 8 4 33 8 56 11 35 3 44 0 63 -23 33 -43 27 -77 -24 -135
-25 -28 -45 -59 -45 -70 0 -18 -2 -18 -32 -6 -18 8 -53 17 -77 21 -82 13 -116
81 -71 138 12 15 36 29 55 33 34 6 34 7 21 33 -8 14 -26 37 -40 50 -14 13 -35
54 -47 90 -16 47 -34 78 -63 106 l-40 40 -7 -30 c-4 -16 -8 -23 -9 -15 -1 8
-5 4 -10 -10 -14 -45 -12 -50 24 -50 25 0 40 -7 55 -26 48 -61 14 -130 -81
-166 l-63 -24 -16 25 c-9 14 -37 45 -63 68 -53 49 -59 81 -21 118 27 28 61 32
92 10 18 -13 22 -13 33 0 7 9 13 34 13 57 0 109 -144 103 -230 -10 -36 -48
-53 -97 -53 -158 l0 -41 48 5 c93 8 150 -48 139 -138 -5 -43 -3 -49 19 -61 24
-12 28 -9 93 55 39 39 74 65 80 62 21 -14 11 -52 -34 -124 -25 -40 -45 -76
-45 -81 0 -5 28 -34 62 -65 l62 -55 21 23 c45 49 98 39 152 -29 17 -21 37 -35
51 -35 12 0 22 -4 22 -10 0 -5 -14 -10 -31 -10 -22 0 -43 11 -70 35 -22 19
-45 35 -52 35 -17 0 -51 -35 -46 -47 2 -4 34 -36 70 -71 79 -75 103 -79 147
-26 31 38 52 100 52 154 0 22 -4 31 -12 27 -7 -2 -24 -8 -37 -12 l-23 -7 21
28 c22 31 45 119 36 135 -11 16 16 10 46 -12 33 -23 69 -86 69 -120 0 -17 -4
-20 -24 -15 -24 6 -24 5 -27 -77 -4 -70 -9 -93 -42 -161 -20 -43 -37 -91 -37
-107 0 -24 -4 -29 -25 -29 -14 0 -51 -13 -83 -29 -72 -35 -99 -43 -192 -50
-74 -6 -75 -6 -75 -34 1 -27 -1 -28 -30 -23 -39 8 -74 34 -103 77 l-23 34 38
8 c40 8 99 25 121 34 11 4 12 1 3 -16 -18 -32 -5 -43 42 -35 98 16 177 64 177
106 0 18 -95 128 -110 128 -4 0 -12 -10 -19 -23 -16 -31 -58 -55 -107 -62 -28
-5 -63 1 -123 20 -81 26 -131 27 -131 3 0 -6 20 -32 44 -58 36 -39 45 -57 50
-96 18 -142 49 -168 186 -158 76 6 88 4 110 -14 14 -11 22 -24 18 -28 -4 -4
-14 -1 -23 6 -11 9 -31 10 -73 5 -31 -4 -85 -8 -119 -9 -84 -1 -107 17 -164
133 -47 96 -77 130 -116 131 -36 0 -29 -35 17 -90 22 -26 47 -65 56 -85 37
-89 -37 -195 -136 -195 -17 0 -61 12 -97 26 l-65 26 -29 -21 c-15 -12 -31 -21
-34 -21 -13 0 -3 23 20 45 28 29 67 32 139 10 67 -20 83 -19 111 10 18 17 25
35 25 62 0 32 -7 44 -55 88 -30 28 -61 67 -70 87 -19 47 -28 52 -65 33 -34
-18 -51 -46 -74 -127 -9 -32 -27 -70 -40 -85 -23 -26 -30 -28 -128 -33 -68 -3
-111 -10 -122 -19 -23 -19 -29 -9 -10 17 17 25 71 42 132 42 54 0 98 38 106
93 3 21 9 54 12 74 4 26 18 49 45 75 72 69 45 94 -58 52 -82 -34 -163 -38
-209 -10 -16 10 -43 38 -59 63 l-28 45 -63 -63 c-39 -39 -64 -72 -64 -85 0
-49 100 -104 188 -104 31 0 34 2 28 25 -6 24 -6 24 29 10 19 -8 57 -15 85 -15
27 0 50 -3 50 -6 0 -4 -9 -22 -21 -40 -22 -36 -67 -68 -111 -78 -26 -6 -27 -4
-22 21 l5 28 -76 2 c-64 2 -90 8 -158 39 -45 20 -98 39 -118 41 -32 4 -35 7
-32 31 3 17 -12 60 -41 119 -35 71 -46 108 -52 163 -6 69 -8 72 -30 67 -18 -3
-24 0 -24 13 0 26 41 82 80 108 l35 23 6 -50 c4 -28 14 -62 23 -76 22 -33 21
-35 -14 -25 -28 8 -30 7 -30 -19 0 -85 60 -191 107 -191 25 0 133 81 133 100
0 5 -15 4 -32 -1 -18 -5 -46 -9 -62 -9 -32 0 -76 34 -76 58 0 12 6 10 23 -6
27 -25 70 -28 107 -7 14 8 41 14 60 15 31 0 46 11 114 79 l78 78 -55 83 c-31
45 -53 89 -50 96 9 25 38 15 78 -27 64 -65 91 -82 115 -69 17 9 19 18 15 63
-7 62 6 92 55 125 29 20 43 23 83 18 52 -6 52 -6 36 60 -23 91 -145 188 -237
189 -55 0 -82 -29 -82 -87 0 -38 0 -39 22 -24 44 31 101 19 124 -26 21 -41 5
-85 -50 -131 -25 -20 -48 -46 -51 -57 -6 -20 -7 -20 -35 3 -15 13 -47 27 -69
31 -53 8 -81 36 -81 79 0 42 28 70 73 71 37 2 37 2 37 57 0 37 -2 40 -16 28
-15 -12 -16 -11 -10 9 12 35 -10 27 -68 -28 -60 -57 -107 -147 -114 -220 l-4
-45 42 0 c32 0 47 -6 61 -24 47 -57 8 -125 -81 -141 -30 -6 -59 -15 -64 -20
-17 -17 -22 -12 -70 52 -50 68 -60 116 -29 150 18 20 87 25 98 8 12 -19 25
-10 25 18 0 16 9 55 20 88 24 72 24 74 3 74 -15 0 -14 2 3 15 18 14 16 14 -16
8 -45 -8 -45 -8 -32 -38 17 -38 15 -53 -13 -80 -32 -33 -84 -33 -119 -2 -14
12 -38 45 -54 73 -28 48 -29 51 -11 62 10 7 30 35 44 62 36 71 87 87 137 42
21 -17 24 -72 6 -90 -9 -9 -8 -12 8 -12 31 1 95 34 152 79 74 59 126 81 194
81 l57 0 -6 34 c-3 19 -1 36 6 40 6 4 11 0 11 -8 0 -27 73 -98 124 -122 64
-30 86 -20 86 37 0 52 -20 98 -65 148 -70 77 -151 108 -236 90 -40 -9 -91 -43
-78 -52 2 -2 16 -11 32 -20 22 -14 27 -25 27 -56 0 -67 -25 -78 -166 -73 -71
2 -70 0 -80 123 -6 74 -6 76 21 97 45 36 110 22 126 -26 3 -7 26 0 62 18 49
25 55 30 40 39 -17 10 -17 10 2 11 17 1 13 7 -20 37 -81 72 -162 90 -242 53
-47 -21 -49 -26 -28 -54 21 -28 19 -79 -4 -100 -10 -9 -34 -19 -53 -22 -28 -5
-42 0 -81 30 -26 20 -51 36 -55 36 -27 1 -32 17 -17 59 8 24 15 54 15 66 0 55
80 102 128 76 12 -6 26 -27 33 -46 7 -19 18 -33 24 -31 5 3 29 11 53 18 44 13
56 28 21 28 -11 0 -18 4 -14 10 3 5 -8 28 -24 50 -16 23 -33 54 -36 71 -4 16
-16 36 -28 44 -20 14 -23 13 -42 -9 -11 -13 -30 -27 -41 -30 -26 -8 -73 9 -90
32 -20 26 -17 81 7 119 13 20 19 44 16 58 l-4 25 87 0 c73 0 92 -3 114 -21 47
-37 32 -111 -26 -132 -16 -6 -16 -9 5 -41 12 -19 35 -57 50 -86 20 -36 38 -55
62 -66 51 -21 75 -18 75 9 0 18 2 19 10 7 7 -11 10 0 10 38 l0 52 -39 0 c-68
0 -104 74 -63 127 10 13 49 33 91 48 86 29 91 30 91 12 0 -7 18 -31 40 -52 33
-32 40 -46 40 -77 0 -69 -58 -96 -134 -63 -18 8 -19 5 -12 -34 3 -24 18 -65
32 -93 27 -53 107 -138 129 -138 23 0 142 -66 190 -105 37 -31 48 -35 60 -25
36 30 0 124 -67 178 -40 32 -42 33 -49 13 -10 -24 -39 -41 -74 -41 -40 0 -62
16 -74 53 -10 29 -8 46 15 115 22 69 28 80 42 73 10 -5 39 -4 69 2 48 10 56 9
80 -10 46 -33 59 -64 42 -98 -8 -17 -26 -36 -41 -43 l-26 -12 46 -45 c47 -44
64 -46 42 -5 -11 20 -10 21 9 15 19 -6 21 -2 21 37 0 43 -11 96 -25 132 -7 17
-5 18 18 12 26 -6 27 -5 27 31 l0 38 -44 -3 c-37 -3 -46 0 -65 23 -39 51 -29
81 52 159 70 70 72 71 82 47 6 -13 35 -42 65 -65z"/>
<path d="M764 1065 c-35 -35 -29 -61 15 -57 32 4 33 3 29 -27 -4 -28 -2 -31
24 -31 58 0 76 89 25 125 -31 22 -65 18 -93 -10z"/>
<path d="M1132 1074 c-16 -11 -22 -25 -22 -54 0 -44 20 -70 55 -70 20 0 23 5
21 33 -1 30 1 32 32 31 39 -2 44 22 9 54 -27 26 -64 28 -95 6z"/>
<path d="M850 899 c-14 -4 -41 -5 -60 -2 -26 4 -40 0 -52 -14 -17 -18 -15 -22
47 -83 42 -42 65 -72 65 -87 0 -35 -23 -29 -118 29 l-85 52 -74 -77 -74 -78
22 -30 c39 -56 108 -64 215 -25 81 30 128 73 143 132 12 46 13 122 2 165 -5
21 -10 24 -31 18z"/>
<path d="M1112 803 c3 -100 4 -106 31 -128 15 -13 44 -27 65 -30 20 -3 64 -15
97 -27 33 -12 83 -23 112 -26 43 -3 55 0 73 18 l22 22 -80 81 -80 80 -76 -47
c-136 -82 -169 -53 -61 54 l65 64 -21 22 c-17 18 -26 21 -49 14 -16 -5 -45 -4
-65 0 l-37 8 4 -105z"/>
<path d="M3215 1898 c-3 -7 -4 -141 -3 -298 l3 -285 35 0 c28 0 36 4 38 22 l3
22 36 -25 c47 -31 132 -33 181 -4 100 61 119 247 35 341 -59 65 -160 76 -223
22 l-29 -24 -3 118 -3 118 -33 3 c-20 2 -34 -2 -37 -10z m230 -242 c57 -24 85
-104 65 -186 -16 -67 -51 -100 -104 -100 -75 0 -116 53 -116 147 0 63 26 114
70 135 42 22 42 22 85 4z"/>
<path d="M3700 1850 l0 -40 40 0 40 0 0 40 0 40 -40 0 -40 0 0 -40z"/>
<path d="M2480 1590 l0 -281 153 3 152 3 3 33 3 32 -115 0 -116 0 0 90 0 89
103 3 102 3 3 33 3 32 -105 0 -106 0 0 80 0 79 113 3 112 3 0 35 0 35 -152 3
-153 3 0 -281z"/>
<path d="M2969 1721 c-45 -14 -69 -31 -84 -61 -36 -70 -10 -120 90 -173 49
-26 61 -37 63 -60 2 -16 -2 -35 -9 -43 -13 -16 -85 -19 -123 -4 -23 8 -26 7
-32 -17 -9 -33 12 -50 71 -58 97 -15 175 38 175 119 0 54 -24 86 -87 116 -62
29 -83 48 -83 76 0 33 33 47 97 41 53 -6 53 -6 53 23 0 16 -3 31 -7 33 -18 10
-100 15 -124 8z"/>
<path d="M4016 1715 c-47 -17 -94 -59 -112 -102 -20 -47 -17 -150 5 -198 36
-78 86 -106 189 -104 102 2 116 8 120 52 l3 36 -35 -14 c-43 -18 -123 -19
-154 -1 -30 16 -62 65 -62 94 0 22 1 22 140 22 l140 0 0 39 c0 107 -79 192
-175 191 -11 -1 -37 -7 -59 -15z m127 -83 c15 -14 27 -36 27 -49 0 -23 -2 -23
-100 -23 -89 0 -100 2 -100 18 0 46 71 97 120 86 14 -3 37 -17 53 -32z"/>
<path d="M4485 1714 c-16 -8 -38 -25 -47 -37 l-18 -22 0 33 c0 30 -2 32 -35
32 l-35 0 0 -206 0 -205 38 3 37 3 5 135 c6 172 27 210 114 210 33 0 36 2 36
29 0 43 -40 54 -95 25z"/>
<path d="M4735 1715 c-141 -49 -165 -298 -37 -377 51 -31 130 -29 182 6 l40
26 0 -35 c0 -113 -84 -160 -215 -120 -27 8 -50 13 -51 12 -1 -1 -4 -15 -6 -32
-3 -27 0 -30 42 -43 61 -18 178 -11 220 14 77 45 92 104 88 365 l-3 184 -32 3
c-31 3 -33 1 -33 -29 l0 -33 -27 26 c-51 48 -98 58 -168 33z m111 -60 c42 -17
73 -78 74 -143 0 -80 -46 -132 -117 -132 -51 0 -78 20 -98 75 -36 94 15 206
98 214 4 1 23 -6 43 -14z"/>
<path d="M3707 1714 c-4 -4 -7 -110 -7 -236 0 -139 -4 -237 -10 -249 -7 -12
-21 -19 -40 -19 -28 0 -30 -3 -30 -36 l0 -37 52 5 c63 6 94 36 103 100 3 24 5
140 3 258 l-3 215 -30 3 c-17 2 -34 0 -38 -4z"/>
<path d="M2480 774 l0 -275 38 3 37 3 5 131 5 130 64 -70 c182 -201 176 -196
231 -196 27 0 50 3 50 6 0 3 -61 69 -135 147 l-135 141 127 128 128 128 -50 0
-50 0 -117 -117 -118 -118 0 118 0 117 -40 0 -40 0 0 -276z"/>
<path d="M3115 915 c-5 -2 -22 -6 -37 -9 -15 -4 -44 -20 -63 -38 -128 -112
-86 -318 73 -364 201 -59 350 196 204 349 -15 16 -38 35 -52 42 -26 14 -108
27 -125 20z m108 -92 c63 -56 61 -181 -4 -242 -28 -26 -107 -29 -144 -5 -47
31 -69 132 -41 197 34 81 127 105 189 50z"/>
<path d="M3596 910 c-16 -5 -39 -19 -51 -30 l-23 -22 -4 24 c-2 18 -10 24 -35
26 l-33 3 0 -205 0 -206 35 0 35 0 0 118 c0 64 5 133 10 153 21 74 97 106 143
60 20 -20 22 -33 25 -176 l3 -155 34 0 33 0 4 133 c4 152 17 189 73 213 41 17
77 5 94 -33 6 -14 11 -84 11 -169 l0 -145 38 3 37 3 3 118 c5 202 -18 265
-101 288 -49 13 -116 -9 -146 -47 l-19 -24 -17 26 c-17 27 -71 55 -102 53 -10
0 -31 -5 -47 -9z"/>
<path d="M4296 910 c-16 -5 -39 -19 -51 -30 l-23 -22 -4 24 c-2 18 -10 24 -35
26 l-33 3 0 -205 0 -206 35 0 35 0 1 118 c0 64 6 135 12 156 22 71 96 101 140
57 20 -20 22 -33 25 -176 l3 -155 33 0 33 0 5 133 c3 99 9 140 22 165 31 60
118 76 142 25 5 -10 11 -85 14 -168 l5 -150 35 0 35 0 3 115 c6 210 -14 267
-100 291 -50 13 -117 -8 -147 -47 l-19 -24 -17 26 c-17 27 -71 55 -102 53 -10
0 -31 -5 -47 -9z"/>
<path d="M5480 904 c-19 -8 -45 -25 -57 -36 l-23 -21 0 31 c0 30 -2 32 -35 32
l-35 0 0 -206 0 -205 38 3 37 3 5 137 c4 118 8 140 26 165 23 31 74 52 111 45
47 -9 58 -43 63 -201 l5 -146 35 0 35 0 3 119 c4 194 -21 261 -109 286 -44 13
-57 12 -99 -6z"/>
<path d="M5918 906 c-60 -22 -84 -42 -109 -92 -46 -97 -19 -238 55 -284 51
-31 121 -41 191 -27 60 12 60 12 63 50 4 42 4 42 -34 22 -37 -19 -117 -19
-154 0 -29 15 -50 45 -64 93 l-7 22 145 0 146 0 0 33 c0 89 -51 165 -125 186
-50 14 -61 13 -107 -3z m127 -88 c14 -16 25 -40 25 -54 0 -24 -1 -24 -100 -24
-98 0 -100 0 -100 24 0 52 69 99 128 88 12 -2 33 -18 47 -34z"/>
<path d="M4850 758 c0 -173 10 -208 68 -241 62 -36 165 -19 197 32 8 13 10 11
15 -14 4 -25 10 -31 38 -33 l32 -3 0 205 0 206 -35 0 -35 0 0 -112 c0 -62 -5
-130 -11 -152 -15 -55 -52 -86 -103 -86 -78 0 -89 25 -94 208 l-4 142 -34 0
-34 0 0 -152z"/>
</g>
</svg>
