<?xml version="1.0" standalone="no"?>
<!DOCTYPE svg PUBLIC "-//W3C//DTD SVG 20010904//EN"
 "http://www.w3.org/TR/2001/REC-SVG-20010904/DTD/svg10.dtd">
<svg version="1.0" xmlns="http://www.w3.org/2000/svg"
 width="448.000000pt" height="200.000000pt" viewBox="0 0 448.000000 200.000000"
 preserveAspectRatio="xMidYMid meet">

<g transform="translate(0.000000,200.000000) scale(0.100000,-0.100000)"
fill="#fafafa " stroke="none">
<path d="M3483 1969 c-138 -68 -165 -239 -56 -351 105 -107 288 -78 356 57 56
112 3 250 -115 300 -53 22 -134 19 -185 -6z"/>
<path d="M4152 1964 c-157 -78 -158 -304 -2 -384 94 -48 185 -34 261 39 72 71
88 155 45 247 -53 115 -185 157 -304 98z"/>
<path d="M156 633 c-81 -329 -150 -606 -152 -615 -5 -17 25 -18 534 -18 l540
0 36 145 c20 79 36 151 36 160 0 13 -42 15 -336 15 l-336 0 6 23 c3 12 11 46
17 75 l12 52 312 0 313 0 31 128 c18 70 34 135 37 145 5 16 -14 17 -305 17
-171 0 -311 3 -311 8 0 4 9 39 18 77 l18 70 340 3 340 2 34 138 c18 75 35 145
38 155 4 16 -26 17 -535 17 l-538 0 -149 -597z"/>
<path d="M1451 1178 c0 -29 12 -305 27 -613 l27 -560 193 0 193 0 145 310 c80
171 148 312 151 315 6 6 -5 -504 -13 -577 l-5 -53 194 0 194 0 324 607 c178
333 326 610 327 615 2 5 -88 7 -199 6 l-203 -3 -164 -355 -163 -355 6 225 c3
124 8 285 11 358 l6 132 -177 -2 -177 -3 -165 -355 -164 -355 5 250 c4 138 9
298 12 358 l6 107 -196 0 -196 0 1 -52z"/>
<path d="M3166 627 c-82 -331 -151 -608 -153 -614 -4 -10 39 -13 195 -13 183
0 201 2 206 18 10 34 296 1200 296 1206 0 3 -89 6 -197 6 l-198 0 -149 -603z"/>
<path d="M3915 1218 c-10 -34 -295 -1196 -295 -1206 0 -9 50 -12 197 -10 l197
3 146 585 c81 322 150 597 153 613 l7 27 -200 0 c-152 0 -202 -3 -205 -12z"/>
</g>
</svg>
