<?xml version="1.0" standalone="no"?>
<!DOCTYPE svg PUBLIC "-//W3C//DTD SVG 20010904//EN"
 "http://www.w3.org/TR/2001/REC-SVG-20010904/DTD/svg10.dtd">
<svg version="1.0" xmlns="http://www.w3.org/2000/svg"
 width="1320.000000pt" height="400.000000pt" viewBox="0 0 1320.000000 400.000000"
 preserveAspectRatio="xMidYMid meet">

<g transform="translate(0.000000,400.000000) scale(0.100000,-0.100000)"
fill="#fafafa" stroke="none">
<path d="M2539 3866 c-2 -2 -39 -6 -83 -9 -43 -3 -79 -7 -80 -9 -1 -2 -8 -16
-15 -33 -7 -16 -26 -51 -42 -76 l-30 -45 -132 23 c-73 12 -133 23 -135 23 -2
0 0 9 3 20 3 11 5 20 3 20 -2 0 -37 -11 -78 -25 -58 -19 -70 -26 -53 -31 22
-6 22 -6 -7 -46 -49 -67 -49 -96 1 -161 47 -64 72 -71 107 -34 24 25 28 47 12
63 -14 14 -23 136 -11 153 8 12 21 12 93 -2 45 -10 103 -20 128 -23 25 -3 49
-10 54 -14 5 -5 2 -30 -8 -60 -9 -28 -14 -55 -11 -60 3 -5 -15 -24 -40 -42
-27 -19 -61 -57 -81 -89 -19 -31 -40 -61 -47 -67 -10 -9 -44 -5 -128 12 -127
26 -218 41 -236 38 -23 -5 -24 19 -3 56 28 47 90 246 78 250 -5 2 -33 -6 -63
-18 -45 -18 -55 -27 -61 -53 -6 -30 -57 -164 -75 -198 -6 -13 -19 -14 -71 -8
-35 4 -106 10 -159 13 -88 6 -97 5 -120 -14 l-24 -21 27 5 c26 6 319 -12 327
-19 2 -3 -15 -51 -38 -108 l-42 -104 -122 5 c-103 4 -145 0 -267 -22 -194 -36
-254 -54 -281 -82 l-22 -23 79 23 c193 58 453 90 559 70 42 -8 42 -8 -15 -130
l-37 -81 -84 -6 c-97 -7 -238 -48 -354 -102 -102 -49 -249 -91 -346 -100 -59
-5 -78 -11 -87 -26 -11 -17 -10 -19 10 -15 13 3 46 8 73 11 101 13 122 17 205
41 87 26 119 39 203 80 69 34 210 73 289 81 l67 6 -21 -64 c-11 -35 -21 -69
-23 -74 -1 -6 -29 -16 -62 -23 -148 -30 -710 -234 -871 -316 -27 -14 -53 -36
-60 -50 -11 -25 0 -38 13 -16 31 51 861 360 965 360 8 0 -21 -128 -34 -149 -4
-6 -15 -11 -24 -11 -9 0 -66 -19 -127 -41 -60 -23 -125 -46 -144 -52 -20 -7
-92 -65 -180 -147 -80 -75 -159 -145 -176 -157 -16 -11 -52 -59 -79 -104 -27
-46 -62 -102 -78 -124 -15 -22 -42 -66 -58 -97 -28 -53 -33 -58 -64 -58 -72 0
-129 40 -162 112 -17 37 -18 38 -26 18 -11 -31 31 -101 78 -131 20 -12 59 -24
86 -27 44 -4 48 -7 42 -26 -11 -40 -37 -106 -41 -106 -10 0 -94 47 -145 81
-44 30 -57 35 -62 24 -6 -18 35 -50 130 -103 44 -25 68 -44 65 -53 -2 -8 -6
-38 -9 -67 -4 -51 -6 -53 -30 -47 -14 3 -59 26 -101 50 -51 30 -79 41 -86 34
-7 -7 -2 -16 13 -28 26 -19 132 -74 175 -90 26 -10 28 -14 25 -58 -3 -47 -4
-48 -37 -51 -33 -3 -144 12 -176 24 -10 4 -15 0 -15 -15 0 -15 7 -21 23 -22
12 0 31 -3 42 -5 11 -3 50 -8 87 -11 67 -6 68 -6 74 -38 4 -21 13 -35 25 -38
16 -4 19 0 19 29 l0 34 138 0 c118 0 301 12 382 24 14 2 47 7 73 11 l48 7 -21
-51 c-11 -29 -20 -53 -20 -54 0 -1 49 -4 110 -6 123 -3 111 -11 125 88 7 51
21 81 38 81 8 0 12 -24 12 -82 l0 -83 150 0 150 0 11 110 c15 132 24 175 64
287 34 99 84 196 146 286 24 35 44 65 44 68 0 6 -34 61 -103 168 -39 62 -93
96 -178 112 -40 7 -74 15 -76 18 -9 9 21 86 33 86 28 0 232 -79 269 -104 22
-15 68 -44 103 -63 35 -20 68 -46 74 -58 10 -23 11 -23 64 20 30 24 63 49 75
56 21 11 20 12 -17 50 l-38 39 55 52 c119 115 268 140 349 59 32 -32 56 -31
38 2 -29 54 -105 83 -198 74 -73 -6 -155 -50 -223 -120 l-47 -48 -41 34 c-22
19 -92 61 -155 93 -63 31 -114 58 -114 60 0 1 13 16 30 32 18 18 30 41 30 56
0 33 -37 92 -85 137 l-36 34 6 65 c4 36 8 66 10 68 4 4 141 -24 240 -50 167
-43 206 -48 405 -58 232 -10 281 -21 354 -77 69 -53 136 -137 136 -171 0 -28
-50 -86 -95 -110 -18 -10 -16 -11 14 -12 26 0 42 9 73 40 38 38 40 43 36 85
-10 86 -133 208 -253 250 -38 14 -98 20 -250 26 -194 7 -256 15 -415 57 -41
11 -113 28 -158 38 l-84 18 6 60 c3 34 5 75 6 91 1 54 6 57 116 45 289 -31
296 -32 286 -42 -5 -5 -26 -11 -47 -13 -46 -4 -49 -8 -41 -40 15 -61 98 -50
143 19 l21 33 59 -8 c32 -4 144 -17 248 -29 323 -34 391 -48 605 -120 188 -63
261 -100 253 -129 -7 -26 22 -44 61 -38 28 5 38 0 64 -26 55 -57 65 -112 32
-177 -26 -50 -84 -96 -199 -158 -73 -39 -89 -51 -74 -56 11 -4 28 -4 37 0 11
4 15 2 11 -7 -3 -9 13 -22 45 -36 l50 -22 0 44 c0 29 -5 47 -15 53 -13 7 -11
11 12 23 194 100 237 250 107 375 -134 128 -565 270 -909 299 -38 3 -81 7 -95
9 -14 2 -80 9 -147 17 -72 7 -123 17 -123 23 0 6 7 29 15 51 8 22 14 57 15 77
0 20 3 39 8 41 6 4 280 -61 392 -93 19 -5 100 -28 180 -50 163 -46 256 -73
346 -101 l61 -20 -5 -45 -5 -44 46 1 c44 2 46 4 49 34 l3 32 95 -28 c52 -15
168 -49 257 -76 l163 -48 0 -262 0 -262 -150 -72 c-124 -60 -148 -75 -138 -86
11 -10 36 -1 142 52 71 36 133 65 138 65 4 0 8 -98 8 -217 1 -170 4 -223 15
-243 13 -22 14 3 15 226 l0 251 68 26 c37 15 85 31 107 36 22 5 47 10 55 12
13 4 15 -42 18 -355 2 -313 0 -358 -13 -353 -8 4 -51 9 -96 13 -64 5 -80 3
-77 -7 5 -16 42 -25 123 -33 33 -3 61 -5 63 -6 1 0 2 -26 2 -58 l0 -58 -34 4
c-26 3 -37 -1 -52 -20 -11 -14 -25 -27 -33 -29 -11 -4 -11 -8 3 -21 9 -9 16
-21 16 -27 0 -18 49 -44 75 -39 l25 5 0 -89 c0 -80 2 -89 18 -86 14 3 17 17
20 101 1 53 6 97 11 97 27 0 126 -37 179 -68 l62 -36 0 -48 c0 -36 4 -48 15
-48 10 0 15 10 15 33 l1 32 28 -32 c30 -36 69 -47 52 -15 -5 9 -26 34 -45 56
-36 38 -36 39 -36 127 0 58 4 89 11 89 6 0 41 -30 78 -67 49 -49 78 -90 105
-145 l37 -78 78 0 79 0 4 57 c5 63 -4 106 -28 138 -15 20 -16 19 -44 -12 -17
-18 -31 -33 -32 -33 -2 0 -2 113 0 251 2 207 5 253 17 265 20 21 19 80 -2 102
-14 13 -18 34 -18 87 0 39 4 71 8 73 4 2 21 -8 36 -21 21 -17 26 -28 20 -38
-18 -28 -10 -67 18 -89 26 -20 37 -21 88 -6 14 5 32 -5 63 -34 47 -44 50 -63
10 -68 -17 -2 -32 -15 -48 -43 -30 -54 -16 -69 73 -78 4 -1 6 -49 5 -108 l-3
-106 -35 -12 c-29 -10 -36 -17 -38 -45 -2 -18 3 -49 12 -69 23 -54 46 -145 46
-180 0 -26 4 -31 24 -31 24 0 24 1 30 123 2 67 8 141 11 163 4 26 3 44 -4 48
-7 5 -11 41 -10 94 0 71 2 84 12 68 37 -58 38 -58 87 -41 24 8 51 22 60 30 14
12 17 12 28 -5 10 -16 8 -26 -14 -57 -25 -37 -26 -40 -20 -173 3 -74 6 -152 6
-172 0 -30 5 -40 34 -57 28 -18 49 -21 144 -21 l110 0 6 27 c3 16 8 59 11 97
7 81 20 151 34 189 6 16 11 42 11 58 0 16 5 29 10 29 6 0 10 7 10 15 0 8 -4
15 -10 15 -5 0 -10 9 -10 19 0 30 -36 107 -53 114 -8 3 -32 2 -53 -3 -22 -5
-66 -10 -99 -11 -33 -1 -71 -8 -84 -16 -25 -16 -31 -12 -49 29 -11 27 -10 29
55 73 l67 44 55 -31 c156 -88 190 -110 196 -128 10 -30 19 -25 44 28 58 121
190 286 299 375 90 74 212 147 313 189 44 17 79 35 79 40 0 4 -16 36 -35 71
-19 35 -35 71 -35 79 0 9 12 24 28 34 53 36 75 42 137 32 103 -15 386 -38 472
-38 l81 0 -19 -72 c-10 -40 -17 -74 -15 -76 2 -1 16 -4 32 -5 48 -3 55 61 18
149 -3 7 23 13 75 18 73 6 83 4 101 -14 11 -11 27 -20 35 -20 10 0 4 -17 -21
-59 -31 -51 -41 -60 -80 -71 -24 -7 -47 -16 -49 -20 -7 -11 40 -21 59 -14 11
4 16 1 16 -10 0 -9 5 -16 11 -16 28 0 208 -101 290 -162 l91 -68 47 25 c62 35
69 41 124 109 58 72 76 105 85 158 7 37 11 42 47 53 23 6 62 24 88 39 26 15
47 25 47 21 0 -4 -25 -80 -54 -169 -61 -178 -75 -229 -82 -289 -6 -49 -17 -63
-58 -82 -52 -23 -80 -50 -72 -70 6 -17 8 -17 29 2 12 11 33 26 46 33 20 10 23
10 19 -1 -3 -8 -13 -36 -22 -64 l-18 -50 40 -83 39 -83 16 43 c28 79 56 172
81 270 29 115 34 126 81 167 63 55 141 36 244 -59 113 -105 131 -152 105 -268
-10 -43 -21 -81 -25 -86 -4 -4 -17 4 -30 18 -32 37 -79 34 -181 -10 -149 -64
-144 -60 -195 -162 -45 -92 -45 -93 -34 -150 6 -31 14 -90 17 -129 l7 -73 208
0 c181 0 209 2 209 15 0 9 16 47 35 85 l35 70 44 0 c24 0 58 -3 75 -6 28 -6
31 -10 31 -45 0 -21 5 -50 10 -65 7 -19 7 -30 -1 -40 -10 -12 29 -14 250 -14
l261 0 0 28 c0 15 -7 40 -15 56 -8 15 -15 31 -15 34 0 6 182 -7 189 -14 2 -2
-1 -14 -7 -27 -6 -12 -12 -33 -14 -47 -3 -25 -3 -25 88 -28 l91 -3 7 63 c4 35
9 88 12 118 5 47 39 180 59 231 8 20 -62 64 -117 74 -42 8 -65 29 -70 65 -1
14 -9 25 -16 25 -26 0 -156 -163 -190 -238 l-34 -74 19 -39 18 -39 70 0 c67
-1 115 -15 115 -35 0 -17 -17 -18 -130 -8 -134 11 -148 20 -175 114 -14 48
-27 68 -83 121 -39 37 -75 63 -88 63 -26 0 -81 -39 -161 -116 -46 -45 -63 -68
-68 -98 -7 -36 -9 -38 -38 -32 -16 3 -47 6 -69 6 -31 0 -38 3 -31 13 6 6 16
29 23 50 15 47 5 77 -47 149 l-39 53 19 70 c29 108 28 180 -5 236 -34 58 -142
160 -200 188 -58 28 -127 28 -162 0 -29 -22 -32 -15 -16 35 5 17 28 92 50 166
66 217 70 228 102 241 36 15 58 6 58 -25 0 -37 38 -153 78 -235 42 -84 110
-166 147 -175 21 -5 24 -10 19 -39 -3 -17 -13 -49 -21 -69 l-16 -38 47 -52
c26 -29 71 -89 101 -134 51 -75 57 -81 104 -93 48 -12 55 -11 188 30 76 23
148 41 159 41 26 -2 38 11 53 60 7 20 30 64 53 97 55 82 50 96 -51 151 -44 23
-89 53 -101 65 l-22 23 29 6 c15 3 46 9 68 12 22 3 81 14 130 25 50 10 127 19
173 19 l82 0 -61 -62 c-107 -109 -116 -138 -78 -251 18 -53 33 -75 112 -154
50 -51 96 -93 102 -93 6 0 19 16 28 36 42 86 138 216 230 308 70 70 95 102 88
109 -20 20 -12 28 22 22 17 -3 39 -1 47 4 19 13 17 13 -62 33 -54 14 -75 25
-111 61 -39 40 -51 45 -104 52 -57 6 -134 -6 -158 -25 -5 -5 -59 -9 -120 -9
-77 -1 -153 -10 -255 -30 -80 -16 -148 -26 -152 -22 -4 4 -1 42 7 85 19 96 19
150 2 165 -8 6 -16 9 -18 7 -2 -2 -26 -6 -54 -9 -93 -11 -195 -35 -217 -51
-74 -52 -119 -83 -146 -97 -24 -13 -33 -29 -46 -75 -26 -91 -23 -86 -48 -73
-72 38 -162 206 -201 375 -4 19 3 25 59 43 36 12 72 21 80 21 23 0 113 47 208
108 77 49 271 131 283 119 3 -4 1 -25 -5 -48 -20 -79 40 -199 100 -199 13 0
50 -14 83 -30 33 -16 66 -30 72 -30 7 0 19 -12 27 -27 19 -37 80 -99 114 -117
44 -23 133 -35 335 -46 168 -8 190 -12 217 -31 26 -20 37 -21 112 -15 50 4
112 1 156 -6 51 -8 75 -9 83 -1 7 7 -4 14 -38 23 l-48 12 30 11 c60 20 74 45
116 205 l21 83 57 -6 c76 -9 187 -42 237 -71 47 -28 128 -110 146 -149 6 -14
20 -25 30 -25 18 0 18 2 -4 41 -74 132 -184 198 -386 233 -68 11 -87 19 -99
38 -21 30 -209 211 -250 240 -18 13 -33 25 -33 29 0 3 35 11 78 18 42 7 85 14
94 17 11 3 27 -10 49 -43 46 -66 118 -142 153 -160 23 -12 47 -14 115 -8 133
11 191 29 228 71 l32 36 24 -49 c13 -26 30 -66 37 -88 18 -57 57 -133 96 -186
59 -82 187 -133 361 -145 48 -4 89 -8 91 -9 2 -2 -37 -24 -88 -49 -101 -52
-130 -68 -130 -76 0 -3 31 -20 68 -38 37 -18 105 -60 151 -93 49 -35 90 -58
99 -54 8 3 51 -7 97 -22 l82 -27 -29 -24 c-25 -21 -33 -23 -54 -13 -39 17 -40
13 -7 -21 106 -113 244 -359 272 -482 12 -54 16 -59 54 -76 23 -9 52 -29 64
-42 l23 -24 -51 -63 c-40 -50 -50 -69 -47 -94 3 -34 5 -34 93 -27 6 0 33 -2
60 -5 l50 -5 -40 18 -39 19 46 27 c45 26 48 27 73 10 26 -17 51 -52 47 -66 -1
-5 35 -8 79 -8 65 0 89 4 120 22 l39 22 23 -22 c13 -12 36 -22 51 -22 l29 0
-27 21 c-15 12 -25 23 -23 25 2 2 35 -7 72 -21 38 -14 82 -25 99 -23 26 2 13
9 -69 39 l-99 36 54 34 c30 20 74 46 97 59 l42 23 120 -44 c67 -24 121 -46
121 -49 0 -4 -36 -24 -81 -45 -44 -22 -83 -43 -86 -47 -2 -5 136 -8 308 -8
l312 0 -6 139 c-4 76 -9 145 -12 153 -5 11 -19 8 -77 -20 l-71 -34 -139 53
-139 52 91 59 92 58 61 -22 c34 -12 88 -38 119 -59 l57 -37 -4 26 c-1 15 -3
30 -4 33 0 4 -13 10 -27 13 -40 10 -138 76 -128 86 5 4 34 22 64 38 51 29 55
33 51 64 -4 43 -8 48 -36 48 -34 0 -40 18 -11 31 30 14 28 31 -13 149 -24 68
-29 75 -51 72 -23 -3 -196 52 -213 68 -4 4 20 23 55 44 35 20 74 45 87 55 l25
19 -41 85 c-23 47 -46 88 -52 91 -6 4 -38 -7 -72 -25 -70 -35 -58 -36 -204 19
-44 16 -123 45 -175 65 -52 19 -121 45 -153 57 l-59 22 94 54 c51 29 98 54
105 54 10 0 265 -92 385 -139 26 -10 27 -9 16 9 -8 12 -53 34 -113 55 -55 20
-122 45 -150 55 -27 11 -63 24 -78 30 -28 10 -28 10 50 53 132 71 125 55 61
133 -31 38 -77 88 -101 112 l-44 43 -66 -32 -65 -32 -76 27 c-42 16 -73 32
-70 37 3 5 36 27 74 50 38 22 74 46 79 53 15 18 -27 55 -83 75 -217 78 -426
157 -426 161 0 3 32 19 70 35 59 26 67 32 54 42 -13 10 -26 8 -63 -11 -25 -13
-62 -29 -82 -35 -38 -12 -44 -10 -329 96 -36 13 -81 30 -100 37 -27 10 -38 21
-48 52 -17 50 -44 79 -110 117 -30 16 -58 40 -63 53 -9 26 -25 31 -31 12 -3
-9 -24 -5 -74 14 -120 46 -200 53 -549 52 -201 -1 -260 -5 -365 -23 -573 -103
-1000 -315 -1428 -710 -52 -47 -97 -87 -102 -89 -4 -2 -24 13 -45 33 -37 36
-37 36 -59 17 -11 -10 -47 -31 -78 -46 -32 -15 -84 -46 -116 -69 -57 -41 -102
-70 -102 -65 0 2 16 34 35 72 45 87 115 251 115 268 0 13 -52 59 -103 93 -27
17 -28 17 -105 -21 -42 -22 -80 -40 -83 -42 -3 -1 -1 23 4 55 20 121 19 122
-51 165 -63 38 -69 39 -135 21 -15 -4 -16 -1 -5 22 10 22 9 28 -3 36 -25 16
-35 10 -53 -33 -9 -24 -24 -58 -32 -77 -12 -28 -13 -36 -2 -42 7 -5 16 -9 20
-9 4 0 0 -16 -9 -36 -21 -44 -13 -60 48 -93 24 -13 61 -34 82 -48 l37 -24 -57
-48 c-86 -71 -144 -137 -191 -216 -36 -61 -172 -213 -172 -192 0 4 9 40 20 80
17 60 102 461 116 547 9 55 15 70 28 70 25 0 41 29 28 50 -9 15 -6 26 19 59
16 23 35 41 42 41 6 1 -1 8 -17 17 -40 21 -282 113 -298 113 -8 0 -15 -12 -16
-27 -1 -16 -6 -53 -11 -83 -6 -30 -12 -77 -16 -105 -9 -83 -54 -298 -76 -371
-17 -56 -30 -78 -69 -114 -26 -25 -65 -54 -87 -66 l-39 -21 -37 29 c-20 17
-37 33 -37 38 0 8 46 41 64 45 39 8 45 16 34 48 -6 18 -14 36 -19 41 -14 16
-101 -17 -123 -47 -12 -16 -33 -35 -48 -43 -16 -8 -28 -20 -28 -27 0 -14 49
-63 89 -90 29 -19 30 -19 -96 -47 -51 -11 -105 -17 -122 -14 -18 4 -31 2 -31
-3 0 -10 -36 -16 -307 -48 -107 -13 -147 -14 -210 -5 -83 12 -235 46 -268 60
-11 5 -33 11 -50 14 -69 12 -169 43 -173 54 -2 6 9 21 24 34 54 45 227 203
261 238 40 40 73 100 73 131 0 15 4 19 16 15 9 -3 34 -9 57 -13 23 -3 52 -12
63 -20 20 -13 23 -11 44 22 l22 35 -21 42 c-15 31 -33 48 -74 68 -63 33 -80
28 -106 -31 l-18 -39 -47 50 c-46 49 -47 51 -40 98 6 45 4 52 -26 85 -18 21
-37 55 -44 76 l-11 39 -140 -47 c-147 -50 -228 -83 -333 -134 l-64 -31 6 -38
c3 -20 9 -72 11 -115 6 -87 42 -288 55 -313 6 -11 4 -24 -5 -38 -15 -20 -16
-20 -177 42 -314 122 -327 127 -330 153 l-3 23 -30 -25 c-27 -23 -28 -26 -12
-35 15 -10 17 -27 17 -129 0 -65 -2 -120 -5 -123 -3 -3 -53 10 -110 28 -58 19
-112 34 -120 34 -9 0 -29 15 -46 32 -23 26 -29 29 -29 14 0 -13 -5 -17 -17
-13 -10 3 -66 20 -125 38 l-107 33 -3 95 c-2 64 -7 96 -15 99 -10 3 -13 -19
-13 -87 0 -50 -4 -91 -9 -91 -9 0 -66 17 -178 52 l-63 20 0 137 c0 131 -6 161
-32 161 -4 0 -8 -65 -8 -144 l0 -145 -27 9 c-16 5 -71 21 -123 37 l-95 28 -3
171 -2 172 -52 21 c-47 20 -300 51 -598 75 -36 3 -111 11 -168 17 l-102 12 5
43 5 44 -60 0 -60 0 0 -35 c0 -41 -1 -41 -114 -24 -73 11 -76 12 -70 35 4 17
2 24 -8 24 -8 0 -17 -2 -19 -4z m131 -91 c25 -4 51 -8 59 -11 20 -6 6 -46 -35
-102 l-36 -48 -82 19 c-44 10 -91 20 -104 23 l-23 5 29 33 c16 19 38 49 48 66
18 29 22 31 59 26 22 -3 60 -8 85 -11z m320 -40 c14 -2 60 -6 103 -10 l77 -7
0 -44 c0 -47 1 -48 64 -59 l38 -6 -3 49 -4 50 40 -3 c71 -5 68 -3 52 -25 -18
-26 -10 -70 13 -70 10 0 32 -3 49 -6 l31 -6 0 47 0 47 53 -6 c28 -3 79 -8 112
-11 33 -3 77 -8 98 -11 l37 -6 0 -165 c0 -153 -1 -165 -17 -161 -10 3 -96 27
-190 54 l-173 49 0 43 0 43 -30 -16 c-18 -9 -30 -23 -30 -35 0 -11 -4 -20 -9
-20 -5 0 -8 15 -6 33 4 47 -3 57 -40 57 -46 0 -65 -9 -65 -31 0 -10 -6 -19
-12 -19 -15 0 -369 88 -374 93 -2 2 9 40 24 86 l27 83 55 -7 c30 -4 66 -8 80
-10z m7549 -136 c-4 -28 -15 -75 -24 -105 -9 -31 -13 -63 -10 -73 7 -23 120
-66 214 -81 66 -11 80 -17 120 -55 50 -46 107 -78 158 -90 27 -5 34 -13 42
-43 20 -75 30 -126 25 -133 -2 -5 -25 1 -51 12 -31 13 -50 16 -56 10 -7 -7 6
-17 39 -31 75 -31 77 -33 90 -85 15 -57 38 -92 84 -122 27 -19 46 -23 113 -23
44 0 118 7 164 16 l83 15 98 -36 c53 -20 100 -40 105 -44 4 -4 -37 -31 -92
-59 -98 -52 -100 -52 -138 -39 -44 16 -446 166 -543 202 -40 16 -68 21 -74 15
-6 -6 0 -13 15 -19 46 -19 185 -71 398 -149 l214 -79 -106 -54 -107 -54 -73
27 c-39 14 -146 54 -236 87 -91 34 -166 61 -168 61 -2 0 -3 -6 -3 -12 0 -8 96
-49 225 -97 124 -45 225 -85 225 -88 0 -11 -236 6 -308 21 -40 9 -95 27 -122
41 -67 34 -132 118 -168 215 -15 41 -41 103 -58 136 l-31 61 24 64 c14 35 27
87 30 115 5 49 3 52 -45 110 -201 239 -184 223 -249 254 -39 18 -49 19 -120 9
-43 -7 -95 -20 -116 -31 -44 -22 -111 -88 -135 -133 -23 -43 -20 -128 7 -208
13 -38 21 -71 18 -74 -5 -4 -136 -30 -242 -47 -16 -3 -52 -10 -80 -15 -83 -17
-116 -21 -222 -28 l-103 -6 0 26 c0 18 -11 34 -35 53 -19 14 -35 29 -35 33 0
3 19 16 43 29 24 12 65 42 93 66 66 58 87 68 249 116 104 31 178 61 285 117
238 124 282 144 314 145 37 1 105 25 201 73 39 19 73 34 76 35 3 0 2 -23 -2
-51z m-7956 1 c31 -6 55 -16 51 -21 -3 -5 -11 -9 -17 -8 -27 3 -36 -3 -56 -36
-16 -28 -27 -35 -50 -35 -43 0 -78 -16 -96 -43 -15 -23 -14 -28 9 -80 32 -73
50 -82 134 -67 106 18 132 38 132 100 0 21 14 45 47 82 25 29 49 54 52 56 9 3
305 -71 406 -102 44 -14 118 -34 165 -45 47 -11 117 -30 155 -41 39 -11 106
-30 150 -43 l80 -23 3 -212 c1 -117 0 -212 -2 -212 -5 0 -225 64 -271 80 -32
10 -155 46 -290 85 -44 13 -125 36 -180 53 -55 16 -161 46 -235 67 -74 20
-173 47 -220 60 -47 13 -146 38 -220 56 -74 18 -137 34 -140 36 -11 9 62 63
84 63 39 0 96 99 96 166 0 36 6 59 20 76 19 25 20 25 77 13 32 -8 84 -19 116
-25z m8868 -115 c96 -36 181 -68 189 -71 13 -5 13 -6 0 -14 -8 -4 -31 -11 -50
-14 -19 -3 -58 -10 -85 -15 -28 -5 -70 -7 -93 -4 -42 6 -147 61 -144 76 1 4 2
30 2 57 0 28 2 50 4 50 2 0 81 -29 177 -65z m-171 -100 c19 -22 116 -55 165
-55 43 0 200 32 241 50 17 6 80 -13 275 -86 140 -52 261 -97 269 -100 18 -6
-4 -25 -102 -83 l-66 -40 -179 66 c-98 36 -200 74 -228 84 -27 10 -117 43
-200 74 -82 31 -165 61 -182 66 -32 10 -40 19 -26 32 10 11 19 8 33 -8z
m-9451 -36 c36 -5 68 -12 72 -14 3 -3 24 -7 45 -11 86 -13 109 -21 105 -35 -8
-30 0 -109 14 -143 8 -19 11 -37 7 -39 -4 -3 -29 -1 -57 3 -27 4 -77 10 -110
14 -33 3 -102 10 -152 15 -51 6 -97 12 -102 16 -12 7 -4 92 15 163 l15 53 42
-6 c23 -3 71 -11 106 -16z m9477 -25 c38 -15 139 -52 224 -84 374 -138 490
-183 490 -190 0 -8 -184 -100 -201 -100 -10 0 -189 64 -249 89 -36 14 -325
121 -388 142 -75 26 -75 27 -37 60 19 17 45 48 57 70 12 21 25 39 29 39 3 0
38 -12 75 -26z m-3129 -1 c-2 -5 -26 -75 -52 -158 -26 -82 -58 -179 -72 -215
-39 -105 -165 -350 -184 -360 -10 -6 -35 -12 -56 -15 -38 -5 -138 -40 -159
-57 -8 -5 -31 11 -68 46 -37 36 -70 59 -96 66 -38 10 -40 12 -35 43 4 19 17
40 33 51 55 39 139 133 193 216 31 47 76 106 100 131 82 85 212 178 324 231
61 29 80 34 72 21z m-4351 -52 c16 -5 68 -22 117 -36 l87 -27 0 -204 c0 -112
-4 -204 -9 -204 -9 0 -190 45 -223 55 -17 6 -18 21 -18 216 0 115 4 209 9 209
4 0 21 -4 37 -9z m1521 -225 l71 -27 4 -62 c4 -67 -21 -141 -45 -132 -10 4
-256 80 -389 121 l-48 15 0 123 0 124 168 -67 c92 -37 199 -80 239 -95z
m-1109 99 l82 -27 0 -189 c0 -148 -3 -189 -13 -189 -13 0 -189 37 -219 46 -16
5 -18 24 -18 209 l0 204 43 -14 c23 -7 79 -25 125 -40z m7022 -19 c151 -54
509 -191 506 -193 -2 -2 -59 -23 -127 -47 l-124 -43 -180 67 c-99 37 -192 72
-206 77 -22 9 -28 20 -42 89 -9 43 -19 89 -23 102 -6 22 -6 22 77 -9 46 -17
100 -36 119 -43z m-6773 -57 l113 -34 0 -168 0 -167 -22 5 c-13 2 -46 7 -75 9
-29 3 -75 8 -103 12 l-50 7 0 189 c0 148 3 189 13 186 6 -2 63 -20 124 -39z
m7671 -62 c34 -12 62 -24 62 -27 0 -3 -46 -28 -101 -55 -94 -45 -104 -48 -138
-37 -67 20 -111 37 -111 42 1 3 29 18 63 34 34 16 78 39 97 52 19 12 42 21 50
18 8 -3 43 -15 78 -27z m-7363 -36 l110 -36 3 -122 3 -123 -103 0 c-57 0 -119
3 -138 6 l-35 6 0 158 0 159 25 -6 c14 -3 75 -22 135 -42z m2417 -18 c-22 -43
-38 -110 -47 -197 -6 -50 -14 -69 -48 -112 -39 -51 -43 -53 -111 -66 -97 -17
-391 -14 -551 6 -71 9 -136 16 -144 16 -8 0 11 24 43 53 49 47 56 56 48 77 -5
13 -17 27 -28 31 -25 9 -89 -13 -118 -40 -12 -11 -43 -31 -68 -45 l-47 -25
-16 34 c-19 39 -77 82 -123 91 -28 6 -31 9 -26 33 9 33 14 42 22 37 12 -7 204
-44 264 -51 34 -4 131 2 248 15 106 12 195 19 198 16 3 -3 -11 -13 -31 -21
-65 -27 -57 -96 13 -125 22 -9 33 -22 37 -41 3 -19 18 -37 40 -50 l34 -21 24
22 c14 13 27 31 30 42 4 10 17 21 31 24 48 12 70 76 37 109 -12 13 -26 15 -55
11 l-38 -6 0 43 c0 36 3 43 21 44 12 1 62 11 112 23 63 15 93 18 100 11 18
-18 37 -12 37 10 0 14 13 26 43 40 23 10 51 26 61 34 28 21 29 19 8 -22z
m-1632 -94 c16 -46 25 -87 22 -91 -4 -4 -27 -1 -52 6 l-45 13 4 74 c3 75 16
108 34 90 5 -5 22 -46 37 -92z m5715 39 c189 -70 191 -76 25 -85 -109 -5 -151
10 -181 62 -23 40 -34 85 -21 85 6 0 86 -28 177 -62z m-1685 44 c0 -4 -25 -20
-56 -35 -48 -24 -59 -34 -77 -77 l-22 -50 -44 5 c-24 3 -45 6 -47 7 -1 2 -5
33 -9 69 l-7 66 89 2 c70 2 152 11 171 20 1 0 2 -3 2 -7z m-4475 -77 c77 -24
159 -49 183 -56 23 -7 42 -17 42 -23 0 -6 -13 -31 -29 -56 -25 -40 -32 -45
-62 -43 -19 1 -100 2 -181 2 l-148 1 0 116 0 116 28 -6 c15 -4 90 -27 167 -51z
m628 2 c-4 -31 -1 -46 11 -56 18 -15 21 -31 6 -31 -17 0 -40 57 -40 99 0 30 3
39 14 35 9 -4 12 -17 9 -47z m6200 -7 c5 -4 -35 -31 -88 -60 l-96 -52 -97 35
c-53 19 -95 39 -93 43 2 5 56 27 119 50 l116 41 65 -25 c36 -14 70 -28 74 -32z
m-3867 -70 c-9 -22 -16 -48 -16 -58 0 -9 -9 -23 -20 -30 -16 -10 -20 -10 -20
2 0 16 38 105 53 124 18 23 20 4 3 -38z m-4213 10 c45 -12 97 -26 115 -31 l32
-11 -2 -181 -3 -181 -71 -16 c-38 -9 -89 -24 -112 -33 -23 -9 -47 -17 -52 -17
-6 0 -10 92 -10 245 0 169 3 245 11 245 6 0 47 -9 92 -20z m5543 -50 c22 0 24
-4 24 -49 0 -26 4 -73 10 -102 9 -49 16 -60 85 -125 65 -62 94 -97 66 -80 -4
3 -77 8 -162 11 -262 10 -327 33 -393 137 l-17 26 68 22 c125 42 188 82 220
144 13 24 19 27 45 22 17 -3 41 -6 54 -6z m-5223 -22 l117 -22 0 -163 c0 -90
-4 -163 -8 -163 -5 0 -31 7 -58 15 -27 8 -79 13 -117 12 l-67 -2 0 173 c0 94
3 172 8 172 4 0 60 -10 125 -22z m1402 -9 c6 -6 1 -17 -13 -31 -17 -17 -24
-20 -34 -10 -17 17 -64 15 -82 -3 -15 -16 -56 -21 -56 -7 0 12 40 47 74 64 30
16 88 9 111 -13z m-3973 -49 c54 -62 64 -86 48 -114 -19 -37 -59 -50 -110 -36
-24 6 -40 16 -38 23 2 7 15 47 29 89 13 43 27 78 31 78 3 0 22 -18 40 -40z
m2881 9 l87 -12 0 -68 0 -67 -44 -22 c-25 -12 -61 -39 -80 -61 -30 -33 -36
-46 -36 -85 0 -25 -3 -44 -7 -42 -5 2 -25 12 -45 23 l-38 19 0 168 0 169 38
-5 c20 -3 76 -10 125 -17z m385 -24 c10 -4 13 -46 10 -203 -3 -212 -1 -201
-60 -275 -21 -26 -22 -30 -7 -55 8 -15 27 -33 42 -40 25 -12 27 -18 27 -73 l0
-60 -35 28 c-19 15 -40 44 -46 63 -13 41 -34 60 -67 60 -13 0 -45 17 -70 37
-26 21 -49 38 -50 39 -11 7 -6 82 6 102 11 17 12 28 4 46 -8 19 -6 36 9 80 24
66 22 108 -6 120 -18 8 -20 17 -19 75 1 36 2 66 3 66 67 0 250 -7 259 -10z
m396 -6 c154 -18 156 -18 156 -38 0 -33 39 -63 76 -59 34 4 34 4 28 -30 -7
-36 -5 -37 54 -15 8 4 12 -6 12 -32 0 -34 -2 -37 -22 -31 -83 24 -135 36 -150
36 -13 0 -18 8 -18 27 0 82 -129 84 -135 1 -2 -23 -21 -31 -94 -43 -52 -8
-177 -71 -222 -112 l-39 -35 0 171 0 171 131 0 c73 0 173 -5 223 -11z m7102
-160 c121 -45 230 -86 243 -91 22 -8 16 -13 -65 -54 -49 -25 -94 -50 -101 -56
-8 -7 -88 19 -260 82 -136 51 -252 95 -256 100 -4 4 32 30 80 59 64 37 95 50
114 47 14 -3 125 -42 245 -87z m-7061 -51 c19 -9 34 -8 64 2 34 11 49 10 104
-3 101 -26 116 -33 110 -55 -3 -13 -23 -24 -65 -36 -98 -27 -208 -110 -208
-157 0 -9 8 -25 17 -34 16 -17 32 -17 103 0 18 4 14 0 -13 -15 -21 -12 -41
-29 -44 -38 -7 -20 -43 -62 -53 -62 -4 0 -44 -21 -88 -46 l-80 -45 -44 22
c-24 12 -75 44 -115 71 l-71 49 16 28 c15 26 14 30 -6 63 -30 48 -28 81 7 120
30 34 118 91 160 103 20 6 23 4 18 -9 -9 -23 8 -63 33 -76 25 -14 62 -7 84 16
18 17 22 79 6 89 -36 22 19 34 65 13z m6638 -7 c144 -51 473 -174 477 -178 2
-2 -5 -22 -18 -43 -24 -43 -28 -80 -11 -112 10 -19 9 -20 -17 -14 -16 4 -114
49 -219 101 -104 51 -242 112 -305 135 -63 24 -116 44 -118 46 -6 4 132 83
146 84 7 0 36 -8 65 -19z m-7695 -75 l37 -13 3 -297 2 -296 -22 0 c-31 0 -68
-38 -68 -70 0 -34 34 -70 65 -70 20 0 25 -5 25 -25 0 -14 -2 -25 -4 -25 -3 0
-38 15 -79 34 -40 18 -94 36 -120 40 l-47 7 0 364 c0 338 1 364 18 369 27 8
148 -4 190 -18z m-3026 -78 c3 -29 4 -57 2 -63 -3 -6 -55 -21 -117 -34 -106
-22 -191 -55 -229 -89 -23 -19 -23 -65 -1 -83 23 -20 97 -15 175 10 38 13 73
21 78 19 6 -2 -9 -32 -33 -66 -30 -44 -62 -74 -103 -100 -33 -20 -124 -86
-203 -145 -216 -162 -258 -180 -372 -152 -38 10 -69 19 -69 21 0 10 39 145 45
154 3 5 25 14 48 21 63 16 157 72 203 121 61 65 84 102 147 229 32 64 68 126
81 138 40 37 159 70 257 71 l86 0 5 -52z m3145 25 c32 -15 35 -19 29 -51 -6
-37 -50 -112 -66 -112 -6 0 -10 38 -10 90 0 50 3 90 6 90 3 0 22 -7 41 -17z
m7528 -69 c127 -47 241 -89 255 -94 83 -27 165 -71 338 -183 66 -43 89 -63 80
-69 -41 -28 -106 -56 -114 -49 -5 4 -63 27 -129 51 -133 48 -116 41 -555 205
-173 64 -317 118 -319 121 -2 2 5 7 15 11 10 4 52 26 94 50 41 24 82 43 90 43
9 0 119 -39 245 -86z m-40 48 c-5 -6 -85 21 -85 28 0 4 20 0 44 -8 25 -9 43
-18 41 -20z m-11105 -179 c-65 -127 -113 -189 -180 -235 -61 -42 -137 -75
-147 -64 -9 8 95 114 163 167 29 22 64 59 80 82 36 56 114 147 125 147 5 0
-14 -44 -41 -97z m4780 82 c-14 -16 -40 -20 -40 -6 0 10 17 19 39 20 11 1 11
-2 1 -14z m6340 -155 c135 -50 316 -117 402 -148 87 -31 158 -60 158 -64 0 -8
-104 -48 -124 -48 -8 0 -54 25 -102 56 -121 76 -166 98 -293 143 -60 21 -148
62 -195 91 -97 58 -155 72 -203 48 -26 -13 -36 -12 -111 10 -45 14 -82 28 -82
32 0 4 21 16 48 27 l47 20 105 -38 c58 -21 215 -79 350 -129z m-10660 135 c0
-2 -10 -24 -21 -49 -21 -41 -24 -44 -73 -50 -28 -3 -77 -15 -108 -26 -71 -25
-90 -25 -112 -2 -15 18 -15 20 2 35 28 25 89 49 192 73 100 24 120 27 120 19z
m3330 -193 c-22 -17 -30 -32 -30 -54 0 -33 24 -68 47 -68 11 0 13 -57 13 -307
l0 -308 -25 53 c-35 76 -106 162 -171 208 l-55 39 5 50 c3 28 8 66 11 86 4 23
3 39 -4 43 -15 10 -15 366 -1 366 12 0 75 -33 107 -56 20 -14 23 -14 36 8 8
13 32 50 53 83 l39 60 3 -89 c3 -90 3 -90 -28 -114z m8345 106 c4 -3 -36 -31
-89 -62 -93 -55 -96 -56 -128 -42 -18 8 -60 24 -93 36 -115 42 -112 40 -90 53
11 6 60 30 109 52 l89 41 98 -36 c54 -20 101 -39 104 -42z m-11507 -4 c34 -24
28 -44 -13 -44 -36 0 -42 10 -29 44 8 20 14 20 42 0z m3713 -129 c25 -8 24
-17 -2 -33 -18 -12 -24 -10 -45 13 l-25 27 -49 -21 c-27 -12 -51 -21 -54 -21
-3 0 -6 33 -6 74 l0 74 81 -54 c45 -29 90 -56 100 -59z m395 58 c-10 -10 -19
5 -10 18 6 11 8 11 12 0 2 -7 1 -15 -2 -18z m7058 -8 c134 -48 136 -49 101
-68 -28 -14 -31 -13 -84 23 -31 20 -72 46 -91 58 -47 29 -40 28 74 -13z
m-11126 -47 c6 -29 7 -56 3 -60 -11 -12 -106 28 -109 47 -2 9 -1 27 2 41 6 21
12 24 50 24 l43 0 11 -52z m4044 25 c13 -16 14 -26 2 -78 -7 -33 -13 -73 -13
-88 -1 -16 -5 -27 -9 -25 -4 2 -50 27 -102 57 -93 54 -94 55 -64 64 16 6 47
21 69 35 47 30 88 52 96 52 3 0 13 -8 21 -17z m6573 -88 c39 -18 106 -57 150
-85 74 -49 78 -53 60 -66 -26 -19 -32 -18 -137 20 -148 54 -146 52 -144 98 0
31 -5 44 -24 59 l-25 20 25 -6 c14 -4 57 -22 95 -40z m-10554 -71 c29 -16 54
-34 57 -41 2 -7 -8 -24 -22 -38 -23 -23 -33 -25 -108 -25 -46 0 -94 -3 -107
-7 -23 -6 -24 -4 -17 28 3 19 9 56 12 84 3 27 7 55 9 62 5 14 91 -17 176 -63z
m-455 19 c-13 -40 -20 -105 -24 -204 l-2 -46 -97 -40 c-155 -64 -240 -90 -352
-108 -93 -16 -214 -16 -229 0 -5 4 15 115 22 122 1 2 34 -4 72 -13 123 -28
172 -8 399 161 214 159 222 164 211 128z m11954 -2 c0 -5 -15 -14 -32 -20 -18
-7 -50 -23 -70 -36 -23 -16 -39 -21 -44 -14 -7 13 -7 13 47 49 42 27 99 40 99
21z m-918 -87 c133 -48 124 -43 102 -58 -16 -12 -25 -10 -69 14 -27 15 -72 36
-100 46 -60 21 -59 20 -50 33 4 8 12 8 25 1 10 -5 51 -22 92 -36z m746 -12 c2
-7 -7 -12 -22 -12 -27 0 -35 15 -13 23 17 7 30 3 35 -11z m-774 -38 c28 -14
55 -30 60 -34 9 -9 -89 -70 -112 -70 -13 0 -142 48 -152 57 -2 2 16 22 40 44
53 46 80 47 164 3z m714 7 c9 -5 -12 -25 -69 -64 -82 -56 -83 -56 -111 -39
-15 9 -28 19 -28 22 0 6 170 88 185 89 6 0 16 -3 23 -8z m-881 -99 c26 -11 57
-22 67 -26 19 -7 19 -7 0 -20 -43 -30 -61 -29 -103 10 -64 57 -51 69 36 36z
m-7815 -32 c-5 -51 18 -80 61 -80 32 0 67 24 67 46 0 24 20 25 65 3 l45 -23 0
-88 c0 -48 -3 -88 -6 -88 -3 0 -26 12 -50 26 -25 15 -77 37 -117 49 l-72 23
-3 86 c-1 47 1 86 5 86 5 0 7 -18 5 -40z m-2767 11 c7 -24 -64 -171 -82 -171
-11 0 -11 5 0 28 8 15 22 52 31 82 10 30 19 61 21 68 6 18 23 15 30 -7z
m10555 -70 c0 -3 -11 -19 -24 -35 -22 -29 -25 -29 -62 -18 -47 14 -126 70
-121 86 2 6 19 11 38 11 20 0 46 7 59 16 24 16 26 15 67 -19 24 -19 43 -37 43
-41z m671 67 c22 -6 39 -14 39 -18 0 -4 -27 -22 -60 -39 -56 -30 -61 -31 -87
-17 -61 33 -61 33 -3 60 65 29 62 29 111 14z m-11526 -149 c-9 -37 -22 -72
-28 -77 -7 -6 -30 -12 -52 -15 -22 -2 -69 -10 -105 -17 -36 -6 -159 -12 -275
-13 l-210 -2 1 45 1 44 114 1 c155 2 290 36 494 123 l70 31 3 -26 c2 -14 -4
-56 -13 -94z m11365 69 c42 -24 47 -32 29 -44 -12 -7 -129 25 -129 36 0 7 38
28 53 29 4 1 26 -9 47 -21z m398 -43 c56 -32 102 -62 102 -66 0 -3 -14 -12
-30 -19 -27 -11 -33 -10 -53 7 -55 49 -166 91 -208 78 -10 -4 -19 -4 -19 -1 0
8 93 65 100 62 3 -1 51 -29 108 -61z m-481 -2 c29 -9 53 -20 53 -23 0 -4 -42
-30 -94 -59 l-95 -52 -46 35 -46 35 78 40 c43 22 82 40 87 41 5 0 33 -8 63
-17z m599 -7 c44 -18 55 -26 42 -31 -16 -6 -108 37 -108 50 0 7 2 7 66 -19z
m-251 -32 c22 -2 65 -18 94 -36 51 -28 53 -31 36 -44 -27 -20 -33 -19 -154 26
-60 22 -114 40 -120 40 -15 0 -14 17 2 23 12 4 64 1 142 -9z m-577 -90 c28
-10 52 -21 52 -24 0 -3 -25 -19 -55 -35 l-54 -30 -36 35 c-19 18 -35 36 -35
40 0 9 54 40 65 36 6 -2 34 -12 63 -22z"/>
<path d="M3036 3653 c-13 -13 -6 -71 10 -77 37 -14 52 -6 59 30 3 20 5 37 3
39 -8 7 -66 13 -72 8z"/>
<path d="M3139 3342 c-5 -13 -9 -27 -9 -32 0 -18 33 -40 60 -40 31 0 38 15 32
62 -3 21 -10 27 -39 30 -29 4 -36 1 -44 -20z"/>
<path d="M3325 3320 c-11 -49 1 -70 40 -70 51 0 65 9 65 40 0 51 -9 60 -55 60
-40 0 -44 -2 -50 -30z"/>
<path d="M3101 3216 c-6 -7 -10 -35 -9 -62 l3 -49 46 -3 c41 -3 47 -1 53 20
12 45 7 68 -13 68 -11 0 -23 4 -26 10 -13 21 -43 30 -54 16z"/>
<path d="M3305 3168 c-11 -31 -10 -83 3 -82 6 1 25 2 41 3 24 1 32 7 41 37 7
19 10 37 8 39 -1 1 -22 6 -45 10 -32 5 -44 3 -48 -7z"/>
<path d="M5016 2316 c-32 -31 -33 -70 -3 -100 62 -62 156 26 100 92 -30 35
-68 38 -97 8z"/>
<path d="M4417 1859 c-49 -28 -40 -107 14 -130 26 -10 34 -9 57 8 71 53 5 166
-71 122z"/>
<path d="M6256 3851 c-17 -6 -17 -8 -4 -14 16 -6 88 9 88 18 0 8 -63 4 -84 -4z"/>
<path d="M6813 3845 c-44 -19 -41 -39 7 -71 37 -25 39 -28 25 -47 -22 -32 -18
-65 11 -93 35 -36 67 -25 127 42 28 31 57 54 68 54 26 0 69 44 69 70 0 11 -2
20 -4 20 -3 0 -35 6 -73 14 -112 24 -194 28 -230 11z"/>
<path d="M6544 3823 l-25 -27 43 -37 c70 -61 82 -65 115 -39 26 20 48 81 35
95 -3 3 -24 5 -46 5 -23 0 -50 7 -60 15 -27 20 -33 19 -62 -12z"/>
<path d="M3182 3813 c3 -17 29 -34 74 -47 17 -5 22 -2 26 19 6 30 6 31 -55 39
-44 7 -48 6 -45 -11z"/>
<path d="M3390 3786 c0 -2 7 -7 16 -10 8 -3 12 -2 9 4 -6 10 -25 14 -25 6z"/>
<path d="M6415 3770 c-12 -19 -34 -118 -39 -171 -3 -30 -20 -114 -38 -186 -31
-123 -35 -133 -56 -133 -13 0 -33 -11 -44 -23 l-21 -24 -59 29 c-33 16 -63 26
-68 23 -5 -3 -12 -27 -16 -53 -3 -26 -14 -55 -23 -65 -15 -17 -14 -20 3 -32
17 -13 17 -16 -9 -59 -23 -39 -30 -44 -45 -36 -38 20 -90 -18 -90 -65 0 -40
30 -68 70 -68 17 0 30 -4 30 -9 0 -4 14 -8 31 -8 23 0 44 11 75 40 24 22 47
40 52 40 17 0 43 61 37 88 -3 17 0 35 9 47 9 11 16 28 16 38 0 19 11 22 26 8
5 -5 16 -11 26 -13 14 -3 12 -11 -13 -68 -26 -56 -29 -72 -23 -117 3 -29 9
-53 13 -53 4 0 29 7 55 16 43 15 51 15 95 0 33 -11 65 -14 96 -9 60 8 73 31
56 98 -12 49 -7 85 11 85 7 0 9 24 6 69 -3 38 -1 76 4 84 6 11 3 19 -7 25 -14
7 -13 11 5 34 11 14 20 38 20 52 0 14 5 26 10 26 20 0 50 40 50 67 0 14 -7 34
-16 44 -12 13 -13 22 -5 38 6 11 11 40 11 65 0 59 -21 81 -88 90 -39 5 -54 12
-63 29 -27 53 -69 81 -84 57z m112 -294 c-13 -27 -27 -16 -27 22 0 19 3 21 19
12 16 -8 18 -13 8 -34z"/>
<path d="M11195 3764 c11 -9 47 -29 80 -46 33 -17 92 -52 130 -78 91 -61 131
-81 164 -82 26 -1 81 27 81 41 0 4 -19 16 -42 26 -24 10 -67 29 -97 42 -55 25
-314 113 -328 113 -4 0 1 -8 12 -16z"/>
<path d="M7179 3649 c-32 -33 -57 -50 -83 -55 -46 -8 -73 -43 -57 -72 6 -11
26 -30 45 -42 23 -14 36 -30 38 -47 2 -18 14 -33 35 -46 29 -17 36 -17 64 -5
25 11 29 17 24 38 -19 74 -18 98 7 111 32 17 38 28 38 75 0 29 -6 46 -22 61
-38 33 -41 32 -89 -18z"/>
<path d="M6720 3633 c-42 -15 -55 -87 -20 -118 45 -41 110 -9 110 55 0 21 -6
42 -13 48 -16 14 -58 22 -77 15z"/>
<path d="M6771 3451 c-22 -22 -52 -43 -68 -46 -72 -16 -90 -37 -55 -67 31 -26
93 -58 113 -58 18 0 20 -4 14 -44 -6 -38 -4 -46 13 -55 33 -17 61 -13 109 17
71 42 93 67 93 102 0 39 -50 94 -77 86 -33 -10 -47 8 -34 45 13 38 8 44 -36
54 -29 6 -37 2 -72 -34z"/>
<path d="M3075 2838 c-3 -7 -6 -29 -7 -48 -3 -34 -2 -35 32 -37 41 -2 60 11
60 41 0 31 -11 43 -48 51 -23 5 -33 3 -37 -7z"/>
<path d="M3040 2655 c-6 -16 -6 -34 0 -51 10 -24 14 -26 51 -21 52 7 58 13 52
60 -5 36 -6 37 -49 37 -38 0 -46 -4 -54 -25z"/>
<path d="M3246 2645 c-3 -11 -6 -32 -6 -47 0 -26 3 -28 45 -28 40 0 45 2 45
23 0 13 5 28 12 35 17 17 0 29 -49 34 -35 3 -43 0 -47 -17z"/>
<path d="M3090 2461 c0 -35 3 -41 25 -47 38 -9 55 2 55 35 0 34 -2 36 -47 46
-33 7 -33 7 -33 -34z"/>
<path d="M6505 2459 c-46 -14 -119 -53 -122 -64 -2 -8 23 -8 84 0 l88 10 3 33
c4 35 -2 37 -53 21z"/>
<path d="M2871 2438 c-13 -34 -3 -48 34 -48 34 0 45 13 45 51 0 30 -68 27 -79
-3z"/>
<path d="M1785 706 c-33 -9 -60 -26 -82 -50 -29 -31 -33 -43 -33 -89 0 -88 29
-111 197 -152 60 -15 104 -32 119 -46 32 -30 32 -79 0 -116 -21 -25 -31 -28
-97 -31 -94 -4 -136 15 -164 75 -16 36 -24 43 -47 43 -35 0 -36 -19 -5 -80 57
-115 257 -136 359 -39 35 33 38 40 38 92 0 98 -43 129 -245 176 -81 20 -114
67 -85 122 27 49 138 66 197 30 18 -12 37 -35 44 -55 11 -30 18 -36 42 -36 28
0 29 2 24 35 -16 97 -140 155 -262 121z"/>
<path d="M2322 701 c-29 -10 -64 -29 -78 -42 -96 -89 -112 -299 -32 -410 84
-116 290 -118 370 -3 15 21 32 58 37 82 l9 42 -33 0 c-29 0 -33 -3 -39 -35 -8
-42 -46 -88 -86 -105 -42 -17 -134 -8 -168 17 -15 11 -38 40 -52 64 -20 36
-25 58 -25 124 0 143 57 215 175 221 68 3 110 -18 141 -71 16 -27 27 -35 50
-35 34 0 36 8 9 59 -25 50 -60 77 -123 96 -65 19 -90 19 -155 -4z"/>
<path d="M2897 709 c-120 -29 -197 -155 -185 -303 12 -147 112 -246 248 -246
94 0 167 43 218 130 24 41 27 55 27 145 0 87 -3 106 -25 149 -27 52 -67 92
-116 112 -43 18 -122 25 -167 13z m172 -87 c55 -44 76 -94 76 -182 -1 -89 -28
-157 -78 -192 -27 -19 -45 -23 -110 -23 l-78 0 -39 41 c-39 42 -70 120 -70
174 0 58 32 135 71 172 42 40 69 48 143 42 36 -2 60 -11 85 -32z"/>
<path d="M3692 702 c-91 -33 -141 -99 -163 -216 -24 -129 43 -264 153 -310 74
-31 181 -14 236 37 20 18 24 19 32 7 5 -8 10 -23 10 -32 0 -12 8 -18 25 -18
l25 0 0 140 0 140 -115 0 -115 0 0 -30 0 -30 86 0 86 0 -6 -37 c-14 -80 -70
-126 -159 -131 -76 -4 -119 16 -160 74 -49 71 -50 205 0 281 38 59 75 78 153
78 77 0 121 -25 141 -80 10 -28 18 -35 39 -35 15 0 29 3 33 6 8 8 -12 63 -35
96 -44 63 -174 92 -266 60z"/>
<path d="M6301 710 c-61 -14 -113 -60 -148 -128 -30 -60 -32 -70 -30 -155 3
-108 23 -155 89 -211 88 -76 221 -75 300 1 l27 26 8 -34 c7 -24 16 -35 31 -37
22 -3 22 -2 22 137 l0 141 -115 0 -115 0 0 -30 0 -30 86 0 86 0 -6 -37 c-9
-46 -32 -81 -77 -111 -29 -20 -44 -23 -100 -20 -53 3 -73 9 -101 30 -45 35
-71 88 -76 161 -12 156 83 262 216 242 59 -9 89 -29 113 -77 16 -31 25 -38 49
-38 36 0 37 6 8 66 -40 86 -154 131 -267 104z"/>
<path d="M9624 711 c-80 -20 -150 -91 -174 -175 -18 -65 -9 -190 18 -242 28
-55 92 -111 144 -125 94 -25 212 8 262 74 110 145 73 372 -74 447 -44 23 -130
33 -176 21z m172 -86 c101 -77 103 -285 3 -369 -53 -45 -160 -48 -219 -6 -19
13 -43 46 -58 78 -21 46 -24 65 -20 126 7 102 52 174 122 196 50 15 135 3 172
-25z"/>
<path d="M4797 703 c-4 -3 -7 -125 -7 -270 l0 -263 30 0 c25 0 30 4 30 25 l0
24 35 -23 c49 -33 100 -40 155 -21 53 19 74 40 100 101 66 153 -51 319 -200
285 -23 -5 -53 -19 -66 -32 l-24 -22 0 101 c0 100 0 102 -23 102 -13 0 -27 -3
-30 -7z m253 -221 c40 -40 54 -115 34 -176 -21 -61 -54 -86 -113 -86 -75 1
-121 56 -121 145 0 90 46 144 123 145 40 0 54 -5 77 -28z"/>
<path d="M5700 441 l0 -271 30 0 30 0 -2 268 -3 267 -27 3 -28 3 0 -270z"/>
<path d="M8800 440 l0 -270 30 0 30 0 0 73 c0 69 2 75 31 103 36 34 28 41 112
-93 50 -80 53 -83 90 -83 28 0 36 3 31 13 -5 6 -39 58 -76 115 -38 56 -71 108
-73 115 -2 7 30 41 70 77 l73 65 -34 3 c-31 3 -44 -5 -129 -84 l-95 -86 0 161
0 161 -30 0 -30 0 0 -270z"/>
<path d="M10337 703 c-4 -3 -7 -49 -7 -101 l0 -94 -29 25 c-77 64 -206 32
-248 -61 -21 -48 -21 -165 1 -214 40 -93 170 -125 247 -61 l29 25 0 -26 c0
-22 4 -26 30 -26 l30 0 0 270 0 270 -23 0 c-13 0 -27 -3 -30 -7z m-59 -209
c34 -23 55 -73 55 -129 0 -91 -45 -145 -119 -145 -55 0 -99 36 -115 93 -19 71
8 163 55 186 32 15 99 13 124 -5z"/>
<path d="M10930 441 l0 -271 30 0 30 0 0 130 c0 176 18 210 109 210 28 0 48
-7 61 -20 18 -18 20 -33 20 -170 l0 -150 31 0 30 0 -3 164 c-3 158 -4 165 -27
190 -52 56 -157 55 -200 0 l-20 -26 -3 104 -3 103 -27 3 -28 3 0 -270z"/>
<path d="M13054 696 c-3 -9 -4 -54 -3 -100 l4 -84 -28 20 c-44 31 -91 40 -139
28 -83 -22 -128 -91 -128 -193 0 -108 43 -174 128 -197 52 -14 89 -7 136 25
l36 24 -3 -22 c-2 -18 4 -23 31 -25 l32 -3 -2 268 -3 268 -28 3 c-17 2 -29 -2
-33 -12z m-50 -207 c37 -29 49 -55 51 -114 2 -58 -17 -113 -48 -137 -29 -23
-100 -23 -134 -1 -70 46 -71 208 -2 257 33 23 100 21 133 -5z"/>
<path d="M90 504 c0 -175 2 -200 21 -243 30 -72 78 -96 190 -96 76 0 90 3 127
27 72 48 77 65 80 301 l3 207 -33 0 -33 0 3 -162 c4 -201 -1 -240 -38 -281
-25 -28 -34 -32 -96 -35 -55 -2 -75 1 -100 16 -56 36 -64 68 -64 276 l0 186
-30 0 -30 0 0 -196z"/>
<path d="M640 435 l0 -265 35 0 35 0 2 215 3 216 55 -86 c241 -375 219 -345
261 -345 l39 0 0 265 0 265 -35 0 -35 0 0 -217 0 -218 -33 50 c-17 28 -81 125
-140 218 l-109 167 -39 0 -39 0 0 -265z"/>
<path d="M1210 435 l0 -265 180 0 180 0 0 30 0 30 -150 0 -151 0 3 93 3 92
138 3 137 3 0 29 0 30 -140 0 -141 0 3 83 3 82 148 3 147 3 0 24 0 25 -180 0
-180 0 0 -265z"/>
<path d="M4140 435 l0 -265 30 0 30 0 0 265 0 265 -30 0 -30 0 0 -265z"/>
<path d="M4438 557 c-130 -31 -174 -242 -70 -343 44 -42 111 -60 173 -44 73
19 115 64 129 140 32 169 -77 285 -232 247z m118 -63 c38 -26 54 -66 54 -138
0 -60 -3 -67 -34 -100 -29 -31 -39 -36 -81 -36 -40 0 -52 5 -80 33 -60 60 -57
179 6 231 36 31 96 35 135 10z"/>
<path d="M5351 555 c-49 -15 -90 -58 -91 -92 0 -19 5 -23 30 -23 20 0 30 5 30
15 0 32 38 55 90 55 37 0 55 -5 70 -20 46 -46 15 -83 -82 -98 -126 -20 -169
-60 -152 -147 15 -83 145 -109 227 -45 l26 20 6 -20 c15 -47 95 -50 95 -4 0
17 -6 24 -20 24 -19 0 -20 7 -20 133 0 144 -8 174 -52 195 -41 20 -109 23
-157 7z m149 -227 c-1 -69 -44 -108 -119 -108 -51 0 -81 26 -74 63 8 39 32 55
102 66 35 6 66 13 69 16 14 14 22 1 22 -37z"/>
<path d="M6825 555 c-112 -39 -156 -194 -89 -312 50 -87 181 -106 263 -38 16
14 34 39 40 55 9 28 8 30 -15 30 -16 0 -38 -13 -58 -35 -28 -29 -40 -35 -75
-35 -73 0 -112 32 -126 103 -4 16 8 17 141 17 l144 0 0 43 c-1 84 -52 156
-125 176 -49 13 -51 13 -100 -4z m124 -72 c17 -16 33 -40 37 -55 l6 -28 -116
0 -116 0 15 37 c9 20 17 38 18 38 1 1 13 9 27 18 39 27 94 22 129 -10z"/>
<path d="M7257 556 c-82 -30 -129 -106 -122 -200 7 -101 53 -164 135 -186 84
-23 166 13 208 90 34 65 29 168 -11 229 -43 65 -136 94 -210 67z m128 -68 c33
-26 55 -75 55 -125 0 -49 -34 -117 -66 -131 -36 -17 -96 -15 -123 4 -46 33
-65 130 -40 203 23 66 119 93 174 49z"/>
<path d="M7746 555 c-22 -7 -43 -21 -48 -29 -13 -23 -25 -20 -24 7 1 17 -5 23
-26 25 l-28 3 0 -271 0 -271 28 3 27 3 0 98 c0 53 2 97 4 97 2 0 16 -11 31
-24 86 -72 230 -18 261 97 17 62 6 151 -24 196 -42 63 -131 92 -201 66z m129
-78 c58 -58 57 -172 -1 -231 -50 -49 -150 -30 -186 37 -14 27 -17 114 -5 149
15 46 62 78 114 78 38 0 50 -5 78 -33z"/>
<path d="M8176 555 c-47 -17 -81 -50 -90 -87 -6 -25 -4 -28 21 -28 20 1 34 10
48 33 18 29 26 32 74 35 62 4 91 -15 91 -59 0 -34 -19 -46 -91 -55 -85 -10
-137 -37 -155 -79 -25 -60 0 -117 62 -141 53 -20 103 -13 157 22 36 24 37 24
37 4 0 -23 42 -44 71 -35 26 9 25 51 -1 58 -19 5 -20 14 -20 141 0 126 -2 137
-22 161 -22 24 -78 45 -123 44 -11 0 -38 -6 -59 -14z m144 -231 c0 -37 -5 -51
-29 -75 -25 -24 -38 -29 -80 -29 -58 0 -81 17 -81 60 0 39 30 58 111 71 35 6
65 12 68 15 9 9 11 3 11 -42z"/>
<path d="M8645 550 c-22 -11 -48 -32 -57 -47 l-17 -28 -1 43 c0 40 -1 42 -30
42 l-30 0 0 -195 0 -195 30 0 30 0 0 98 c1 161 25 216 102 228 35 6 38 9 38
40 0 40 -9 42 -65 14z"/>
<path d="M10599 561 c-48 -16 -71 -33 -84 -64 -31 -74 5 -117 123 -148 47 -13
94 -31 104 -41 43 -43 5 -88 -74 -88 -58 0 -92 15 -107 46 -7 16 -19 24 -36
24 -29 0 -32 -17 -10 -60 22 -43 69 -64 145 -64 76 0 123 21 145 64 42 80 2
137 -115 165 -92 21 -120 38 -120 70 0 31 26 45 85 45 39 0 52 -5 76 -31 20
-21 36 -29 53 -27 23 3 24 4 10 39 -8 19 -27 42 -42 51 -34 20 -117 30 -153
19z"/>
<path d="M11478 558 c-46 -12 -103 -73 -117 -125 -28 -101 8 -211 82 -250 43
-22 133 -22 175 0 32 18 72 70 72 95 0 24 -42 11 -74 -23 -28 -29 -41 -35 -74
-35 -73 0 -111 28 -128 94 l-6 26 146 0 146 0 0 30 c0 38 -28 120 -49 144 -37
42 -111 61 -173 44z m110 -64 c22 -15 52 -63 52 -84 0 -6 -41 -10 -114 -10
l-113 0 5 25 c2 15 18 39 34 55 23 24 38 30 72 30 23 0 52 -7 64 -16z"/>
<path d="M11945 559 c-16 -4 -45 -25 -62 -46 l-33 -38 0 43 c0 38 -2 42 -25
42 l-25 0 0 -195 0 -195 29 0 29 0 4 131 3 131 37 34 c26 23 47 34 68 34 29 0
31 2 28 32 -3 36 -11 40 -53 27z"/>
<path d="M12211 553 c-19 -10 -41 -30 -50 -45 -22 -38 -31 -35 -31 12 0 36 -2
40 -25 40 l-25 0 0 -195 0 -195 30 0 30 0 0 118 c0 147 13 179 83 203 58 19
61 22 53 54 -7 29 -19 31 -65 8z"/>
<path d="M12458 560 c-104 -31 -155 -154 -116 -282 42 -140 270 -153 317 -18
9 28 8 30 -15 30 -16 0 -36 -13 -55 -35 -27 -30 -37 -35 -76 -35 -72 0 -123
42 -123 100 0 19 8 20 146 20 l146 0 -7 43 c-16 97 -60 157 -130 176 -45 12
-50 12 -87 1z m118 -84 c19 -19 34 -43 34 -55 0 -20 -5 -21 -110 -21 -105 0
-110 1 -110 21 0 12 15 36 34 55 28 28 42 34 76 34 34 0 48 -6 76 -34z"/>
</g>
</svg>
