<?xml version="1.0" standalone="no"?>
<!DOCTYPE svg PUBLIC "-//W3C//DTD SVG 20010904//EN"
 "http://www.w3.org/TR/2001/REC-SVG-20010904/DTD/svg10.dtd">
<svg version="1.0" xmlns="http://www.w3.org/2000/svg"
 width="1028.000000pt" height="400.000000pt" viewBox="0 0 1028.000000 400.000000"
 preserveAspectRatio="xMidYMid meet">

<g transform="translate(0.000000,400.000000) scale(0.100000,-0.100000)"
fill="#fafafa" stroke="none">
<path d="M2490 3985 c-7 -8 -21 -15 -31 -15 -10 0 -63 -14 -116 -31 -444 -141
-725 -356 -845 -645 l-33 -79 -5 -755 -5 -755 -23 -65 c-56 -153 -123 -254
-250 -378 -67 -65 -109 -98 -117 -90 -4 4 2 18 47 98 65 115 118 300 139 485
16 132 16 460 0 680 -26 356 -9 720 40 873 50 153 168 307 336 438 45 35 84
64 88 64 4 0 25 13 48 28 23 15 64 38 90 51 38 18 47 27 45 44 -7 49 -140 26
-278 -47 -106 -57 -299 -82 -419 -56 -58 13 -252 65 -356 97 -45 13 -94 18
-200 18 -121 0 -149 -3 -208 -23 -161 -56 -280 -144 -368 -273 -21 -31 -41
-68 -45 -83 -3 -14 -10 -29 -15 -32 -18 -11 -10 -127 11 -161 11 -18 23 -33
28 -33 15 0 48 43 85 110 48 87 89 105 232 104 88 -1 116 -6 235 -43 163 -50
303 -74 351 -61 44 13 79 13 79 -1 0 -5 -27 -41 -60 -79 -105 -123 -201 -280
-254 -415 -22 -58 -38 -148 -41 -239 -5 -110 -11 -116 -152 -125 -102 -7 -116
-10 -198 -50 -111 -54 -206 -146 -254 -242 -31 -63 -31 -66 -16 -102 29 -69
79 -73 205 -14 106 50 135 53 217 27 169 -56 262 -148 287 -281 11 -62 -3 -82
-80 -106 -101 -33 -189 -89 -246 -157 -67 -80 -90 -129 -96 -202 -4 -57 -2
-65 21 -88 47 -47 99 -34 183 46 70 67 114 72 175 21 90 -76 76 -201 -43 -381
-52 -77 -87 -119 -236 -279 -180 -194 -255 -336 -256 -488 -2 -134 53 -199
164 -198 72 1 117 29 126 80 11 61 -1 136 -34 202 -36 71 -38 91 -17 152 25
69 58 103 145 148 140 73 251 104 441 123 232 23 503 -17 873 -129 139 -42
181 -51 192 -42 8 6 103 140 211 297 215 313 241 365 200 402 -30 29 -42 25
-95 -25 -61 -59 -143 -100 -233 -116 -76 -13 -131 -10 -429 27 -69 8 -165 14
-215 12 -73 -2 -90 0 -92 12 -6 29 322 258 482 337 49 25 98 49 107 54 32 16
132 48 198 63 159 36 321 29 455 -19 114 -42 117 -45 110 -118 -14 -144 -41
-234 -121 -393 -54 -108 -75 -141 -300 -461 -140 -198 -154 -222 -170 -291
-29 -122 -6 -266 51 -315 26 -23 110 -67 128 -67 8 0 20 -7 27 -15 20 -24 145
-21 177 5 14 11 31 20 38 20 6 0 22 12 36 26 21 22 24 35 24 96 0 67 -1 71
-34 100 -34 30 -35 31 -117 24 -141 -10 -166 15 -113 114 34 62 93 124 234
244 44 38 94 82 112 97 18 16 65 56 105 90 229 194 388 391 457 568 28 70 47
218 61 484 20 357 -11 646 -94 872 -76 207 -219 393 -386 500 -116 74 -118 75
-136 75 -14 0 -169 -121 -199 -156 -5 -6 -57 -51 -115 -99 -58 -48 -107 -91
-110 -95 -3 -3 -57 -50 -120 -103 -63 -53 -137 -116 -165 -141 -51 -46 -75
-56 -76 -33 0 6 0 125 0 264 1 313 18 417 91 555 61 117 172 215 327 290 56
27 121 66 144 87 l43 38 -24 31 c-28 35 -42 39 -60 17z m10 -1122 c124 -100
214 -216 249 -321 30 -87 28 -108 -11 -129 -151 -81 -364 -112 -536 -78 -165
33 -232 65 -232 111 0 38 44 97 117 153 73 57 178 142 282 229 89 74 84 73
131 35z m298 -668 c13 -68 11 -164 -6 -335 l-7 -65 -35 1 c-19 0 -78 9 -130
19 -52 10 -161 20 -242 22 -127 4 -158 2 -234 -17 -48 -12 -95 -27 -105 -33
-58 -36 -75 57 -70 383 2 89 6 94 67 75 192 -59 472 -58 659 4 33 11 67 19 75
18 10 -2 19 -25 28 -72z"/>
<path d="M4275 3370 c-183 -27 -308 -217 -261 -400 9 -34 25 -75 37 -91 28
-40 95 -77 198 -109 114 -36 147 -54 166 -91 15 -28 15 -32 -5 -64 -47 -75
-176 -68 -291 18 -36 26 -49 19 -78 -39 -14 -27 -35 -66 -48 -87 -14 -22 -22
-45 -19 -53 15 -39 150 -95 276 -113 114 -17 239 9 319 67 92 67 126 139 126
267 0 49 -4 103 -8 118 -11 40 -82 113 -131 136 -87 39 -117 51 -134 51 -9 0
-40 11 -69 24 -76 36 -93 78 -48 120 14 13 39 26 56 30 38 7 115 -11 151 -36
38 -27 51 -23 73 25 11 23 33 64 48 92 l29 49 -21 18 c-36 28 -124 57 -213 68
-45 5 -87 9 -93 9 -5 -1 -33 -5 -60 -9z"/>
<path d="M5840 3361 c-92 -29 -173 -78 -237 -144 -71 -71 -97 -115 -125 -206
-42 -136 -10 -335 72 -456 65 -95 191 -182 298 -206 79 -18 210 -22 276 -9 92
19 197 73 266 137 189 175 214 516 50 709 -71 83 -199 161 -301 183 -78 17
-235 13 -299 -8z m279 -262 c102 -43 170 -158 156 -262 -13 -103 -102 -215
-189 -238 -67 -18 -164 -7 -215 25 -92 58 -133 132 -134 242 -1 63 2 77 29
120 34 55 111 118 163 133 51 14 130 6 190 -20z"/>
<path d="M3596 3334 c-3 -9 -6 -227 -6 -485 l0 -469 28 -11 c28 -11 215 -9
227 2 7 8 7 957 0 970 -4 5 -59 9 -125 9 -98 0 -119 -3 -124 -16z"/>
<path d="M4740 3331 c-11 -21 -14 -142 -4 -178 6 -22 11 -23 104 -23 80 0 99
-3 104 -16 3 -9 6 -176 6 -373 0 -264 3 -360 12 -369 16 -16 220 -16 236 0 9
9 12 106 12 374 0 300 2 364 14 373 9 8 46 11 100 10 48 -1 90 1 94 5 10 10
15 140 8 181 l-7 35 -334 0 c-320 0 -335 -1 -345 -19z"/>
<path d="M6666 3328 c-11 -41 -7 -928 4 -949 10 -17 22 -19 118 -19 59 0 113
4 121 9 11 7 13 43 12 171 -2 129 1 161 11 158 13 -4 45 -50 158 -226 75 -118
66 -114 255 -111 109 1 125 3 125 18 0 9 -34 59 -75 111 -41 52 -102 130 -136
173 -34 44 -58 84 -55 92 3 8 22 23 43 34 89 46 135 122 141 237 7 133 -36
223 -131 277 -74 41 -122 47 -360 47 -225 0 -225 0 -231 -22z m410 -214 c34
-25 47 -66 37 -115 -12 -61 -137 -114 -176 -74 -21 21 -25 193 -4 214 18 18
106 4 143 -25z"/>
<path d="M7555 3341 c-3 -5 -5 -224 -6 -487 0 -379 3 -479 13 -486 7 -4 61 -8
120 -8 96 0 108 2 118 19 11 21 15 927 4 955 -5 13 -26 16 -124 16 -66 0 -121
-4 -125 -9z"/>
<path d="M7975 3340 c-8 -12 -7 -958 0 -971 4 -5 118 -9 275 -9 313 0 290 -9
290 115 0 118 4 115 -155 115 -118 0 -135 2 -143 18 -13 27 -6 123 9 133 8 5
67 9 131 8 64 -1 121 2 127 6 7 4 11 45 11 105 0 80 -3 99 -16 104 -9 3 -69 6
-134 6 -104 0 -120 2 -128 18 -13 27 -6 123 9 133 8 5 72 9 143 8 98 -1 130 2
137 12 10 16 12 169 3 193 -5 14 -39 16 -279 16 -169 0 -276 -4 -280 -10z"/>
<path d="M7464 2120 c-74 -11 -138 -43 -193 -98 -103 -103 -121 -297 -37 -406
30 -39 86 -68 215 -108 130 -41 174 -87 141 -149 -29 -54 -138 -65 -222 -23
-29 15 -64 35 -79 46 -15 11 -32 18 -37 14 -16 -9 -102 -176 -102 -196 0 -24
123 -83 217 -104 94 -21 163 -20 250 3 171 44 256 156 256 335 0 157 -60 221
-273 291 -113 37 -140 56 -140 101 0 28 6 38 33 54 54 33 156 20 209 -27 9 -8
21 -12 27 -9 17 11 102 179 97 193 -11 28 -159 76 -261 85 -27 3 -73 2 -101
-2z"/>
<path d="M3883 2088 c-17 -24 -64 -141 -188 -468 -26 -69 -59 -154 -72 -190
-14 -36 -36 -94 -50 -130 -13 -36 -34 -87 -44 -113 -31 -75 -28 -77 114 -77
142 0 144 1 172 85 29 86 27 85 202 85 176 0 178 -1 207 -91 10 -30 23 -60 28
-66 7 -9 48 -13 140 -13 106 0 130 3 134 15 4 8 2 21 -4 28 -5 6 -15 30 -22
52 -7 22 -33 92 -57 155 -25 63 -58 151 -74 195 -15 44 -51 141 -80 215 -28
74 -66 175 -84 224 -21 59 -38 92 -51 97 -34 13 -261 10 -271 -3z m174 -414
c36 -101 57 -174 51 -180 -12 -12 -159 -10 -169 2 -7 9 1 45 27 126 20 62 38
119 41 127 6 24 23 -1 50 -75z"/>
<path d="M4633 2093 c-13 -2 -23 -9 -23 -14 -3 -247 1 -953 5 -960 4 -5 100
-9 225 -9 189 0 226 3 281 20 145 45 251 139 317 280 24 51 26 66 26 195 l1
140 -38 72 c-62 121 -165 210 -296 256 -48 17 -87 21 -266 23 -115 1 -220 0
-232 -3z m400 -239 c62 -21 130 -89 151 -151 32 -93 15 -204 -42 -280 -43 -58
-177 -106 -246 -89 l-26 6 0 259 c0 142 3 261 7 264 12 13 109 7 156 -9z"/>
<path d="M5612 2090 l-22 -9 2 -483 3 -483 274 -3 c213 -2 276 1 283 10 12 20
10 196 -3 203 -6 4 -66 6 -135 6 -161 -2 -166 0 -162 87 l3 67 120 2 c179 4
165 -6 165 118 0 102 -1 105 -22 106 -13 0 -69 0 -125 -1 -138 -1 -145 3 -141
88 l3 67 139 3 c82 1 145 7 153 14 17 14 18 189 1 206 -15 15 -500 16 -536 2z"/>
<path d="M6317 2093 c-16 -4 -17 -34 -15 -491 l3 -487 125 0 125 0 3 163 c2
152 4 162 22 162 10 0 21 -9 25 -20 3 -10 26 -49 51 -84 24 -36 44 -68 44 -71
0 -3 23 -39 50 -80 l51 -75 154 0 c183 0 182 -1 101 99 -108 132 -226 293
-221 301 3 5 19 11 36 15 81 18 159 148 159 264 0 163 -89 271 -249 301 -52
10 -428 12 -464 3z m378 -219 c37 -17 65 -61 65 -102 0 -64 -79 -118 -160
-110 l-35 3 -3 104 c-2 67 1 108 9 117 13 16 76 10 124 -12z"/>
<path d="M8002 2092 c-10 -7 -12 -112 -10 -493 l3 -484 280 0 280 0 3 107 3
107 -153 3 -153 3 -5 380 -5 380 -115 3 c-63 1 -121 -2 -128 -6z"/>
<path d="M8641 2086 c-8 -9 -10 -147 -9 -492 l3 -479 280 0 280 0 0 105 0 105
-139 3 c-85 1 -145 7 -153 14 -10 8 -13 31 -11 77 l3 66 120 2 c178 4 165 -5
165 113 0 64 -4 101 -12 106 -6 4 -66 6 -133 5 -145 -3 -147 -1 -143 91 l3 63
139 3 c82 1 145 7 153 14 9 7 13 39 13 104 0 92 -1 95 -26 104 -14 6 -136 10
-273 10 -198 0 -251 -3 -260 -14z"/>
<path d="M9268 2093 c-20 -5 -22 -15 -8 -41 5 -9 50 -116 101 -237 156 -373
230 -549 244 -580 8 -16 23 -52 34 -78 l20 -48 102 3 c78 2 104 7 110 18 11
19 31 65 153 355 54 127 103 244 111 260 13 28 25 58 65 150 9 22 24 57 33 78
9 21 17 44 17 53 0 8 7 17 15 20 8 4 15 17 15 30 l0 24 -133 0 c-156 0 -150 3
-192 -105 -33 -87 -54 -141 -70 -180 -7 -16 -34 -85 -61 -152 -33 -82 -54
-123 -64 -123 -9 0 -22 21 -33 58 -10 31 -25 71 -32 87 -29 64 -145 361 -145
372 0 7 -10 19 -22 27 -17 12 -48 16 -133 15 -60 -1 -118 -3 -127 -6z"/>
</g>
</svg>
