<?xml version="1.0" standalone="no"?>
<!DOCTYPE svg PUBLIC "-//W3C//DTD SVG 20010904//EN"
 "http://www.w3.org/TR/2001/REC-SVG-20010904/DTD/svg10.dtd">
<svg version="1.0" xmlns="http://www.w3.org/2000/svg"
 width="1031.000000pt" height="400.000000pt" viewBox="0 0 1031.000000 400.000000"
 preserveAspectRatio="xMidYMid meet">

<g transform="translate(0.000000,400.000000) scale(0.100000,-0.100000)"
fill="#fafafa" stroke="none">
<path d="M5643 3912 c-312 -1 -523 -6 -523 -11 0 -5 -8 -12 -19 -16 -12 -4
-17 -12 -14 -28 3 -12 -3 -53 -11 -90 -9 -38 -16 -86 -16 -107 0 -22 -7 -64
-14 -95 -8 -30 -15 -99 -15 -153 0 -53 -5 -113 -10 -132 -6 -19 -11 -57 -11
-85 0 -27 -5 -68 -11 -90 -6 -22 -14 -101 -19 -175 -8 -141 -36 -395 -44 -409
-3 -4 -6 -60 -7 -125 -2 -93 0 -119 12 -127 17 -10 199 -12 215 -1 6 4 20 24
31 44 17 31 20 59 22 160 1 163 7 172 116 176 142 5 155 -12 157 -220 2 -183
-33 -168 383 -168 l340 0 13 27 c7 16 12 67 12 123 0 127 6 124 -216 117 -99
-3 -179 -1 -195 5 -42 15 -52 65 -47 237 6 187 -1 180 194 181 106 0 144 3
153 13 6 8 11 58 12 119 1 146 2 145 -156 137 -157 -8 -173 -5 -192 40 -12 27
-14 69 -11 189 4 196 2 194 157 192 59 -1 144 -1 191 -1 l85 1 15 33 c9 21 13
58 11 107 -3 77 -16 113 -48 127 -10 4 -253 7 -540 5z m-277 -290 c6 -4 15
-25 19 -47 14 -71 37 -346 41 -493 l5 -142 -28 -11 c-54 -21 -89 -22 -117 -4
-26 17 -26 19 -26 138 0 67 4 157 10 201 5 45 15 119 20 166 17 137 26 182 41
191 17 11 21 11 35 1z"/>
<path d="M116 3877 l-26 -34 0 -767 c0 -689 2 -769 16 -791 16 -24 21 -25 125
-25 l108 0 25 33 26 34 0 298 c0 272 2 299 18 311 12 9 52 13 128 14 106 0
112 -1 134 -25 24 -26 24 -26 28 -328 2 -166 8 -310 13 -319 8 -16 25 -18 118
-18 92 0 110 3 124 18 16 17 17 88 17 810 l0 791 -30 16 c-19 10 -58 15 -117
15 -131 0 -123 21 -123 -333 0 -272 -1 -294 -20 -324 l-19 -32 -110 -3 c-61
-2 -121 -1 -133 2 l-23 6 -3 311 -2 312 -31 30 c-30 30 -33 31 -124 31 l-94 0
-25 -33z"/>
<path d="M1608 3892 c-32 -8 -58 -18 -58 -23 0 -5 -9 -9 -19 -9 -23 0 -121
-97 -121 -120 0 -8 -6 -25 -14 -36 -13 -17 -15 -116 -17 -610 -2 -534 -1 -593
14 -624 9 -18 17 -40 17 -48 0 -19 118 -132 139 -132 9 0 29 -7 45 -15 41 -22
413 -22 442 0 10 8 29 15 41 15 12 0 23 3 25 8 2 4 22 22 46 40 23 19 42 40
42 48 0 8 4 14 9 14 5 0 13 10 17 23 4 12 12 25 18 29 8 5 11 181 11 620 1
669 5 610 -50 707 -16 27 -81 81 -99 81 -9 0 -16 4 -16 8 0 4 -30 15 -67 25
-86 22 -320 22 -405 -1z m287 -268 c66 -31 64 -13 66 -536 1 -260 -1 -483 -5
-495 -13 -41 -65 -63 -147 -63 -80 1 -97 9 -132 63 -17 27 -19 61 -20 490 -2
444 -1 463 18 492 32 49 61 62 138 64 27 1 64 -6 82 -15z"/>
<path d="M2697 3888 l-22 -17 0 -784 c0 -758 1 -786 19 -806 19 -21 26 -21
362 -21 188 0 349 3 358 6 13 5 16 26 16 125 0 103 -2 119 -17 127 -10 5 -103
8 -208 7 -217 -1 -239 4 -249 59 -4 19 -6 312 -5 652 1 736 15 667 -134 668
-76 1 -102 -3 -120 -16z"/>
<path d="M3732 3903 c-7 -3 -17 -16 -23 -30 -5 -14 -10 -348 -10 -796 -2 -642
1 -777 12 -795 14 -22 15 -22 312 -22 249 0 303 3 328 15 16 9 34 13 39 10 5
-3 17 1 27 10 10 9 35 31 56 50 22 19 52 60 69 92 l30 57 2 204 c1 156 -1 205
-11 214 -7 6 -13 16 -13 23 0 14 -86 105 -99 105 -8 0 -31 44 -31 60 0 5 20
23 45 41 31 22 55 51 75 92 l30 60 0 188 c0 114 -4 190 -10 194 -5 3 -10 14
-10 24 0 10 -7 24 -15 31 -8 7 -15 18 -15 26 0 21 -86 104 -109 104 -11 0 -24
6 -28 14 -4 7 -26 17 -48 21 -47 9 -584 16 -603 8z m504 -299 c49 -46 54 -64
54 -187 l0 -114 -32 -36 c-31 -35 -37 -37 -124 -47 -98 -12 -135 -5 -153 29
-15 27 -14 326 0 354 19 35 29 38 129 34 89 -3 97 -5 126 -33z m-13 -670 c62
-31 67 -45 67 -196 l0 -136 -35 -34 c-38 -36 -76 -47 -167 -47 -110 -2 -118
13 -118 224 0 207 -1 205 127 205 66 0 103 -5 126 -16z"/>
<path d="M6640 3897 c-40 -33 -40 -29 -40 -816 0 -705 1 -762 18 -790 l17 -31
109 2 c158 4 148 -19 151 358 3 357 -6 333 125 327 90 -4 147 -24 156 -55 3
-9 11 -26 17 -37 7 -12 12 -72 13 -145 4 -430 2 -395 29 -424 23 -25 28 -26
135 -26 98 0 110 2 111 18 5 88 -5 679 -12 687 -5 5 -9 20 -9 35 0 18 -21 45
-70 94 -58 57 -70 75 -70 102 0 17 7 37 15 44 8 7 15 27 15 46 0 18 5 36 10
39 6 3 10 14 10 24 0 10 9 29 19 42 12 16 17 34 14 51 -3 16 2 36 11 50 9 12
16 30 16 39 0 9 7 22 15 29 11 9 14 22 10 42 -5 19 -1 37 9 53 9 13 16 33 16
43 0 10 7 27 15 38 8 10 15 36 15 56 0 20 5 40 10 43 16 10 12 20 -16 49 -25
24 -33 26 -117 26 -81 0 -93 -3 -124 -26 -18 -14 -33 -34 -33 -45 0 -30 -31
-119 -41 -119 -5 0 -9 -16 -9 -35 0 -20 -7 -52 -15 -72 -8 -19 -15 -43 -15
-53 0 -10 -6 -20 -14 -23 -9 -4 -14 -21 -14 -50 0 -25 -4 -53 -9 -63 -6 -11
-17 -34 -26 -52 -9 -19 -17 -46 -17 -62 0 -44 -54 -90 -105 -90 -23 0 -46 5
-53 12 -9 9 -12 92 -12 314 l0 302 -31 31 c-30 30 -33 31 -122 31 -58 -1 -98
-5 -107 -13z"/>
<path d="M324 1725 c-10 -8 -29 -15 -41 -15 -12 0 -25 -4 -28 -10 -3 -5 -14
-10 -23 -10 -29 -1 -112 -100 -112 -133 0 -8 -6 -20 -14 -26 -18 -15 -20 -325
-2 -344 6 -7 18 -28 26 -47 18 -44 87 -113 140 -140 22 -11 40 -25 40 -30 0
-6 7 -10 17 -10 9 0 30 -10 47 -23 17 -13 38 -27 46 -30 8 -4 29 -16 45 -27
17 -10 44 -26 62 -35 18 -9 37 -23 44 -31 6 -8 17 -14 23 -14 16 0 76 -63 76
-80 0 -7 7 -21 15 -30 23 -25 45 -128 45 -210 -1 -133 -34 -228 -99 -279 -21
-17 -46 -31 -54 -31 -9 0 -19 -4 -22 -10 -11 -17 -204 -12 -252 6 -24 9 -43
20 -43 24 0 4 -9 10 -20 13 -11 3 -23 13 -27 24 -3 10 -12 22 -20 26 -7 4 -13
16 -13 25 0 10 -4 22 -10 28 -5 5 -11 77 -12 159 l-3 150 -27 9 c-15 5 -31 6
-35 2 -5 -4 -8 -87 -7 -183 1 -138 4 -178 15 -187 8 -6 23 -28 34 -50 10 -21
29 -42 40 -46 11 -4 27 -15 34 -24 7 -9 19 -16 25 -16 6 0 25 -7 41 -16 43
-23 274 -23 328 0 20 9 37 13 37 9 0 -4 9 3 20 14 10 12 27 27 37 35 32 23 73
86 73 110 0 13 5 29 10 34 12 12 8 332 -5 397 -5 26 -25 56 -68 102 -34 36
-67 65 -74 65 -7 0 -13 5 -13 10 0 6 -9 10 -20 10 -11 0 -20 5 -20 10 0 6 -10
15 -22 20 -26 11 -50 26 -95 57 -17 13 -39 23 -47 23 -9 0 -16 5 -16 10 0 6
-7 10 -15 10 -9 0 -18 7 -21 15 -4 8 -12 15 -20 15 -22 0 -134 103 -134 123 0
6 -6 18 -14 26 -17 20 -36 118 -36 185 0 98 20 154 77 215 l53 56 150 -1 150
0 37 -30 c72 -59 103 -151 103 -311 0 -81 0 -83 24 -83 14 0 28 5 32 11 10 17
5 272 -6 283 -6 6 -10 20 -10 32 0 12 -7 27 -15 34 -8 7 -15 16 -15 21 0 14
-70 79 -85 79 -7 0 -17 5 -20 10 -3 6 -16 10 -28 10 -12 0 -31 7 -41 15 -15
11 -48 15 -121 15 -73 0 -106 -4 -121 -15z"/>
<path d="M1087 1718 c-13 -14 -16 -23 -9 -30 17 -17 90 -27 197 -28 55 0 110
-3 123 -6 l22 -6 0 -762 c1 -802 0 -796 44 -796 48 0 46 -20 46 777 0 411 0
755 0 764 0 25 34 31 162 29 113 -2 188 11 188 33 0 5 -10 17 -22 28 -22 17
-45 18 -378 18 -343 -1 -356 -1 -373 -21z"/>
<path d="M2331 1721 c-11 -11 -25 -39 -31 -63 -6 -24 -16 -56 -22 -73 -6 -16
-13 -59 -15 -95 -3 -36 -9 -69 -14 -75 -5 -5 -9 -26 -9 -46 0 -20 -7 -56 -15
-79 -8 -23 -15 -64 -15 -90 0 -25 -3 -50 -7 -54 -8 -7 -27 -108 -41 -216 -4
-30 -11 -61 -16 -68 -4 -7 -12 -38 -16 -70 -20 -127 -30 -176 -40 -186 -5 -5
-10 -34 -10 -63 0 -29 -6 -72 -14 -95 -7 -24 -14 -58 -15 -76 -1 -18 -9 -44
-17 -58 -10 -15 -14 -33 -10 -49 3 -13 1 -46 -4 -71 -13 -56 -5 -104 17 -104
25 0 52 42 53 82 0 20 5 49 11 65 6 15 13 52 15 82 2 30 8 59 14 65 5 5 10 28
10 51 0 22 9 65 19 95 15 43 25 56 46 62 15 4 109 7 209 8 172 0 184 -1 201
-20 26 -28 45 -87 45 -137 0 -23 5 -54 11 -70 13 -33 28 -117 36 -192 5 -56
26 -91 55 -91 23 0 41 36 34 69 -4 14 -14 55 -22 91 -9 36 -18 90 -20 120 -4
49 -12 85 -45 196 -5 17 -9 55 -9 85 -1 30 -7 65 -15 79 -8 14 -14 42 -15 62
0 20 -4 40 -10 43 -5 3 -10 39 -10 78 -1 47 -6 79 -15 91 -8 11 -15 35 -15 54
0 18 -5 43 -11 54 -6 12 -13 50 -14 85 -2 35 -9 70 -15 78 -7 9 -14 35 -16 58
-2 24 -8 56 -14 71 -5 15 -10 50 -10 77 0 29 -7 60 -16 74 -10 15 -14 37 -12
56 5 34 -20 93 -49 115 -28 21 -109 18 -132 -5z m101 -93 c16 -25 23 -58 42
-180 6 -42 14 -80 19 -84 4 -4 7 -20 7 -35 0 -15 7 -54 15 -86 8 -31 15 -77
15 -101 0 -24 5 -53 12 -65 13 -23 25 -87 34 -177 3 -30 12 -73 21 -96 8 -22
13 -58 11 -80 -5 -58 -24 -64 -214 -64 -149 0 -162 2 -183 21 -20 19 -21 27
-15 82 4 34 11 72 15 85 5 13 9 37 9 53 0 17 5 40 12 52 7 12 15 51 19 87 10
97 27 180 40 197 7 7 11 35 10 61 -1 44 18 156 40 228 5 17 9 43 9 58 0 63 52
90 82 44z"/>
<path d="M3208 1702 c-16 -34 -18 -95 -17 -791 0 -609 2 -760 13 -786 l14 -32
106 -7 c113 -8 364 2 381 14 6 4 25 11 43 15 17 3 32 10 32 14 0 4 11 14 25
21 35 19 80 95 94 160 14 62 10 1168 -4 1230 -4 19 -14 39 -21 43 -8 4 -14 13
-14 20 -1 30 -99 107 -137 107 -10 0 -27 7 -37 15 -16 12 -62 15 -240 15
l-221 0 -17 -38z m408 -48 c83 -5 95 -8 129 -36 20 -17 41 -40 46 -52 6 -11
16 -32 24 -46 11 -20 14 -137 16 -610 3 -584 3 -585 -19 -632 -22 -47 -58 -81
-119 -112 -48 -24 -368 -24 -395 1 -17 15 -18 52 -18 743 l0 728 23 15 c23 16
65 16 313 1z"/>
<path d="M4560 1725 c-14 -8 -46 -23 -71 -34 -40 -17 -61 -36 -112 -101 -41
-52 -61 -274 -32 -360 9 -27 15 -55 13 -62 -2 -6 6 -22 19 -36 13 -14 23 -33
23 -43 0 -11 5 -19 10 -19 6 0 24 -13 40 -30 16 -16 34 -30 41 -30 6 0 25 -10
42 -22 18 -13 41 -28 52 -34 73 -39 94 -51 122 -71 17 -13 36 -23 41 -23 6 0
17 -6 24 -13 7 -8 32 -26 55 -40 49 -31 104 -99 121 -148 16 -48 16 -311 0
-358 -17 -49 -76 -107 -133 -131 -36 -15 -69 -20 -145 -20 -55 0 -102 4 -105
10 -3 6 -13 10 -22 10 -22 0 -103 68 -103 86 0 8 -4 14 -8 14 -4 0 -16 27 -25
60 -14 44 -18 89 -16 177 l2 118 -31 3 c-29 3 -31 1 -38 -44 -9 -62 4 -298 16
-302 6 -2 10 -14 10 -27 0 -21 26 -52 103 -122 14 -13 33 -23 44 -23 10 0 24
-5 30 -11 17 -17 289 -17 305 -1 7 7 20 12 30 12 29 0 138 101 138 128 0 7 7
20 15 28 12 13 15 52 15 223 0 173 -3 211 -15 221 -8 7 -15 19 -15 27 0 15 -8
26 -56 76 -44 46 -92 85 -98 80 -3 -3 -20 6 -38 20 -18 13 -40 27 -48 31 -8 3
-28 15 -45 26 -16 10 -49 29 -72 41 -24 13 -43 26 -43 31 0 4 -7 8 -15 8 -24
0 -134 116 -152 162 -13 32 -17 72 -18 158 0 143 17 193 81 243 37 29 55 36
114 41 39 4 107 4 151 0 78 -6 83 -8 127 -50 60 -57 72 -94 72 -235 0 -121 6
-139 46 -139 16 0 23 8 28 33 11 52 -5 280 -21 295 -7 7 -13 19 -13 27 0 16
-85 105 -100 105 -6 0 -18 4 -28 9 -70 35 -97 41 -190 40 -61 0 -106 -6 -122
-14z"/>
<path d="M5698 1715 c-10 -13 -18 -34 -18 -47 -1 -13 -7 -34 -15 -48 -8 -14
-14 -49 -15 -77 0 -56 -13 -120 -38 -193 -9 -25 -15 -62 -13 -82 1 -20 -10
-78 -25 -130 -14 -51 -27 -122 -29 -159 -1 -36 -7 -75 -14 -86 -6 -12 -11 -33
-11 -47 0 -13 -5 -37 -12 -53 -6 -15 -12 -50 -14 -77 -1 -27 -7 -53 -13 -59
-6 -6 -11 -27 -11 -47 0 -20 -7 -62 -15 -93 -8 -32 -15 -74 -15 -93 0 -19 -5
-44 -10 -55 -12 -22 -29 -123 -37 -217 l-5 -62 29 0 c35 0 49 31 63 142 14
109 27 174 39 197 6 11 11 42 11 69 0 38 5 55 25 76 l24 26 200 0 200 0 20
-28 c22 -31 51 -144 51 -198 0 -20 5 -45 11 -56 11 -20 23 -82 35 -180 6 -47
7 -48 42 -48 l35 0 -6 75 c-4 42 -11 84 -17 95 -5 10 -10 36 -10 57 0 21 -7
60 -15 87 -8 27 -15 66 -15 86 0 20 -5 41 -10 46 -6 6 -13 33 -15 60 -2 27 -8
62 -14 77 -6 16 -11 42 -11 58 0 17 -7 52 -16 80 -9 27 -14 64 -11 81 2 18 0
42 -6 53 -15 29 -37 129 -47 215 -7 69 -18 117 -41 196 -5 17 -9 55 -9 85 0
30 -5 60 -12 67 -11 11 -22 63 -35 159 -3 30 -11 44 -24 48 -10 4 -19 11 -19
16 0 5 -28 9 -62 9 -55 -1 -65 -4 -80 -25z m126 -96 c10 -17 16 -41 13 -56 -2
-13 0 -43 5 -66 23 -95 40 -186 47 -252 7 -65 20 -127 42 -201 5 -17 9 -49 9
-72 0 -22 5 -53 11 -69 10 -25 19 -70 35 -168 7 -42 -7 -57 -62 -66 -72 -12
-302 -11 -325 1 -16 9 -19 22 -19 84 0 40 7 95 15 122 8 27 15 62 15 77 0 16
5 38 12 50 6 12 15 51 19 87 12 100 27 184 39 214 5 15 10 51 10 80 0 28 4 56
10 62 5 5 12 36 15 69 9 88 32 135 64 135 19 0 32 -9 45 -31z"/>
<path d="M6578 1712 l-23 -28 1 -775 c2 -808 2 -819 43 -819 38 0 40 23 41
401 0 299 3 369 14 385 13 18 26 19 188 16 234 -4 236 -4 296 -63 l50 -49 4
-313 c3 -290 4 -314 23 -345 13 -22 26 -32 40 -30 20 3 20 11 22 327 l2 325
-25 43 c-13 24 -24 48 -24 53 0 14 -47 58 -70 65 -30 9 -25 33 18 84 80 95
102 165 102 315 0 61 -5 129 -11 151 -6 22 -13 54 -16 72 -3 18 -11 38 -19 44
-8 6 -14 17 -14 25 0 18 -74 85 -113 102 -17 7 -45 20 -60 28 -22 11 -76 14
-237 14 l-208 0 -24 -28z m458 -61 c31 -1 73 -35 122 -98 24 -33 24 -36 25
-233 0 -139 -4 -205 -12 -213 -6 -6 -11 -15 -11 -20 0 -19 -44 -69 -80 -92
-35 -22 -56 -25 -206 -34 -154 -10 -170 -9 -198 7 l-31 18 0 329 0 328 39 11
c25 7 88 9 180 5 77 -4 155 -7 172 -8z"/>
<path d="M7780 1718 c-12 -20 -15 -137 -16 -792 -1 -424 0 -785 3 -803 5 -28
10 -33 33 -33 l28 0 7 111 c4 62 4 225 0 364 -6 221 -5 256 9 283 9 17 23 35
33 40 9 6 92 7 192 5 171 -5 241 -17 241 -42 0 -6 5 -11 11 -11 20 0 56 -47
64 -82 5 -18 10 -167 12 -331 3 -280 5 -299 23 -317 26 -26 46 -25 60 1 8 15
8 29 1 51 -7 19 -11 142 -11 328 0 252 -2 299 -15 310 -8 7 -15 18 -15 24 0
14 -43 60 -93 101 -25 20 -37 38 -37 55 0 29 26 118 39 134 5 6 11 27 14 46 2
19 14 60 26 90 11 30 21 66 21 80 0 14 7 38 15 54 8 15 15 38 15 50 0 11 7 30
15 40 8 11 15 37 15 57 0 21 5 41 10 44 6 3 10 16 10 29 0 12 7 31 15 42 21
27 18 58 -6 80 -20 18 -22 18 -34 1 -6 -9 -17 -17 -24 -17 -6 0 -11 -17 -11
-39 0 -22 -4 -42 -9 -45 -5 -3 -12 -21 -15 -40 -4 -19 -12 -36 -18 -38 -6 -2
-12 -26 -13 -53 -1 -27 -6 -50 -13 -53 -7 -2 -12 -16 -12 -30 -1 -15 -7 -38
-15 -52 -8 -14 -14 -42 -15 -62 0 -20 -4 -40 -10 -43 -5 -3 -10 -18 -10 -33
-1 -15 -7 -38 -15 -52 -8 -14 -14 -39 -15 -57 0 -17 -4 -35 -10 -38 -5 -3 -10
-16 -10 -28 -1 -12 -11 -35 -24 -51 -23 -28 -25 -28 -167 -35 -79 -4 -155 -4
-170 1 -55 19 -57 33 -56 398 0 271 -2 339 -14 358 -17 27 -21 27 -39 0z"/>
<path d="M8977 1722 c-16 -17 -17 -88 -17 -813 0 -605 3 -798 12 -807 20 -20
45 -14 52 13 3 13 6 374 6 801 1 685 -1 779 -15 800 -19 29 -18 29 -38 6z"/>
<path d="M9463 1721 c-9 -14 -10 -38 -4 -83 12 -88 30 -175 47 -229 8 -25 12
-53 9 -62 -4 -9 0 -40 8 -69 8 -29 18 -73 22 -98 4 -25 11 -49 15 -55 4 -5 10
-39 13 -75 3 -36 15 -96 26 -135 11 -38 21 -91 21 -116 0 -26 7 -63 15 -82 8
-20 15 -50 15 -67 0 -17 4 -40 10 -50 5 -10 11 -46 13 -81 2 -35 9 -75 15 -89
13 -33 42 -169 42 -198 0 -37 30 -119 51 -138 14 -13 31 -15 74 -12 65 5 95
30 95 77 0 34 14 103 36 172 8 26 14 63 14 84 0 37 22 143 42 200 6 17 12 59
13 93 2 35 8 69 14 75 6 6 11 26 11 44 0 19 7 50 15 70 8 19 15 57 15 84 0 27
4 57 9 67 11 22 30 109 41 192 10 75 35 200 49 247 5 18 7 41 4 53 -3 11 2 31
11 45 23 35 22 141 -1 147 -30 8 -42 -2 -49 -38 -3 -19 -10 -37 -15 -40 -5 -3
-9 -21 -9 -40 0 -20 -5 -45 -12 -57 -7 -12 -16 -58 -20 -102 -9 -104 -25 -186
-38 -199 -5 -5 -10 -34 -10 -63 0 -53 -10 -106 -37 -198 -9 -27 -17 -72 -18
-100 -4 -53 -31 -200 -40 -215 -3 -5 -7 -41 -10 -81 -2 -40 -9 -77 -15 -83 -5
-5 -10 -24 -10 -41 0 -18 -7 -54 -15 -81 -8 -27 -15 -65 -15 -84 -1 -66 -45
-157 -73 -147 -22 7 -46 62 -46 108 -1 26 -8 60 -16 75 -8 16 -14 47 -13 69 1
38 -8 88 -38 202 -8 28 -14 73 -14 101 0 27 -7 66 -15 85 -8 20 -15 52 -15 71
0 19 -4 38 -10 41 -5 3 -10 32 -10 64 0 32 -7 75 -15 94 -8 20 -15 53 -15 72
0 20 -5 45 -11 56 -6 11 -12 49 -14 83 -1 35 -8 72 -14 84 -6 11 -11 33 -11
47 0 14 -7 49 -16 76 -10 29 -14 66 -11 89 3 23 -1 49 -9 65 -8 15 -14 34 -14
41 0 15 -35 54 -48 54 -4 0 -13 -9 -19 -19z"/>
</g>
</svg>
