<?xml version="1.0" standalone="no"?>
<!DOCTYPE svg PUBLIC "-//W3C//DTD SVG 20010904//EN"
 "http://www.w3.org/TR/2001/REC-SVG-20010904/DTD/svg10.dtd">
<svg version="1.0" xmlns="http://www.w3.org/2000/svg"
 width="1120.000000pt" height="400.000000pt" viewBox="0 0 1120.000000 400.000000"
 preserveAspectRatio="xMidYMid meet">

<g transform="translate(0.000000,400.000000) scale(0.100000,-0.100000)"
fill="#fafafa" stroke="none">
<path d="M80 3050 l0 -890 198 2 197 3 3 328 2 327 345 0 345 0 2 -327 3 -328
205 0 205 0 0 885 0 885 -205 0 -205 0 -3 -352 -2 -353 -345 0 -345 0 -2 353
-3 352 -197 3 -198 2 0 -890z"/>
<path d="M1867 3933 c-9 -9 -9 -1208 1 -1217 6 -7 30 -100 34 -133 1 -7 4 -13
8 -13 3 0 15 -24 25 -52 24 -67 163 -209 245 -251 71 -35 112 -51 128 -48 6 1
12 -2 12 -7 0 -10 110 -32 158 -32 17 0 34 -4 37 -10 8 -12 255 -13 287 -1 13
5 56 14 97 20 41 6 80 16 87 22 6 5 16 9 20 8 20 -4 171 67 200 95 6 6 29 25
49 41 45 36 123 153 145 215 8 25 19 50 22 56 22 34 29 237 26 754 l-3 555
-202 3 -203 2 0 -564 c0 -390 -3 -567 -11 -571 -6 -4 -8 -13 -5 -21 3 -7 -1
-26 -9 -41 -8 -15 -15 -33 -15 -39 0 -17 -81 -95 -91 -88 -5 3 -9 1 -9 -4 0
-19 -119 -35 -250 -35 -176 0 -234 16 -299 81 -76 76 -75 67 -81 712 l-5 565
-196 3 c-107 1 -198 -1 -202 -5z"/>
<path d="M4345 3929 c-4 -6 -28 -9 -54 -8 -26 1 -51 0 -57 -3 -5 -3 -30 -9
-56 -12 -26 -4 -50 -11 -53 -17 -4 -5 -11 -7 -16 -3 -5 3 -15 1 -22 -4 -7 -5
-23 -13 -37 -17 -14 -4 -47 -21 -75 -38 -157 -99 -222 -222 -218 -417 1 -96
20 -184 44 -216 51 -65 144 -147 196 -170 32 -15 61 -26 66 -26 4 1 7 -2 7 -7
0 -5 15 -12 33 -15 17 -3 44 -12 59 -20 15 -8 62 -22 105 -32 43 -9 83 -20 88
-24 6 -4 57 -16 115 -26 58 -9 107 -20 110 -24 3 -3 46 -13 95 -23 100 -19
188 -56 205 -86 25 -47 5 -117 -41 -141 -19 -11 -205 -33 -269 -33 -55 1 -247
22 -288 33 -20 5 -84 21 -141 35 -58 14 -109 29 -115 34 -6 5 -30 15 -53 22
-24 6 -43 16 -43 21 0 4 -3 7 -7 6 -12 -4 -183 85 -183 94 0 4 -4 8 -10 8 -6
0 -10 -77 -10 -211 0 -239 -7 -218 90 -266 30 -16 57 -30 60 -33 3 -3 25 -12
50 -20 25 -7 51 -18 58 -23 6 -5 12 -6 12 -2 0 4 6 3 13 -2 6 -6 37 -16 67
-23 30 -7 61 -17 67 -22 7 -6 19 -8 28 -5 8 4 17 2 20 -2 2 -5 51 -14 107 -21
57 -6 111 -16 120 -21 23 -12 273 -12 296 0 9 5 53 14 96 20 44 6 84 15 90 20
6 5 29 14 51 21 58 18 155 74 195 112 53 50 74 79 99 133 12 28 27 58 32 68 6
10 14 54 19 98 12 109 -2 219 -39 295 -29 60 -101 136 -140 149 -11 3 -21 10
-21 15 0 5 -21 16 -47 26 -27 10 -52 21 -58 24 -5 4 -28 13 -50 19 -22 7 -47
15 -55 18 -8 3 -19 7 -25 8 -5 0 -21 6 -35 12 -14 6 -45 14 -70 18 -25 4 -50
12 -57 17 -7 5 -17 7 -23 3 -6 -4 -16 -2 -23 3 -7 5 -52 17 -102 26 -95 18
-101 20 -125 28 -8 3 -54 14 -102 23 -49 10 -88 21 -88 25 0 4 -11 11 -24 14
-23 6 -56 54 -56 80 1 18 36 55 64 65 56 22 471 7 516 -18 8 -4 24 -7 35 -5
10 2 24 -1 30 -5 5 -5 43 -14 83 -22 40 -7 75 -16 78 -20 2 -5 11 -6 19 -2 8
3 15 1 15 -5 0 -5 27 -15 60 -22 33 -7 63 -17 66 -21 3 -5 12 -9 20 -9 12 0
14 31 12 207 l-3 206 -45 16 c-25 9 -47 19 -50 22 -3 3 -39 14 -80 23 -41 10
-85 22 -97 28 -13 6 -26 8 -30 5 -3 -4 -11 -3 -17 2 -6 5 -60 14 -121 21 -60
6 -124 15 -141 21 -42 13 -211 12 -219 -2z"/>
<path d="M5535 3928 c-3 -7 -4 -407 -3 -888 l3 -875 595 0 595 0 3 194 c2 127
-1 197 -8 201 -6 4 -193 4 -415 2 l-405 -5 -1 44 c0 24 -1 88 -1 142 l-2 98
337 -1 337 0 -2 207 -3 208 -332 3 -333 2 -1 115 c-1 63 -2 121 -3 128 -1 9
91 13 414 17 l415 5 0 205 0 205 -593 3 c-469 2 -594 0 -597 -10z"/>
<path d="M7008 3928 c-7 -20 -9 -374 -2 -392 5 -14 37 -16 245 -16 l239 0 0
-680 0 -680 198 2 197 3 0 678 0 677 233 0 232 0 0 210 0 210 -669 0 c-526 0
-670 -3 -673 -12z"/>
<path d="M82 953 l3 -888 585 0 585 0 3 208 2 207 -415 0 -415 0 0 130 0 130
338 2 337 3 0 205 0 205 -337 3 -338 2 0 130 0 130 415 0 415 0 -2 208 -3 207
-588 3 -587 2 2 -887z"/>
<path d="M2135 1831 c-11 -5 -58 -14 -104 -20 -46 -6 -89 -15 -96 -21 -7 -6
-17 -10 -21 -8 -21 6 -170 -79 -216 -123 -54 -54 -107 -154 -115 -222 -3 -23
-9 -46 -13 -52 -13 -17 -5 -136 13 -199 26 -90 60 -136 149 -208 44 -36 184
-108 209 -108 8 0 26 -7 41 -14 15 -8 62 -22 105 -31 43 -9 85 -20 95 -25 9
-5 47 -14 85 -21 37 -6 73 -16 80 -21 7 -5 17 -7 24 -3 6 4 21 3 32 -3 12 -6
56 -18 97 -27 142 -29 187 -54 205 -113 11 -36 -13 -90 -48 -109 -62 -34 -561
-27 -603 8 -7 5 -16 9 -20 8 -5 -1 -16 0 -24 3 -8 3 -46 14 -85 23 -38 10 -74
21 -80 25 -5 5 -29 14 -52 21 -24 6 -43 16 -43 21 0 4 -3 7 -7 6 -11 -2 -74
27 -133 62 -28 16 -55 30 -61 30 -6 0 -8 -79 -7 -212 l3 -212 70 -35 c38 -20
72 -38 75 -41 3 -3 25 -12 50 -20 25 -7 50 -17 55 -21 10 -7 154 -48 185 -53
9 -1 20 -5 25 -8 6 -4 58 -12 115 -18 58 -7 114 -16 125 -20 32 -12 242 -13
250 0 3 5 23 10 44 10 48 0 153 19 165 30 5 5 15 6 22 3 8 -3 14 0 14 6 0 6 7
11 15 11 17 0 62 21 130 59 34 20 106 87 140 132 12 15 58 108 62 124 1 6 7
30 14 55 13 53 7 254 -9 273 -6 6 -10 14 -10 17 3 17 -44 101 -73 130 -81 85
-285 176 -469 211 -36 6 -69 15 -75 19 -5 4 -43 13 -83 21 -40 7 -75 16 -78
20 -2 5 -12 5 -20 2 -8 -3 -25 -1 -37 5 -12 6 -60 18 -106 27 -46 9 -100 27
-121 40 -32 20 -38 30 -42 64 -7 79 23 91 231 91 164 0 310 -13 348 -32 11 -6
26 -7 32 -3 7 4 17 2 24 -3 7 -5 44 -15 82 -22 39 -7 75 -16 80 -21 6 -4 42
-15 80 -25 39 -9 75 -21 82 -26 28 -22 33 6 33 192 0 103 -3 195 -6 203 -3 9
-25 21 -50 28 -24 7 -44 17 -44 22 0 5 -7 7 -15 4 -8 -4 -17 -2 -19 2 -3 4
-34 14 -68 21 -35 7 -68 17 -75 22 -6 5 -17 8 -25 7 -7 -1 -20 1 -28 4 -57 26
-463 56 -505 38z"/>
<path d="M3367 1834 c-3 -4 -6 -398 -7 -876 0 -640 3 -874 11 -884 9 -12 85
-14 420 -14 224 0 418 4 431 9 13 5 56 14 97 20 41 6 81 17 89 24 8 7 17 11
19 9 2 -1 24 6 48 17 45 20 170 129 160 139 -3 3 1 12 8 21 8 9 24 45 38 81
20 55 23 84 24 191 0 75 -5 136 -11 150 -7 13 -24 50 -39 81 -14 32 -38 67
-53 78 -15 11 -33 25 -40 30 -15 13 -83 44 -97 45 -5 0 -16 4 -23 9 -7 4 -49
10 -93 13 -72 5 -79 8 -79 27 0 16 10 24 39 33 22 7 47 10 56 7 8 -4 21 -2 28
4 6 5 29 15 50 22 49 15 153 111 169 156 6 19 16 34 21 34 4 0 5 5 2 10 -4 6
-2 17 4 24 16 20 24 145 11 201 -16 77 -23 92 -65 157 -29 44 -124 118 -152
118 -7 0 -13 4 -13 9 0 11 -126 41 -174 41 -19 0 -38 5 -41 10 -7 11 -827 15
-838 4z m852 -440 c27 -22 31 -33 31 -73 0 -58 -20 -87 -68 -101 -20 -5 -123
-10 -229 -10 l-191 0 1 105 1 105 212 0 212 0 31 -26z m63 -648 c12 -15 18
-39 18 -81 0 -52 -4 -66 -29 -95 l-29 -35 -239 -3 -240 -3 -1 130 -1 131 222
2 c236 3 262 -1 299 -46z"/>
<path d="M5537 1834 c-4 -4 -7 -310 -7 -681 l0 -673 -290 0 c-268 0 -291 -1
-297 -17 -9 -24 -10 -363 -1 -385 7 -17 40 -18 496 -18 400 0 492 2 501 14 8
10 10 250 9 887 l-3 874 -201 3 c-110 1 -203 -1 -207 -4z"/>
<path d="M6255 1828 c-3 -7 -4 -407 -3 -888 l3 -875 588 -3 587 -2 0 210 0
210 -415 0 -415 0 0 130 0 130 338 2 337 3 0 205 0 205 -338 0 -337 0 0 133 0
132 415 0 415 0 0 210 0 210 -585 0 c-459 0 -587 -3 -590 -12z"/>
<path d="M7742 953 l3 -888 203 -3 202 -2 0 255 0 255 315 0 315 0 0 -250 0
-250 23 -5 c12 -3 105 -4 207 -3 l185 3 0 345 0 345 -226 -2 c-125 -1 -249 1
-275 5 -44 6 -49 10 -49 32 0 23 4 25 50 28 78 4 185 23 185 33 0 5 8 9 18 9
32 0 119 59 164 110 28 32 52 73 64 108 10 31 23 63 29 71 6 8 10 67 9 140 0
98 -4 133 -17 156 -9 17 -17 36 -17 44 0 27 -60 118 -107 162 -55 52 -188 127
-238 134 -5 1 -17 5 -25 8 -25 10 -132 27 -171 27 -21 0 -41 5 -44 10 -4 6
-150 10 -406 10 l-399 0 2 -887z m925 444 c31 -16 78 -69 78 -87 0 -5 3 -12 8
-16 4 -4 7 -42 7 -84 0 -95 -23 -149 -80 -185 -60 -38 -108 -44 -327 -45
l-203 0 0 221 0 221 243 -4 c208 -3 246 -5 274 -21z"/>
<path d="M10155 1832 c-6 -5 -48 -14 -94 -20 -47 -7 -89 -16 -94 -21 -5 -5
-16 -7 -23 -4 -8 3 -14 0 -14 -6 0 -6 -6 -11 -14 -11 -24 0 -123 -56 -179
-102 -29 -23 -73 -67 -98 -98 -47 -56 -109 -162 -109 -186 0 -8 -5 -14 -11
-14 -5 0 -8 -4 -4 -9 3 -5 1 -12 -4 -15 -5 -3 -12 -23 -16 -43 -4 -21 -9 -42
-13 -47 -3 -6 -7 -19 -8 -30 -1 -12 -8 -46 -14 -76 -16 -75 -9 -432 8 -453 7
-9 12 -21 11 -29 -1 -7 0 -20 3 -28 3 -8 11 -33 17 -56 18 -66 66 -164 118
-239 56 -79 181 -181 259 -211 27 -10 51 -21 54 -24 7 -9 107 -30 140 -30 16
0 31 -4 35 -9 6 -12 186 -12 200 -1 6 4 32 11 59 15 27 4 61 12 75 17 14 6 29
11 34 10 4 -1 7 2 7 7 0 5 11 12 26 15 29 8 149 123 158 154 7 22 37 34 57 22
12 -8 15 -41 18 -207 l1 -43 195 0 194 0 6 33 c3 17 5 237 3 487 l-3 455 -470
0 -470 0 0 -145 0 -145 263 -3 262 -2 0 -23 c-1 -56 -96 -187 -136 -187 -8 0
-14 -4 -14 -10 0 -5 -3 -9 -7 -8 -5 1 -21 -5 -38 -12 -49 -22 -337 -26 -415
-6 -36 9 -67 20 -70 24 -3 4 -18 14 -34 22 -43 22 -101 100 -116 156 -7 27
-18 55 -24 63 -17 21 -15 363 2 383 7 9 12 20 11 24 -3 12 7 39 33 92 23 46
114 136 129 126 5 -3 9 -1 9 4 0 17 111 32 230 32 119 0 230 -15 230 -32 0 -5
4 -7 9 -4 12 8 99 -70 117 -105 l15 -29 204 0 205 0 -6 43 c-4 23 -10 46 -14
51 -5 5 -6 15 -3 22 3 8 0 14 -6 14 -6 0 -11 7 -11 16 0 51 -122 211 -210 275
-91 67 -224 124 -325 139 -44 7 -90 16 -103 21 -29 11 -215 12 -227 1z"/>
</g>
</svg>
