<?xml version="1.0" standalone="no"?>
<!DOCTYPE svg PUBLIC "-//W3C//DTD SVG 20010904//EN"
 "http://www.w3.org/TR/2001/REC-SVG-20010904/DTD/svg10.dtd">
<svg version="1.0" xmlns="http://www.w3.org/2000/svg"
 width="2400.000000pt" height="1404.000000pt" viewBox="0 0 2400.000000 1404.000000"
 preserveAspectRatio="xMidYMid meet">
<g transform="translate(0.000000,1404.000000) scale(0.100000,-0.100000)"
fill="#fafafa" stroke="none">
<path d="M8291 13937 c-25 -25 -7 -139 26 -164 14 -11 14 -17 5 -38 -14 -31
-16 -104 -3 -138 8 -20 3 -38 -22 -90 -30 -62 -35 -67 -88 -86 -44 -17 -63
-19 -83 -11 -17 6 -297 10 -762 10 -405 0 -770 3 -812 6 -94 8 -152 -11 -152
-48 0 -13 -10 -39 -22 -58 -18 -29 -23 -55 -28 -144 -5 -109 -5 -109 -45 -120
-48 -14 -65 -42 -65 -113 0 -29 -5 -57 -12 -62 -7 -6 -27 -22 -44 -36 -26 -20
-34 -36 -43 -87 -7 -45 -17 -67 -32 -78 -12 -8 -33 -26 -47 -40 -15 -14 -47
-36 -72 -50 -35 -20 -46 -33 -53 -61 -10 -42 -75 -109 -139 -143 -57 -30 -91
-91 -92 -160 0 -190 1 -1282 2 -1328 1 -77 37 -152 74 -156 53 -6 51 15 49
-676 -2 -591 -1 -646 15 -679 14 -29 15 -41 6 -61 -26 -57 -2 -55 -708 -60
-357 -3 -662 -5 -679 -5 -43 -1 -70 21 -84 70 -7 24 -23 55 -35 69 -13 14 -35
46 -50 72 -35 63 -70 94 -133 123 -29 13 -53 29 -53 35 0 7 -18 30 -40 53 -22
23 -50 58 -63 77 -15 23 -38 40 -66 51 -25 9 -50 26 -57 40 -7 13 -29 35 -48
49 -19 14 -41 42 -49 62 -15 37 -35 51 -90 63 -17 3 -31 15 -37 30 -5 13 -27
35 -48 49 -32 20 -40 32 -46 66 -6 36 -11 43 -44 57 -20 8 -50 27 -67 43 -16
15 -47 33 -67 39 -32 11 -37 17 -43 52 -6 32 -14 45 -39 60 -18 11 -38 30 -44
43 -6 14 -26 32 -45 41 -19 9 -69 53 -111 98 -43 45 -97 102 -121 128 -24 25
-49 57 -56 72 -7 15 -19 29 -28 31 -45 13 -103 17 -114 8 -7 -5 -32 -14 -57
-20 -40 -10 -47 -9 -65 8 -12 11 -28 20 -36 20 -8 0 -25 7 -37 16 -31 22 -42
10 -42 -47 0 -54 -22 -109 -44 -109 -18 0 -86 -76 -86 -96 0 -25 -135 -153
-157 -148 -14 4 -38 -21 -101 -101 -46 -58 -90 -105 -97 -105 -28 0 -61 -22
-80 -53 -100 -158 -100 -158 -156 -178 -59 -21 -117 -71 -126 -109 -7 -32 -52
-100 -67 -100 -27 0 -116 -50 -116 -65 0 -9 -21 -39 -47 -66 -27 -27 -62 -64
-78 -82 -17 -17 -48 -48 -70 -69 -45 -41 -48 -44 -90 -88 -16 -17 -50 -51 -74
-75 -34 -35 -48 -60 -61 -107 -16 -60 -19 -63 -55 -72 -31 -7 -40 -16 -56 -51
-19 -43 -55 -75 -84 -75 -9 0 -24 -15 -35 -33 -11 -18 -35 -40 -53 -49 -25
-12 -36 -26 -46 -58 -10 -35 -19 -44 -56 -60 -25 -11 -46 -27 -50 -40 -4 -12
-20 -26 -36 -32 -19 -7 -37 -24 -50 -50 -24 -47 -146 -167 -206 -204 -23 -14
-45 -34 -48 -44 -3 -10 -16 -25 -30 -34 -13 -8 -26 -30 -30 -48 -10 -44 -22
-58 -52 -58 -37 0 -63 -18 -63 -43 0 -27 -17 -47 -41 -47 -40 0 -50 -27 -48
-129 2 -120 -8 -1586 -12 -1624 -5 -61 58 -84 140 -51 36 14 43 14 88 -1 44
-15 227 -16 2358 -10 2707 8 2729 8 2751 26 8 7 24 30 35 51 16 30 25 38 48
38 37 0 64 31 66 77 3 38 3 38 61 39 93 2 144 14 160 39 32 49 -92 47 2625 46
2544 -1 2557 -1 2608 19 65 25 86 25 111 0 42 -42 6 -140 -66 -175 -22 -11
-56 -33 -76 -48 -36 -28 -36 -28 -75 -11 -59 26 -5085 27 -5207 0 -93 -20
-161 -54 -161 -82 0 -19 45 -19 2695 -15 1482 2 2737 3 2788 2 88 -2 93 -1
117 25 13 14 29 41 35 60 10 31 15 34 49 34 45 0 77 20 68 44 -4 9 -1 25 5 36
9 15 9 24 -1 43 -27 50 1 75 104 92 21 4 52 13 67 21 25 13 34 13 74 -1 56
-19 719 -22 850 -4 70 10 89 9 130 -5 26 -9 59 -16 74 -16 68 0 100 -74 59
-135 -28 -40 -62 -46 -113 -17 -29 16 -67 17 -551 11 -552 -7 -610 -11 -619
-37 -3 -10 -9 -24 -14 -32 -26 -43 -32 -85 -15 -97 21 -16 55 -17 70 -2 7 7
182 10 539 10 459 -1 529 -3 537 -16 11 -20 27 -19 42 2 11 14 18 15 60 4 58
-15 66 -8 55 47 -13 71 -5 85 44 78 54 -9 60 -17 66 -84 5 -57 5 -57 145 -65
169 -9 5469 -2 5484 8 36 21 -2 47 -127 85 -94 28 -13 27 -2862 29 -2244 1
-2295 1 -2310 -18 -27 -34 -55 -35 -93 -1 -20 17 -58 37 -85 45 -41 12 -59 26
-91 66 -95 120 -22 163 182 108 26 -7 856 -10 2550 -9 1382 1 2520 1 2529 1
10 -1 37 -19 59 -41 40 -39 44 -40 108 -40 72 0 106 -15 121 -55 5 -12 28 -36
52 -52 24 -16 52 -47 64 -68 20 -38 23 -40 75 -43 152 -10 478 -13 1324 -14
1150 -1 1258 0 1290 12 19 7 36 6 63 -5 32 -14 161 -16 1067 -14 1431 2 1550
3 1581 24 40 26 49 57 35 118 -8 38 -12 227 -12 653 -1 329 -1 610 -1 624 -1
14 2 96 6 183 6 157 6 157 -21 169 -53 23 -83 49 -83 72 0 27 -25 52 -68 67
-25 9 -34 19 -43 51 -9 37 -13 40 -38 35 -38 -8 -65 13 -80 63 -8 28 -22 47
-42 58 -16 10 -32 27 -35 40 -7 26 -35 43 -84 51 -31 6 -35 10 -41 44 -7 43
-15 53 -44 59 -14 2 -24 17 -34 46 -13 44 -27 54 -83 66 -17 4 -34 18 -42 35
-9 16 -31 38 -49 49 -25 14 -36 29 -41 55 -7 39 -46 77 -77 77 -10 0 -25 13
-34 30 -9 17 -31 36 -52 45 -42 18 -53 30 -53 62 0 12 -14 32 -32 47 -21 16
-38 43 -48 72 -15 47 -20 52 -71 72 -14 6 -54 45 -88 88 -38 47 -78 85 -101
97 -22 10 -42 27 -45 36 -3 10 -23 32 -45 50 -22 18 -49 49 -60 70 -13 27 -31
43 -59 55 -22 8 -48 27 -57 41 -9 13 -31 34 -49 45 -22 13 -38 34 -46 58 -13
43 -36 72 -56 72 -8 0 -27 15 -44 33 -18 19 -46 36 -72 42 -40 10 -42 13 -48
54 -4 28 -12 47 -25 54 -17 10 -45 37 -88 88 -9 11 -29 19 -45 19 -34 0 -46
13 -56 58 -4 21 -16 37 -35 47 -18 9 -33 28 -40 51 -12 37 -55 64 -100 64 -13
0 -26 12 -36 33 -9 19 -28 38 -45 44 -24 9 -29 17 -29 44 0 17 -10 51 -22 75
-20 40 -20 47 -8 98 21 89 10 131 -50 189 -43 41 -51 54 -47 76 3 14 0 37 -7
49 -23 44 4 146 59 220 28 39 25 51 -18 77 -27 16 -54 20 -181 21 -149 1 -149
1 -185 -31 -35 -33 -35 -33 -9 -67 20 -27 28 -52 35 -119 19 -166 15 -180 -71
-285 -29 -35 -29 -35 -11 -107 18 -72 18 -72 -9 -147 -29 -79 -37 -90 -74 -90
-16 0 -27 -9 -37 -32 -9 -22 -29 -41 -60 -57 -31 -17 -51 -35 -60 -57 -9 -22
-23 -36 -40 -40 -14 -3 -32 -19 -41 -35 -8 -16 -27 -35 -43 -43 -27 -15 -91
-80 -91 -94 0 -4 -23 -20 -50 -35 -29 -16 -62 -46 -77 -68 -14 -21 -29 -39
-33 -39 -5 0 -24 -21 -43 -47 -27 -38 -47 -53 -96 -73 -46 -18 -67 -33 -78
-55 -26 -48 -115 -145 -153 -165 -19 -10 -62 -48 -95 -85 -33 -37 -67 -73 -75
-81 -71 -65 -131 -112 -162 -126 -38 -18 -40 -23 -53 -119 -3 -26 -11 -54 -18
-64 -23 -30 -105 -51 -172 -43 -33 4 -298 6 -590 6 -656 0 -614 -1 -658 17
-20 8 -52 15 -71 15 -38 0 -48 15 -37 56 7 29 15 35 68 54 41 15 44 25 32 102
-5 34 -9 246 -8 471 1 371 0 410 -16 434 -18 26 -18 26 -32 0 -17 -33 -29 -34
-54 -4 -19 22 -19 22 -44 -6 -25 -28 -25 -28 -25 -559 0 -531 0 -531 30 -580
17 -27 35 -73 41 -101 16 -85 28 -113 56 -126 24 -11 25 -15 20 -69 -5 -42 -2
-61 9 -73 13 -15 13 -21 0 -55 -8 -22 -17 -58 -19 -82 -3 -24 -12 -51 -20 -60
-24 -27 -42 -99 -29 -114 8 -10 7 -51 -3 -148 -8 -74 -14 -191 -15 -260 0
-273 -3 -303 -31 -346 -39 -59 -41 -78 -40 -343 1 -203 3 -248 16 -268 15 -22
14 -27 -7 -64 -23 -40 -23 -40 -2628 -40 -1433 0 -2655 -3 -2716 -8 -77 -6
-121 -14 -142 -26 -28 -17 -34 -17 -69 -4 -38 15 -38 15 -44 89 -3 41 -10 84
-15 95 -10 21 -6 125 16 375 7 77 13 339 14 607 1 473 1 473 -26 500 -22 22
-37 27 -70 27 -294 -7 -429 -7 -508 0 -163 13 -174 -14 -159 -395 6 -132 8
-283 5 -337 -9 -141 -7 -241 6 -287 7 -24 12 -167 13 -363 1 -315 2 -323 23
-344 18 -19 25 -20 47 -10 14 7 37 9 50 6 33 -8 62 3 68 26 5 18 15 20 119 22
196 4 239 -1 219 -26 -9 -11 -8 -15 5 -20 25 -10 124 -7 145 4 25 14 50 0 107
-57 49 -50 49 -60 1 -88 -32 -19 -52 -19 -434 -19 -475 1 -475 1 -429 98 16
32 16 36 -2 72 -24 49 -72 65 -134 44 -36 -12 -45 -12 -70 3 -27 16 -201 17
-2687 17 -2507 -1 -2658 0 -2670 16 -10 13 -11 58 -7 183 3 91 0 292 -6 446
-7 154 -14 368 -16 475 -4 283 -23 678 -36 728 -8 32 -8 46 1 55 6 6 11 30 11
54 0 24 7 60 15 81 14 32 37 222 36 292 0 14 0 226 0 471 0 428 -1 447 -21
498 -25 64 -22 77 35 136 39 42 44 45 53 28 8 -14 25 -19 79 -20 91 -4 193 6
193 19 0 5 -10 9 -22 8 -35 -3 -48 -1 -48 8 0 11 538 19 793 12 54 -2 70 -11
46 -26 -25 -15 21 -24 129 -24 102 0 137 8 97 24 -45 17 -4 25 128 26 548 5
1097 -1 1097 -11 0 -5 -51 -9 -112 -10 -62 0 -131 -3 -153 -8 -40 -7 -40 -7 0
-13 57 -8 517 -11 538 -3 27 11 20 25 -13 25 -16 0 -30 4 -30 8 0 9 209 17
435 15 301 -1 535 -8 535 -15 0 -5 -15 -8 -34 -8 -48 0 -54 -16 -8 -25 50 -10
387 -6 415 4 20 8 19 9 -12 16 -89 19 19 26 392 24 215 0 449 0 520 0 73 1
127 -2 127 -7 0 -13 -34 -21 -90 -23 -44 -2 -44 -2 15 -10 72 -10 181 -12 375
-5 80 2 157 5 173 5 15 1 27 6 27 12 0 8 -31 9 -104 4 -107 -7 -161 -1 -135
16 8 6 70 9 139 8 69 -1 231 0 360 3 129 3 291 2 360 -1 116 -6 125 -7 125
-26 0 -20 7 -20 273 -20 173 0 273 4 275 10 1 6 -14 11 -33 13 -19 2 -39 8
-44 13 -6 5 51 10 150 11 87 1 222 3 299 5 162 3 140 3 319 -2 76 -2 141 -6
144 -9 2 -3 -1 -12 -7 -20 -19 -23 2 -24 319 -23 263 2 285 3 284 19 -2 26 9
27 331 29 510 2 725 0 725 -9 0 -12 -146 -23 -193 -15 -20 3 -49 2 -64 -2 -63
-16 18 -24 272 -24 252 -1 308 5 270 26 -38 22 20 26 384 27 379 1 435 -3 425
-28 -3 -8 4 -16 18 -20 36 -9 336 -7 342 3 8 12 -19 21 -65 21 -21 0 -39 5
-39 10 0 6 41 10 103 11 487 3 756 1 765 -5 7 -4 12 -13 12 -20 0 -16 43 -26
107 -26 41 0 45 2 40 20 -6 25 18 40 65 40 36 0 59 -15 52 -34 -2 -6 11 -27
30 -45 34 -33 34 -33 102 -18 80 19 86 26 78 94 -7 61 27 190 52 200 16 6 54
83 54 108 0 22 -64 54 -82 41 -32 -23 -165 -40 -207 -26 -86 28 -158 -40 -95
-89 32 -25 67 -27 84 -5 8 9 25 14 44 12 29 -3 31 -5 32 -46 0 -31 -5 -46 -16
-52 -24 -13 -252 -9 -286 4 -23 10 -34 9 -58 -3 -17 -8 -44 -14 -61 -14 -27 0
-1093 2 -1455 2 -80 0 -212 1 -295 2 -82 1 -253 1 -380 1 -126 0 -311 1 -410
1 -99 1 -232 1 -295 -1 -63 -1 -140 -1 -170 0 -30 1 -176 1 -325 0 -148 -1
-378 -1 -510 -1 -377 2 -1296 0 -1555 -2 -129 -1 -251 -2 -270 -1 -19 1 -156
1 -305 2 -148 0 -382 2 -520 3 -137 1 -293 0 -345 -3 -52 -2 -126 -4 -165 -3
-38 1 -376 1 -750 1 -781 -1 -743 -1 -855 3 -47 1 -137 2 -200 1 -86 -1 -1285
-4 -1635 -4 -22 0 -152 1 -290 2 -137 2 -356 3 -485 2 -346 -1 -397 6 -440 60
-24 31 -25 41 -5 58 12 10 8 18 -25 53 -50 51 -55 68 -35 107 15 28 16 87 14
528 -3 597 -3 564 4 632 3 30 6 58 7 63 0 4 15 15 34 23 25 12 37 27 45 56 10
33 20 42 67 65 29 14 54 29 54 34 0 4 18 18 40 30 26 15 43 32 46 49 10 50 35
91 64 108 33 19 46 48 57 132 7 50 11 55 35 58 35 4 54 32 74 102 24 85 47
128 75 140 32 14 55 70 40 99 -18 33 9 92 59 125 39 26 51 29 114 28 48 -2 83
-9 109 -22 47 -25 76 -25 155 0 76 24 140 25 189 5 46 -20 121 -19 169 1 47
20 172 13 246 -13 44 -16 49 -15 110 5 74 25 129 27 208 8 98 -24 109 -35 70
-69 -15 -13 -18 -22 -11 -34 6 -12 4 -24 -6 -40 -13 -19 -14 -28 -4 -46 23
-43 3 -1915 -21 -1960 -12 -23 53 -107 82 -107 47 0 47 -12 44 935 -1 490 -5
933 -9 985 -3 52 -7 133 -9 180 -1 47 -6 92 -10 99 -13 20 14 59 48 70 17 6
57 9 89 9 70 -2 78 -12 83 -107 6 -90 22 -156 44 -176 17 -15 30 -16 147 -4
186 17 218 17 240 -4 35 -31 79 -22 124 26 63 66 72 90 64 163 -6 59 -5 65 20
90 33 33 83 27 133 -17 42 -37 35 -37 168 5 43 14 63 15 140 5 123 -15 187
-15 268 -1 77 14 168 8 204 -14 26 -17 28 -31 6 -55 -12 -13 -13 -22 -5 -37 7
-14 6 -24 -4 -40 -14 -19 -13 -22 12 -40 22 -16 25 -23 15 -34 -8 -11 -13
-244 -16 -909 -6 -1011 -6 -994 -31 -1012 -25 -19 -13 -47 37 -85 48 -37 59
-39 82 -13 17 18 17 31 4 206 -7 102 -10 194 -6 205 11 30 11 1669 0 1683 -5
7 -9 36 -9 65 -1 51 0 53 38 72 53 28 151 27 203 -1 33 -18 45 -19 75 -11 110
33 312 35 343 4 18 -17 18 -22 7 -43 -12 -20 -14 -214 -14 -1093 0 -1056 0
-1068 20 -1082 25 -18 56 -18 80 0 18 13 19 47 16 1042 -1 784 -5 1034 -14
1049 -10 17 -13 55 -8 113 2 22 67 42 136 42 57 0 68 -3 97 -29 26 -23 30 -32
21 -43 -9 -10 -12 -271 -13 -1037 0 -720 -4 -1037 -12 -1068 -10 -42 -9 -46
14 -70 25 -24 25 -24 64 -4 54 28 82 80 66 125 -15 40 -16 117 -2 148 10 23
-3 1701 -13 1777 -5 33 -20 51 -44 51 -23 0 -13 28 12 34 33 8 32 22 -5 41
-17 9 -28 20 -25 24 11 19 149 53 194 48 25 -3 93 -10 150 -16 91 -10 110 -10
144 4 52 21 162 22 223 2 27 -9 60 -17 74 -19 24 -3 25 -6 22 -58 -2 -32 -10
-62 -19 -72 -15 -16 -15 -20 0 -35 13 -15 13 -21 2 -36 -10 -15 -11 -25 -3
-43 14 -30 19 -30 48 1 28 30 45 31 146 5 116 -29 141 -28 335 21 46 11 58 38
63 142 5 91 17 112 60 102 17 -4 65 -6 106 -4 206 6 213 5 253 -20 38 -23 38
-23 18 -45 -19 -21 -20 -36 -20 -1021 -1 -550 -4 -1027 -7 -1060 -6 -72 9
-109 47 -113 30 -4 58 31 67 82 6 37 7 330 5 1276 -1 872 1 798 -26 828 -26
28 -21 41 21 59 42 18 157 21 272 7 44 -6 92 -6 115 -1 22 5 81 10 132 11 80
1 95 -2 121 -21 32 -24 52 -22 150 14 46 17 139 14 212 -8 33 -10 60 -9 150 6
115 18 159 16 223 -12 38 -16 47 -39 25 -61 -8 -8 -8 -15 1 -26 11 -13 9 -20
-8 -42 -21 -27 -21 -27 -21 -1005 0 -684 3 -980 11 -984 6 -4 8 -22 4 -44 -7
-45 22 -68 73 -56 44 9 58 29 43 62 -9 20 -14 264 -18 977 -4 597 -9 956 -15
963 -6 7 -8 27 -4 45 3 18 2 39 -3 47 -6 9 -5 23 1 37 8 18 8 27 -2 39 -16 19
-11 24 55 55 44 22 109 25 170 9 102 -27 144 -30 177 -13 49 25 176 30 235 9
50 -18 51 -18 170 12 13 3 42 -4 68 -17 25 -12 54 -20 65 -17 26 7 42 -15 34
-47 -4 -19 -13 -26 -29 -26 -25 0 -29 -8 -39 -71 -6 -36 -5 -38 56 -79 62 -43
62 -43 167 -24 129 22 225 22 266 0 68 -37 95 0 102 139 5 121 9 132 42 149
22 12 37 13 62 6 19 -6 46 -10 62 -10 15 0 44 -7 65 -17 44 -19 117 -18 185 4
49 15 77 15 221 -6 67 -10 90 -9 150 4 48 11 90 15 131 10 94 -10 166 -54 115
-70 -16 -5 -20 -14 -18 -40 1 -18 -4 -40 -10 -48 -11 -13 -9 -18 9 -30 17 -12
20 -22 15 -42 -4 -15 -7 -449 -6 -964 0 -828 -1 -940 -15 -951 -41 -34 7 -129
58 -116 59 14 62 32 62 346 0 457 -3 1713 -4 1740 -3 71 -8 90 -24 108 -18 20
-18 21 26 46 55 33 128 34 222 5 63 -19 71 -20 104 -6 114 48 191 21 191 -68
0 -55 19 -102 54 -134 23 -22 26 -32 26 -95 0 -84 14 -116 57 -136 28 -13 33
-20 33 -50 0 -20 4 -40 9 -45 5 -6 11 -23 13 -39 2 -23 10 -32 38 -41 20 -7
43 -25 55 -43 11 -17 39 -40 62 -51 30 -15 43 -28 48 -49 3 -16 21 -52 40 -81
19 -29 35 -55 35 -58 0 -12 74 -78 104 -93 22 -10 41 -35 63 -80 25 -49 37
-64 51 -62 35 5 40 -17 28 -118 -7 -52 -15 -101 -20 -108 -4 -7 -7 -182 -7
-388 1 -231 -2 -381 -8 -393 -8 -14 -5 -23 14 -41 14 -13 25 -29 25 -36 0 -25
36 -57 57 -50 30 9 33 63 33 471 1 811 3 747 -33 770 -23 15 -33 30 -37 55 -8
48 -16 58 -54 74 -18 8 -46 32 -62 54 -16 22 -42 46 -59 54 -16 7 -31 22 -33
33 -8 57 -13 64 -58 81 -29 11 -53 29 -65 48 -10 17 -32 34 -51 40 -27 9 -34
17 -36 41 -6 68 -14 94 -43 138 -29 45 -79 203 -79 253 0 39 -19 68 -35 54
-17 -14 -17 -14 -59 110 -19 57 -43 111 -53 120 -16 14 -96 15 -853 10 -492
-3 -856 -2 -887 3 -51 9 -53 11 -68 58 -18 53 -37 69 -84 69 -18 0 -35 7 -43
19 -13 19 -15 19 -88 0 -41 -11 -87 -17 -102 -15 -36 7 -75 -25 -89 -75 -7
-21 -18 -44 -25 -50 -13 -11 -2725 -14 -2769 -3 -11 3 -41 -2 -66 -10 -58 -21
-67 -20 -130 8 -56 24 -121 103 -119 143 0 10 2 61 3 113 2 70 8 102 21 121
23 37 25 104 3 126 -15 15 -41 18 -176 20 -159 2 -159 2 -187 -28 -29 -30 -29
-30 1 -86 17 -30 38 -61 48 -68 14 -10 15 -17 6 -44 -7 -20 -9 -57 -5 -94 6
-62 6 -62 -46 -113 -29 -28 -60 -61 -68 -73 -15 -22 -15 -22 -1490 -22 -1475
0 -1475 0 -1492 21 -10 12 -18 30 -18 40 0 23 -27 45 -72 59 -20 7 -42 19 -48
27 -17 20 -30 18 -72 -11 -75 -51 -105 -22 -127 121 -13 88 -13 88 15 111 42
34 67 37 112 14 35 -18 49 -20 103 -12 69 9 99 33 99 80 0 36 -11 50 -51 62
-48 15 -364 20 -378 6z m3733 -146 c24 -25 27 -35 21 -58 -5 -15 -9 -58 -9
-96 -2 -62 -4 -70 -34 -100 -33 -32 -33 -32 -57 -2 -14 16 -27 43 -31 60 -10
50 -41 136 -52 147 -14 14 73 76 109 77 16 1 36 -10 53 -28z m28 -367 c64 -26
66 -28 72 -68 10 -63 -7 -130 -41 -170 -17 -19 -33 -40 -36 -48 -3 -9 -15 -3
-39 20 -35 33 -36 33 -94 23 -32 -6 -63 -11 -69 -11 -23 0 -45 69 -45 141 0
92 17 119 74 119 22 1 52 7 66 15 14 8 30 12 35 10 6 -2 40 -16 77 -31z
m-3509 9 c80 -21 90 -31 98 -100 12 -106 -29 -151 -131 -146 -69 3 -120 -12
-120 -37 0 -25 -25 -44 -37 -28 -20 27 -43 123 -43 182 0 84 7 105 39 112 14
3 44 11 66 19 55 17 57 17 128 -2z m6960 -4 c62 -17 77 -39 77 -113 0 -55 -4
-68 -30 -101 -16 -21 -30 -41 -30 -46 0 -7 -168 -5 -174 2 -1 2 -17 29 -34 60
-45 79 -44 129 2 175 31 31 39 34 93 34 32 0 75 -5 96 -11z m5676 -2089 c40
-21 48 -104 22 -240 -6 -30 -14 -81 -17 -113 -7 -58 -7 -58 55 -55 74 3 84 -7
75 -72 -7 -55 -16 -65 -42 -51 -11 6 -30 11 -42 11 -22 0 -50 50 -50 90 0 11
-6 20 -13 20 -28 0 -48 39 -61 118 -7 45 -20 90 -29 100 -9 10 -14 27 -11 39
3 11 1 30 -5 41 -8 15 -6 23 9 37 11 10 20 26 20 36 0 39 49 61 89 39z m-65
-416 c3 -9 6 -31 6 -49 0 -31 -4 -35 -37 -44 -54 -15 -61 -14 -88 15 -31 33
-32 58 -3 78 30 22 114 21 122 0z m-18356 -182 c49 -5 82 -43 82 -94 0 -22 5
-28 23 -28 30 -1 61 -19 87 -53 12 -15 37 -34 55 -41 24 -10 39 -27 53 -58 10
-23 27 -50 36 -58 10 -8 34 -39 53 -70 41 -63 51 -72 76 -64 34 11 188 -133
244 -227 9 -16 25 -29 35 -29 10 0 25 -11 33 -24 9 -14 29 -29 45 -34 15 -6
39 -24 51 -42 13 -17 43 -40 66 -50 24 -10 43 -24 43 -31 0 -6 20 -31 45 -56
32 -31 45 -52 45 -71 0 -34 16 -52 46 -52 14 0 33 -13 49 -34 18 -24 39 -37
71 -45 50 -13 84 -41 84 -71 0 -11 14 -30 31 -42 17 -13 37 -35 44 -49 9 -16
28 -30 53 -37 52 -16 58 -25 65 -103 7 -76 -1 -89 -51 -89 -47 0 -77 17 -61
36 7 9 8 14 1 14 -6 0 -14 -5 -17 -10 -4 -6 -19 0 -37 15 -36 31 -95 32 -109
3 -5 -10 -13 -26 -17 -35 -5 -10 -21 -24 -36 -31 -15 -8 -37 -30 -48 -49 -13
-21 -39 -43 -66 -56 -37 -18 -47 -29 -56 -59 -14 -49 -40 -78 -69 -78 -16 0
-28 -9 -35 -25 -7 -15 -30 -33 -57 -45 -40 -17 -46 -24 -57 -66 -8 -30 -22
-52 -38 -63 -14 -8 -43 -30 -64 -48 -22 -18 -45 -33 -51 -33 -15 0 -47 -35
-60 -65 -13 -32 -110 -132 -144 -150 -15 -7 -40 -30 -55 -49 -15 -20 -40 -43
-57 -51 -20 -11 -29 -23 -29 -40 0 -17 -12 -33 -44 -54 -24 -17 -54 -47 -66
-66 -15 -24 -29 -35 -45 -35 -30 0 -52 -22 -60 -60 -7 -33 -25 -45 -89 -64
-38 -11 -41 -15 -44 -50 -3 -35 1 -43 45 -85 49 -46 93 -117 93 -148 0 -9 -7
-24 -15 -33 -13 -15 -26 -445 -26 -924 0 -26 8 -71 18 -98 18 -50 18 -50 -15
-79 -18 -16 -43 -29 -56 -29 -13 0 -38 -5 -55 -11 -25 -9 -43 -9 -72 0 -28 9
-339 12 -1173 11 -1132 0 -1135 0 -1170 -21 -49 -29 -77 -22 -100 25 -18 37
-19 67 -17 605 1 398 -2 586 -10 633 -11 62 -11 70 7 89 25 29 75 49 94 39 69
-36 198 -31 219 8 5 9 8 51 7 94 -2 66 -6 80 -29 108 -31 36 -32 45 -12 80 8
14 14 42 15 62 0 34 3 37 42 50 32 11 47 23 60 49 24 48 35 59 63 59 30 0 58
30 65 68 4 18 16 32 40 43 23 11 38 27 45 50 10 27 18 34 56 43 35 9 47 18 59
43 10 21 26 36 47 43 35 12 43 26 43 76 0 29 4 35 27 40 59 12 82 27 98 60 9
19 29 41 45 49 21 11 32 27 40 55 8 30 21 47 50 65 59 37 53 85 -9 85 -29 0
-51 23 -45 47 7 24 60 48 87 38 10 -5 25 8 47 39 32 47 63 59 74 30 11 -28 6
-47 -16 -71 -25 -27 -14 -47 23 -41 19 2 25 10 27 36 2 23 8 32 22 32 22 0 50
-26 50 -45 0 -50 131 -57 152 -9 21 45 102 40 149 -7 22 -22 70 -25 102 -7 12
7 48 11 79 9 40 -1 65 3 80 13 30 21 50 20 95 -4 21 -11 46 -20 55 -20 10 0
18 -4 18 -9 0 -16 61 -21 82 -7 11 8 27 12 35 9 18 -7 109 22 147 46 27 18 31
18 53 4 18 -12 26 -13 38 -3 11 9 26 9 70 -1 45 -10 63 -10 90 0 19 7 63 11
97 11 35 -1 77 1 93 5 26 6 33 3 44 -19 15 -27 23 -31 87 -41 41 -6 41 -6 36
23 -2 16 0 32 5 35 10 6 90 -14 121 -31 13 -7 31 -12 40 -9 9 2 29 -2 43 -9
30 -15 69 -8 69 11 0 8 22 18 53 25 48 10 53 9 66 -10 7 -11 18 -20 23 -20 5
0 18 -10 29 -22 18 -23 18 -23 19 0 0 12 -5 22 -11 22 -24 0 -4 45 22 48 34 4
58 -20 52 -51 -6 -32 13 -43 29 -17 7 11 22 20 33 20 11 0 32 15 47 33 19 24
47 41 102 61 71 26 136 77 136 107 0 11 -51 91 -64 101 -15 10 -46 -10 -46
-30 0 -9 -14 -25 -30 -34 -23 -13 -30 -24 -30 -47 0 -26 -6 -33 -36 -46 -76
-32 -113 -15 -133 62 -7 27 -23 51 -43 66 -31 25 -31 25 -18 73 16 57 16 184
1 213 -6 11 -11 31 -11 45 0 48 -73 42 -86 -8 -3 -13 4 -51 15 -86 12 -35 21
-75 21 -90 0 -14 7 -35 15 -46 21 -28 19 -64 -4 -64 -22 0 -56 -49 -65 -96
-10 -44 -37 -65 -91 -72 -57 -6 -85 15 -85 65 0 42 -30 73 -70 73 -32 0 -43
31 -17 47 25 16 43 115 42 238 -1 117 -1 120 -23 118 -27 -3 -43 24 -31 55 7
19 12 21 28 13 14 -8 22 -6 35 8 22 24 20 57 -5 98 -17 27 -20 44 -15 79 7 52
-9 58 -68 23 -31 -18 -36 -26 -35 -57 0 -54 25 -244 34 -265 4 -9 -1 -49 -10
-88 -17 -70 -12 -145 15 -198 4 -8 -7 -34 -26 -63 -21 -30 -34 -63 -34 -82 0
-51 -11 -58 -87 -62 -86 -5 -108 8 -105 59 2 28 -4 42 -29 68 -30 31 -31 34
-23 88 5 31 9 238 9 461 0 223 4 410 8 417 5 7 0 16 -12 22 -10 6 -28 27 -40
46 -25 43 -51 43 -66 1 -8 -23 -6 -31 10 -45 19 -15 20 -27 16 -381 -4 -478
-4 -487 18 -529 12 -22 10 -27 -29 -64 -38 -37 -42 -44 -37 -79 4 -33 2 -41
-23 -58 -55 -39 -160 -10 -160 44 0 35 -15 71 -41 95 -21 19 -21 23 -9 78 12
58 15 559 3 590 -3 8 4 23 16 34 27 26 27 33 -8 69 -20 22 -27 37 -23 55 2 14
-3 36 -11 49 -9 12 -19 39 -22 59 -6 30 -4 36 15 42 12 4 27 1 35 -5 13 -10
15 -8 15 14 0 14 4 26 9 26 5 0 12 11 15 26 4 14 22 34 41 45 22 13 38 33 46
57 28 85 39 104 57 96 9 -4 36 -9 60 -12z m18443 -15 c20 -13 39 -37 45 -57 6
-18 20 -37 31 -41 20 -7 73 -64 73 -78 0 -5 25 -34 55 -65 31 -31 60 -68 65
-81 8 -22 16 -25 60 -25 46 0 50 -2 56 -27 4 -16 28 -51 53 -80 69 -78 91
-109 91 -132 0 -12 8 -25 18 -29 46 -19 132 -75 155 -102 15 -17 36 -30 48
-30 12 0 26 -12 37 -31 9 -18 34 -52 55 -76 20 -24 37 -50 37 -57 0 -17 39
-52 67 -60 12 -4 36 -25 53 -47 23 -29 39 -39 60 -39 31 0 44 -13 54 -52 4
-17 16 -30 35 -36 36 -13 57 -43 70 -100 7 -35 6 -44 -5 -49 -8 -3 -21 -18
-30 -34 -28 -54 -154 -32 -154 28 0 22 -46 80 -69 88 -42 13 -131 -53 -131
-97 0 -10 -11 -25 -26 -34 -31 -21 -132 -4 -141 24 -17 54 -27 69 -61 88 -35
20 -40 21 -74 7 -32 -13 -39 -22 -51 -61 -14 -52 -39 -70 -107 -79 -43 -6 -70
20 -70 68 0 16 -14 44 -35 69 -40 48 -42 56 -17 83 19 21 20 91 7 292 -4 61
-2 125 5 165 7 36 13 99 15 140 4 75 4 75 -37 118 -36 39 -42 41 -57 28 -24
-21 -22 -656 2 -703 25 -48 -8 -134 -87 -229 -24 -29 -34 -34 -70 -34 -65 0
-80 20 -92 118 -8 73 -12 74 -92 35 -46 -24 -58 -35 -77 -80 -33 -74 -67 -88
-135 -55 -27 14 -36 26 -45 61 -11 45 -16 51 -74 69 -26 9 -39 8 -61 -3 -25
-13 -60 -68 -60 -95 0 -15 -87 -53 -105 -46 -8 3 -27 31 -42 62 -36 73 -69 99
-116 90 -45 -8 -87 -50 -87 -86 0 -32 -9 -40 -70 -63 -44 -17 -44 -17 -74 12
-25 25 -30 40 -35 98 -5 60 -9 68 -28 71 -11 2 -26 -3 -32 -10 -5 -7 -27 -32
-47 -56 -34 -39 -36 -45 -24 -67 17 -32 108 -105 131 -105 9 0 31 -11 47 -25
19 -15 33 -21 37 -15 12 20 37 10 48 -20 11 -28 14 -29 52 -24 22 4 51 17 66
30 33 31 37 31 87 -16 23 -22 53 -43 67 -46 33 -8 87 12 113 41 21 24 28 25
124 25 113 0 140 -8 119 -34 -12 -14 -9 -16 22 -16 43 0 69 9 61 21 -3 5 6 13
19 18 14 6 28 15 32 21 4 6 15 8 25 5 11 -3 59 -8 107 -9 48 -2 140 -7 204
-11 82 -6 121 -4 137 4 15 8 28 9 39 2 11 -6 24 -6 37 1 23 13 39 -8 25 -33
-13 -25 26 -37 50 -15 22 20 75 21 91 1 12 -14 40 -21 40 -9 0 3 -4 14 -10 24
-7 13 -6 21 5 30 20 16 45 5 45 -20 0 -11 7 -20 15 -20 9 0 15 9 15 25 0 48
61 40 80 -11 14 -35 76 -35 90 1 11 30 30 33 37 5 9 -32 45 -35 99 -6 56 30
87 32 139 10 30 -12 44 -13 62 -5 13 6 39 11 58 11 30 0 35 -3 35 -24 0 -34
26 -39 91 -17 54 18 54 18 51 75 -4 55 -3 56 23 56 20 0 32 -11 57 -50 23 -38
36 -49 47 -44 9 4 31 9 50 12 39 5 52 -9 42 -47 -7 -23 -13 -27 -62 -31 -49
-5 -54 -7 -57 -31 -4 -35 33 -76 78 -87 28 -7 36 -14 41 -41 4 -18 22 -47 41
-64 18 -18 45 -46 59 -63 14 -18 40 -39 58 -49 19 -9 39 -31 46 -49 14 -34 32
-46 64 -46 12 0 24 -15 36 -46 13 -35 25 -49 50 -60 18 -7 42 -29 53 -48 16
-27 29 -36 64 -43 40 -8 43 -11 49 -46 6 -40 31 -73 60 -82 11 -4 19 -12 19
-19 0 -41 96 -82 121 -52 38 45 41 47 55 35 20 -16 18 -30 -11 -68 -17 -25
-26 -53 -31 -103 -8 -87 -21 -101 -81 -92 -44 6 -45 6 -41 -22 2 -22 9 -30 28
-33 46 -6 48 -35 4 -51 -30 -12 -31 -30 -3 -30 12 0 36 -13 55 -29 33 -30 33
-30 165 -28 131 1 131 1 156 -27 19 -23 23 -35 17 -55 -10 -36 -11 -1126 -1
-1177 7 -36 5 -45 -15 -69 -23 -27 -23 -27 -1268 -25 -1162 1 -1246 0 -1277
-17 -67 -36 -129 38 -112 135 11 57 5 921 -6 1010 -10 74 8 130 61 190 24 28
44 59 44 69 0 31 -28 61 -63 68 -58 12 -62 14 -81 49 -10 19 -31 40 -47 47
-16 6 -44 30 -61 53 -17 22 -44 55 -59 71 -15 17 -29 41 -31 55 -2 18 -11 26
-35 31 -41 8 -103 57 -147 117 -19 26 -51 63 -70 81 -20 19 -36 41 -36 49 0 8
-7 11 -19 7 -13 -4 -29 7 -59 42 -123 144 -199 223 -214 223 -10 0 -73 66
-123 129 -22 28 -47 51 -56 51 -31 0 -91 66 -133 145 -45 84 -62 96 -102 74
-19 -10 -26 -9 -40 2 -14 12 -21 8 -53 -29 -35 -42 -37 -43 -91 -40 -52 3 -55
4 -52 28 2 14 6 51 9 83 5 59 26 87 64 87 9 0 36 25 60 55 103 131 111 138
173 143 31 2 56 8 56 12 0 4 15 31 34 59 19 28 40 67 46 86 7 20 19 39 29 41
48 15 80 35 86 54 4 13 25 29 51 41 34 14 49 28 60 54 9 23 27 41 51 52 21 10
43 29 50 43 7 14 25 30 40 36 20 9 33 25 43 55 13 36 25 49 63 70 26 14 59 37
74 51 16 14 44 31 65 37 36 12 48 27 48 59 0 9 14 30 30 47 17 16 46 49 66 72
20 23 44 45 54 48 11 3 22 16 26 28 10 34 33 55 67 63 33 7 102 72 129 122 21
39 51 42 99 9z m-7110 -117 c11 0 17 -4 14 -10 -3 -5 -36 -10 -73 -10 -40 0
-62 4 -56 9 10 11 62 20 82 14 8 -1 23 -3 33 -3z m-7907 -9 c6 -9 -92 -24
-105 -15 -5 3 -9 9 -9 15 0 11 107 12 114 0z m2521 -1 c4 -6 -8 -10 -29 -10
-20 0 -36 5 -36 10 0 6 13 10 29 10 17 0 33 -4 36 -10z m2570 0 c4 -6 -10 -10
-34 -10 -22 0 -43 5 -46 10 -4 6 10 10 34 10 22 0 43 -4 46 -10z m1235 -5 c-7
-13 -59 -10 -74 5 -8 8 0 10 34 8 26 -2 43 -7 40 -13z m1355 6 c9 -15 -14 -24
-43 -16 -20 5 -23 8 -11 16 18 11 46 12 54 0z m1715 0 c0 -5 -7 -11 -15 -15
-21 -8 -76 4 -69 15 7 12 84 12 84 0z m-13133 -254 c12 -54 11 -61 -8 -99 -16
-32 -18 -46 -10 -67 13 -34 20 -416 9 -484 -5 -34 -4 -68 3 -97 11 -42 9 -50
-15 -97 -14 -29 -26 -62 -26 -73 0 -12 -9 -24 -24 -30 -13 -5 -27 -13 -30 -18
-9 -14 -117 -6 -127 9 -4 8 -6 24 -3 36 11 40 -12 60 -108 90 -30 9 -67 -24
-80 -71 -10 -39 -18 -47 -59 -67 -34 -15 -52 -19 -61 -12 -7 6 -25 13 -41 17
-22 5 -29 15 -40 53 -8 31 -22 53 -44 71 -31 23 -45 62 -22 62 13 0 42 69 35
86 -8 21 -44 17 -56 -7 -6 -11 -10 -35 -9 -52 2 -23 -7 -47 -34 -87 -20 -30
-37 -60 -37 -66 0 -21 -84 -94 -108 -94 -34 0 -112 49 -112 69 0 10 11 28 25
41 14 13 30 41 35 61 11 41 60 89 91 89 11 0 25 13 34 30 10 19 31 36 55 46
30 12 42 24 50 50 8 25 22 40 48 52 20 9 43 30 50 45 8 16 28 37 45 47 21 13
35 32 42 57 8 31 19 42 55 59 24 12 54 34 65 48 12 15 43 35 71 45 39 15 49
24 49 43 0 24 30 77 52 91 7 4 20 24 28 43 10 25 20 34 37 34 34 0 65 26 73
60 8 35 30 51 64 47 21 -2 26 -10 38 -60z m-182 -1078 c8 -23 -7 -45 -24 -35
-6 4 -11 18 -11 32 0 30 26 32 35 3z m20199 -8 c20 -22 14 -41 -13 -41 -27 0
-42 20 -30 42 12 23 22 23 43 -1z m-21296 -113 c2 -19 -3 -30 -18 -38 -36 -19
-52 9 -29 51 14 28 43 20 47 -13z m4330 -30 c20 -12 54 -25 76 -28 50 -7 73
-38 79 -108 4 -43 11 -59 41 -93 37 -40 37 -40 30 -158 -5 -93 -4 -123 8 -146
10 -21 12 -43 7 -70 -3 -22 -2 -49 4 -62 7 -16 6 -31 -3 -52 -6 -16 -9 -38 -6
-48 3 -10 8 -59 10 -110 5 -106 8 -115 42 -107 23 6 25 4 22 -17 -2 -14 -9
-23 -17 -21 -8 2 -26 -8 -40 -22 -15 -14 -54 -35 -86 -47 -105 -37 -106 -37
-165 21 -29 28 -53 50 -55 48 -1 -2 -10 -17 -19 -35 -15 -30 -18 -31 -103 -38
-62 -6 -108 -3 -162 7 -49 10 -124 14 -211 13 -74 -2 -164 -2 -200 -2 -36 0
-99 0 -140 -1 -355 -2 -681 -2 -1080 0 -162 1 -320 1 -351 0 -56 -3 -129 19
-129 38 0 5 18 22 40 36 22 15 40 30 40 34 0 5 16 17 35 29 19 11 40 32 45 45
5 14 23 32 40 41 16 8 30 22 30 30 0 8 14 21 30 30 17 9 42 33 56 55 14 22 41
48 59 59 22 12 35 30 40 50 8 36 22 48 38 32 15 -15 47 -14 51 2 16 53 48 99
87 124 19 12 45 33 59 46 14 14 42 32 62 40 35 15 37 18 35 57 -1 29 3 45 13
50 8 4 31 15 50 24 72 34 95 52 100 82 7 40 39 90 66 102 12 6 68 11 124 11
56 0 129 6 160 13 44 9 68 9 97 0 27 -8 133 -10 360 -6 285 5 325 4 353 -11
29 -15 33 -15 49 -1 43 39 126 28 176 -24 16 -17 37 -30 46 -30 13 0 20 -11
24 -37 14 -81 18 -87 73 -102 52 -14 52 -14 54 -85 1 -39 2 -86 1 -104 0 -32
1 -33 36 -30 36 3 36 3 42 73 7 81 -1 111 -34 126 -14 6 -32 30 -42 57 -11 25
-34 63 -52 85 -20 23 -33 50 -33 67 0 15 -3 42 -6 59 -8 37 -3 38 44 9z
m13000 -20 c7 -7 12 -29 12 -50 0 -33 -4 -39 -34 -52 -36 -15 -66 -50 -66 -78
0 -9 -12 -25 -26 -35 -61 -43 -62 -45 -62 -143 1 -79 4 -92 20 -101 28 -15 51
-4 43 20 -3 11 2 35 11 52 12 25 15 47 10 90 -6 64 -2 69 60 69 39 0 54 24 54
88 0 35 2 37 32 37 26 0 35 6 46 27 7 16 22 32 32 38 12 7 164 10 412 11 216
0 416 0 443 0 28 0 125 -4 217 -9 183 -10 208 -18 226 -71 12 -33 5 -43 -36
-55 -34 -11 -16 -26 32 -26 32 0 48 -6 65 -24 12 -13 49 -36 82 -51 52 -23 59
-30 59 -54 0 -16 7 -34 15 -41 11 -9 14 -22 10 -41 -3 -15 -1 -30 4 -34 7 -4
11 4 11 19 0 62 42 32 61 -44 12 -47 32 -65 42 -37 6 19 57 -12 70 -43 16 -37
48 -70 69 -70 9 0 25 -12 34 -27 48 -78 62 -93 109 -118 85 -46 100 -69 75
-116 -8 -14 -8 -20 2 -23 7 -2 33 -9 57 -16 24 -6 53 -22 66 -36 12 -13 27
-24 32 -24 5 0 20 -11 33 -25 21 -23 22 -27 9 -41 -20 -19 -296 -26 -1044 -24
-302 1 -562 2 -577 2 -35 -1 -43 -1 -128 -1 -38 0 -90 0 -115 0 -25 0 -60 0
-77 -1 -206 -5 -268 -8 -298 -14 -20 -4 -62 -3 -95 3 -52 9 -65 16 -96 52 -41
46 -50 45 -78 -9 -25 -49 -75 -86 -106 -78 -35 9 -82 52 -93 86 -16 46 -5 277
18 368 11 42 20 86 20 97 0 11 9 45 21 75 16 43 20 67 15 112 -11 92 30 203
71 196 15 -3 19 6 23 59 3 34 8 65 12 68 6 6 150 49 179 54 3 1 10 -4 17 -11z
m-17422 -52 c3 -8 0 -24 -6 -36 -14 -26 -53 -23 -58 4 -7 34 52 63 64 32z
m17111 -12 c5 -14 -38 -27 -50 -15 -5 5 -6 14 -2 21 8 14 47 9 52 -6z m4727
-19 c6 -16 -19 -39 -34 -30 -11 7 -14 38 -4 48 9 8 32 -2 38 -18z m106 -89 c0
-8 -5 -18 -10 -21 -13 -8 -42 14 -34 26 9 15 44 10 44 -5z m-22152 -119 c3
-23 0 -27 -23 -27 -30 0 -43 24 -25 46 19 22 45 13 48 -19z m-118 -81 c0 -8
-5 -18 -10 -21 -13 -8 -42 14 -34 26 9 15 44 10 44 -5z m22473 8 c12 -12 -6
-34 -29 -34 -17 0 -24 6 -24 20 0 19 37 29 53 14z m-11076 -91 c24 -3 47 -11
52 -17 4 -6 11 -86 14 -177 7 -188 5 -194 -70 -209 -21 -4 -46 -11 -55 -15
-12 -5 -27 2 -49 24 -31 31 -31 34 -24 94 4 34 6 107 6 163 -1 55 1 108 5 118
8 21 43 37 64 30 8 -3 33 -8 57 -11z m-292 -9 c54 -12 56 -18 49 -124 -5 -80
-4 -106 11 -142 26 -69 19 -89 -40 -111 -82 -32 -107 -32 -142 -3 -30 25 -30
25 -27 193 3 214 9 221 149 187z m-11201 -21 c4 -9 2 -21 -3 -26 -15 -15 -46
-3 -49 21 -3 18 1 22 21 22 14 0 28 -7 31 -17z m-226 -234 c2 -15 -9 -40 -30
-67 -35 -45 -67 -54 -103 -28 -28 20 2 63 47 68 25 2 36 10 46 31 16 33 36 31
40 -4z m23226 -65 c10 -26 7 -34 -16 -43 -23 -8 -68 5 -68 20 0 26 15 39 45
39 21 0 35 -6 39 -16z m-23403 -97 c8 -49 37 -78 86 -86 72 -12 44 -85 -43
-115 -44 -15 -47 -15 -94 9 -27 14 -51 34 -55 45 -7 23 33 171 49 183 26 18
51 2 57 -36z m23499 -37 c23 -12 44 -73 36 -105 -8 -32 -47 -51 -119 -59 -133
-15 -189 101 -65 135 24 6 54 17 68 25 30 16 55 18 80 4z m-11602 -40 c24 -4
47 -12 52 -16 4 -5 10 -102 14 -215 7 -231 12 -212 -70 -254 -63 -32 -88 -31
-113 2 -32 40 -35 68 -19 157 12 61 14 107 8 186 -5 64 -4 112 2 123 11 22 47
38 68 31 8 -3 35 -9 58 -14z m-288 -2 c58 -13 75 -34 60 -73 -5 -14 -10 -45
-10 -68 0 -23 -4 -57 -10 -76 -7 -27 -6 -38 10 -59 12 -16 22 -52 26 -89 9
-85 -4 -104 -84 -122 -79 -17 -106 -10 -138 39 -24 37 -26 45 -18 93 5 28 9
114 9 191 1 132 2 139 24 157 27 22 59 24 131 7z m-8445 -216 c198 -3 389 -5
425 -3 36 2 97 3 135 2 39 0 108 0 155 0 47 1 119 0 160 -1 41 0 253 -2 470
-4 217 -1 410 -6 428 -10 22 -5 48 -2 83 9 39 13 59 15 92 7 23 -5 116 -9 207
-8 140 2 210 -4 229 -20 19 -16 31 -190 32 -454 0 -162 0 -301 0 -308 -1 -6
-19 -30 -41 -51 -41 -39 -41 -39 -9 -61 28 -21 39 -22 107 -16 42 3 1261 6
2709 6 1814 0 2648 3 2680 10 61 14 84 8 106 -31 23 -41 22 -59 -5 -59 -13 0
-43 -12 -68 -27 -59 -34 -136 -46 -187 -27 -52 18 -5030 21 -5083 2 -28 -9
-49 -7 -129 12 -105 26 -121 34 -121 59 0 23 -19 41 -36 34 -10 -4 -14 -26
-14 -83 0 -50 -4 -82 -12 -86 -6 -4 -51 -11 -100 -15 -89 -7 -90 -7 -146 -57
-32 -27 -73 -53 -92 -57 -19 -4 -46 -20 -60 -35 -17 -18 -42 -31 -66 -35 -21
-3 -72 -13 -113 -21 -60 -12 -246 -14 -1065 -14 -627 0 -1007 -4 -1035 -11
-49 -11 -89 5 -123 51 -17 24 -18 28 -3 63 13 31 15 103 15 478 0 432 0 442
-21 479 -22 38 -22 38 -2 67 33 46 38 88 14 127 -29 46 -26 63 12 87 24 15 41
19 72 14 22 -3 202 -9 400 -13z m14973 -2 c103 1 214 2 247 2 399 -3 850 -3
1430 1 405 2 708 0 718 -6 12 -6 32 -3 58 7 51 21 103 20 124 -1 14 -14 16
-28 11 -78 -4 -42 -1 -77 9 -112 12 -39 13 -58 4 -79 -7 -20 -10 -193 -8 -538
2 -509 2 -509 -26 -534 -21 -17 -33 -21 -49 -15 -35 13 -1934 16 -1982 2 -34
-9 -46 -8 -65 4 -14 9 -62 18 -114 22 -122 9 -161 20 -186 54 -15 21 -35 31
-77 41 -47 10 -64 20 -100 59 -42 46 -42 46 -134 51 -82 5 -93 7 -110 30 -27
36 -44 130 -32 177 9 39 -8 135 -33 177 -8 15 -8 25 1 40 8 15 10 74 6 206 -5
185 -5 185 -37 200 -47 22 -44 53 7 82 46 27 60 52 61 116 1 26 4 58 8 72 7
27 48 43 69 27 8 -7 85 -9 200 -7z m-6333 -492 c30 -13 32 -24 6 -38 -13 -7
-28 -7 -45 0 -30 11 -34 36 -8 43 9 3 18 5 19 6 1 0 14 -4 28 -11z m-121 -18
c8 -8 -31 -68 -46 -69 -15 -2 -48 39 -48 58 0 29 67 37 94 11z m125 -73 c13
-16 5 -27 -21 -27 -18 0 -25 20 -11 33 10 10 19 8 32 -6z m5969 -135 c4 -30
-26 -42 -44 -17 -10 14 -11 22 -2 32 16 20 42 12 46 -15z m-2718 -192 c2601 0
2697 -1 2716 -31 13 -21 -8 -60 -47 -86 -38 -25 -43 -26 -90 -15 -83 19 -5075
16 -5109 -3 -35 -20 -84 -18 -128 4 -21 11 -56 22 -77 26 -77 12 -85 15 -85
33 0 24 50 71 86 81 16 4 45 4 64 -1 19 -4 1221 -8 2670 -8z m-3850 -88 c0
-28 -11 -34 -32 -15 -25 22 -23 33 7 33 18 0 25 -5 25 -18z"/>
<path d="M2512 9072 c-94 -4 -94 -3 -90 -272 3 -196 5 -223 20 -234 15 -11
350 -16 546 -7 58 2 70 47 66 254 -5 218 -8 235 -42 249 -26 10 -358 17 -500
10z m139 -191 c34 -41 34 -64 0 -143 -20 -48 -60 -73 -82 -51 -22 22 -41 136
-29 175 22 75 59 82 111 19z m266 -9 c26 -32 29 -60 9 -99 -8 -15 -17 -36 -20
-45 -10 -33 -57 -34 -81 -3 -17 20 -28 25 -44 20 -26 -8 -81 42 -81 74 0 23
52 61 85 61 11 0 29 7 40 16 26 20 64 10 92 -24z"/>
<path d="M993 7993 c-15 -21 -36 -44 -46 -51 -9 -7 -24 -26 -32 -41 -13 -26
-12 -32 7 -67 17 -33 19 -43 9 -71 -10 -26 -9 -41 3 -78 28 -80 12 -348 -22
-387 -13 -15 -11 -26 18 -95 18 -43 39 -86 47 -95 19 -22 72 -33 86 -19 14 14
296 15 333 1 38 -15 82 -3 102 28 15 23 16 59 13 357 -2 221 1 345 8 372 14
52 -6 110 -51 148 -35 29 -48 30 -108 8 -71 -25 -243 -22 -280 6 -40 29 -55
27 -87 -16z m186 -154 c34 -56 36 -117 6 -202 -25 -73 -25 -77 -10 -114 23
-52 28 -249 9 -280 -18 -28 -49 -29 -92 -3 -41 25 -48 43 -28 72 11 15 16 44
16 89 0 62 3 71 35 113 39 52 41 58 20 76 -21 18 -95 130 -95 144 0 19 59 104
83 121 30 21 35 19 56 -16z m212 -15 c30 -67 29 -118 -5 -193 -28 -64 -28 -64
-8 -115 26 -66 36 -228 15 -268 -29 -58 -135 -13 -117 50 4 15 8 61 8 102 1
64 6 81 29 116 27 40 27 40 -5 100 -44 80 -46 164 -4 218 38 50 62 47 87 -10z"/>
<path d="M21029 10496 c-15 -33 10 -76 45 -76 19 0 27 8 36 36 14 41 8 49 -37
59 -29 6 -34 3 -44 -19z"/>
<path d="M20993 10374 c-3 -10 0 -22 8 -28 12 -9 14 -67 11 -356 -2 -265 0
-355 10 -389 13 -43 38 -68 38 -38 0 8 12 31 26 52 25 38 25 38 27 373 1 320
0 335 -19 349 -10 8 -27 12 -37 9 -12 -3 -21 3 -27 20 -11 28 -28 31 -37 8z"/>
<path d="M20698 10167 c-33 -27 -36 -52 -8 -67 30 -16 27 -81 -5 -116 -23 -24
-25 -33 -19 -83 3 -31 6 -66 5 -77 0 -12 6 -27 14 -34 20 -16 19 -37 -2 -48
-10 -6 -18 -25 -20 -51 -3 -36 2 -46 32 -79 35 -37 35 -37 54 -12 25 32 32 69
18 95 -13 25 -18 106 -6 121 5 6 5 49 1 97 -4 47 -4 94 -1 104 14 34 10 128
-7 151 -19 27 -22 27 -56 -1z"/>
<path d="M21738 9983 c-6 -16 -17 -43 -25 -62 -11 -23 -12 -40 -6 -55 5 -11 8
-51 5 -88 -5 -75 28 -198 54 -198 30 0 49 49 36 96 -16 60 -15 113 3 148 23
44 19 105 -10 149 -31 44 -42 46 -57 10z"/>
<path d="M20312 9858 c-7 -7 -12 -19 -12 -27 0 -7 -12 -38 -26 -67 -19 -40
-25 -62 -20 -86 3 -18 9 -53 13 -78 5 -41 16 -59 34 -60 4 0 30 22 59 49 52
49 53 50 43 89 -8 30 -7 48 4 73 8 19 11 44 8 57 -12 50 -73 80 -103 50z"/>
<path d="M22065 9660 c-10 -11 -16 -23 -12 -26 10 -10 47 7 47 21 0 23 -16 26
-35 5z"/>
<path d="M20889 9059 c-14 -14 -16 -33 -12 -125 3 -60 4 -131 2 -159 -8 -122
-4 -163 17 -191 20 -28 20 -28 272 -29 252 -1 252 -1 262 34 5 20 10 40 10 44
0 5 8 19 19 32 16 21 17 32 9 82 -6 38 -5 73 2 101 9 38 8 48 -10 76 -11 19
-20 51 -20 73 0 78 5 77 -281 77 -223 1 -256 -1 -270 -15z m201 -151 c33 -58
35 -80 17 -149 -36 -138 -122 -85 -120 73 1 38 45 128 63 128 5 0 23 -24 40
-52z m250 -82 c0 -30 -40 -116 -64 -135 -35 -29 -59 -10 -78 64 -20 76 -18 89
18 152 24 42 24 42 74 -6 35 -34 50 -56 50 -75z"/>
<path d="M22467 8004 c-5 -5 -34 -23 -65 -40 -57 -30 -57 -30 -53 -190 6 -257
6 -282 -2 -434 -7 -133 -6 -148 11 -180 28 -51 95 -74 182 -64 36 4 112 6 170
4 221 -6 210 -8 234 21 23 27 23 27 18 357 -4 293 -3 335 12 372 16 40 16 43
-4 74 -11 18 -38 46 -60 61 -37 26 -44 27 -98 19 -72 -11 -233 -11 -292 0 -25
4 -49 4 -53 0z m353 -143 c27 -52 37 -135 23 -186 -8 -28 -19 -54 -24 -59 -13
-14 -11 -69 5 -107 7 -19 16 -83 19 -142 5 -102 4 -110 -18 -135 -23 -26 -23
-27 -58 -10 -36 17 -36 17 -33 143 2 111 5 128 24 148 30 32 37 70 17 87 -10
8 -28 39 -42 70 -24 55 -24 55 -6 109 18 53 52 101 72 101 6 0 15 -9 21 -19z
m-207 -18 c32 -37 51 -103 39 -137 -7 -18 -12 -39 -12 -47 0 -8 -11 -27 -24
-43 -23 -30 -23 -30 -95 41 -49 49 -69 76 -65 87 7 17 120 116 133 116 4 0 15
-8 24 -17z m4 -330 c24 -36 35 -216 16 -255 -22 -45 -58 -46 -115 -4 -30 21
-36 44 -16 64 6 6 13 41 14 77 2 64 6 75 48 123 25 28 32 28 53 -5z"/>
<path d="M2067 9973 c-14 -14 -6 -41 17 -56 23 -15 24 -20 25 -149 0 -73 -3
-139 -8 -147 -9 -13 7 -71 20 -71 29 0 39 128 30 373 -2 36 -62 72 -84 50z"/>
<path d="M5217 8953 c-4 -3 -7 -21 -7 -39 0 -37 25 -58 63 -52 26 4 37 59 16
84 -12 14 -60 19 -72 7z"/>
<path d="M5314 8785 c-7 -48 5 -75 34 -75 9 0 26 -10 39 -22 23 -21 23 -21 23
60 0 82 0 82 -44 82 -45 0 -45 0 -52 -45z"/>
<path d="M5136 8775 c-25 -47 -35 -95 -17 -95 13 0 61 74 61 96 -1 46 -17 46
-44 -1z"/>
<path d="M5461 8621 c-17 -11 -7 -41 13 -41 28 0 46 12 46 31 0 21 -33 26 -59
10z"/>
<path d="M5540 8255 c-13 -15 1 -68 20 -80 12 -8 53 63 46 80 -7 19 -50 19
-66 0z"/>
<path d="M3467 8224 c-14 -14 -6 -24 19 -24 16 0 24 5 22 13 -5 14 -31 21 -41
11z"/>
<path d="M4195 8210 c-4 -6 8 -10 29 -10 20 0 36 5 36 10 0 6 -13 10 -29 10
-17 0 -33 -4 -36 -10z"/>
<path d="M18653 8943 c-30 -11 -3 -83 30 -83 22 0 57 31 57 50 0 30 -49 49
-87 33z"/>
<path d="M18546 8832 c-29 -47 -5 -128 31 -106 24 15 39 80 23 99 -13 16 -46
20 -54 7z"/>
<path d="M18654 8625 c-8 -19 3 -35 25 -35 25 0 32 10 20 31 -12 23 -37 25
-45 4z"/>
<path d="M18420 8606 c0 -18 39 -31 52 -18 15 15 0 32 -28 32 -14 0 -24 -6
-24 -14z"/>
<path d="M18230 8285 c-9 -28 -9 -43 0 -66 15 -35 13 -35 47 -3 28 26 28 26 7
62 -29 48 -40 50 -54 7z"/>
<path d="M18556 8225 c-6 -17 17 -31 34 -20 5 3 10 13 10 21 0 19 -36 18 -44
-1z"/>
<path d="M20195 8211 c-18 -7 -17 -8 7 -14 33 -9 66 2 46 14 -16 10 -26 10
-53 0z"/>
<path d="M3843 7823 c-27 -10 -11 -23 30 -23 39 1 41 2 23 15 -20 15 -32 17
-53 8z"/>
<path d="M5464 7808 c-8 -12 26 -23 71 -22 53 1 95 12 95 24 0 12 -159 10
-166 -2z"/>
<path d="M5410 7612 c-60 -4 -77 -11 -83 -32 -4 -15 -13 -20 -40 -20 -62 0
-72 -22 -74 -178 -1 -75 2 -143 7 -153 14 -24 243 -36 318 -15 87 24 84 15 82
245 0 33 -35 69 -87 92 -23 10 -46 26 -52 37 -13 24 -26 28 -71 24z m1 -202
c30 -16 25 -58 -8 -71 -37 -14 -73 3 -73 34 0 42 38 60 81 37z"/>
<path d="M4082 7550 c-29 -54 -29 -60 -28 -183 3 -167 -4 -161 168 -161 177
-1 210 19 185 112 -8 31 -8 53 1 89 17 64 3 102 -51 146 -64 52 -79 57 -166
55 -80 -2 -80 -2 -109 -58z m188 -139 c26 -49 -9 -104 -54 -83 -33 15 -42 47
-22 77 20 30 61 33 76 6z"/>
<path d="M18246 7863 c-15 -15 -5 -53 13 -53 10 0 33 -3 51 -6 27 -6 32 -4 29
11 -4 18 -82 58 -93 48z"/>
<path d="M18556 7853 c-14 -14 -4 -33 24 -48 32 -16 50 -19 50 -7 0 11 -67 62
-74 55z"/>
<path d="M18820 7825 c-15 -18 -5 -35 20 -35 23 0 32 13 24 34 -8 20 -28 21
-44 1z"/>
<path d="M18530 7613 c-8 -3 -22 -15 -31 -26 -17 -20 -17 -20 -28 1 -14 26
-53 29 -72 6 -7 -8 -26 -22 -42 -30 -44 -24 -55 -63 -53 -203 2 -132 9 -151
60 -151 12 0 66 -2 121 -5 149 -6 183 21 156 125 -11 43 -11 54 3 81 22 44 21
48 -20 126 -44 83 -54 91 -94 76z m-20 -203 c26 -26 25 -45 -2 -64 -59 -42
-113 4 -72 62 19 27 48 28 74 2z"/>
<path d="M19556 7579 c-8 -19 -25 -46 -38 -62 -16 -20 -21 -38 -20 -70 1 -23
4 -76 5 -117 2 -41 4 -81 5 -87 4 -27 60 -43 146 -43 164 0 234 34 208 102 -6
18 -8 63 -5 118 6 96 -2 120 -39 120 -11 0 -33 14 -50 30 -27 27 -38 31 -113
36 -84 7 -84 7 -99 -27z m168 -165 c22 -8 22 -72 0 -81 -22 -8 -65 8 -78 30
-19 31 36 67 78 51z"/>
<path d="M15265 13942 c-52 -11 -71 -72 -44 -139 7 -15 11 -56 10 -90 -2 -54
0 -63 19 -73 49 -26 67 20 30 75 -28 42 -26 49 20 70 40 18 134 17 252 -1 44
-8 82 25 92 80 9 46 0 63 -37 75 -31 10 -301 12 -342 3z"/>
<path d="M8653 13694 c-3 -8 2 -23 11 -32 16 -16 18 -16 31 1 7 11 11 25 8 33
-7 19 -42 18 -50 -2z"/>
<path d="M15551 13684 c-8 -19 -9 -30 -1 -38 16 -16 45 6 45 35 0 34 -29 36
-44 3z"/>
<path d="M9007 13223 c-4 -3 -7 -18 -7 -33 0 -14 -5 -31 -10 -36 -7 -7 -11
-240 -11 -695 0 -376 -4 -821 -8 -988 -8 -263 -7 -308 6 -327 8 -13 12 -32 8
-44 -9 -28 3 -60 23 -60 10 0 34 9 54 19 19 11 38 17 42 14 10 -10 36 19 36
41 0 28 -18 46 -47 46 -20 0 -23 5 -23 39 0 49 8 71 26 71 10 0 14 15 14 55 0
41 -4 55 -14 55 -8 0 -18 9 -21 21 -9 29 2 69 20 69 13 0 15 99 15 794 0 794
0 794 -21 799 -29 8 -19 31 15 35 23 3 27 8 24 30 -2 22 -8 27 -30 27 -37 1
-44 11 -19 25 28 14 26 24 -4 38 -29 13 -58 15 -68 5z"/>
<path d="M10093 13223 c-7 -2 -13 -13 -13 -24 0 -25 40 -29 68 -7 26 22 -18
47 -55 31z"/>
<path d="M13072 13223 c-29 -6 -38 -28 -21 -49 11 -14 9 -19 -11 -35 -21 -16
-23 -20 -10 -29 8 -5 25 -10 36 -10 12 0 27 -7 34 -15 7 -8 19 -15 26 -15 12
0 14 -147 14 -934 0 -514 3 -941 6 -950 6 -16 -60 -51 -82 -42 -16 6 -54 -22
-54 -40 0 -16 38 -34 58 -26 7 2 21 -3 32 -13 14 -12 23 -14 37 -6 30 15 46
38 33 46 -15 10 -12 35 8 53 16 16 17 42 11 382 -4 201 -7 621 -8 934 -1 518
-3 571 -18 588 -13 14 -14 21 -5 30 17 17 15 38 -4 60 -14 15 -15 20 -4 33 22
26 -24 49 -78 38z"/>
<path d="M15999 13224 c-5 -28 -9 -84 -8 -114 1 -19 3 -487 5 -1040 3 -1005 3
-1005 50 -1008 80 -5 98 3 88 41 -10 42 -21 1979 -11 1992 24 31 4 50 -63 57
-14 2 -25 9 -25 18 0 9 10 15 25 16 60 2 71 19 18 27 -18 3 -43 8 -55 12 -13
4 -24 3 -24 -1z"/>
<path d="M6794 13209 c-11 -18 17 -28 48 -17 22 8 26 13 16 19 -19 12 -56 11
-64 -2z"/>
<path d="M7156 13211 c-10 -15 31 -33 67 -29 20 2 32 8 32 18 0 18 -89 27 -99
11z"/>
<path d="M7547 13214 c-4 -4 -4 -17 -1 -29 3 -13 -1 -27 -10 -34 -20 -17 -20
-35 -1 -51 10 -9 13 -19 8 -29 -8 -16 -21 -913 -23 -1551 -1 -304 -3 -357 -16
-371 -45 -50 15 -112 87 -90 54 16 62 37 56 140 -3 47 -6 175 -6 283 0 123 -4
205 -11 218 -16 30 -14 1388 2 1408 10 12 7 19 -16 37 -17 14 -27 29 -23 38 9
24 -28 49 -46 31z"/>
<path d="M9408 13212 c-11 -2 -18 -13 -18 -26 0 -13 -9 -31 -20 -41 -25 -22
-19 -32 27 -44 30 -9 42 -7 62 6 25 16 25 16 -3 38 -24 19 -25 23 -12 35 9 7
16 16 16 20 0 10 -30 17 -52 12z"/>
<path d="M11277 13211 c-17 -6 -17 -8 -3 -20 20 -17 50 -10 54 12 4 18 -18 22
-51 8z"/>
<path d="M13435 13210 c-8 -12 8 -19 55 -22 26 -2 35 1 35 12 0 18 -79 27 -90
10z"/>
<path d="M14561 13211 c-21 -6 -22 -8 -7 -20 19 -16 69 -6 63 12 -5 15 -24 18
-56 8z"/>
<path d="M16404 13212 c-6 -4 -14 -28 -18 -54 -8 -55 12 -74 65 -63 35 8 47
30 31 56 -7 10 -9 26 -5 35 10 27 -43 46 -73 26z"/>
<path d="M17110 13210 c-13 -9 -13 -11 0 -20 21 -14 46 -12 59 3 20 25 -26 38
-59 17z"/>
<path d="M11273 13149 c-41 -12 -49 -25 -23 -39 24 -13 26 -36 5 -47 -12 -7
-15 -106 -20 -708 -3 -385 -6 -767 -7 -850 -2 -162 9 -340 23 -367 5 -9 6 -23
4 -31 -3 -7 3 -24 13 -37 17 -21 21 -22 46 -9 27 14 27 14 27 1048 0 827 -3
1036 -13 1043 -15 9 -13 9 -55 -3z"/>
<path d="M13453 13147 c-31 -12 -31 -12 -36 -1040 -5 -1148 -10 -1062 66
-1051 73 10 71 6 63 97 -4 45 -7 91 -7 102 0 11 0 417 0 902 0 619 3 894 11
923 19 69 -20 95 -97 67z"/>
<path d="M14567 13142 c-10 -10 -17 -24 -17 -31 0 -6 -9 -24 -20 -39 -19 -27
-20 -43 -18 -917 0 -489 0 -912 -1 -939 0 -27 4 -55 10 -62 6 -7 7 -27 4 -46
-8 -45 12 -63 59 -54 45 9 61 28 46 55 -6 12 -11 38 -12 58 -1 21 -7 47 -14
59 -11 17 -11 23 0 40 14 20 29 120 25 169 -3 37 -2 1631 1 1663 2 21 -24 62
-40 62 -4 0 -14 -8 -23 -18z"/>
<path d="M6781 13136 c-10 -12 -11 -19 -2 -30 9 -11 12 -239 12 -908 0 -491 1
-904 1 -918 0 -14 -1 -63 -3 -109 -3 -77 -2 -85 20 -102 30 -25 32 -25 79 14
49 39 51 54 12 89 -27 23 -29 29 -19 51 8 17 8 31 1 43 -7 13 -5 27 8 53 17
33 18 52 10 241 -5 113 -9 496 -9 852 -1 420 -5 649 -11 653 -17 10 -11 33 10
40 30 9 24 22 -12 28 -18 3 -45 9 -59 12 -17 5 -29 2 -38 -9z"/>
<path d="M7168 13138 c-24 -8 -27 -14 -21 -36 3 -15 15 -33 25 -42 18 -14 18
-50 16 -960 -3 -944 -3 -944 -26 -950 -29 -6 -26 -17 16 -54 32 -28 32 -28 68
-1 32 25 34 29 21 48 -11 18 -14 187 -15 1006 -2 541 -5 987 -8 992 -7 11 -41
10 -76 -3z"/>
<path d="M10084 13135 c-9 -24 5 -35 46 -35 45 0 61 17 35 37 -25 17 -74 17
-81 -2z"/>
<path d="M13808 13140 c-16 -10 -16 -13 2 -53 23 -49 26 -359 13 -1396 -6
-530 -7 -565 -25 -580 -26 -22 -22 -37 13 -51 45 -19 83 3 75 44 -4 19 -1 35
10 47 14 15 15 51 9 311 -12 576 -20 1633 -12 1650 13 30 -47 50 -85 28z"/>
<path d="M17123 13143 c-7 -2 -13 -18 -13 -34 0 -17 -4 -38 -9 -47 -7 -13 -17
-1748 -11 -1842 1 -8 -3 -41 -8 -72 -8 -53 -7 -59 14 -79 23 -22 63 -21 91 3
12 10 10 139 -3 181 -11 35 -11 101 -1 122 15 27 18 1745 4 1763 -9 12 -41 15
-64 5z"/>
<path d="M14911 13131 c-11 -7 -11 -15 -2 -43 8 -24 10 -282 6 -933 -5 -991
-5 -989 -22 -1006 -19 -19 -16 -64 7 -84 15 -13 30 -16 61 -12 71 9 72 13 54
183 -13 120 -16 292 -17 879 -2 949 -2 937 -12 958 -5 11 -4 23 5 33 10 13 10
17 -2 25 -18 11 -60 11 -78 0z"/>
<path d="M10084 13059 c-2 -4 -4 -446 -4 -981 0 -973 0 -973 24 -996 23 -24
23 -24 62 -5 42 20 55 48 29 66 -14 11 -16 96 -15 959 0 704 -3 948 -11 954
-17 10 -79 12 -85 3z"/>
<path d="M9387 13054 c-4 -4 -7 -430 -7 -947 0 -872 -1 -941 -17 -968 -22 -37
-12 -56 40 -76 50 -20 83 3 71 52 -3 16 -9 99 -11 184 -3 120 -7 157 -19 165
-12 9 -14 125 -17 801 -2 704 -4 790 -17 793 -9 1 -19 0 -23 -4z"/>
<path d="M16420 12912 c0 -114 -3 -152 -15 -169 -19 -28 -24 -1655 -4 -1679
17 -21 35 -17 57 11 21 27 29 202 25 530 -11 832 -22 1436 -28 1444 -3 6 -13
11 -21 11 -11 0 -14 -26 -14 -148z"/>
<path d="M12378 13005 c-14 -12 -30 -31 -36 -41 -6 -12 -10 -347 -11 -914 -2
-784 -4 -897 -17 -912 -17 -18 -10 -41 24 -71 21 -19 94 -15 110 7 5 6 5 225
0 486 -4 261 -8 657 -9 880 -1 360 -4 531 -8 566 -2 22 -27 22 -53 -1z"/>
<path d="M6507 12900 c-3 -22 -15 -59 -27 -83 -21 -39 -23 -54 -21 -207 1 -93
-3 -171 -8 -180 -16 -24 -21 3 -23 150 -2 84 -7 134 -13 133 -16 -4 -24 -140
-12 -222 16 -115 13 -1312 -4 -1364 -15 -46 -5 -69 32 -73 13 -2 38 -6 55 -9
20 -5 34 -2 41 7 12 14 27 1746 16 1841 -7 58 -28 62 -36 7z"/>
<path d="M11655 12910 c-3 -6 -10 -8 -15 -5 -21 13 -60 -7 -60 -32 0 -13 -4
-33 -10 -43 -6 -11 -10 -340 -10 -875 -1 -858 -1 -858 21 -881 27 -29 103 -34
113 -8 8 21 5 1688 -3 1778 -6 65 -20 92 -36 66z"/>
<path d="M15255 12877 c-10 -16 -15 -44 -13 -83 0 -32 1 -340 1 -684 -1 -988
0 -1026 22 -1050 24 -26 46 -25 73 3 22 23 22 25 6 62 -24 59 -33 325 -34
1003 0 577 1 595 20 619 15 19 17 30 10 43 -6 10 -10 31 -10 45 0 62 -45 87
-75 42z"/>
<path d="M8657 12872 c-15 -16 -17 -94 -19 -902 -2 -487 1 -891 5 -897 11 -18
88 -16 115 3 29 20 28 35 -4 65 -19 18 -24 30 -20 51 3 15 6 390 6 832 1 857
1 857 -46 864 -11 2 -28 -5 -37 -16z"/>
<path d="M15696 12875 c-11 -8 -28 -15 -38 -15 -11 0 -26 -16 -39 -42 -20 -39
-20 -43 -5 -69 24 -40 25 -1609 1 -1629 -25 -21 -17 -37 29 -59 44 -22 44 -22
81 0 30 18 35 25 28 43 -10 26 -8 1660 2 1734 7 50 6 52 -17 52 -12 0 -32 -7
-42 -15z"/>
<path d="M8245 12871 c-3 -6 -6 -414 -6 -908 0 -898 0 -898 42 -901 74 -6 120
63 59 88 -31 13 -31 13 -29 817 1 804 1 804 40 820 60 24 50 56 -26 78 -56 17
-72 18 -80 6z"/>
<path d="M11958 12854 c-35 -19 -35 -38 -1 -70 28 -25 28 -25 5 -42 -22 -17
-22 -17 -22 -835 -1 -615 2 -822 11 -833 17 -20 33 -17 68 12 31 26 39 52 21
70 -6 6 -10 312 -10 818 -1 726 0 810 14 818 22 12 20 19 -9 51 -29 31 -39 32
-77 11z"/>
<path d="M17503 12718 c-4 -7 -9 -359 -11 -783 -3 -668 -5 -772 -18 -787 -9
-9 -14 -29 -12 -44 3 -24 11 -31 56 -47 53 -19 53 -19 79 9 22 24 25 36 25 98
-7 718 -13 941 -27 949 -21 11 -19 76 2 99 9 11 17 34 17 53 0 19 -8 42 -17
53 -25 28 -21 71 9 99 21 19 24 26 14 38 -18 21 -27 19 -43 -11 -11 -22 -15
-23 -26 -11 -14 17 -6 61 14 77 16 13 11 72 -12 145 -9 28 -17 56 -19 63 -2 6
-8 12 -13 12 -5 0 -13 -6 -18 -12z"/>
<path d="M6097 12342 c-23 -14 -27 -23 -27 -64 0 -26 5 -59 11 -75 7 -19 10
-193 10 -538 -1 -443 -3 -510 -16 -518 -34 -19 -10 -97 30 -97 49 0 50 5 52
595 0 303 4 573 7 602 10 85 -18 125 -67 95z"/>
<path d="M17803 12255 c-3 -9 4 -44 16 -78 20 -60 21 -83 22 -535 1 -423 0
-475 -15 -491 -35 -38 0 -111 54 -111 40 0 40 10 39 535 -1 361 2 510 10 518
16 16 14 36 -9 64 -11 14 -20 40 -20 57 0 18 -5 37 -12 44 -18 18 -77 15 -85
-3z"/>
<path d="M2580 11456 c-65 -16 -68 -54 -8 -124 48 -57 97 -70 117 -33 23 43
111 53 145 16 45 -48 48 -129 7 -179 -24 -28 0 -40 44 -22 36 15 37 18 32 56
-3 27 -1 43 9 51 11 9 13 24 9 53 -4 30 -1 51 14 81 25 46 26 64 7 90 -13 18
-29 20 -173 21 -88 1 -178 -4 -203 -10z"/>
<path d="M2639 11138 c0 -7 -2 -26 -2 -42 -2 -21 -10 -33 -36 -47 -19 -10 -41
-25 -49 -33 -20 -20 -20 -83 1 -103 17 -17 19 -17 117 18 19 6 47 16 61 21 25
9 27 14 25 57 -3 70 -47 141 -86 141 -17 0 -30 -6 -31 -12z"/>
<path d="M2817 11029 c-41 -80 -15 -110 87 -101 58 5 58 5 52 55 -6 59 -26 82
-77 91 -34 6 -36 5 -62 -45z"/>
<path d="M10467 10930 c-32 -16 -69 -30 -83 -32 -40 -5 -28 -22 19 -29 24 -4
58 -14 75 -23 52 -27 123 -21 155 12 27 28 27 28 5 49 -69 61 -88 64 -171 23z"/>
<path d="M10804 10924 c-27 -35 -27 -35 4 -66 31 -31 31 -31 104 -18 40 7 90
19 112 26 33 12 48 12 110 -2 124 -28 187 -29 235 -5 23 12 51 19 61 16 10 -3
21 -1 25 5 4 6 -4 10 -20 10 -14 0 -43 11 -63 25 -43 29 -129 34 -184 11 -80
-34 -131 -38 -189 -17 -30 12 -66 21 -80 21 -14 0 -34 7 -45 15 -29 22 -40 18
-70 -21z"/>
<path d="M12655 10930 c-27 -16 -60 -30 -72 -30 -12 0 -25 -4 -28 -10 -3 -6 4
-10 18 -10 13 0 45 -11 71 -25 54 -29 82 -31 107 -9 14 13 21 13 37 3 18 -11
24 -10 41 5 35 31 25 49 -42 79 -76 33 -71 33 -132 -3z"/>
<path d="M6064 10928 c-15 -13 -48 -25 -73 -28 -32 -3 -46 -10 -46 -20 0 -12
11 -14 52 -12 42 3 58 -1 79 -17 30 -24 85 -21 115 6 9 7 24 11 33 7 9 -3 23
-1 31 6 22 18 0 42 -31 34 -16 -4 -33 2 -57 20 -42 32 -66 33 -103 4z"/>
<path d="M6385 10936 c-9 -6 -18 -27 -21 -47 -8 -45 -2 -47 108 -51 68 -3 80
0 99 19 43 43 -7 84 -106 88 -36 1 -72 -3 -80 -9z"/>
<path d="M7520 10934 c-51 -36 -52 -55 -5 -84 40 -25 60 -24 164 6 71 21 88
40 44 50 -15 3 -46 12 -68 19 -77 25 -108 27 -135 9z"/>
<path d="M7889 10931 c-31 -9 -67 -23 -80 -33 -24 -16 -24 -16 13 -32 21 -9
45 -16 54 -16 9 0 34 -5 54 -11 84 -25 129 25 74 82 -31 33 -37 33 -115 10z"/>
<path d="M8625 10930 c-10 -11 -28 -20 -39 -20 -58 -1 -57 -34 1 -45 21 -3 49
-13 62 -22 20 -13 33 -14 75 -4 28 6 60 12 71 13 24 4 33 49 13 65 -15 11
-109 33 -142 33 -13 0 -31 -9 -41 -20z"/>
<path d="M8999 10942 c-17 -5 -69 -53 -69 -63 0 -4 20 -17 45 -29 51 -25 127
-21 178 8 32 19 32 38 -3 63 -24 17 -120 30 -151 21z"/>
<path d="M9744 10938 c-33 -6 -60 -18 -74 -33 -22 -24 -22 -24 9 -43 18 -11
59 -23 93 -26 55 -7 63 -5 99 20 38 26 39 28 22 47 -21 23 -67 47 -85 46 -7
-1 -36 -6 -64 -11z"/>
<path d="M13075 10938 c-67 -17 -93 -29 -100 -46 -14 -37 38 -53 173 -52 30 0
112 33 112 46 0 7 -123 64 -135 63 -5 -1 -28 -6 -50 -11z"/>
<path d="M13455 10943 c-75 -16 -98 -46 -70 -89 14 -22 22 -24 78 -23 57 2
127 29 127 51 0 11 -61 58 -75 58 -7 0 -19 2 -27 4 -7 2 -22 2 -33 -1z"/>
<path d="M14508 10927 c-56 -24 -62 -49 -19 -67 16 -6 32 -19 35 -27 7 -17 61
-11 131 14 76 28 153 33 204 16 25 -9 77 -18 114 -19 64 -2 69 -1 79 22 10 21
8 28 -13 50 -22 24 -28 26 -86 20 -34 -3 -76 -12 -92 -21 -38 -19 -139 -20
-160 -1 -15 13 -108 37 -134 35 -7 -1 -33 -10 -59 -22z"/>
<path d="M15242 10927 c-24 -26 -27 -48 -12 -78 13 -24 91 -27 110 -4 7 8 24
15 39 15 76 1 67 46 -14 71 -78 24 -97 24 -123 -4z"/>
<path d="M15635 10938 c-142 -49 -127 -70 71 -105 18 -3 35 0 38 6 4 6 20 11
35 11 15 0 36 9 46 20 17 19 17 20 -11 31 -130 50 -138 51 -179 37z"/>
<path d="M15980 10921 c-56 -53 -37 -77 70 -86 68 -6 78 -5 103 15 57 45 16
92 -84 97 -54 3 -62 0 -89 -26z"/>
<path d="M17448 10920 c-33 -30 -33 -30 0 -60 39 -36 70 -38 162 -7 63 21 77
35 49 47 -8 4 -33 16 -56 28 -61 32 -115 29 -155 -8z"/>
<path d="M6785 10924 c-16 -9 -41 -19 -55 -23 -62 -18 16 -60 112 -61 51 0
148 31 148 48 0 40 -148 66 -205 36z"/>
<path d="M7160 10931 c-55 -9 -102 -31 -97 -45 2 -5 23 -21 48 -34 55 -30 141
-26 189 8 37 26 37 31 3 52 -36 21 -87 28 -143 19z"/>
<path d="M8224 10915 c-18 -28 -8 -70 20 -81 23 -9 205 23 240 43 18 10 18 11
-3 23 -23 12 -175 40 -218 40 -13 0 -30 -11 -39 -25z"/>
<path d="M9375 10933 c-11 -3 -24 -9 -29 -14 -6 -5 -28 -9 -50 -9 -49 0 -71
-12 -63 -34 5 -12 14 -15 31 -10 14 3 37 -1 57 -12 50 -26 156 -25 191 1 35
25 32 34 -22 62 -41 22 -72 26 -115 16z"/>
<path d="M10070 10934 c-20 -9 -50 -35 -50 -45 0 -5 20 -20 44 -34 43 -25 47
-26 108 -14 79 14 131 36 122 50 -18 29 -181 60 -224 43z"/>
<path d="M11536 10914 c-39 -27 -39 -27 -5 -44 19 -9 54 -20 79 -23 25 -3 53
-9 62 -12 24 -10 82 43 67 62 -42 50 -142 58 -203 17z"/>
<path d="M11916 10925 c-21 -8 -42 -12 -48 -9 -5 3 -21 -2 -35 -12 -25 -16
-26 -17 -8 -30 10 -8 30 -14 43 -14 13 0 45 -10 72 -21 50 -21 50 -21 87 1 21
13 53 26 72 29 45 8 54 31 11 31 -17 0 -41 7 -53 14 -34 23 -97 27 -141 11z"/>
<path d="M12302 10917 c-51 -25 -51 -47 -2 -60 19 -5 39 -13 45 -18 18 -17 92
-10 129 14 44 28 44 36 1 65 -45 29 -114 29 -173 -1z"/>
<path d="M13743 10917 c-35 -11 -63 -26 -63 -33 0 -17 32 -26 64 -18 16 4 40
-2 69 -16 43 -22 46 -22 78 -6 58 29 154 32 229 6 132 -45 274 11 178 70 -42
25 -95 25 -178 0 -69 -21 -120 -25 -135 -12 -40 35 -152 39 -242 9z"/>
<path d="M16375 10925 c-22 -8 -53 -14 -70 -13 -43 4 -50 -38 -8 -48 15 -3 53
-12 83 -20 52 -13 58 -13 129 13 81 29 132 26 231 -12 52 -21 97 -16 149 16
34 21 34 21 8 46 -36 37 -113 42 -187 14 -65 -25 -130 -27 -171 -5 -44 23
-117 27 -164 9z"/>
<path d="M17095 10926 c-16 -8 -39 -20 -49 -28 -18 -14 -17 -16 16 -41 42 -33
89 -35 141 -7 27 15 53 20 90 18 44 -3 52 0 55 16 4 17 0 18 -43 13 -38 -6
-55 -2 -93 18 -53 28 -74 30 -117 11z"/>
<path d="M6314 10412 c-54 -16 -75 -45 -76 -109 -1 -96 12 -479 17 -508 3 -17
-2 -57 -11 -90 -21 -82 -12 -139 29 -176 32 -29 61 -37 72 -19 3 5 20 9 38 9
18 -1 61 4 97 10 95 16 306 14 366 -3 88 -26 158 -25 187 3 25 23 25 23 28
350 5 468 5 466 -14 495 -10 14 -27 31 -39 37 -33 18 -634 19 -694 1z m251
-127 c29 -28 30 -36 10 -90 -17 -49 -19 -140 -3 -200 10 -38 9 -52 -6 -96 -18
-50 -18 -50 10 -80 31 -33 45 -35 77 -15 12 8 39 17 59 20 21 4 40 12 44 17
10 18 -17 57 -46 68 -44 15 -49 101 -6 101 63 0 55 138 -12 198 -46 42 -38 58
43 83 83 26 106 24 139 -10 28 -29 28 -30 13 -73 -27 -74 -30 -132 -11 -194
17 -53 17 -58 1 -104 -9 -26 -17 -55 -17 -63 0 -18 59 -57 87 -57 31 0 49 -26
33 -45 -7 -9 -20 -13 -28 -10 -9 3 -39 -7 -69 -21 -53 -27 -53 -27 -161 -10
-102 16 -111 16 -151 0 -71 -28 -211 3 -219 49 -4 19 43 77 62 77 36 1 39 19
8 54 -46 53 -49 77 -17 133 25 41 26 50 16 78 -6 17 -11 41 -11 54 0 12 -7 36
-16 53 -22 43 -11 73 33 91 58 24 109 21 138 -8z"/>
<path d="M7453 10416 c-80 -13 -78 2 -76 -491 1 -165 2 -312 2 -327 1 -67 47
-103 112 -89 159 37 461 40 499 6 11 -10 26 -14 38 -11 11 4 42 8 71 10 99 7
124 51 102 175 -8 47 -9 86 -2 136 5 39 10 151 10 250 -1 99 1 185 2 190 5 16
-12 87 -26 116 -11 20 -25 28 -57 34 -62 11 -613 12 -675 1z m254 -131 c50
-30 52 -37 20 -75 -34 -39 -43 -135 -20 -200 16 -46 16 -49 -5 -105 -12 -31
-22 -59 -22 -61 0 -7 79 -44 94 -44 27 0 126 41 126 52 0 6 -18 30 -40 54 -49
54 -50 67 -4 109 38 35 40 46 21 122 -7 27 -55 93 -68 93 -29 0 0 31 50 54 78
35 122 34 163 -3 32 -29 32 -29 16 -62 -32 -68 -37 -137 -15 -199 21 -57 21
-57 -1 -116 -22 -59 -22 -59 4 -80 14 -12 43 -27 65 -33 73 -22 62 -38 -54
-76 -87 -29 -87 -29 -180 -11 -84 15 -96 16 -142 2 -67 -21 -108 -19 -180 7
-83 30 -86 53 -11 96 31 17 56 33 56 36 0 2 -11 25 -25 51 -30 57 -30 66 -4
124 18 41 19 51 8 110 -6 36 -17 76 -24 90 -16 32 -10 47 29 71 43 26 91 24
143 -6z"/>
<path d="M8841 10419 c-37 -14 -78 -137 -51 -154 8 -5 11 -66 9 -209 -1 -165
1 -209 15 -245 16 -43 15 -45 -10 -102 -23 -51 -26 -67 -20 -121 7 -74 15 -80
86 -74 30 3 109 10 175 16 143 13 322 5 387 -18 44 -15 49 -15 82 3 40 22 72
82 62 117 -33 115 -37 139 -27 175 6 21 11 159 12 306 3 260 2 268 -18 289
-21 20 -31 21 -351 22 -182 1 -340 -1 -351 -5z m287 -135 c9 -13 12 -32 8 -59
-3 -22 -10 -69 -15 -103 -5 -38 -5 -77 0 -95 12 -42 11 -97 -2 -134 -9 -27 -6
-38 17 -82 46 -85 13 -121 -110 -121 -105 0 -148 57 -94 125 20 26 21 31 9 87
-9 46 -9 71 0 112 9 40 9 73 0 136 -15 111 -14 117 10 141 29 29 154 23 177
-7z m297 -7 c9 -23 11 -45 5 -78 -13 -66 -6 -379 8 -406 18 -32 15 -51 -13
-78 -47 -48 -210 -26 -231 30 -4 8 9 32 30 57 23 26 34 48 30 58 -23 55 -26
88 -15 145 9 46 9 80 1 145 -20 146 -12 160 102 160 69 0 69 0 83 -33z"/>
<path d="M10230 10420 c-73 -8 -71 2 -67 -461 3 -368 5 -409 21 -434 12 -19
22 -24 34 -20 41 17 303 36 424 31 122 -6 154 -12 190 -38 14 -10 21 -8 42 12
52 51 63 60 78 60 25 0 41 27 34 56 -6 22 -97 124 -112 124 -2 0 -31 -13 -64
-30 -67 -34 -129 -39 -187 -15 -19 8 -51 15 -70 15 -18 0 -50 -7 -70 -15 -19
-8 -50 -15 -67 -15 -45 0 -156 39 -163 57 -10 26 23 68 53 69 42 2 56 28 38
72 -9 20 -24 44 -35 54 -22 19 -25 38 -5 38 48 0 55 172 9 222 -35 37 -26 57
38 92 51 27 58 29 87 17 45 -19 67 -56 52 -89 -19 -42 -24 -157 -10 -216 11
-47 10 -60 -5 -106 -18 -54 -18 -54 14 -82 35 -31 81 -32 129 -1 34 21 36 36
13 82 -25 48 -26 82 -5 122 20 40 10 159 -17 193 -11 13 -19 29 -19 34 0 22
62 54 114 59 49 5 56 3 87 -25 34 -30 34 -30 16 -80 -25 -69 -27 -157 -4 -203
17 -35 17 -37 -3 -83 -27 -63 -26 -69 15 -105 44 -38 62 -39 114 -4 52 34 64
96 47 238 -5 41 -3 92 8 158 9 54 13 109 10 122 -6 25 -30 40 -39 25 -12 -19
-25 -10 -45 30 -11 22 -24 40 -28 41 -33 4 -617 3 -652 -1z"/>
<path d="M11599 10413 c-30 -21 -37 -98 -33 -352 3 -202 7 -249 20 -269 15
-22 14 -29 -6 -93 -28 -87 -23 -144 15 -176 30 -27 48 -28 101 -9 55 19 290
28 404 15 52 -6 116 -13 141 -16 61 -6 103 26 101 78 -1 19 -3 206 -4 416 -3
346 -5 384 -20 399 -16 16 -50 18 -359 18 -258 1 -346 -2 -360 -11z m563 -108
c56 -9 63 -29 48 -140 -9 -70 -9 -105 0 -148 11 -55 6 -115 -12 -150 -6 -13
-3 -25 11 -44 21 -26 27 -77 13 -100 -13 -20 -61 -33 -127 -33 -57 0 -66 3
-84 26 -25 32 -26 47 -4 81 21 31 29 299 12 395 -8 46 -7 63 5 87 22 41 34 43
138 26z m-260 -22 c22 -19 22 -38 4 -95 -41 -131 -40 -121 -12 -163 42 -62 30
-117 -35 -150 -32 -17 -30 -35 4 -35 42 -1 94 -62 83 -98 -9 -29 -41 -41 -123
-48 -71 -5 -81 -4 -113 18 -46 31 -48 50 -10 98 31 39 31 39 14 95 -13 46 -14
65 -5 100 14 57 14 125 -1 198 -12 59 -12 59 17 84 27 23 34 25 94 19 38 -4
73 -14 83 -23z"/>
<path d="M12968 10408 c-21 -21 -19 15 -18 -473 0 -234 4 -382 11 -403 17 -53
57 -62 101 -24 37 31 458 38 516 8 91 -47 139 14 120 155 -5 41 -9 83 -8 94 0
11 5 130 9 265 9 255 2 358 -26 382 -11 9 -99 12 -351 12 -308 1 -338 -1 -354
-16z m266 -109 c41 -32 48 -52 32 -91 -25 -61 -29 -142 -10 -197 18 -49 18
-50 -5 -106 -26 -62 -24 -69 34 -99 39 -21 88 -13 128 22 22 20 22 32 -5 86
-18 38 -20 49 -10 68 28 55 32 80 22 145 -5 38 -18 78 -29 94 -20 26 -20 26 9
54 45 43 128 48 165 11 20 -20 25 -33 20 -49 -18 -56 -28 -180 -17 -211 16
-44 15 -88 -4 -136 -16 -40 -16 -40 20 -82 43 -50 43 -47 5 -84 -28 -26 -36
-29 -97 -28 -37 0 -91 7 -120 14 -47 11 -60 11 -112 -5 -64 -19 -174 -11 -206
16 -33 28 -1 109 44 109 9 0 23 4 31 9 19 12 -2 41 -30 41 -35 0 -45 74 -20
148 12 34 19 67 16 72 -9 14 -35 118 -35 139 0 24 28 48 76 65 54 20 67 19 98
-5z"/>
<path d="M14379 10407 c-19 -21 -51 -130 -49 -167 0 -14 4 -116 8 -227 7 -189
8 -204 29 -224 27 -27 56 -21 107 24 39 33 39 33 18 90 -20 52 -20 59 -7 98
19 54 19 107 -1 187 -16 64 -16 64 12 93 35 36 94 39 155 8 54 -29 57 -42 21
-83 -53 -60 -53 -155 -1 -207 24 -24 24 -53 0 -76 -38 -37 -54 -72 -41 -88 7
-8 22 -15 34 -15 12 0 38 -11 58 -25 46 -31 40 -32 73 14 25 37 26 43 17 88
-6 27 -8 94 -5 151 4 69 2 121 -7 158 -13 54 -13 55 15 84 34 36 43 36 115 9
71 -26 84 -42 65 -79 -8 -16 -19 -60 -25 -98 -10 -64 -9 -74 9 -111 12 -22 21
-47 21 -56 0 -29 -31 -76 -55 -85 -33 -13 -31 -26 5 -33 40 -8 70 -41 70 -76
0 -38 -12 -45 -95 -64 -69 -16 -70 -16 -117 8 -47 25 -47 25 -125 5 -112 -28
-145 -26 -217 14 -70 39 -89 36 -112 -21 -35 -83 19 -227 77 -205 130 51 531
52 584 2 31 -29 56 -22 77 20 24 48 27 854 4 885 -14 19 -30 20 -357 20 -318
0 -344 -1 -360 -18z"/>
<path d="M15770 10420 c-49 -12 -50 -25 -49 -460 2 -382 3 -407 21 -437 24
-40 59 -43 115 -10 36 21 48 22 253 22 205 0 217 -1 253 -23 63 -37 90 -26
122 51 17 41 12 117 -11 172 -10 25 -10 33 2 46 11 12 15 68 17 269 3 250 -4
335 -30 361 -13 13 -642 21 -693 9z m266 -138 c14 -22 15 -33 5 -74 -14 -62
-14 -161 0 -211 8 -29 7 -50 -6 -93 -17 -60 -14 -73 32 -117 30 -27 30 -27 48
-7 11 12 36 31 57 42 46 26 46 27 8 80 -37 50 -37 65 -4 113 20 30 24 46 19
69 -3 17 -9 51 -12 76 -3 25 -14 54 -24 66 -19 21 -19 21 7 47 64 65 222 35
199 -37 -26 -84 -28 -141 -9 -259 4 -25 1 -53 -11 -83 -17 -46 -17 -46 23 -87
40 -41 40 -43 24 -63 -46 -58 -156 -69 -254 -26 -42 18 -43 18 -84 -5 -23 -13
-55 -24 -71 -25 -49 -2 -137 21 -151 40 -20 26 -6 73 29 103 17 15 26 30 21
33 -6 3 -18 27 -28 52 -17 44 -17 48 1 100 16 47 17 61 6 121 -24 126 -24 128
-5 144 20 16 109 36 141 31 12 -2 30 -16 39 -30z"/>
<path d="M16886 10415 c-21 -10 -21 -17 -22 -355 0 -190 -4 -366 -8 -392 -12
-71 0 -124 35 -149 29 -20 30 -20 97 -3 113 29 423 23 565 -12 69 -17 100 86
60 199 -14 40 -15 54 -5 92 8 30 12 136 12 314 0 247 -2 271 -19 292 -18 23
-18 23 -356 23 -215 1 -346 -3 -359 -9z m571 -121 c27 -17 38 -55 24 -82 -13
-25 -17 -161 -7 -227 6 -36 4 -62 -7 -93 -14 -41 -14 -43 14 -78 35 -44 36
-66 7 -93 -39 -37 -162 -40 -215 -5 -42 27 -15 104 42 118 32 8 32 20 -4 54
-43 40 -48 79 -16 127 24 34 25 41 14 64 -7 14 -16 51 -20 81 -4 30 -10 64
-13 75 -10 30 13 54 69 69 54 14 77 12 112 -10z m-291 -9 c13 -20 15 -35 8
-73 -8 -46 -10 -151 -4 -242 2 -25 0 -63 -5 -86 -6 -32 -3 -47 14 -75 45 -74
10 -119 -93 -119 -110 0 -151 46 -108 121 16 28 21 46 15 62 -4 12 -9 96 -9
187 -1 91 -3 176 -4 190 -3 40 32 60 106 60 57 0 65 -3 80 -25z"/>
<path d="M6318 8750 c-68 -35 -80 -55 -79 -124 1 -28 3 -231 4 -451 2 -220 6
-410 10 -422 5 -12 1 -50 -8 -90 -19 -78 -21 -131 -7 -145 6 -6 160 -10 402
-10 444 0 422 -4 420 78 -1 27 0 256 1 509 1 253 3 485 3 515 0 41 -7 68 -25
100 -23 42 -27 45 -84 55 -35 6 -98 8 -145 5 -101 -8 -327 -6 -390 3 -38 6
-54 2 -102 -23z m238 -121 c16 -18 19 -38 20 -133 0 -61 4 -133 8 -159 8 -45
7 -50 -20 -78 -33 -34 -55 -36 -116 -9 -65 28 -70 38 -56 96 12 52 13 137 3
216 -6 47 -5 48 32 67 51 27 105 27 129 0z m315 -9 c15 -22 16 -34 7 -97 -9
-57 -7 -87 5 -150 16 -78 16 -78 -10 -105 -36 -38 -56 -42 -106 -24 -23 8 -54
17 -68 20 -15 3 -29 12 -32 20 -10 26 12 90 37 109 32 23 34 55 3 66 -21 8
-23 15 -21 75 1 76 1 75 57 98 59 23 106 19 128 -12z m5 -505 c12 -18 13 -32
5 -62 -20 -77 -13 -173 16 -231 22 -45 25 -55 14 -75 -19 -35 -83 -79 -106
-73 -11 3 -45 11 -75 19 -75 19 -91 45 -66 111 10 26 29 54 42 63 29 18 32 63
8 108 -25 47 -46 116 -40 130 3 8 33 22 68 33 72 21 109 15 134 -23z m-318 20
c21 -15 21 -20 15 -140 -6 -114 -4 -128 17 -180 26 -64 21 -82 -31 -123 -37
-30 -90 -23 -149 19 -46 34 -50 54 -21 126 16 42 17 61 10 158 -10 119 -9 123
44 142 45 16 89 16 115 -2z"/>
<path d="M7485 8765 c-16 -8 -42 -14 -57 -15 -23 0 -29 -6 -38 -41 -14 -50
-14 -47 -13 -639 1 -261 1 -490 0 -508 0 -18 5 -38 11 -44 8 -8 125 -11 397
-10 455 1 433 -4 419 97 -4 33 -6 101 -4 150 5 98 5 155 2 410 -3 185 3 385
12 425 3 14 -4 50 -17 84 -21 58 -24 61 -79 83 -53 21 -66 22 -170 15 -137 -9
-303 -8 -378 1 -39 5 -64 2 -85 -8z m206 -136 c32 -16 39 -24 33 -37 -18 -40
-20 -176 -3 -232 19 -63 15 -79 -35 -109 -44 -28 -68 -26 -117 6 -41 27 -41
27 -33 78 4 27 8 101 8 163 1 108 2 114 26 132 32 25 71 25 121 -1z m310 2
c22 -18 24 -27 26 -133 0 -62 4 -136 8 -165 7 -52 7 -52 -35 -79 -38 -25 -44
-27 -73 -15 -18 7 -48 17 -67 21 -65 16 -71 72 -14 131 23 24 25 32 19 75 -3
27 -13 68 -21 91 -19 52 -15 59 44 77 64 20 86 19 113 -3z m-311 -496 c41 -21
51 -44 35 -75 -7 -14 -16 -62 -20 -107 -7 -83 -7 -83 28 -118 45 -45 74 -46
92 -1 8 19 19 37 25 41 15 9 12 71 -4 103 -7 15 -17 50 -21 78 -8 59 -5 62 65
81 64 17 84 16 114 -8 28 -22 28 -22 21 -138 -6 -112 -6 -118 19 -166 32 -62
32 -65 -1 -97 -56 -52 -88 -61 -146 -43 -29 9 -62 21 -74 27 -29 14 -96 3
-142 -24 -46 -26 -71 -21 -133 29 -55 44 -55 44 -25 84 20 27 22 42 22 142 0
62 -4 120 -9 129 -6 14 0 25 24 48 37 34 83 40 130 15z"/>
<path d="M8865 8771 c-72 -11 -71 -5 -62 -731 4 -314 3 -338 -15 -390 -34 -96
-35 -118 -2 -131 41 -15 742 -16 771 0 33 17 36 46 14 114 -21 61 -21 76 -17
574 5 471 4 514 -12 532 -22 26 -136 45 -190 33 -39 -10 -310 -9 -397 0 -27 3
-68 3 -90 -1z m244 -141 c21 -11 22 -18 21 -118 0 -59 2 -135 6 -170 10 -88
-4 -102 -102 -102 -103 0 -103 1 -98 199 2 86 4 161 4 168 0 6 8 19 17 28 19
20 113 17 152 -5z m303 3 c16 -14 18 -36 18 -188 0 -204 1 -203 -90 -209 -106
-7 -108 -4 -104 211 3 154 6 177 21 188 26 20 133 18 155 -2z m-284 -510 c14
-20 15 -64 2 -156 -8 -54 -7 -81 5 -127 30 -116 13 -150 -81 -160 -75 -9 -101
1 -119 44 -12 27 -13 46 -5 88 6 29 10 110 9 180 -2 162 -2 163 101 154 52 -5
79 -12 88 -23z m287 4 c8 -11 14 -79 17 -204 7 -235 6 -239 -84 -245 -112 -8
-137 24 -118 148 8 53 11 120 7 186 -8 131 -4 137 95 134 53 -2 74 -6 83 -19z"/>
<path d="M10262 8772 c-104 -5 -97 39 -98 -622 0 -311 -2 -569 -3 -575 -5 -15
-2 -39 8 -53 11 -18 705 -21 738 -4 12 7 33 12 47 12 51 0 56 79 7 105 -32 16
-51 53 -51 100 0 39 14 52 36 34 26 -21 31 4 29 139 -3 140 -7 157 -37 165
-19 5 -20 11 -15 59 4 29 7 69 7 89 0 29 5 38 25 47 25 12 25 12 23 145 -2 93
2 142 11 165 17 41 3 79 -31 84 -15 2 -29 16 -43 45 -29 61 -56 77 -113 69
-62 -10 -375 -14 -432 -7 -25 3 -73 5 -108 3z m203 -142 c15 -17 19 -40 20
-138 1 -64 5 -137 9 -162 7 -41 6 -47 -21 -71 -44 -41 -64 -43 -110 -10 -21
16 -49 32 -61 35 -31 10 -29 51 3 72 15 9 27 30 31 50 6 32 -6 133 -21 181
-15 46 114 83 150 43z m304 5 c38 -19 39 -25 30 -125 -5 -52 -4 -97 2 -116 14
-46 14 -101 -1 -119 -39 -48 -105 -53 -169 -14 -35 21 -39 44 -16 108 11 32
12 62 6 138 -10 108 -6 118 43 132 46 14 74 13 105 -4z m-296 -504 c23 -22 24
-41 8 -152 -14 -96 -6 -147 29 -192 28 -36 25 -48 -25 -84 -53 -39 -81 -41
-126 -8 -19 13 -44 29 -56 34 -12 5 -24 19 -27 29 -8 23 9 72 24 72 5 0 16 11
25 24 14 21 14 33 0 125 -8 55 -15 105 -15 111 0 6 21 24 48 41 51 32 82 32
115 0z m291 7 c35 -15 39 -35 31 -152 -6 -89 -4 -109 15 -163 24 -69 20 -86
-26 -122 -36 -28 -106 -28 -159 0 -69 36 -69 36 -30 117 33 70 34 76 28 150
-3 42 -10 85 -15 95 -30 59 78 111 156 75z"/>
<path d="M13025 8771 c-81 -10 -77 22 -76 -654 0 -361 4 -594 10 -600 16 -16
717 -12 737 4 13 11 15 25 9 79 -10 97 -13 607 -5 826 8 199 -1 304 -31 340
-11 14 -24 15 -74 9 -73 -9 -365 -11 -455 -4 -36 3 -87 3 -115 0z m209 -132
c26 -21 27 -23 26 -132 -1 -62 3 -134 10 -161 10 -44 9 -53 -8 -75 -28 -39
-64 -48 -109 -28 -21 8 -51 18 -67 22 -29 6 -29 6 -21 88 4 45 6 124 5 175 -1
69 2 93 12 96 7 2 36 11 63 19 64 20 58 20 89 -4z m320 -4 c16 -12 18 -32 21
-189 3 -176 3 -176 -22 -196 -39 -30 -91 -26 -141 11 -49 36 -49 35 -21 95 19
39 21 57 16 137 -5 93 5 138 35 150 26 11 94 6 112 -8z m-322 -494 c38 -19 40
-31 28 -145 -11 -98 -10 -104 14 -169 29 -78 25 -99 -29 -134 -40 -26 -60 -28
-95 -8 -14 8 -34 14 -44 15 -54 1 -68 52 -40 146 13 46 14 71 5 151 -10 91 -4
132 17 133 4 1 30 7 57 14 28 8 52 13 55 12 3 -1 17 -8 32 -15z m326 -11 c20
-19 21 -27 15 -111 -4 -56 -1 -121 7 -173 16 -101 9 -131 -33 -156 -45 -28
-74 -25 -137 13 -70 42 -77 72 -29 116 32 30 32 30 30 123 -1 64 -7 100 -17
116 -15 22 -14 26 8 50 34 39 39 42 89 42 32 0 52 -6 67 -20z"/>
<path d="M14398 8768 c-26 -19 -70 -175 -62 -218 3 -19 6 -83 5 -142 -1 -59 4
-119 10 -135 8 -20 8 -83 -2 -233 -11 -185 -10 -210 5 -262 16 -55 16 -60 -4
-137 -23 -86 -17 -114 25 -128 11 -3 177 -6 369 -6 300 1 350 3 357 16 15 25
13 1171 -1 1199 -30 56 -33 57 -153 50 -156 -8 -368 -8 -457 1 -56 6 -79 5
-92 -5z m527 -131 c60 -22 60 -22 61 -137 1 -63 5 -136 9 -162 8 -51 -15 -88
-53 -88 -11 0 -33 -7 -51 -16 -59 -30 -109 25 -95 105 4 25 6 96 5 156 -2 100
0 113 19 138 25 32 28 32 105 4z m-286 -9 c20 -12 38 -23 40 -24 2 -2 -1 -10
-8 -18 -6 -7 -13 -41 -15 -74 -2 -33 -7 -69 -10 -80 -5 -15 2 -29 24 -52 35
-36 43 -97 13 -106 -10 -3 -35 -14 -55 -24 -48 -26 -74 -25 -115 3 -43 28 -47
43 -32 117 7 37 9 95 6 147 -6 80 -5 86 18 109 31 31 85 32 134 2z m266 -484
c85 -28 80 -18 77 -145 -2 -84 1 -126 13 -158 28 -80 8 -141 -45 -141 -12 0
-34 -10 -51 -22 -28 -21 -32 -21 -56 -8 -14 8 -35 27 -47 43 -19 26 -19 30 -5
90 14 60 15 178 4 264 -5 37 -3 46 19 68 30 30 28 29 91 9z m-261 -15 c42 -24
47 -60 21 -145 -21 -70 -19 -102 11 -141 60 -79 53 -120 -23 -148 -75 -26 -95
-27 -133 -7 -55 30 -64 59 -44 139 13 52 15 92 11 175 -6 107 -5 108 20 128
34 26 92 26 137 -1z"/>
<path d="M16300 8770 c-30 -4 -164 -5 -297 -3 -242 4 -242 4 -260 -23 -17 -26
-18 -67 -21 -589 -1 -308 -3 -575 -4 -593 -1 -18 4 -38 10 -44 12 -12 703 -15
741 -3 36 11 44 39 25 93 -8 26 -16 70 -15 97 4 545 11 816 21 854 9 36 9 50
-4 82 -9 22 -16 50 -16 63 0 61 -59 83 -180 66z m-287 -132 c24 -22 25 -28 31
-194 5 -170 5 -172 -18 -193 -27 -26 -48 -28 -96 -11 -84 29 -85 31 -83 90 1
30 3 109 5 175 3 120 3 120 52 132 26 7 51 14 54 18 11 11 32 4 55 -17z m318
-7 c23 -18 24 -26 24 -138 1 -65 5 -137 9 -160 8 -38 6 -44 -18 -67 -40 -37
-94 -42 -148 -15 -23 12 -46 27 -51 33 -10 15 1 73 19 101 11 16 13 38 9 74
-17 166 -19 149 17 171 43 26 108 26 139 1z m-301 -497 c12 -12 15 -45 16
-162 1 -81 4 -168 8 -193 7 -40 5 -49 -19 -77 -27 -32 -76 -44 -90 -22 -3 6
-18 10 -33 10 -67 0 -87 46 -66 149 10 46 12 96 8 166 -7 112 2 135 54 135 15
0 34 5 42 10 18 12 60 4 80 -16z m316 -9 c10 -14 12 -44 7 -127 -5 -89 -3
-119 12 -169 23 -76 14 -105 -40 -136 -51 -29 -74 -29 -133 1 -68 34 -80 65
-48 120 36 61 40 103 21 200 -9 46 -14 90 -10 96 25 40 165 51 191 15z"/>
<path d="M16923 8761 c-23 -11 -46 -28 -51 -38 -6 -11 -8 -211 -6 -533 3 -420
1 -526 -11 -575 -15 -66 -3 -104 33 -106 135 -4 723 0 740 5 39 13 43 37 21
116 -14 49 -19 86 -15 114 16 105 17 188 7 336 -9 119 -9 166 0 181 6 12 12
84 13 169 2 81 6 152 10 158 9 15 -42 147 -66 169 -13 12 -33 17 -61 16 -157
-6 -462 -6 -512 0 -48 5 -68 3 -102 -12z m234 -123 c32 -35 41 -345 11 -383
-23 -30 -54 -32 -122 -9 -60 21 -74 46 -58 112 6 27 8 89 5 147 -6 114 -6 114
72 138 68 20 69 20 92 -5z m309 -9 c16 -18 19 -37 19 -133 0 -61 4 -134 9
-162 8 -50 8 -51 -26 -78 -42 -31 -46 -32 -128 -3 -65 23 -65 23 -65 74 1 36
7 58 19 72 19 21 19 42 -6 144 -14 56 -6 68 57 91 58 21 99 20 121 -5z m-305
-488 c23 -18 24 -22 21 -157 -2 -83 1 -157 8 -185 10 -38 9 -52 -4 -82 -19
-46 -49 -55 -124 -33 -79 22 -85 33 -77 136 4 47 6 130 6 186 -2 114 1 117 68
133 23 5 45 12 48 15 11 11 31 6 54 -13z m309 -11 c19 -19 20 -29 14 -133 -5
-89 -3 -121 10 -156 28 -76 22 -106 -26 -142 -30 -21 -50 -29 -68 -25 -81 16
-122 32 -132 49 -13 25 -3 88 23 138 19 38 19 43 5 97 -35 135 -29 162 40 179
75 17 111 16 134 -7z"/>
<path d="M3854 5345 c-10 -15 -17 -41 -15 -58 9 -126 11 -2618 1 -2712 -12
-121 -10 -138 23 -152 34 -14 204 -1 220 17 11 12 12 149 7 785 -6 770 -6 770
22 837 15 36 28 70 28 75 0 4 29 37 63 73 59 63 65 67 148 88 156 42 412 19
479 -43 14 -12 37 -30 52 -40 17 -10 35 -37 48 -71 11 -30 29 -73 40 -94 19
-38 20 -59 20 -697 0 -362 -5 -709 -10 -772 -14 -159 -13 -161 123 -161 56 0
108 4 116 9 11 7 13 138 12 768 -2 805 -6 897 -39 959 -11 22 -30 59 -42 84
-50 104 -184 229 -287 266 -141 52 -170 57 -305 51 -101 -4 -135 -9 -166 -25
-21 -11 -53 -23 -71 -27 -18 -4 -54 -26 -80 -48 -27 -23 -57 -49 -67 -58 -10
-9 -27 -26 -36 -38 -10 -11 -29 -21 -43 -21 -36 0 -41 34 -21 153 13 80 16
166 16 397 -1 190 3 314 10 348 21 96 -7 124 -120 120 -25 -1 -59 2 -77 6 -27
7 -33 5 -49 -19z"/>
<path d="M10235 5361 c-4 -3 -49 -6 -100 -6 -129 0 -129 0 -115 -141 9 -87 9
-2476 0 -2738 -2 -52 7 -56 136 -56 93 0 113 3 126 18 12 15 14 102 8 657 -3
352 -3 650 2 662 10 29 45 37 99 23 30 -8 182 -11 518 -10 262 1 481 2 487 1
20 -2 32 -44 21 -76 -6 -18 -13 -260 -18 -600 -4 -313 -10 -586 -13 -605 -11
-58 0 -64 126 -71 74 -4 119 -2 131 5 17 11 18 75 18 1466 0 1455 0 1455 -21
1469 -16 11 -28 11 -64 1 -27 -7 -64 -9 -93 -5 -43 6 -51 4 -72 -19 -13 -13
-22 -35 -22 -48 1 -13 5 -302 10 -643 8 -619 8 -620 -12 -638 -18 -16 -30 -17
-82 -10 -78 10 -840 10 -925 0 -49 -6 -69 -5 -81 5 -14 12 -14 316 1 1307 0
37 -45 73 -65 52z"/>
<path d="M1451 5332 c-18 -18 -21 -29 -15 -50 13 -46 21 -2241 8 -2287 -6 -22
-16 -58 -22 -80 -16 -55 -136 -177 -232 -235 -74 -45 -74 -45 -227 -43 -153 2
-154 2 -211 34 -117 66 -213 161 -256 254 -22 48 -30 165 -16 239 21 113 -15
138 -138 97 -31 -11 -70 -21 -86 -23 -17 -2 -37 -14 -49 -30 -19 -25 -19 -31
-7 -125 16 -127 22 -153 58 -244 37 -96 150 -252 201 -279 20 -10 45 -27 55
-39 11 -12 24 -21 30 -21 6 0 34 -15 62 -33 68 -45 72 -46 204 -63 154 -19
212 -18 345 7 155 29 214 63 354 202 103 103 110 113 149 205 22 53 43 114 47
135 3 20 6 515 5 1100 0 706 4 1097 11 1165 15 140 15 140 -134 139 -103 -1
-114 -3 -136 -25z"/>
<path d="M14560 5351 c-98 -6 -134 -11 -165 -28 -22 -11 -58 -26 -80 -32 -47
-13 -183 -133 -238 -210 -61 -85 -91 -288 -67 -453 10 -69 9 -80 -6 -104 -18
-26 -18 -26 -121 -20 -56 4 -117 11 -134 16 -35 10 -104 -1 -123 -20 -6 -6
-11 -51 -12 -105 -2 -135 -7 -132 197 -116 146 12 162 12 185 -4 23 -15 25
-21 19 -53 -4 -21 -11 -413 -15 -872 -4 -459 -10 -847 -15 -862 -5 -20 -2 -31
14 -47 19 -19 33 -21 130 -21 70 0 112 4 117 11 10 16 4 1716 -6 1769 -17 87
-41 82 418 82 436 1 441 0 426 -51 -4 -14 -10 -402 -15 -861 -4 -459 -10 -851
-14 -870 -12 -65 11 -79 137 -82 68 -2 112 2 118 8 14 14 15 48 7 201 -3 68
-7 464 -8 880 -1 758 -1 758 23 776 20 15 31 16 73 8 28 -5 125 -12 217 -16
203 -7 196 -12 192 127 -2 82 -5 95 -25 111 -12 9 -29 15 -38 12 -9 -3 -90 -9
-181 -15 -91 -5 -178 -13 -195 -16 -19 -3 -37 0 -50 9 -19 14 -20 25 -17 184
2 92 7 184 12 203 14 49 114 171 153 186 18 6 47 17 66 24 23 9 58 11 120 5
197 -17 201 -14 201 131 0 127 3 125 -194 117 -140 -5 -155 -8 -208 -34 -32
-16 -68 -29 -81 -29 -21 0 -77 -41 -159 -116 -58 -53 -119 -173 -134 -264 -16
-99 -18 -246 -4 -308 8 -32 7 -50 -2 -70 -13 -27 -13 -27 -378 -27 -201 -1
-379 -5 -396 -9 -59 -15 -64 0 -57 207 4 141 9 188 22 210 40 71 48 84 65 109
10 15 38 35 64 44 26 10 57 24 69 32 18 11 50 12 160 7 171 -9 167 -12 171
125 3 74 1 99 -11 108 -20 17 -84 21 -227 13z"/>
<path d="M2595 4551 c-27 -4 -61 -14 -75 -23 -14 -9 -44 -21 -67 -27 -23 -7
-55 -22 -70 -35 -15 -13 -42 -30 -59 -39 -32 -16 -89 -77 -139 -149 -26 -37
-52 -105 -95 -253 -5 -16 -9 -262 -10 -545 0 -486 1 -519 20 -590 12 -41 24
-89 29 -107 22 -81 164 -263 221 -283 19 -7 58 -28 86 -46 37 -25 70 -37 125
-45 112 -18 353 -20 420 -3 31 8 67 14 80 14 58 0 266 171 328 270 16 25 32
61 36 80 4 19 12 44 19 55 35 57 37 102 34 675 -3 535 -4 567 -22 600 -11 19
-24 51 -30 70 -21 66 -71 143 -134 206 -34 35 -66 64 -71 64 -4 0 -22 13 -38
29 -20 18 -45 31 -74 35 -25 4 -60 17 -79 29 -32 20 -48 22 -210 23 -96 1
-197 -1 -225 -5z m389 -256 c75 -26 106 -42 127 -67 48 -56 91 -126 100 -166
10 -43 13 -1122 3 -1179 -10 -55 -87 -168 -125 -184 -18 -7 -45 -24 -62 -38
-30 -26 -34 -26 -211 -29 -100 -2 -199 -1 -222 3 -49 7 -130 72 -201 160 -48
60 -48 60 -51 635 -3 578 -1 649 21 672 7 7 25 33 41 58 74 115 139 145 341
159 61 4 117 8 125 9 8 1 60 -14 114 -33z"/>
<path d="M6125 4550 c-16 -4 -44 -14 -61 -23 -17 -9 -51 -21 -76 -27 -78 -20
-245 -168 -279 -248 -11 -26 -27 -54 -35 -63 -12 -13 -64 -195 -64 -225 0 -29
37 -55 90 -64 30 -4 77 -16 103 -27 49 -18 49 -18 68 6 15 19 18 31 12 60 -23
106 21 217 118 300 68 59 110 71 263 81 197 12 294 -22 394 -139 73 -84 80
-112 81 -301 1 -74 5 -148 9 -165 19 -68 -26 -99 -124 -83 -32 5 -169 8 -304
6 -235 -3 -247 -4 -289 -27 -24 -12 -65 -29 -90 -37 -36 -10 -69 -35 -144
-106 -53 -51 -97 -100 -97 -108 0 -8 -13 -34 -29 -57 -15 -23 -31 -61 -35 -84
-4 -22 -13 -54 -21 -70 -23 -43 -20 -199 5 -273 11 -33 20 -70 20 -84 0 -62
168 -267 248 -302 24 -11 56 -30 71 -43 37 -31 218 -61 322 -54 142 9 237 33
269 67 15 16 35 30 43 30 22 0 64 37 108 96 62 84 86 71 149 -79 30 -71 36
-78 71 -88 32 -10 42 -9 64 5 25 16 26 21 20 64 -4 26 -10 394 -13 817 -6 695
-9 772 -24 795 -9 14 -22 45 -28 69 -32 121 -208 305 -317 333 -27 6 -68 22
-92 35 -42 22 -54 23 -210 22 -91 -1 -179 -5 -196 -9z m611 -1125 c12 -19 15
-37 10 -78 -4 -28 -7 -126 -7 -217 0 -198 -13 -283 -48 -326 -14 -17 -34 -45
-43 -62 -11 -21 -28 -34 -55 -41 -21 -6 -44 -20 -51 -31 -7 -11 -25 -25 -39
-31 -40 -15 -390 -12 -418 4 -66 36 -131 91 -161 136 -19 28 -39 51 -44 51
-32 0 -40 324 -9 381 45 82 92 138 145 173 72 48 126 55 401 55 107 0 198 2
201 5 3 3 27 6 53 6 41 0 51 -4 65 -25z"/>
<path d="M7960 4550 c-51 -11 -200 -77 -224 -98 -12 -11 -29 -22 -38 -25 -9
-3 -26 -24 -37 -45 -22 -42 -37 -52 -80 -52 -33 0 -57 23 -72 71 -22 70 -51
118 -79 129 -70 29 -99 -16 -78 -118 15 -75 20 -1709 5 -1874 -7 -81 -6 -89
14 -109 16 -16 28 -19 58 -14 20 3 70 7 109 8 87 2 95 10 87 87 -3 30 -8 386
-10 790 -5 735 -5 735 23 799 22 51 43 78 95 124 82 74 132 89 307 94 179 6
255 -17 342 -101 38 -36 74 -84 91 -118 28 -57 28 -57 23 -810 -3 -414 -6
-773 -6 -796 -1 -67 7 -72 124 -72 55 0 107 4 115 9 16 10 17 1558 1 1657 -5
32 -20 70 -33 88 -13 17 -28 42 -32 56 -9 30 -33 65 -83 121 -82 93 -129 125
-251 169 -107 38 -118 40 -224 39 -62 -1 -128 -5 -147 -9z"/>
<path d="M12578 4551 c-20 -4 -43 -12 -50 -18 -7 -6 -37 -18 -66 -28 -110 -35
-237 -141 -287 -236 -13 -25 -35 -59 -48 -75 -39 -46 -47 -170 -47 -732 1
-563 5 -620 46 -689 16 -26 36 -65 44 -85 23 -56 140 -174 197 -199 26 -11 58
-29 69 -40 77 -72 609 -72 687 -1 12 11 40 29 62 40 48 24 205 183 205 207 0
9 7 29 15 43 52 95 50 64 53 692 4 625 0 691 -43 754 -13 19 -26 45 -30 57
-11 36 -114 160 -148 178 -17 9 -46 30 -65 48 -24 22 -50 34 -81 39 -25 4 -65
18 -90 30 -42 23 -53 24 -215 23 -94 -1 -188 -5 -208 -8z m394 -253 c94 -28
166 -94 214 -197 35 -76 35 -76 34 -629 0 -553 0 -553 -39 -635 -38 -82 -56
-104 -121 -151 -82 -59 -78 -58 -294 -57 -200 1 -200 1 -236 36 -20 19 -41 35
-48 35 -27 0 -86 68 -119 138 -35 74 -35 74 -35 638 1 563 1 563 27 623 32 69
135 176 181 186 52 12 94 26 99 35 9 15 266 -1 337 -22z"/>
<path d="M16538 4547 c-26 -8 -53 -18 -60 -24 -7 -6 -30 -16 -51 -23 -43 -14
-157 -104 -157 -124 0 -24 -41 -66 -63 -66 -30 0 -85 51 -92 87 -23 109 -46
137 -107 131 -47 -4 -63 -41 -48 -111 8 -37 10 -335 9 -1015 -1 -719 2 -967
10 -975 18 -18 209 -10 240 10 23 15 23 18 17 112 -3 53 -7 409 -8 791 -1 692
-1 695 21 762 62 185 312 272 561 195 87 -27 99 -34 148 -86 63 -66 81 -98 96
-166 12 -55 4 -1505 -9 -1561 -12 -54 9 -64 133 -64 59 0 113 4 121 9 11 7 13
139 13 797 -1 434 2 808 6 831 8 49 104 171 163 209 84 53 317 69 441 31 64
-20 182 -127 201 -182 44 -124 43 -113 36 -865 -4 -393 -10 -733 -13 -755 -10
-65 -2 -70 128 -73 103 -3 115 -2 123 15 5 10 6 383 3 843 -5 825 -5 825 -40
895 -44 89 -131 202 -181 237 -22 14 -55 40 -74 57 -19 16 -51 33 -72 37 -20
4 -53 16 -72 28 -54 32 -285 31 -351 -1 -25 -12 -59 -24 -77 -28 -17 -3 -51
-21 -74 -38 -23 -18 -53 -39 -67 -47 -13 -8 -50 -47 -81 -85 -46 -56 -63 -71
-89 -73 -29 -3 -33 1 -61 56 -17 33 -44 70 -61 83 -17 13 -46 36 -64 52 -19
15 -60 36 -92 47 -32 11 -69 28 -83 37 -34 23 -254 29 -323 10z"/>
<path d="M19255 4539 c-27 -11 -70 -27 -95 -34 -55 -17 -156 -100 -234 -191
-70 -82 -89 -119 -109 -209 -8 -38 -21 -84 -28 -101 -21 -53 13 -91 93 -102
24 -3 56 -14 73 -24 66 -40 86 -18 95 103 5 69 11 96 28 119 12 16 22 36 22
45 0 20 73 99 116 126 86 53 318 69 442 30 76 -23 104 -44 203 -155 44 -49 44
-49 50 -240 4 -105 10 -200 13 -212 5 -13 1 -28 -12 -45 -18 -22 -26 -24 -79
-19 -32 3 -177 5 -323 5 -265 0 -265 0 -325 -33 -33 -17 -66 -32 -74 -32 -31
0 -192 -148 -242 -222 -21 -32 -44 -81 -53 -110 -8 -29 -24 -84 -35 -123 -12
-38 -18 -78 -15 -88 3 -10 8 -46 10 -79 2 -34 12 -79 23 -102 10 -22 21 -56
25 -74 13 -73 175 -264 235 -277 16 -3 43 -21 61 -40 25 -26 43 -35 66 -35 17
0 69 -7 115 -16 93 -17 197 -15 315 9 77 15 87 20 122 51 13 11 33 25 46 31
13 5 49 41 81 78 70 83 101 89 121 22 7 -22 19 -53 28 -70 9 -16 16 -35 16
-42 0 -6 12 -25 26 -42 51 -62 144 -21 130 57 -21 113 -26 311 -25 892 1 599
0 648 -16 685 -10 22 -22 62 -26 90 -5 27 -18 61 -29 75 -11 14 -28 38 -38 54
-32 54 -94 121 -125 134 -18 8 -48 27 -69 44 -20 16 -54 32 -75 35 -21 4 -59
17 -84 29 -64 33 -365 34 -444 3z m659 -1111 c8 -12 12 -26 8 -32 -3 -6 -9
-129 -12 -273 -5 -254 -6 -262 -28 -293 -13 -17 -37 -51 -53 -76 -17 -24 -37
-44 -44 -44 -8 0 -29 -13 -47 -29 -59 -51 -67 -52 -270 -52 -191 0 -191 0
-262 44 -53 32 -81 58 -112 104 -58 84 -65 114 -67 260 -2 154 14 198 109 302
86 94 85 93 394 99 146 2 267 6 269 8 2 2 26 4 52 4 38 0 51 -5 63 -22z"/>
<path d="M21145 4550 c-37 -7 -107 -33 -180 -66 -48 -22 -114 -76 -135 -110
-23 -39 -68 -57 -101 -40 -17 8 -31 33 -50 85 -61 174 -180 161 -150 -16 9
-53 12 -319 10 -1020 -1 -948 -1 -948 22 -959 25 -12 201 -5 214 8 9 8 7 1387
-1 1473 -7 69 5 123 47 210 34 71 41 79 98 124 103 81 310 106 495 62 73 -18
82 -23 142 -82 35 -35 67 -73 70 -84 4 -11 12 -27 19 -35 7 -8 16 -28 19 -45
12 -49 7 -1481 -5 -1537 -9 -40 -8 -53 5 -73 16 -24 21 -25 125 -25 79 0 112
4 120 14 15 18 14 1533 -1 1626 -12 75 -75 210 -120 257 -17 17 -35 42 -42 55
-6 13 -30 32 -52 43 -23 11 -57 34 -77 52 -20 18 -54 35 -74 39 -21 4 -59 17
-85 30 -42 21 -60 24 -160 23 -62 -1 -131 -5 -153 -9z"/>
<path d="M22860 4539 c-25 -12 -66 -27 -92 -34 -26 -7 -65 -26 -85 -43 -21
-16 -48 -34 -60 -40 -12 -7 -32 -31 -45 -54 -29 -51 -51 -67 -75 -52 -29 18
-61 71 -78 129 -22 77 -66 102 -129 74 -32 -15 -36 -43 -19 -124 11 -55 13
-232 10 -968 -2 -496 -7 -918 -12 -938 -12 -60 6 -69 140 -69 72 0 116 4 121
11 3 6 7 381 8 832 1 822 1 822 37 868 63 81 141 149 184 160 22 5 60 16 85
23 94 27 300 8 382 -35 41 -22 106 -83 148 -139 41 -55 41 -55 39 -878 -1
-621 1 -826 10 -835 11 -11 184 -12 222 -1 25 7 42 59 35 103 -3 21 -6 362 -7
757 0 395 -4 739 -9 764 -14 76 -55 172 -99 234 -53 77 -118 146 -136 146 -7
0 -30 16 -50 35 -27 24 -50 36 -83 41 -26 4 -68 17 -94 30 -67 34 -278 35
-348 3z"/>
<path d="M7319 1439 c-102 -41 -160 -95 -196 -179 -27 -65 -27 -65 -30 -493
-3 -428 -3 -428 29 -495 42 -88 65 -119 108 -144 19 -11 52 -32 73 -46 45 -30
179 -41 290 -24 78 12 157 63 202 130 14 20 37 52 50 71 25 34 25 34 25 498 0
535 7 496 -100 602 -79 79 -131 99 -277 107 -93 4 -102 3 -174 -27z m331 -148
c83 -55 85 -69 83 -560 -2 -478 -1 -474 -123 -527 -106 -46 -303 -14 -333 55
-6 14 -19 37 -29 50 -17 22 -18 55 -18 437 0 250 4 423 10 439 16 43 81 114
125 135 35 18 52 19 135 14 88 -6 99 -9 150 -43z"/>
<path d="M10085 1446 c-15 -11 -19 -24 -16 -57 1 -24 4 -327 5 -672 1 -629 1
-629 26 -649 29 -24 97 -20 116 7 14 19 9 621 -6 778 -16 157 -14 177 13 177
29 0 73 -45 83 -85 8 -34 105 -224 153 -300 17 -27 38 -65 47 -84 8 -18 31
-56 50 -83 19 -28 34 -54 34 -59 0 -5 16 -31 35 -58 19 -26 35 -53 35 -58 0
-6 20 -49 44 -97 48 -96 105 -159 138 -154 39 6 43 28 28 163 -9 90 -11 197
-6 373 3 136 7 379 8 540 2 328 4 319 -70 329 -35 5 -44 2 -68 -22 -25 -25
-26 -31 -20 -83 4 -32 9 -183 11 -337 2 -154 7 -318 11 -365 12 -141 4 -180
-37 -180 -17 0 -49 45 -49 69 0 16 -141 303 -159 324 -22 26 -65 100 -101 174
-16 34 -43 77 -59 95 -34 39 -101 169 -101 196 0 11 -9 31 -20 45 -11 14 -20
30 -20 36 0 12 -58 51 -76 51 -5 0 -19 -6 -29 -14z"/>
<path d="M19655 1434 c-27 -25 -27 -28 -21 -92 4 -37 9 -195 11 -352 3 -157
10 -333 16 -391 9 -84 9 -111 -1 -130 -12 -22 -14 -23 -24 -5 -6 11 -23 34
-39 52 -15 17 -68 112 -118 210 -50 98 -101 191 -114 206 -13 15 -26 40 -29
55 -4 16 -22 48 -41 72 -19 24 -35 48 -35 54 0 5 -15 30 -34 56 -18 25 -37 57
-41 70 -4 14 -18 45 -31 69 -13 25 -24 51 -24 58 0 56 -68 96 -119 71 -30 -14
-31 -31 -12 -207 6 -58 9 -127 6 -155 -3 -27 -7 -260 -9 -517 -3 -446 -3 -468
15 -484 22 -20 102 -25 119 -8 9 9 11 104 10 335 -1 285 -6 398 -26 554 -13
102 57 129 80 31 4 -16 18 -43 30 -60 27 -35 116 -213 116 -231 0 -7 9 -20 20
-30 10 -9 31 -40 46 -69 14 -28 32 -58 39 -66 8 -8 17 -28 21 -45 4 -16 20
-45 36 -64 16 -18 35 -45 41 -60 6 -14 24 -41 39 -59 15 -18 28 -40 28 -49 0
-29 79 -182 101 -193 29 -16 65 10 73 52 3 18 0 67 -7 108 -14 75 -14 150 -3
395 3 72 6 285 7 474 2 325 1 345 -16 357 -30 22 -79 17 -110 -12z"/>
<path d="M4578 1440 c-360 -6 -364 -6 -358 -67 1 -15 3 -311 4 -657 2 -629 2
-629 25 -647 42 -34 102 -20 113 27 3 12 2 145 -2 295 -4 151 -5 280 -2 287 8
22 45 30 102 22 30 -5 131 -10 224 -13 163 -4 169 -4 194 18 24 20 25 26 17
60 -18 72 -33 75 -255 65 -107 -5 -207 -12 -222 -16 -18 -4 -31 -1 -45 13 -17
17 -18 35 -16 243 3 217 4 226 25 243 13 11 28 15 37 11 9 -4 124 -11 256 -15
132 -4 252 -10 267 -14 40 -11 78 31 78 84 0 49 -27 72 -80 69 -19 -1 -182 -5
-362 -8z"/>
<path d="M13109 1439 c-22 -13 -24 -96 -19 -712 6 -721 0 -673 75 -662 22 3
128 5 236 5 186 -1 198 0 250 24 66 30 145 109 188 190 31 60 31 60 31 470 -1
411 -1 411 -28 473 -43 95 -137 184 -213 202 -47 11 -504 20 -520 10z m500
-154 c55 -27 81 -56 105 -111 16 -37 17 -76 14 -435 -4 -440 -1 -422 -76 -485
-46 -38 -46 -38 -219 -47 -101 -5 -179 -5 -189 1 -14 8 -16 63 -16 546 0 405
3 540 12 551 21 26 310 10 369 -20z"/>
<path d="M16418 1440 c-380 -6 -364 -1 -354 -110 4 -37 6 -310 5 -606 -1 -297
-1 -557 0 -579 2 -75 -9 -73 399 -76 412 -4 396 -7 390 75 -6 75 -12 76 -331
66 -337 -10 -352 -7 -327 80 13 45 12 262 -1 319 -8 36 -7 48 7 69 16 25 16
25 148 18 357 -17 406 -11 406 52 0 30 -29 80 -51 87 -9 3 -111 1 -226 -5
-114 -5 -218 -10 -230 -10 -46 0 -48 13 -47 245 1 270 -6 258 148 250 279 -14
478 -15 492 -4 8 7 14 31 14 60 0 59 -24 80 -85 77 -22 -2 -183 -5 -357 -8z"/>
</g>
</svg>
