<?xml version="1.0" standalone="no"?>
<!DOCTYPE svg PUBLIC "-//W3C//DTD SVG 20010904//EN"
 "http://www.w3.org/TR/2001/REC-SVG-20010904/DTD/svg10.dtd">
<svg version="1.0" xmlns="http://www.w3.org/2000/svg"
 width="1168.000000pt" height="400.000000pt" viewBox="0 0 1168.000000 400.000000"
 preserveAspectRatio="xMidYMid meet">

<g transform="translate(0.000000,400.000000) scale(0.100000,-0.100000)"
fill="#fafafa" stroke="none">
<path d="M1203 3976 c-10 -13 -83 -95 -163 -182 -280 -306 -542 -622 -824
-995 l-86 -113 0 -593 c0 -326 2 -593 4 -593 2 0 77 44 167 98 303 182 854
490 910 507 19 6 19 27 19 951 0 519 -2 944 -4 944 -2 0 -13 -11 -23 -24z"/>
<path d="M2685 2339 c-66 -27 -176 -73 -245 -101 -181 -74 -648 -273 -765
-325 -301 -135 -371 -168 -630 -298 l-240 -120 -3 -367 c-1 -203 0 -368 2
-368 3 0 87 18 188 41 577 129 1165 237 1658 304 63 8 130 18 148 21 l32 5 0
629 c0 498 -3 630 -12 629 -7 0 -67 -23 -133 -50z"/>
<path d="M5892 1789 c-106 -18 -186 -79 -234 -177 -31 -63 -33 -72 -33 -177 0
-100 3 -116 28 -170 60 -128 168 -195 317 -195 142 0 258 65 317 177 75 140
55 331 -46 446 -70 79 -216 120 -349 96z m171 -140 c9 -5 17 -14 17 -20 0 -13
-269 -309 -280 -309 -9 0 -30 86 -30 120 0 81 47 171 104 202 51 28 144 31
189 7z m105 -134 c44 -164 -47 -314 -190 -315 -44 0 -118 27 -118 44 0 6 19
31 41 56 23 25 85 93 138 152 53 59 101 108 106 108 6 0 16 -20 23 -45z"/>
<path d="M6882 1789 c-104 -18 -191 -81 -240 -174 -23 -44 -27 -65 -30 -165
-3 -98 -1 -123 17 -171 60 -158 213 -228 441 -201 151 18 140 2 140 202 l0
170 -74 0 -73 0 -7 -46 c-3 -26 -6 -77 -6 -114 l0 -68 -43 -6 c-134 -20 -224
60 -235 206 -4 58 -1 75 21 120 56 114 188 147 339 84 20 -9 39 -20 43 -26 3
-5 13 -10 21 -10 12 0 14 16 12 87 l-3 87 -40 12 c-57 16 -221 24 -283 13z"/>
<path d="M4820 1435 l0 -335 80 0 80 0 0 140 c0 77 3 140 6 140 3 0 25 -13 48
-29 52 -36 137 -127 184 -198 l35 -53 104 0 c81 0 103 3 97 13 -69 116 -207
280 -266 314 -15 10 -28 22 -28 28 0 6 20 28 44 48 43 36 159 174 199 237 l19
30 -89 0 -88 0 -40 -56 c-39 -56 -200 -214 -216 -214 -5 0 -9 61 -9 135 l0
135 -80 0 -80 0 0 -335z"/>
<path d="M7540 1435 l0 -335 265 0 265 0 0 68 0 67 -185 -3 -185 -4 0 76 0 76
130 0 131 0 -3 63 -3 62 -128 -3 -128 -3 3 73 3 73 150 -2 c83 -2 160 -5 173
-8 21 -5 22 -3 22 65 l0 70 -255 0 -255 0 0 -335z"/>
<path d="M5797 823 c-4 -3 -7 -168 -7 -365 l0 -358 39 0 c22 0 42 4 46 9 3 6
21 3 43 -6 21 -9 65 -16 103 -17 129 -1 215 86 234 235 13 106 -25 233 -84
277 -67 49 -144 52 -234 7 -27 -14 -51 -25 -53 -25 -2 0 -4 56 -4 125 l0 125
-38 0 c-21 0 -42 -3 -45 -7z m298 -285 c45 -20 67 -78 66 -173 0 -107 -23
-158 -84 -186 -51 -23 -78 -24 -145 -4 l-52 16 0 148 c0 129 2 150 18 164 47
43 143 60 197 35z"/>
<path d="M6447 823 c-4 -3 -7 -168 -7 -365 l0 -358 45 0 45 0 0 365 0 365 -38
0 c-21 0 -42 -3 -45 -7z"/>
<path d="M8760 466 l0 -366 45 0 45 0 0 88 c0 81 2 91 24 111 14 13 29 22 33
20 5 -2 53 -52 107 -111 l98 -108 61 0 60 0 -58 62 c-32 35 -89 95 -127 134
-37 40 -68 75 -68 80 0 5 53 62 117 126 l118 118 -55 0 -55 0 -125 -125 -125
-125 -5 227 -5 228 -42 3 -43 3 0 -365z"/>
<path d="M4820 450 l0 -352 183 4 c181 3 182 3 236 33 30 16 63 43 73 60 53
87 44 189 -21 248 -22 19 -48 38 -60 42 -27 8 -26 14 9 49 51 50 61 135 23
193 -8 12 -35 32 -61 44 -41 20 -66 23 -214 27 l-168 5 0 -353z m290 259 c75
-16 101 -70 65 -138 -20 -40 -64 -54 -169 -55 l-91 -1 -3 89 c-2 49 -1 95 2
103 7 16 123 18 196 2z m83 -296 c76 -45 77 -157 0 -209 -23 -15 -51 -19 -155
-22 l-128 -4 0 124 c0 69 3 127 6 130 3 3 59 5 125 3 95 -3 126 -7 152 -22z"/>
<path d="M5470 755 l0 -45 50 0 50 0 0 45 0 45 -50 0 -50 0 0 -45z"/>
<path d="M6750 755 l0 -45 50 0 50 0 0 45 0 45 -50 0 -50 0 0 -45z"/>
<path d="M4275 769 c-77 -4 -248 -12 -380 -18 -245 -11 -438 -23 -670 -42 -71
-5 -159 -12 -195 -15 -36 -2 -112 -9 -170 -14 -58 -5 -139 -12 -180 -15 -144
-11 -715 -76 -950 -108 l-95 -13 -3 -232 -2 -232 157 0 c87 0 320 5 518 10
472 13 909 18 1633 19 l592 1 0 334 0 335 -57 -2 c-32 -1 -121 -5 -198 -8z"/>
<path d="M7709 763 c0 -4 -1 -37 -2 -73 -2 -63 -3 -65 -29 -68 -24 -3 -28 -8
-28 -37 0 -29 4 -34 28 -37 l27 -3 5 -185 c6 -206 11 -224 75 -254 37 -18 130
-21 169 -6 21 8 26 16 26 45 l0 36 -37 -8 c-48 -9 -87 -7 -113 7 -30 16 -41
78 -38 227 l3 138 93 3 92 3 0 34 0 34 -92 3 -93 3 -1 70 -1 70 -42 3 c-22 2
-41 0 -42 -5z"/>
<path d="M7215 631 c-47 -12 -90 -38 -119 -72 -48 -56 -60 -96 -60 -199 0
-103 12 -143 60 -199 60 -72 176 -96 276 -58 122 47 177 209 127 375 -34 113
-162 182 -284 153z m136 -94 c51 -34 73 -87 73 -177 0 -55 -6 -87 -20 -115
-55 -113 -202 -113 -259 0 -28 57 -28 186 1 235 45 77 136 103 205 57z"/>
<path d="M8262 622 c-128 -46 -187 -177 -158 -347 14 -79 85 -153 170 -176 60
-16 164 -13 227 8 l54 18 3 48 c3 50 -2 55 -34 33 -36 -26 -134 -49 -177 -42
-88 14 -157 82 -157 155 l0 31 188 0 c104 0 191 2 193 5 13 12 -11 153 -31
188 -48 81 -173 116 -278 79z m177 -88 c25 -21 51 -74 51 -106 0 -5 -67 -8
-150 -8 -168 0 -170 1 -130 68 30 49 75 72 142 72 46 0 62 -5 87 -26z"/>
<path d="M9515 629 c-48 -12 -104 -49 -133 -88 -58 -78 -69 -231 -23 -324 24
-50 86 -101 144 -118 52 -16 167 -11 232 8 l60 19 3 47 c2 26 1 47 -1 47 -3 0
-29 -11 -58 -24 -100 -45 -192 -43 -254 6 -30 23 -64 90 -65 125 0 22 1 23
193 25 l192 3 3 38 c4 51 -23 139 -54 177 -46 54 -152 81 -239 59z m144 -84
c30 -15 61 -68 61 -104 0 -20 -4 -21 -150 -21 -97 0 -150 4 -150 10 0 26 44
93 73 110 39 24 125 27 166 5z"/>
<path d="M10636 621 c-26 -11 -56 -27 -65 -35 -24 -22 -31 -20 -31 9 0 23 -4
25 -45 25 l-45 0 0 -260 0 -260 45 0 45 0 2 197 3 198 50 27 c71 39 136 39
176 -1 l29 -29 0 -196 0 -196 46 0 45 0 -3 213 c-3 192 -5 215 -23 247 -42 70
-140 96 -229 61z"/>
<path d="M11240 620 c-66 -22 -133 -90 -152 -153 -16 -56 -16 -173 1 -220 17
-50 64 -103 112 -127 77 -40 217 -42 304 -6 33 14 35 18 35 60 0 26 -2 46 -5
46 -3 0 -23 -9 -44 -20 -106 -53 -212 -48 -275 15 -31 31 -61 108 -50 127 3 4
90 8 195 8 l189 0 0 53 c0 115 -51 195 -143 222 -66 19 -100 19 -167 -5z m159
-74 c34 -18 56 -50 64 -93 l7 -33 -150 0 -150 0 0 25 c0 27 52 92 84 105 34
14 115 11 145 -4z"/>
<path d="M5480 360 l0 -260 45 0 45 0 0 260 0 260 -45 0 -45 0 0 -260z"/>
<path d="M6760 360 l0 -261 43 3 42 3 -1 255 0 255 -42 3 -42 3 0 -261z"/>
<path d="M9990 360 l0 -260 45 0 45 0 0 183 c0 203 -2 195 70 233 24 12 56 17
103 17 l68 -1 -3 41 -3 42 -56 3 c-46 2 -65 -2 -113 -28 -32 -16 -60 -30 -62
-30 -2 0 -4 14 -4 30 0 29 -2 30 -45 30 l-45 0 0 -260z"/>
</g>
</svg>
