<?xml version="1.0" standalone="no"?>
<!DOCTYPE svg PUBLIC "-//W3C//DTD SVG 20010904//EN"
 "http://www.w3.org/TR/2001/REC-SVG-20010904/DTD/svg10.dtd">
<svg version="1.0" xmlns="http://www.w3.org/2000/svg"
 width="364.000000pt" height="400.000000pt" viewBox="0 0 364.000000 400.000000"
 preserveAspectRatio="xMidYMid meet">

<g transform="translate(0.000000,400.000000) scale(0.100000,-0.100000)"
fill="#fafafa" stroke="none">
<path d="M1301 3930 c-19 -35 -25 -38 -45 -30 -46 17 -141 22 -205 10 -128
-23 -221 -91 -273 -199 -31 -63 -33 -72 -33 -181 0 -110 2 -119 32 -180 18
-36 50 -82 71 -104 l40 -38 -21 -35 -20 -35 24 -19 c38 -30 62 -34 74 -14 32
54 35 55 113 43 95 -15 192 0 274 44 72 38 111 82 152 168 29 60 31 73 31 171
0 101 -1 108 -38 181 -20 42 -52 89 -69 103 l-32 27 23 40 c25 44 25 43 -31
73 -38 21 -42 20 -67 -25z m-124 -188 c9 -6 -17 -58 -89 -185 -57 -97 -106
-177 -110 -177 -15 0 -38 61 -44 118 -12 115 35 206 122 237 43 16 102 19 121
7z m143 -154 c25 -130 -27 -240 -127 -267 -48 -14 -100 -14 -108 -1 -5 8 23
61 157 293 38 65 41 68 54 48 8 -11 19 -44 24 -73z"/>
<path d="M1914 3910 c-187 -37 -294 -177 -294 -383 0 -223 109 -357 311 -382
145 -18 269 60 269 170 0 20 5 25 25 25 29 0 30 -9 10 -76 -8 -27 -15 -61 -15
-76 l0 -27 90 -3 90 -3 0 186 0 186 -26 24 c-25 23 -30 24 -182 24 l-157 0 0
-70 0 -70 88 -3 c76 -2 87 -5 87 -21 0 -25 -43 -69 -85 -87 -19 -7 -65 -14
-103 -14 -90 0 -147 28 -182 91 -35 62 -36 182 -2 252 55 111 220 138 308 50
19 -18 34 -40 34 -48 0 -12 19 -15 101 -15 114 0 110 -4 68 86 -66 139 -255
219 -435 184z"/>
<path d="M54 3901 c-2 -2 -4 -170 -4 -373 l0 -368 95 0 95 0 0 155 c0 154 0
155 23 155 16 -1 47 -34 122 -132 55 -72 109 -142 120 -155 19 -23 24 -24 136
-21 l116 3 -154 188 c-95 116 -151 192 -147 200 6 10 213 252 277 325 l20 22
-114 0 -114 -1 -123 -145 c-83 -98 -129 -144 -140 -142 -15 3 -17 21 -20 145
l-3 142 -90 3 c-50 2 -93 1 -95 -1z"/>
<path d="M2530 3530 l0 -370 295 0 295 0 0 80 0 80 -200 0 -200 0 0 65 0 65
175 0 175 0 0 80 0 80 -175 0 -175 0 0 65 0 65 200 0 200 0 0 80 0 80 -295 0
-295 0 0 -370z"/>
<path d="M2022 2879 c-144 -24 -242 -116 -284 -268 -22 -80 -23 -145 -2 -231
19 -82 51 -137 110 -188 62 -55 128 -77 234 -77 72 0 92 4 130 25 52 30 86 75
95 130 6 34 10 40 32 40 22 0 24 -3 19 -22 -27 -93 -37 -142 -32 -154 4 -11
27 -14 96 -14 l90 0 0 183 c-1 232 1 230 -127 237 -48 3 -123 4 -165 2 l-78
-3 0 -69 0 -70 90 0 c102 0 109 -6 63 -61 -37 -43 -80 -59 -162 -59 -106 0
-152 25 -192 102 -27 54 -26 176 2 235 39 80 115 116 213 102 56 -9 92 -31
121 -77 l20 -31 93 -1 c107 0 109 2 66 87 -47 96 -146 162 -274 182 -73 12
-84 12 -158 0z"/>
<path d="M42 2583 l3 -288 28 -48 c54 -91 142 -130 302 -131 134 -1 205 19
270 76 78 69 85 103 85 413 l0 265 -95 0 -95 0 0 -244 c0 -149 -4 -255 -11
-274 -6 -18 -26 -41 -45 -53 -30 -18 -47 -21 -114 -17 -138 6 -150 35 -150
374 l0 214 -91 0 -90 0 3 -287z"/>
<path d="M860 2495 l0 -376 93 3 92 3 3 285 c2 224 -1 295 -12 330 -31 98 -31
92 0 88 27 -3 28 -7 86 -223 32 -121 73 -278 92 -350 l33 -130 187 -3 186 -2
0 375 0 375 -90 0 -90 0 0 -299 c0 -240 3 -307 15 -341 20 -57 19 -62 -12 -58
-26 3 -28 9 -114 336 -48 184 -90 340 -93 348 -4 11 -40 14 -191 14 l-185 0 0
-375z"/>
<path d="M1157 1849 c-150 -22 -261 -117 -303 -260 -25 -83 -16 -217 19 -294
64 -139 190 -215 357 -215 126 0 224 41 299 126 64 73 86 139 86 264 0 95 -3
111 -29 167 -33 72 -113 154 -179 183 -37 17 -155 42 -182 39 -5 -1 -36 -5
-68 -10z m192 -198 c48 -35 74 -99 74 -188 0 -138 -68 -213 -193 -213 -112 0
-182 64 -195 179 -12 107 26 199 97 235 51 26 172 19 217 -13z"/>
<path d="M3024 1850 c-110 -16 -183 -60 -210 -127 -17 -39 -18 -131 -3 -170
13 -34 55 -80 91 -99 15 -8 95 -32 178 -53 179 -47 202 -59 198 -104 -4 -44
-35 -57 -135 -57 -123 0 -167 25 -179 102 l-7 38 -93 0 -94 0 0 -42 c0 -94 80
-198 179 -234 27 -9 92 -18 155 -21 164 -8 260 19 324 91 70 79 68 202 -3 278
-40 42 -85 61 -254 103 -80 19 -153 43 -163 52 -47 42 3 93 92 93 95 0 150
-33 150 -90 0 -19 6 -20 101 -20 l101 0 -6 38 c-18 99 -91 179 -189 206 -68
19 -169 26 -233 16z"/>
<path d="M52 1468 l3 -373 200 0 c244 1 310 16 392 90 73 65 96 123 101 256 5
123 -12 196 -59 265 -36 52 -66 74 -144 104 -55 22 -79 24 -278 28 l-217 4 2
-374z m409 197 c31 -7 74 -49 88 -88 18 -48 13 -186 -8 -234 -30 -66 -57 -77
-188 -82 l-113 -3 0 205 0 206 28 3 c35 5 159 0 193 -7z"/>
<path d="M1720 1465 l0 -376 93 3 92 3 3 222 c2 181 -1 243 -17 344 -11 67
-18 126 -15 131 5 7 43 12 45 6 0 -2 20 -160 43 -353 l41 -350 185 0 185 0 32
255 c17 140 37 299 43 353 12 92 13 97 36 97 28 0 28 3 9 -120 -10 -64 -15
-176 -15 -343 l0 -248 90 3 91 3 0 370 1 370 -186 3 c-102 1 -186 -1 -186 -5
0 -20 -61 -623 -66 -655 -5 -32 -10 -38 -30 -38 -30 0 -29 -5 -54 260 -11 118
-25 266 -31 328 l-12 112 -188 0 -189 0 0 -375z"/>
<path d="M202 802 c-99 -36 -146 -100 -146 -203 0 -56 4 -73 27 -108 36 -55
91 -80 272 -127 87 -22 157 -46 167 -56 21 -21 23 -47 6 -71 -27 -36 -186 -43
-250 -10 -32 15 -58 60 -58 98 l0 25 -101 0 -100 0 6 -48 c9 -65 50 -147 89
-177 79 -60 119 -70 281 -70 135 0 155 2 200 23 98 45 135 100 135 202 0 74
-17 117 -60 153 -44 37 -73 48 -230 87 -162 40 -190 52 -190 85 0 48 57 72
147 62 56 -6 95 -33 108 -75 5 -18 16 -33 25 -33 64 -6 172 -4 176 3 3 4 -2
33 -11 64 -20 70 -77 134 -148 165 -73 33 -266 39 -345 11z"/>
<path d="M1761 800 c-102 -37 -166 -94 -207 -185 -93 -204 -17 -439 172 -531
55 -27 67 -29 179 -29 109 0 125 2 177 27 149 70 231 222 214 396 -15 141 -84
245 -204 304 -61 30 -76 33 -172 36 -85 2 -115 -2 -159 -18z m249 -172 c69
-36 92 -89 88 -204 -3 -77 -7 -96 -28 -127 -68 -101 -250 -104 -322 -6 -36 47
-48 156 -28 231 13 47 49 90 92 111 50 25 144 22 198 -5z"/>
<path d="M830 435 l0 -375 95 0 95 0 0 155 c0 136 2 156 17 162 19 7 18 8 163
-180 l105 -137 118 0 c65 0 116 4 113 8 -3 5 -73 92 -155 193 -83 101 -151
186 -151 189 0 3 68 84 150 180 l151 175 -107 3 c-126 3 -105 17 -256 -164
-75 -90 -109 -124 -125 -124 -23 0 -23 1 -23 145 l0 145 -95 0 -95 0 0 -375z"/>
<path d="M2400 460 c0 -335 1 -351 20 -370 11 -11 30 -22 42 -25 13 -3 127 -4
253 -3 l230 3 0 80 0 80 -180 5 -180 5 0 285 0 285 -92 3 -93 3 0 -351z"/>
<path d="M3020 435 l0 -375 295 0 295 0 1 58 c1 31 2 68 2 82 l1 25 -202 3
-202 2 0 65 0 65 175 0 175 0 0 75 0 75 -172 2 -173 3 0 63 0 63 198 2 199 2
1 80 1 80 -297 3 -297 2 0 -375z"/>
</g>
</svg>
