<?xml version="1.0" standalone="no"?>
<!DOCTYPE svg PUBLIC "-//W3C//DTD SVG 20010904//EN"
 "http://www.w3.org/TR/2001/REC-SVG-20010904/DTD/svg10.dtd">
<svg version="1.0" xmlns="http://www.w3.org/2000/svg"
 width="1164.000000pt" height="400.000000pt" viewBox="0 0 1164.000000 400.000000"
 preserveAspectRatio="xMidYMid meet">

<g transform="translate(0.000000,400.000000) scale(0.100000,-0.100000)"
fill="#fafafa" stroke="none">
<path d="M7630 3911 l-35 -6 0 -470 0 -470 65 0 65 0 5 143 5 143 36 -38 c20
-21 46 -51 58 -68 13 -16 48 -59 79 -94 32 -35 63 -72 70 -83 20 -28 152 -23
152 7 0 6 -20 32 -45 56 -25 24 -45 50 -45 57 0 7 -6 15 -14 18 -14 5 -168
186 -175 206 -4 13 69 88 86 88 8 0 17 10 22 23 9 24 41 56 41 41 0 -4 20 14
45 41 25 28 45 53 45 58 0 4 -34 7 -76 7 -41 0 -73 -4 -70 -8 6 -10 -138 -152
-153 -152 -6 0 -11 -4 -11 -9 0 -12 -29 -41 -41 -41 -5 0 -9 114 -9 280 l0
280 -32 -1 c-18 -1 -49 -4 -68 -8z"/>
<path d="M2989 3853 c-3 -115 2 -877 7 -884 6 -10 93 -13 116 -4 10 4 12 45
10 202 -2 108 0 203 3 211 4 11 20 1 60 -39 30 -30 55 -59 55 -66 0 -7 12 -18
27 -25 15 -7 34 -26 41 -41 8 -16 25 -32 38 -37 13 -5 29 -21 34 -35 5 -14 20
-30 34 -36 13 -6 29 -22 35 -35 6 -13 25 -33 42 -43 17 -11 36 -30 43 -43 10
-20 20 -23 71 -26 33 -2 69 2 82 9 l22 12 -37 39 c-20 22 -94 98 -164 168 -71
71 -128 133 -128 139 0 6 -6 11 -14 11 -8 0 -23 14 -33 30 -9 17 -23 30 -29
30 -9 0 -44 51 -44 64 0 1 67 69 148 151 82 83 154 160 161 173 6 12 18 22 26
22 17 0 57 49 49 61 -3 5 -31 9 -64 9 l-58 0 -68 -67 c-38 -37 -74 -76 -79
-87 -6 -12 -23 -27 -38 -34 -15 -7 -27 -17 -27 -23 0 -12 -37 -49 -50 -49 -5
0 -10 -6 -10 -13 0 -16 -102 -117 -118 -117 -10 0 -12 44 -12 193 l2 192 -66
3 c-58 3 -66 1 -67 -15z"/>
<path d="M6565 3818 c-14 -28 -25 -58 -25 -65 0 -8 -7 -16 -15 -19 -9 -4 -15
-11 -14 -18 1 -6 -5 -28 -14 -48 -10 -21 -17 -42 -17 -48 0 -5 -4 -10 -9 -10
-5 0 -12 -16 -15 -35 -4 -19 -11 -35 -15 -35 -5 0 -12 -12 -16 -27 -7 -31 -36
-99 -65 -155 -11 -20 -20 -43 -20 -51 0 -8 -7 -20 -15 -27 -8 -7 -12 -16 -10
-21 3 -4 -5 -25 -18 -46 -13 -21 -29 -60 -36 -88 -7 -27 -16 -52 -19 -55 -4
-3 -17 -24 -29 -47 -29 -52 -16 -65 59 -61 42 2 52 6 50 19 -1 9 5 22 13 29 8
7 15 21 15 31 0 11 4 19 9 19 5 0 17 27 27 60 10 33 21 60 26 60 4 0 8 7 8 15
0 13 26 15 174 15 142 0 176 -3 186 -15 7 -8 9 -15 4 -15 -4 0 -3 -5 4 -12 7
-7 12 -20 12 -29 0 -9 7 -22 16 -30 9 -7 14 -22 11 -36 -2 -13 -1 -23 2 -23 3
0 15 -20 26 -45 l19 -45 68 0 c57 0 68 3 68 17 0 9 -6 24 -13 32 -7 9 -21 43
-31 76 -9 33 -23 74 -31 90 -45 98 -55 123 -55 136 0 9 -3 19 -7 23 -5 4 -8
11 -9 14 0 4 -6 21 -14 37 -31 71 -39 92 -45 118 -4 15 -11 27 -15 27 -4 0
-11 17 -15 38 -4 20 -12 44 -19 52 -7 8 -19 36 -27 63 -7 26 -16 47 -20 47 -4
0 -10 17 -14 38 -4 20 -14 52 -22 70 -13 27 -21 32 -49 32 -31 0 -36 -5 -59
-52z m51 -225 c3 -10 10 -25 15 -33 14 -22 33 -64 34 -75 1 -5 7 -23 13 -38 7
-16 12 -31 12 -35 1 -4 9 -25 20 -47 32 -66 35 -65 -116 -65 l-135 0 7 23 c3
12 13 29 20 38 8 8 14 23 14 31 0 9 7 21 15 28 8 7 14 18 13 24 -1 6 5 25 12
41 7 17 23 51 34 77 22 51 33 58 42 31z"/>
<path d="M8224 3835 c-17 -23 -24 -41 -19 -52 3 -10 6 -20 6 -23 1 -19 37 -40
69 -40 67 0 101 72 58 123 -35 40 -79 37 -114 -8z"/>
<path d="M3993 3578 c-2 -5 -13 -8 -23 -8 -10 0 -25 -6 -32 -14 -8 -7 -28 -17
-46 -20 -28 -7 -44 -21 -107 -97 -36 -43 -45 -78 -45 -168 0 -99 12 -144 46
-182 l24 -25 -37 -33 -36 -32 26 -25 c31 -29 42 -30 59 -6 31 42 41 43 106 12
52 -25 74 -30 140 -30 73 0 111 9 162 40 8 5 30 17 48 26 37 19 70 60 92 114
21 52 25 225 6 254 -8 13 -17 38 -21 57 -6 30 -3 37 24 57 33 24 40 42 17 42
-8 0 -22 10 -31 23 l-16 22 -30 -37 -29 -36 -53 29 c-28 16 -64 29 -78 29 -14
0 -28 3 -32 6 -9 9 -128 10 -134 2z m151 -98 c14 -5 30 -18 36 -30 10 -18 -3
-34 -127 -154 -165 -160 -173 -162 -173 -36 0 44 4 88 9 98 5 9 17 35 28 57
12 25 31 46 53 57 39 19 134 24 174 8z m104 -201 c2 -41 -2 -90 -7 -110 -12
-40 -76 -109 -102 -109 -8 0 -19 -3 -22 -6 -12 -13 -93 -7 -129 9 -38 16 -51
37 -23 37 8 0 15 5 15 12 0 13 39 58 51 58 5 0 50 43 101 95 51 52 98 93 103
91 6 -1 11 -36 13 -77z"/>
<path d="M7374 3576 c-11 -5 -26 -13 -34 -18 -8 -4 -25 -12 -37 -18 -12 -5
-28 -18 -35 -30 -19 -29 -26 -25 -30 18 l-3 37 -54 3 c-37 2 -57 -1 -62 -10
-14 -22 -11 -572 3 -586 17 -17 113 -15 127 2 8 10 11 75 11 212 l-2 199 32
38 c17 20 38 37 46 37 8 0 23 5 33 12 15 9 26 8 52 -4 36 -18 54 -15 63 10 3
9 11 24 18 34 29 39 -74 91 -128 64z"/>
<path d="M9350 3579 c-71 -7 -120 -23 -120 -39 0 -5 -7 -10 -15 -10 -8 0 -15
-5 -15 -12 0 -6 -3 -8 -7 -5 -7 8 -43 -21 -43 -36 0 -5 -11 -18 -25 -29 -33
-25 -48 -85 -49 -188 -1 -157 38 -220 177 -282 15 -7 27 -16 27 -20 0 -11 218
-10 224 1 3 4 26 14 51 21 25 7 45 17 45 21 0 5 7 9 15 9 20 0 18 10 -5 38
-17 21 -25 23 -62 17 -24 -4 -47 -9 -51 -12 -13 -8 -137 -8 -137 0 0 4 -11 7
-24 7 -34 0 -56 10 -56 26 0 7 -8 19 -18 26 -23 17 -52 79 -52 112 l0 26 183
2 c232 2 245 2 252 10 12 12 -17 141 -43 190 -27 50 -63 79 -132 109 -14 6
-32 14 -40 18 -8 3 -44 4 -80 0z m91 -106 c16 -10 32 -26 35 -38 4 -11 10 -22
14 -25 4 -3 10 -16 13 -30 l6 -25 -149 0 c-83 0 -150 1 -150 2 0 16 55 103 66
103 7 0 14 4 14 9 0 24 112 27 151 4z"/>
<path d="M10044 3575 c-11 -5 -22 -14 -26 -20 -4 -5 -8 -6 -8 -2 0 15 -80 -54
-80 -69 0 -8 -4 -14 -9 -14 -6 0 -11 21 -13 48 l-3 47 -43 3 c-24 2 -49 -1
-55 -7 -9 -7 -11 -88 -9 -305 l3 -296 54 0 55 0 0 198 0 199 53 54 c28 30 55
53 60 51 4 -1 7 3 7 8 0 6 14 10 30 10 17 0 30 -4 30 -9 0 -5 11 -11 25 -13
25 -5 65 26 65 50 0 7 5 12 10 12 17 0 11 17 -7 24 -10 4 -31 14 -48 23 -36
20 -66 22 -91 8z"/>
<path d="M10564 3578 c-3 -4 -14 -8 -24 -8 -22 0 -54 -13 -95 -39 -38 -25 -45
-25 -45 -3 0 10 -5 23 -12 30 -17 17 -103 15 -117 -2 -8 -9 -11 -97 -9 -302
l3 -289 65 0 65 0 3 223 c2 201 4 223 20 229 9 4 19 10 22 13 15 21 99 50 145
50 89 0 89 -1 95 -279 l5 -236 63 -3 62 -3 0 242 c0 278 -5 309 -61 346 -38
25 -175 48 -185 31z"/>
<path d="M11194 3578 c-3 -4 -14 -8 -24 -8 -30 0 -117 -63 -154 -112 -19 -25
-38 -61 -41 -81 -4 -21 -11 -37 -16 -37 -14 0 -7 -162 8 -185 7 -11 13 -26 13
-35 0 -20 78 -110 95 -110 7 0 15 -6 18 -14 3 -7 22 -16 41 -20 20 -4 36 -11
36 -16 0 -6 45 -10 105 -10 70 0 105 4 105 11 0 6 7 8 15 5 16 -6 44 6 76 32
9 7 20 12 25 11 22 -4 24 3 7 31 -17 30 -19 31 -73 24 -30 -4 -56 -9 -57 -13
-4 -8 -121 -6 -130 2 -3 4 -16 7 -29 7 -29 0 -84 46 -84 70 0 10 -5 20 -11 22
-6 2 -13 25 -16 51 -7 55 -36 49 237 51 l185 1 -2 63 c-1 35 -7 70 -14 78 -6
8 -9 17 -6 21 4 3 -7 23 -23 43 -17 21 -30 42 -30 46 0 5 -15 16 -32 23 -18 8
-39 21 -46 28 -7 7 -23 13 -35 14 -12 0 -48 4 -80 8 -32 4 -60 4 -63 -1z m134
-104 c23 -16 69 -101 60 -110 -3 -3 -69 -6 -147 -7 l-142 -2 6 25 c4 14 11 27
16 28 5 2 9 10 9 17 0 7 14 25 31 39 25 21 41 26 88 26 35 0 65 -6 79 -16z"/>
<path d="M4688 3573 c-14 -2 -32 -11 -38 -19 -7 -8 -17 -14 -22 -14 -5 0 -26
-16 -46 -35 -37 -34 -37 -35 -37 -119 0 -74 3 -87 23 -108 25 -28 29 -48 7
-48 -26 0 -84 -91 -85 -132 0 -20 3 -38 8 -40 4 -1 19 -19 33 -38 l27 -36 -22
-27 c-12 -15 -26 -27 -31 -27 -17 0 -35 -38 -42 -86 -9 -71 22 -142 67 -149 3
0 27 -11 54 -23 57 -26 248 -43 260 -24 4 6 13 8 22 5 8 -3 29 1 47 10 18 8
57 27 89 41 31 15 64 39 74 54 9 15 26 33 36 41 11 7 17 19 14 27 -3 7 -1 16
4 19 6 4 10 29 10 56 0 40 -5 55 -25 75 -14 14 -25 29 -25 34 0 6 -4 10 -8 10
-5 0 -19 10 -32 23 -23 21 -35 22 -205 27 -165 5 -183 7 -208 26 -32 26 -34
44 -7 69 16 15 42 19 130 23 76 3 113 9 121 18 6 8 19 14 28 14 31 0 84 49
107 97 28 60 29 74 4 118 -11 20 -20 38 -20 40 0 3 24 5 53 5 40 0 58 5 70 18
25 27 22 61 -5 66 -32 7 -398 14 -430 9z m166 -93 c53 -20 72 -107 35 -154
-31 -39 -129 -75 -129 -47 0 5 -13 11 -29 14 -76 15 -95 100 -37 161 30 32 39
36 84 36 28 0 62 -4 76 -10z m129 -543 c22 -14 27 -25 27 -57 0 -22 -4 -40 -8
-40 -5 0 -14 -11 -20 -25 -6 -14 -16 -25 -22 -25 -7 0 -18 -7 -26 -15 -8 -8
-31 -17 -52 -20 -20 -3 -44 -10 -52 -14 -37 -19 -204 10 -237 41 -47 44 -13
135 60 159 21 7 40 15 42 18 1 3 61 4 132 1 100 -4 136 -10 156 -23z"/>
<path d="M5418 3574 c-14 -3 -32 -12 -38 -20 -7 -8 -18 -14 -24 -14 -16 0 -96
-68 -96 -81 0 -6 -11 -27 -25 -47 -14 -20 -25 -47 -25 -59 0 -12 -4 -25 -10
-28 -5 -3 -10 -33 -10 -65 0 -32 5 -62 10 -65 6 -3 10 -12 10 -20 0 -18 14
-50 43 -100 25 -42 90 -94 118 -95 9 0 22 -7 29 -15 16 -19 220 -22 220 -4 0
6 7 9 15 6 8 -4 17 -2 20 3 4 6 16 10 28 10 12 0 32 8 45 18 20 16 21 20 10
45 -12 25 -17 27 -50 22 -79 -13 -190 -21 -194 -13 -3 4 -19 8 -36 8 -35 0
-104 61 -94 85 3 8 1 17 -5 20 -5 4 -7 10 -4 15 3 5 1 11 -5 15 -5 3 -10 17
-10 31 l0 24 198 2 c108 0 204 1 212 2 31 2 23 92 -16 183 -8 17 -14 35 -14
41 0 11 -71 62 -88 62 -7 0 -12 5 -12 12 0 6 -3 8 -7 5 -3 -4 -12 -2 -19 4
-14 11 -134 20 -176 13z m165 -111 c30 -24 50 -61 52 -96 0 -9 -274 -12 -282
-3 -3 3 -2 13 2 23 5 10 9 25 11 33 2 8 17 27 34 43 26 23 39 27 89 27 48 0
64 -5 94 -27z"/>
<path d="M8222 3557 c-8 -9 -11 -106 -9 -303 l2 -289 65 0 65 0 3 303 2 302
-59 0 c-36 0 -63 -5 -69 -13z"/>
<path d="M8466 3561 c-7 -11 2 -39 18 -61 7 -8 18 -33 25 -55 13 -42 30 -82
62 -151 10 -22 19 -48 19 -57 0 -9 5 -19 10 -22 6 -4 8 -10 5 -15 -3 -5 -1
-11 5 -15 5 -3 10 -15 10 -26 0 -11 7 -22 15 -25 8 -4 15 -15 15 -26 0 -11 8
-37 18 -57 10 -20 25 -49 33 -66 8 -16 23 -31 33 -33 20 -4 56 25 56 46 0 7 7
26 14 40 8 15 33 68 56 117 23 50 48 102 56 117 7 14 14 33 14 41 0 8 6 20 14
26 8 6 19 32 25 57 7 25 25 70 40 99 34 63 28 75 -37 75 -35 0 -45 -4 -49 -19
-3 -11 -11 -22 -19 -25 -8 -3 -14 -14 -14 -23 0 -10 -6 -27 -14 -38 -7 -11
-19 -44 -26 -72 -6 -29 -15 -53 -19 -53 -10 0 -48 -90 -56 -133 -4 -21 -11
-40 -16 -42 -9 -6 -30 37 -54 113 -9 28 -27 71 -39 95 -12 23 -28 63 -35 89
-8 26 -20 53 -27 59 -8 6 -14 20 -14 30 0 16 -8 19 -59 19 -33 0 -62 -4 -65
-9z"/>
<path d="M50 3201 c0 -31 0 -31 54 -31 30 0 58 -5 61 -11 4 -6 37 -9 80 -8 39
1 76 0 81 -3 5 -3 47 -9 94 -13 47 -4 91 -11 98 -17 7 -6 30 -8 52 -5 22 3 42
1 45 -3 3 -4 42 -11 87 -15 45 -4 89 -11 98 -16 8 -5 56 -16 105 -24 140 -25
218 -41 237 -49 9 -4 22 -5 28 -1 6 4 16 3 23 -2 15 -12 99 -37 111 -34 4 1
13 -2 20 -8 6 -5 31 -12 56 -16 24 -4 51 -11 60 -15 17 -10 134 -40 167 -44
13 -1 26 -6 30 -9 3 -4 16 -7 27 -7 12 0 34 -7 50 -15 15 -8 32 -13 36 -10 5
3 11 1 15 -5 3 -5 13 -10 21 -10 8 0 34 -8 57 -19 23 -10 62 -22 87 -26 25 -4
50 -11 55 -15 6 -4 28 -13 50 -20 22 -7 44 -16 49 -21 6 -5 18 -9 27 -9 10 0
30 -5 46 -12 15 -6 33 -12 38 -13 12 -1 34 -10 95 -36 25 -10 63 -21 85 -25
22 -4 45 -10 50 -14 6 -4 28 -13 50 -20 22 -7 45 -17 51 -22 7 -5 16 -8 20 -7
5 1 22 -3 37 -9 16 -7 37 -12 47 -12 10 0 21 -4 25 -9 3 -5 18 -12 34 -16 16
-3 35 -13 42 -21 6 -8 20 -14 30 -14 10 0 30 -5 46 -12 15 -6 32 -10 37 -9 4
1 13 -3 20 -8 6 -5 31 -14 56 -21 40 -10 67 -20 135 -50 11 -5 39 -14 62 -20
23 -6 45 -15 48 -20 3 -5 12 -7 20 -3 8 3 15 1 15 -5 0 -5 16 -13 35 -16 19
-4 47 -13 62 -21 15 -8 35 -15 43 -15 9 0 25 -7 37 -15 12 -9 26 -15 30 -14 4
1 21 -3 36 -9 16 -7 37 -12 47 -12 10 0 21 -4 24 -9 3 -5 17 -12 30 -15 14 -3
38 -11 53 -18 15 -6 30 -12 33 -12 3 -1 10 -4 15 -7 6 -4 24 -9 40 -13 27 -6
58 -18 125 -51 14 -7 45 -15 70 -19 24 -4 49 -10 55 -15 5 -4 33 -16 60 -25
28 -10 64 -24 82 -32 17 -8 35 -14 41 -14 5 0 23 -7 38 -15 16 -8 37 -15 47
-15 10 0 29 -7 42 -16 13 -9 29 -13 35 -9 5 3 10 2 10 -3 0 -6 15 -13 33 -16
18 -3 51 -15 72 -26 22 -11 45 -20 52 -20 7 0 21 -4 31 -10 28 -16 76 -33 86
-31 6 1 19 -2 30 -8 25 -13 78 -34 88 -35 3 -1 10 -4 14 -9 4 -4 14 -7 23 -7
9 0 29 -7 45 -15 15 -8 32 -12 37 -9 5 3 16 -2 25 -10 8 -9 26 -16 39 -16 13
0 26 -4 30 -9 3 -5 30 -15 60 -22 30 -7 55 -15 55 -19 0 -4 21 -13 48 -20 26
-7 52 -17 58 -22 7 -5 16 -8 20 -7 5 1 22 -3 37 -9 16 -7 32 -12 36 -12 4 0
24 -9 46 -20 22 -11 45 -20 51 -20 6 0 25 -7 40 -15 16 -8 37 -15 46 -15 9 0
20 -5 23 -10 4 -6 10 -8 15 -5 5 3 17 1 27 -4 38 -21 110 -50 151 -60 23 -7
42 -15 42 -20 0 -7 -46 -79 -100 -156 -8 -12 -28 -42 -45 -66 -16 -24 -44 -62
-61 -84 -17 -22 -39 -55 -48 -73 -21 -40 -59 -61 -80 -43 -8 7 -20 10 -25 7
-5 -4 -12 -2 -15 3 -4 5 -31 13 -61 16 -31 4 -58 11 -60 15 -3 5 -30 14 -60
21 -30 7 -55 16 -55 20 0 4 -24 10 -52 14 -29 4 -63 13 -76 21 -12 8 -27 12
-32 9 -5 -3 -11 -1 -14 4 -3 5 -22 12 -42 16 -20 3 -44 10 -53 15 -9 4 -56 20
-106 35 -49 15 -97 30 -105 33 -8 3 -19 4 -24 3 -4 -1 -13 2 -20 7 -15 13 -88
37 -102 34 -6 -1 -17 5 -24 13 -7 8 -23 15 -36 15 -12 0 -25 4 -28 9 -3 5 -22
12 -42 16 -20 3 -48 11 -63 18 -14 6 -30 12 -36 12 -5 1 -23 7 -38 13 -16 7
-34 12 -42 12 -7 0 -26 7 -41 15 -16 8 -36 15 -44 15 -9 0 -26 7 -38 16 -13 9
-26 13 -29 10 -3 -3 -15 1 -27 9 -11 8 -33 15 -48 15 -16 0 -28 5 -28 10 0 6
-6 10 -12 9 -14 -2 -34 4 -93 32 -47 21 -76 32 -90 34 -30 4 -93 26 -111 39
-11 8 -37 17 -57 21 -21 4 -40 11 -43 16 -3 5 -13 9 -23 9 -10 0 -32 7 -50 16
-17 9 -37 17 -44 18 -7 1 -16 4 -22 8 -5 3 -26 9 -45 13 -19 4 -39 11 -45 15
-5 4 -28 13 -50 20 -22 7 -45 17 -51 22 -7 5 -16 8 -20 7 -9 -3 -51 14 -96 37
-14 8 -32 14 -40 14 -7 1 -31 9 -53 20 -22 11 -48 19 -57 20 -9 0 -20 5 -23
11 -4 6 -13 8 -20 5 -7 -2 -39 9 -71 25 -33 16 -66 29 -74 29 -8 0 -28 7 -44
15 -15 8 -32 13 -36 10 -4 -3 -21 2 -36 10 -16 8 -34 15 -40 15 -6 0 -17 7
-24 15 -7 8 -22 15 -34 15 -11 0 -34 7 -50 15 -15 8 -35 15 -42 15 -8 0 -22 4
-32 9 -42 21 -94 41 -108 41 -8 0 -34 8 -57 19 -75 33 -83 35 -140 50 -21 5
-44 14 -52 21 -8 7 -22 9 -31 6 -8 -3 -22 1 -30 9 -9 8 -25 15 -37 15 -12 0
-31 7 -41 15 -11 8 -27 15 -35 15 -9 0 -28 6 -42 14 -14 7 -43 16 -63 20 -21
4 -50 12 -65 18 -14 6 -28 12 -31 13 -3 1 -18 7 -33 13 -16 7 -38 12 -51 12
-12 0 -26 4 -31 9 -6 5 -28 14 -50 21 -22 7 -44 16 -50 20 -5 4 -36 13 -67 20
-32 6 -60 16 -63 21 -4 5 -18 9 -33 9 -15 0 -46 9 -69 20 -23 10 -63 22 -88
25 -25 4 -45 12 -45 17 0 6 -7 8 -15 5 -8 -4 -27 0 -42 8 -15 8 -36 15 -45 15
-9 0 -20 5 -23 10 -4 6 -14 10 -23 9 -10 -1 -30 3 -45 9 -16 7 -39 12 -52 12
-13 0 -26 4 -30 10 -3 5 -12 7 -20 3 -8 -3 -15 -1 -15 5 0 5 -21 13 -47 17
-27 4 -53 11 -60 17 -6 5 -20 8 -30 7 -10 -1 -31 3 -46 9 -16 7 -37 12 -47 12
-10 0 -22 5 -26 11 -3 6 -17 9 -30 6 -14 -2 -27 -1 -29 3 -3 4 -25 11 -50 14
-24 4 -47 11 -50 16 -3 5 -28 12 -56 16 -27 4 -52 10 -54 15 -3 4 -16 6 -30 3
-13 -2 -27 0 -30 6 -3 5 -19 10 -36 10 l-29 0 0 -63 c0 -80 6 -85 140 -138 19
-7 41 -19 49 -27 8 -7 52 -32 98 -54 45 -22 83 -44 83 -48 0 -5 13 -11 30 -15
16 -4 32 -10 35 -15 3 -5 20 -16 38 -26 91 -48 125 -66 152 -84 17 -11 44 -27
61 -37 17 -10 58 -36 90 -58 54 -36 73 -47 129 -79 11 -6 34 -21 52 -33 17
-13 36 -23 42 -23 6 0 11 -4 11 -9 0 -5 20 -21 44 -35 24 -14 79 -52 123 -84
43 -33 84 -61 90 -63 6 -2 26 -16 45 -31 66 -54 248 -187 248 -182 0 3 6 -1
14 -8 19 -17 3 -32 -20 -20 -33 17 -79 36 -89 37 -5 1 -20 6 -32 13 -12 7 -28
12 -35 12 -7 1 -31 9 -53 20 -22 11 -48 19 -57 20 -9 0 -20 5 -23 10 -4 6 -11
7 -17 4 -6 -4 -13 -3 -17 2 -5 8 -51 33 -71 39 -3 1 -18 8 -35 15 -16 7 -34
14 -40 15 -5 0 -23 6 -38 13 -16 7 -36 12 -46 12 -10 0 -24 7 -31 15 -7 8 -18
15 -24 15 -6 0 -24 7 -40 15 -15 8 -32 13 -37 10 -4 -3 -16 -1 -26 4 -47 25
-105 51 -113 51 -5 0 -21 5 -37 12 -15 7 -32 13 -38 13 -16 3 -68 24 -98 40
-16 8 -39 15 -52 15 -12 0 -28 7 -35 15 -7 9 -21 13 -30 10 -9 -3 -23 1 -30
10 -7 8 -23 15 -36 15 -13 0 -24 4 -24 9 0 5 -17 12 -37 16 -21 4 -56 15 -78
24 -68 31 -79 34 -97 32 -10 -1 -18 2 -18 8 0 5 -20 13 -45 17 -25 3 -48 10
-51 15 -11 18 -24 -3 -24 -37 0 -29 9 -42 23 -31 2 1 10 -3 18 -9 8 -7 30 -15
49 -19 19 -4 40 -11 45 -15 6 -4 28 -13 50 -20 22 -7 46 -17 53 -23 6 -5 12
-6 12 -2 0 4 6 3 13 -3 7 -6 32 -14 55 -18 23 -3 47 -13 53 -20 6 -8 20 -14
30 -14 10 0 30 -5 46 -12 15 -6 30 -12 33 -13 3 -1 18 -7 33 -13 16 -7 34 -12
42 -12 8 0 16 -4 19 -9 3 -4 26 -14 51 -21 25 -7 48 -17 51 -21 3 -5 14 -9 24
-9 19 0 123 -37 185 -66 17 -8 45 -17 63 -20 17 -4 32 -10 32 -15 0 -5 7 -9
15 -9 8 0 23 -4 33 -9 43 -23 92 -41 110 -41 11 0 25 -7 32 -15 7 -9 21 -13
30 -10 9 3 23 -1 30 -10 7 -8 20 -15 30 -15 10 0 31 -7 46 -15 16 -8 36 -15
44 -15 9 0 25 -7 37 -15 12 -9 26 -14 30 -13 9 2 65 -23 73 -33 3 -3 27 -11
55 -18 27 -7 54 -16 60 -20 5 -5 27 -14 48 -21 22 -7 51 -18 65 -26 15 -8 37
-14 49 -14 13 0 30 -12 43 -30 12 -16 24 -29 28 -27 9 2 77 -50 105 -80 11
-13 27 -23 34 -23 7 0 13 -7 13 -15 0 -8 7 -15 15 -15 8 0 19 -9 25 -20 6 -11
15 -20 20 -20 5 0 28 -18 52 -40 24 -22 46 -40 49 -40 3 0 31 -25 62 -55 31
-30 59 -55 64 -55 5 0 37 -27 73 -60 36 -33 73 -63 82 -66 10 -3 23 -14 28
-25 6 -10 17 -19 24 -19 7 0 31 -20 52 -44 21 -25 41 -43 45 -40 3 2 18 -10
33 -26 14 -17 31 -30 36 -30 12 0 37 -21 89 -72 21 -21 42 -38 47 -38 5 0 54
-36 109 -80 55 -43 105 -79 111 -80 6 0 19 -9 30 -21 10 -12 39 -33 64 -47 43
-26 68 -44 95 -69 7 -7 24 -15 38 -18 14 -4 28 -13 30 -20 3 -7 18 -16 34 -19
15 -4 35 -13 43 -21 15 -13 160 -87 215 -110 17 -7 44 -18 60 -25 17 -8 38
-12 48 -11 9 1 17 -2 17 -8 0 -5 27 -13 60 -17 33 -4 60 -11 60 -16 0 -6 9 -8
20 -5 11 3 23 1 26 -4 8 -14 334 -12 334 2 0 6 7 8 16 5 9 -4 22 -2 28 3 6 4
34 12 61 16 28 4 55 10 60 15 6 4 28 13 50 20 22 7 47 18 55 25 8 7 32 18 52
24 20 7 38 16 40 20 3 9 77 56 93 61 6 1 26 15 46 31 20 16 39 29 42 29 4 0
17 10 31 22 14 13 47 41 75 63 27 22 50 46 50 53 1 16 -10 15 306 16 155 1
276 5 285 11 8 5 25 8 37 7 11 -2 24 2 28 7 3 6 15 11 26 11 11 0 37 9 57 19
54 28 96 45 106 42 5 -1 21 10 37 24 15 15 30 26 34 25 7 -2 26 12 99 72 19
16 38 28 44 28 6 0 20 13 32 30 17 24 29 30 59 30 20 0 41 -4 46 -9 13 -11
229 -31 345 -31 97 0 175 14 201 36 8 8 21 14 29 14 7 0 39 18 71 40 32 22 63
40 69 40 5 0 10 5 10 10 0 6 6 10 13 10 8 0 24 11 37 25 13 14 27 25 31 25 4
0 33 27 65 59 53 55 59 59 93 54 20 -4 39 -10 42 -15 4 -6 19 -8 35 -7 16 2
34 0 40 -4 6 -3 49 -9 95 -13 46 -4 90 -11 96 -16 7 -6 51 -13 98 -16 47 -2
88 -9 91 -13 7 -12 441 -12 448 0 3 4 37 11 77 14 39 3 77 11 84 17 7 6 26 10
41 10 35 -2 108 16 151 35 17 8 40 15 50 15 11 0 28 7 39 15 10 8 28 15 39 15
11 0 30 7 41 15 12 8 24 12 27 9 3 -3 29 10 59 28 54 35 88 52 99 50 4 -1 17
10 29 23 13 14 29 25 35 25 31 0 405 334 405 362 0 4 30 36 66 71 36 36 71 75
78 88 6 13 21 28 32 34 11 6 46 35 78 65 32 30 63 57 69 59 6 2 20 15 30 28
11 13 22 22 24 19 3 -3 19 8 37 25 17 16 41 32 54 35 12 4 22 10 22 15 0 8 31
26 100 60 83 40 136 64 146 64 6 0 18 5 25 11 8 5 25 15 39 21 14 6 39 16 55
23 17 8 38 12 48 11 9 -1 17 2 17 8 0 5 27 13 60 17 33 4 60 11 60 16 0 6 7 7
15 4 9 -3 23 -1 33 4 9 5 56 12 105 15 48 4 87 10 87 13 0 4 56 7 125 7 69 0
125 -3 125 -6 0 -3 39 -9 86 -12 47 -3 92 -11 99 -17 8 -7 27 -10 42 -9 15 2
33 1 38 -3 6 -3 30 -9 55 -13 25 -4 50 -12 57 -17 6 -5 17 -8 25 -7 7 1 31 -6
53 -17 22 -10 45 -19 50 -20 32 -4 233 -103 239 -118 3 -7 5 -7 5 1 1 7 7 10
14 7 8 -3 20 3 28 12 12 15 9 20 -26 50 -22 19 -45 34 -51 34 -5 0 -16 6 -22
12 -7 7 -16 13 -20 13 -4 1 -36 15 -71 33 -34 18 -69 32 -77 32 -8 0 -25 6
-37 14 -12 7 -42 17 -67 20 -24 4 -47 11 -50 16 -3 5 -39 14 -80 20 -41 6 -83
16 -93 21 -11 6 -40 10 -65 8 -26 -1 -55 2 -66 6 -25 11 -445 -2 -459 -13 -7
-6 -38 -13 -70 -17 -31 -4 -60 -11 -63 -16 -3 -5 -10 -7 -15 -3 -5 3 -15 1
-22 -4 -7 -5 -32 -12 -57 -16 -24 -4 -51 -12 -59 -19 -8 -7 -16 -11 -18 -9 -6
5 -58 -11 -93 -29 -19 -9 -79 -38 -132 -63 -53 -26 -100 -51 -103 -56 -3 -6
-15 -10 -26 -10 -10 0 -19 -4 -19 -10 0 -5 -6 -10 -13 -10 -7 0 -30 -16 -52
-35 -22 -19 -46 -35 -52 -35 -7 0 -18 -9 -25 -20 -7 -11 -18 -20 -24 -20 -7 0
-38 -27 -70 -60 -32 -33 -62 -60 -68 -60 -5 0 -19 8 -30 18 -12 10 -37 25 -56
32 -19 8 -52 24 -73 37 -21 13 -42 21 -47 18 -5 -3 -17 -1 -27 4 -65 35 -107
50 -149 56 -27 4 -54 11 -60 16 -6 5 -22 9 -35 8 -13 0 -46 5 -72 11 -65 16
-411 10 -428 -7 -10 -10 -20 -7 -46 13 -18 14 -33 23 -33 20 0 -3 -23 8 -50
24 -28 16 -71 39 -98 51 -26 12 -83 39 -127 60 -44 21 -118 50 -165 65 -47 15
-89 30 -95 34 -5 4 -26 11 -45 15 -19 4 -40 12 -47 17 -6 5 -17 8 -25 7 -7 -1
-26 3 -41 9 -16 7 -38 12 -51 12 -12 0 -26 4 -32 9 -12 12 -145 31 -211 31
-28 -1 -54 4 -58 10 -8 13 -388 14 -413 1 -9 -5 -62 -14 -117 -20 -55 -6 -101
-16 -103 -21 -2 -5 -19 -12 -38 -16 -19 -3 -37 -10 -39 -15 -3 -4 -11 -6 -18
-4 -20 8 -287 -135 -287 -154 0 -3 -12 -14 -27 -23 -37 -22 -243 -231 -243
-247 0 -3 -18 -26 -40 -50 -22 -25 -40 -49 -40 -54 0 -5 -12 -24 -27 -42 -25
-28 -42 -54 -107 -159 -10 -17 -27 -41 -37 -55 -10 -13 -19 -30 -19 -37 0 -17
-4 -17 -43 -1 -18 8 -70 27 -117 42 -47 15 -96 33 -110 40 -14 7 -45 16 -70
20 -24 4 -54 13 -65 21 -11 7 -41 18 -67 25 -27 6 -48 15 -48 19 0 4 -17 11
-37 15 -21 4 -42 10 -48 14 -5 4 -30 13 -55 20 -25 7 -49 16 -55 20 -5 4 -30
13 -55 20 -25 8 -58 19 -75 26 -16 7 -46 16 -65 20 -19 4 -37 10 -40 14 -5 5
-60 28 -85 35 -59 16 -126 39 -130 46 -2 4 -20 11 -39 14 -20 4 -48 13 -63 21
-15 8 -35 15 -43 15 -9 0 -26 7 -38 16 -13 9 -26 13 -29 10 -3 -3 -15 1 -27 9
-11 8 -33 15 -48 15 -15 0 -29 4 -32 9 -3 5 -17 12 -30 15 -14 3 -38 12 -53
18 -15 7 -32 13 -38 13 -12 2 -35 11 -92 36 -23 11 -51 19 -62 19 -11 0 -22 4
-25 9 -3 4 -27 14 -53 20 -27 7 -66 21 -88 31 -75 35 -113 50 -125 50 -7 0
-24 6 -38 13 -34 18 -144 55 -199 68 -24 6 -43 14 -43 19 0 4 -17 11 -37 15
-21 4 -47 12 -58 18 -11 7 -24 12 -30 13 -5 0 -23 6 -38 12 -16 7 -37 12 -48
12 -10 0 -19 4 -19 10 0 5 -17 12 -37 16 -21 4 -47 13 -58 20 -11 8 -25 14
-32 14 -6 0 -24 5 -40 12 -15 6 -32 12 -38 12 -5 1 -23 8 -40 15 -78 34 -97
41 -114 41 -10 0 -24 7 -31 15 -7 9 -19 14 -26 11 -7 -3 -26 1 -41 9 -15 8
-36 15 -45 15 -9 0 -20 5 -23 10 -4 6 -12 10 -18 9 -7 -1 -25 3 -40 9 -16 7
-34 12 -40 12 -7 0 -21 7 -31 15 -11 8 -31 15 -45 15 -14 0 -35 7 -45 15 -11
8 -25 15 -32 15 -7 0 -25 5 -41 12 -15 6 -32 12 -38 13 -5 0 -23 6 -38 13 -16
7 -33 12 -38 12 -5 0 -26 9 -46 20 -21 11 -49 20 -63 20 -14 0 -43 9 -65 20
-22 11 -47 20 -57 20 -9 0 -20 5 -23 11 -4 6 -13 8 -20 5 -7 -2 -16 -1 -21 4
-8 7 -50 20 -111 33 -7 2 -16 6 -19 10 -4 4 -16 7 -26 7 -11 0 -38 8 -61 19
-23 10 -64 22 -92 26 -27 4 -55 11 -62 17 -13 10 -76 29 -103 30 -8 0 -19 4
-25 8 -5 4 -26 11 -45 15 -19 4 -41 12 -47 17 -7 6 -24 7 -37 4 -14 -3 -27 -2
-30 3 -3 5 -27 12 -53 16 -27 4 -54 11 -60 17 -7 6 -22 8 -33 5 -11 -3 -23 -1
-26 4 -3 5 -17 9 -32 9 -15 0 -40 7 -57 16 -16 8 -41 14 -55 12 -14 -1 -30 0
-35 4 -6 3 -41 9 -80 12 -38 4 -83 13 -100 21 -16 7 -72 16 -123 20 -50 4 -95
11 -98 17 -3 5 -27 8 -53 7 -26 -1 -52 0 -57 4 -5 3 -87 9 -182 13 l-172 7 0
-32z m180 -566 c25 -4 51 -12 58 -17 6 -6 12 -7 12 -3 0 4 6 3 13 -3 6 -5 35
-13 62 -17 28 -4 55 -10 60 -15 6 -4 41 -13 80 -19 38 -7 74 -16 80 -20 5 -5
35 -14 65 -21 30 -7 61 -17 67 -22 7 -6 22 -8 33 -5 11 3 23 1 26 -4 3 -5 12
-9 21 -9 8 0 29 -6 46 -14 27 -12 85 -29 134 -39 7 -2 16 -6 19 -10 4 -4 17
-7 28 -7 12 0 34 -7 50 -15 16 -8 34 -14 40 -14 6 1 18 -1 26 -4 54 -23 76
-31 85 -32 6 0 15 -3 20 -6 6 -4 28 -10 50 -14 22 -4 46 -11 52 -17 7 -6 19
-8 28 -5 8 4 17 2 20 -3 5 -9 117 -45 173 -56 17 -4 32 -9 32 -13 0 -4 21 -13
48 -20 26 -8 52 -18 59 -23 7 -5 17 -7 22 -4 5 4 12 2 15 -3 6 -9 63 -25 82
-22 6 1 17 -6 24 -14 7 -8 23 -15 36 -15 12 0 26 -5 29 -10 4 -6 10 -8 15 -5
5 3 11 1 14 -4 4 -5 25 -12 49 -16 23 -4 58 -15 77 -25 69 -35 106 -49 145
-55 22 -4 45 -10 50 -15 6 -4 28 -13 50 -20 22 -7 45 -17 51 -22 7 -5 16 -8
20 -7 5 1 23 -4 39 -11 17 -7 36 -12 43 -11 8 1 19 -2 25 -7 7 -5 30 -15 52
-22 22 -7 45 -16 50 -20 6 -4 33 -13 60 -20 28 -7 55 -16 60 -20 6 -4 24 -11
42 -14 17 -4 37 -13 43 -21 6 -7 33 -16 61 -20 27 -4 49 -10 49 -14 0 -4 29
-15 65 -26 36 -10 65 -22 65 -26 0 -4 21 -11 48 -15 26 -3 54 -12 62 -19 21
-16 110 -48 117 -41 3 3 15 -1 27 -9 11 -8 30 -15 42 -15 12 0 27 -7 34 -15 7
-8 20 -15 29 -15 10 0 26 -7 37 -15 10 -8 24 -15 31 -15 6 0 24 -5 40 -12 15
-6 33 -12 38 -13 6 0 23 -6 38 -13 16 -7 32 -12 36 -12 4 0 24 -9 46 -20 22
-11 49 -20 62 -20 12 0 25 -5 28 -11 4 -6 13 -8 20 -5 8 3 19 -2 25 -10 7 -8
18 -14 25 -14 7 0 26 -7 41 -15 16 -8 41 -15 55 -15 15 0 32 -7 39 -15 7 -9
21 -13 30 -10 9 3 23 -1 30 -10 7 -8 23 -15 36 -15 12 0 25 -4 29 -9 3 -5 31
-15 63 -22 31 -7 73 -23 93 -35 20 -13 39 -20 43 -17 3 3 21 -2 40 -11 19 -9
41 -16 49 -16 9 0 19 -5 22 -10 4 -6 10 -8 15 -5 5 3 17 1 27 -5 26 -15 101
-40 153 -51 25 -6 59 -17 77 -25 17 -8 35 -14 40 -14 4 0 21 -7 37 -15 15 -8
32 -13 36 -10 5 3 11 1 14 -4 3 -5 26 -12 51 -15 24 -4 47 -12 51 -17 3 -6 13
-9 22 -8 10 1 30 -3 45 -9 16 -7 34 -12 42 -12 8 0 17 -5 20 -10 4 -6 12 -10
18 -9 7 1 20 -1 30 -4 9 -4 25 -10 35 -14 9 -3 25 -5 35 -4 10 1 24 -3 32 -9
7 -6 32 -16 56 -23 23 -7 44 -17 46 -22 1 -6 -13 -27 -32 -48 -19 -21 -35 -40
-35 -42 0 -8 -63 -78 -164 -182 -89 -91 -115 -113 -138 -113 -15 0 -28 5 -28
10 0 6 -17 10 -37 10 -63 1 -221 26 -235 37 -7 6 -40 14 -73 18 -33 4 -64 11
-70 15 -5 4 -43 12 -82 19 -40 7 -75 16 -78 21 -3 4 -26 11 -52 15 -27 4 -53
11 -60 17 -7 5 -21 7 -33 3 -11 -3 -20 -2 -20 3 0 6 -18 13 -40 17 -22 4 -42
11 -45 15 -3 5 -12 7 -20 3 -8 -3 -15 0 -15 5 0 6 -21 14 -47 18 -27 3 -53 11
-60 16 -7 5 -17 7 -22 4 -5 -4 -12 -2 -15 3 -3 4 -24 11 -46 15 -22 3 -40 10
-40 14 0 5 -24 14 -52 21 -29 8 -57 17 -63 21 -5 4 -30 11 -55 15 -25 4 -56
12 -70 18 -14 6 -29 12 -35 12 -5 1 -23 8 -40 15 -16 7 -38 12 -47 11 -10 -1
-18 2 -18 7 0 5 -27 15 -60 23 -33 7 -60 16 -60 20 0 4 -17 10 -37 14 -21 4
-51 13 -68 20 -16 7 -43 16 -60 20 -16 3 -52 14 -80 25 -72 27 -89 33 -100 35
-11 1 -27 8 -92 36 -23 11 -47 19 -53 19 -7 0 -27 7 -46 16 -19 9 -38 14 -41
10 -4 -3 -13 0 -22 7 -9 8 -50 24 -91 37 -81 25 -88 28 -138 53 -18 9 -38 14
-46 11 -7 -3 -19 2 -26 11 -7 8 -23 15 -35 15 -12 0 -28 7 -35 15 -7 8 -23 15
-37 15 -13 0 -34 5 -46 12 -12 7 -26 12 -32 13 -5 0 -23 7 -40 14 -72 33 -94
41 -108 41 -8 0 -20 7 -27 15 -7 9 -18 14 -25 12 -6 -3 -19 1 -30 9 -10 8 -30
14 -44 14 -13 0 -31 7 -40 15 -9 8 -43 36 -76 62 -33 26 -64 52 -70 59 -5 6
-26 21 -47 33 -20 12 -39 28 -42 36 -3 8 -11 15 -19 15 -7 0 -24 11 -37 25
-13 14 -29 25 -36 25 -7 0 -19 8 -26 18 -11 15 -58 50 -117 87 -8 6 -40 29
-69 53 -30 23 -58 42 -63 42 -6 0 -22 11 -36 24 -14 13 -37 30 -52 38 -14 7
-32 21 -39 31 -7 9 -18 17 -23 17 -6 0 -37 19 -71 43 -63 43 -122 81 -148 93
-8 4 -28 17 -45 28 -39 28 -65 43 -95 56 -14 6 -34 19 -45 28 -23 20 -33 26
-163 94 -53 28 -109 59 -124 69 -14 11 -33 19 -42 19 -9 0 -16 4 -16 8 0 5
-12 15 -27 23 -16 7 -45 24 -65 36 -21 13 -38 21 -38 19 0 -10 -104 51 -108
64 -4 12 -2 13 9 4 8 -7 34 -15 59 -19z m7054 -284 c11 -9 32 -12 61 -9 25 3
47 2 50 -2 3 -5 32 -11 65 -15 33 -4 62 -11 65 -15 3 -4 29 -11 58 -15 28 -4
61 -13 72 -20 11 -7 41 -16 65 -20 25 -4 59 -14 77 -22 18 -8 37 -12 43 -8 5
3 13 -1 16 -9 3 -9 17 -16 30 -16 13 0 24 -4 24 -10 0 -5 4 -10 9 -10 5 0 22
-5 38 -12 15 -6 33 -10 39 -9 6 0 17 -6 24 -14 7 -8 19 -15 27 -15 12 0 44
-15 113 -51 8 -5 30 -16 48 -25 39 -20 41 -31 5 -40 -16 -4 -45 -18 -65 -31
-21 -13 -41 -22 -45 -21 -16 4 -198 -92 -254 -134 -20 -16 -41 -28 -47 -28 -5
0 -15 -7 -22 -15 -28 -34 -112 -58 -140 -40 -24 16 -315 19 -408 4 -46 -7 -85
-16 -88 -21 -3 -4 -14 -8 -25 -8 -11 0 -50 -14 -87 -32 -37 -18 -69 -32 -72
-33 -3 0 -23 -11 -45 -25 -22 -13 -44 -27 -50 -30 -5 -3 -30 -18 -54 -35 -24
-16 -53 -35 -63 -41 -11 -7 -52 -41 -91 -77 -40 -36 -90 -79 -111 -97 -22 -17
-46 -40 -54 -51 -21 -31 -72 -21 -197 36 -16 8 -56 19 -89 24 -32 6 -64 15
-70 19 -6 5 -31 14 -56 21 -25 7 -53 17 -63 22 -10 6 -26 7 -36 4 -10 -3 -24
1 -31 10 -7 8 -21 15 -30 15 -10 0 -31 7 -47 15 -15 8 -41 17 -56 20 -24 5
-27 9 -21 28 3 12 21 42 38 67 18 25 38 59 45 77 7 17 23 41 37 54 13 12 24
27 24 32 0 39 301 387 336 387 6 0 14 7 18 15 3 8 18 21 33 27 15 7 43 23 61
36 17 14 32 22 32 18 0 -3 18 5 40 19 22 14 40 22 40 19 0 -4 6 -2 13 3 6 6
30 16 52 23 22 7 45 16 50 20 6 5 48 13 95 20 47 6 94 15 105 20 33 15 81 18
271 16 135 -1 186 -5 198 -15z m1406 -351 c0 -5 24 -10 53 -10 67 0 178 -18
194 -32 7 -5 19 -8 28 -5 8 4 17 2 19 -2 3 -5 24 -11 46 -15 22 -3 40 -10 40
-15 0 -5 12 -12 28 -16 65 -16 202 -85 202 -102 0 -19 -454 -473 -472 -473 -8
0 -24 -11 -36 -25 -12 -14 -28 -25 -36 -25 -7 0 -19 -7 -26 -15 -19 -23 -65
-18 -98 10 -17 14 -34 25 -38 25 -5 1 -25 14 -44 30 -19 17 -37 30 -41 30 -4
0 -35 18 -68 40 -33 22 -63 40 -67 40 -4 0 -21 10 -38 23 -17 12 -49 31 -71
41 -22 11 -47 23 -55 27 -83 46 -243 120 -265 123 -5 1 -21 7 -35 13 -14 6
-40 17 -57 25 -51 20 -44 31 52 82 11 6 34 21 52 34 17 12 36 22 42 22 6 0 11
4 11 9 0 5 14 12 30 16 17 4 65 24 108 46 42 21 93 42 112 45 19 4 40 10 45
14 6 4 30 11 55 15 25 4 49 10 54 13 5 3 35 4 67 3 32 -1 60 2 64 8 8 14 145
15 145 1z m-1082 -334 c3 -4 -5 -14 -19 -23 -13 -10 -53 -44 -89 -77 -36 -32
-95 -86 -133 -120 -37 -34 -111 -103 -165 -155 -53 -52 -107 -100 -119 -108
-12 -8 -25 -24 -29 -35 -5 -18 -12 -19 -47 -14 -23 4 -47 12 -54 18 -7 5 -19
8 -28 5 -8 -4 -17 -2 -19 2 -3 5 -33 11 -66 15 -33 4 -60 10 -60 15 0 4 -34
13 -75 20 -41 7 -75 16 -75 20 0 5 -19 11 -42 15 l-43 7 80 74 c44 41 85 74
90 75 6 0 23 16 38 35 15 19 34 35 41 35 7 0 34 16 60 36 56 43 204 120 248
129 18 4 38 11 44 16 20 16 170 28 312 24 79 -1 146 -6 150 -9z m165 -34 c16
-7 36 -12 45 -12 9 0 26 -7 36 -15 11 -8 26 -15 33 -15 8 0 33 -9 56 -19 24
-11 55 -23 70 -26 15 -4 27 -10 27 -14 0 -4 17 -13 38 -20 20 -8 54 -25 75
-38 20 -13 37 -21 37 -17 0 3 13 -4 29 -15 16 -12 32 -21 35 -21 4 0 24 -11
45 -24 21 -14 41 -23 43 -20 3 2 15 -7 28 -21 13 -14 29 -25 36 -25 7 0 25
-10 41 -23 15 -12 39 -28 53 -35 28 -13 54 -30 88 -54 26 -19 26 -18 -56 -60
-30 -15 -69 -30 -88 -34 -19 -3 -37 -10 -39 -15 -3 -4 -27 -11 -53 -15 -26 -4
-56 -13 -67 -20 -11 -7 -51 -16 -90 -19 -38 -4 -77 -9 -85 -12 -8 -2 -49 -6
-90 -8 -41 -3 -115 -7 -163 -10 -60 -5 -93 -3 -102 5 -9 7 -48 11 -107 9 -52
-2 -98 0 -103 3 -6 3 -56 9 -113 13 -56 4 -105 11 -108 16 -3 6 -14 7 -25 4
-10 -4 -19 -2 -19 3 0 5 -34 13 -75 17 -55 5 -75 11 -75 21 0 8 6 14 13 14 7
0 21 14 30 30 10 17 23 30 28 30 5 0 61 52 123 115 63 63 119 115 125 115 6 0
16 11 21 25 5 14 15 25 21 25 6 0 28 14 48 31 116 99 181 147 195 144 6 -1 24
-7 39 -13z m-2010 -216 c12 -8 41 -17 65 -21 23 -4 42 -10 42 -14 0 -5 110
-44 132 -45 3 -1 10 -4 14 -8 4 -5 18 -8 30 -8 13 0 25 -4 28 -9 3 -5 16 -7
27 -4 14 4 25 0 31 -11 5 -9 21 -16 36 -16 15 0 39 -6 53 -14 14 -7 43 -16 65
-20 21 -4 55 -14 74 -23 l35 -16 -71 -72 c-40 -39 -84 -79 -98 -88 -14 -10
-26 -23 -26 -30 0 -7 -23 -32 -52 -57 -28 -25 -65 -58 -81 -73 -29 -28 -34
-29 -94 -22 -34 4 -65 10 -68 15 -3 4 -44 14 -92 21 -49 7 -90 15 -93 19 -3 3
-34 12 -70 19 -36 7 -69 16 -75 21 -5 4 -33 11 -62 15 -28 4 -59 12 -68 19
-15 11 -12 18 29 67 25 31 46 61 46 67 0 6 9 17 20 25 11 8 18 16 15 19 -3 3
4 13 15 23 11 10 20 24 20 32 0 7 7 16 15 19 8 4 15 12 15 20 0 8 5 14 10 14
6 0 10 6 10 13 0 6 16 30 36 52 20 22 40 50 45 63 10 26 13 26 42 8z m-3598
-80 c6 -1 15 -4 20 -8 6 -3 26 -9 45 -13 19 -4 50 -18 70 -30 19 -12 40 -23
45 -24 31 -5 93 -25 115 -36 46 -24 105 -45 170 -61 36 -9 67 -19 70 -23 9
-11 73 -38 120 -51 25 -6 53 -16 62 -21 10 -5 23 -6 31 -3 8 3 20 -2 27 -11 7
-8 23 -15 36 -15 12 0 25 -4 29 -9 3 -5 20 -13 38 -16 31 -7 105 -36 140 -56
10 -5 22 -7 27 -4 5 3 11 1 14 -4 3 -5 23 -12 43 -16 21 -4 43 -11 50 -17 7
-5 16 -7 22 -4 5 3 24 -1 43 -11 54 -27 61 -29 118 -43 30 -7 60 -16 65 -20 6
-4 26 -11 45 -15 19 -4 46 -12 60 -18 14 -6 30 -12 35 -12 6 -1 23 -7 38 -13
16 -7 37 -12 47 -12 10 0 22 -5 25 -11 4 -5 17 -9 28 -8 12 1 36 -4 52 -11 17
-7 36 -12 43 -11 8 1 19 -2 25 -7 7 -6 30 -13 52 -17 22 -4 45 -10 50 -14 6
-3 15 -7 20 -8 65 -15 88 -23 100 -33 8 -6 23 -9 35 -5 11 3 20 2 20 -4 0 -5
21 -13 48 -17 26 -3 52 -10 57 -14 6 -4 39 -12 74 -18 35 -6 68 -16 75 -21 6
-5 49 -15 96 -22 47 -7 90 -16 97 -21 7 -6 17 -7 22 -4 5 4 12 2 15 -3 4 -5
35 -13 71 -16 38 -4 65 -12 65 -19 0 -6 -21 -27 -46 -46 -25 -19 -54 -43 -65
-52 -30 -28 -179 -129 -179 -122 0 4 -8 0 -17 -8 -18 -15 -50 -29 -57 -25 -2
1 -12 -5 -22 -14 -18 -15 -50 -31 -66 -33 -3 -1 -10 -4 -14 -9 -4 -4 -17 -7
-28 -7 -12 0 -34 -7 -50 -15 -16 -9 -31 -13 -34 -10 -3 3 -12 -1 -20 -8 -22
-17 -413 -17 -434 1 -9 7 -22 10 -31 6 -8 -3 -18 -1 -21 5 -4 6 -26 15 -49 21
-39 10 -92 32 -127 51 -8 5 -26 14 -40 19 -40 16 -104 53 -111 63 -3 5 -10 9
-15 9 -25 2 -107 51 -163 100 -8 7 -27 19 -42 28 -79 44 -95 55 -119 79 -15
14 -40 33 -56 41 -16 8 -42 27 -59 42 -16 15 -54 46 -84 69 -29 23 -61 48 -70
55 -9 8 -70 59 -136 114 -66 55 -138 115 -160 135 -22 19 -65 56 -95 81 -30
25 -71 60 -90 78 -19 17 -52 42 -72 56 -21 14 -38 31 -38 38 0 6 -4 11 -9 10
-13 -4 -130 95 -124 105 3 5 12 5 22 2 9 -4 21 -8 26 -9z m4329 -155 c3 -4 29
-11 58 -15 29 -4 58 -12 65 -18 7 -6 19 -8 28 -5 8 4 17 2 19 -2 3 -5 24 -11
46 -15 22 -3 40 -11 40 -17 0 -6 12 -9 28 -8 15 2 33 0 39 -4 7 -4 35 -11 63
-14 73 -8 81 -25 30 -62 -22 -16 -50 -41 -61 -55 -11 -14 -25 -26 -31 -26 -5
0 -33 -18 -60 -40 -28 -22 -57 -40 -64 -40 -8 0 -14 -5 -14 -11 0 -6 -6 -9
-14 -6 -8 3 -17 -1 -20 -9 -3 -8 -14 -14 -25 -14 -11 0 -22 -4 -26 -10 -3 -5
-12 -7 -19 -4 -8 3 -17 1 -21 -5 -8 -14 -231 -15 -239 -2 -4 5 -39 12 -80 16
-40 4 -78 10 -85 14 -14 9 7 59 29 66 8 3 78 70 155 149 77 79 143 144 147
145 4 0 9 -3 12 -8z m-1068 -262 c3 -6 14 -9 23 -6 10 2 26 -2 36 -9 10 -8 28
-14 40 -14 12 0 25 -4 31 -9 5 -4 50 -14 99 -21 50 -7 95 -17 101 -21 12 -9
147 -40 177 -40 9 0 17 -3 17 -7 -1 -11 -59 -72 -68 -72 -5 0 -22 -11 -38 -26
-16 -14 -53 -36 -81 -50 -29 -14 -55 -29 -58 -34 -3 -4 -29 -14 -57 -20 -29
-7 -58 -16 -63 -21 -22 -17 -233 -31 -374 -26 -79 3 -145 8 -148 11 -8 7 49
74 64 75 6 1 15 10 18 22 4 11 22 34 41 51 19 17 34 36 34 42 0 6 15 27 35 46
57 58 95 101 95 109 0 26 62 43 76 20z"/>
</g>
</svg>
