<?xml version="1.0" standalone="no"?>
<!DOCTYPE svg PUBLIC "-//W3C//DTD SVG 20010904//EN"
 "http://www.w3.org/TR/2001/REC-SVG-20010904/DTD/svg10.dtd">
<svg version="1.0" xmlns="http://www.w3.org/2000/svg"
 width="559.000000pt" height="166.000000pt" viewBox="0 0 559.000000 166.000000"
 preserveAspectRatio="xMidYMid meet">

<g transform="translate(0.000000,166.000000) scale(0.100000,-0.100000)"
fill="#fafafa" stroke="none">
<path d="M3320 1350 l0 -310 35 0 35 0 0 102 0 103 103 -103 c102 -102 102
-102 152 -102 l50 0 -113 106 c-61 58 -112 109 -112 113 0 4 47 50 105 102 57
52 105 97 105 102 0 4 -18 7 -40 7 -36 0 -48 -8 -142 -97 l-103 -97 -3 192 -2
192 -35 0 -35 0 0 -310z"/>
<path d="M0 1340 l0 -300 35 0 35 0 0 151 0 151 158 -151 157 -151 48 0 c26 0
47 1 47 3 0 2 -72 70 -160 151 -88 82 -160 152 -160 156 0 5 70 72 155 149
l156 141 -48 0 c-49 0 -49 0 -198 -139 l-150 -138 -3 138 -3 139 -34 0 -35 0
0 -300z"/>
<path d="M1040 1340 l0 -300 35 0 35 0 0 300 0 300 -35 0 -35 0 0 -300z"/>
<path d="M2800 1599 l0 -40 38 3 c35 3 37 5 40 41 l3 37 -40 0 -41 0 0 -41z"/>
<path d="M1308 1578 c-25 -9 -28 -14 -28 -59 l0 -49 -45 0 c-43 0 -45 -1 -45
-30 0 -29 2 -30 44 -30 l45 0 3 -160 c3 -159 3 -160 31 -187 25 -25 35 -28 95
-28 66 0 67 1 70 28 3 26 2 27 -47 27 -78 0 -81 7 -81 176 l0 144 66 0 65 0
-3 28 c-3 26 -6 27 -65 30 l-63 3 0 59 c0 33 -3 60 -7 59 -5 0 -20 -5 -35 -11z"/>
<path d="M4283 1575 c-30 -13 -33 -18 -33 -60 l0 -45 -40 0 c-38 0 -40 -2 -40
-30 0 -28 2 -30 39 -30 l39 0 4 -147 c5 -204 24 -233 149 -233 48 0 49 1 49
30 0 29 -1 30 -49 30 -75 0 -81 14 -81 182 l0 138 65 0 65 0 0 30 0 30 -65 0
-64 0 -3 59 -3 59 -32 -13z"/>
<path d="M2225 1470 c-43 -9 -73 -27 -87 -53 -12 -21 -13 -21 -18 13 -4 31 -8
35 -35 35 l-30 0 -3 -212 -2 -213 35 0 35 0 1 128 c0 71 5 142 12 161 15 43
52 71 105 78 38 5 42 8 42 33 0 32 -13 39 -55 30z"/>
<path d="M3172 1470 c-19 -4 -49 -23 -68 -41 l-34 -33 0 37 c0 34 -2 37 -30
37 l-30 0 0 -215 0 -215 35 0 35 0 0 140 c0 108 4 148 16 171 17 34 66 59 114
59 26 0 30 3 30 29 0 17 -6 31 -16 35 -9 3 -16 6 -17 5 -1 -1 -17 -5 -35 -9z"/>
<path d="M3915 1475 c-5 -2 -27 -6 -48 -10 -46 -7 -101 -54 -129 -108 -16 -33
-19 -55 -16 -118 3 -67 7 -83 33 -121 59 -85 175 -113 266 -65 39 21 89 76 89
98 0 23 -53 6 -86 -26 -32 -32 -40 -35 -93 -35 -44 0 -65 5 -85 21 -30 24 -56
69 -56 99 0 19 5 20 165 20 l165 0 0 45 c0 83 -51 165 -114 184 -44 13 -79 19
-91 16z m98 -93 c15 -15 31 -42 36 -60 l10 -32 -136 0 -135 0 7 28 c23 92 151
130 218 64z"/>
<path d="M540 1305 c0 -187 8 -222 62 -255 26 -17 45 -20 95 -18 52 3 68 9
103 36 l40 33 0 -31 c0 -28 3 -30 35 -30 l35 0 -2 213 -3 212 -32 3 -33 3 0
-136 c0 -154 -11 -194 -64 -226 -41 -25 -107 -25 -137 0 -23 18 -24 26 -29
188 l-5 168 -32 3 -33 3 0 -166z"/>
<path d="M1554 1456 c-3 -8 -4 -88 -2 -178 3 -182 10 -202 73 -232 67 -32 146
-17 203 37 l32 31 0 -37 c0 -34 2 -37 30 -37 l30 0 0 216 0 215 -32 -3 -33 -3
-5 -145 c-3 -93 -10 -153 -18 -168 -33 -58 -136 -82 -183 -43 -23 19 -24 24
-27 190 l-3 171 -30 0 c-17 0 -32 -6 -35 -14z"/>
<path d="M2320 1465 c0 -3 39 -100 87 -216 l86 -210 31 3 c29 3 32 9 113 203
46 110 83 206 83 213 0 9 -10 12 -31 10 -31 -3 -32 -6 -97 -176 -49 -129 -68
-169 -74 -155 -4 10 -35 88 -67 173 l-59 155 -36 3 c-20 2 -36 1 -36 -3z"/>
<path d="M2807 1463 c-4 -3 -7 -100 -7 -215 l0 -208 35 0 35 0 0 215 0 215
-28 0 c-16 0 -32 -3 -35 -7z"/>
<path d="M2030 621 c-120 -37 -201 -154 -202 -294 0 -91 14 -142 55 -203 84
-126 309 -153 445 -54 l42 30 0 120 0 121 -117 -3 -118 -3 -3 -27 -3 -28 85 0
86 0 0 -73 c0 -83 -10 -99 -77 -123 -89 -31 -197 -10 -258 51 -51 51 -69 107
-64 208 4 61 10 83 34 123 66 108 221 136 314 58 16 -13 35 -40 41 -59 10 -31
15 -35 46 -35 32 0 35 2 29 23 -25 82 -76 135 -154 162 -47 16 -138 19 -181 6z"/>
<path d="M2800 579 l0 -40 38 3 c35 3 37 5 40 41 l3 37 -40 0 -41 0 0 -41z"/>
<path d="M3820 498 c0 -110 -1 -120 -15 -102 -22 32 -77 54 -135 54 -61 0 -96
-16 -138 -64 -88 -101 -60 -302 51 -355 78 -38 180 -21 225 37 10 14 12 11 12
-16 0 -30 2 -32 35 -32 l35 0 0 300 0 300 -35 0 -35 0 0 -122z m-55 -130 c36
-28 55 -76 55 -138 0 -104 -47 -160 -135 -160 -88 0 -135 56 -135 160 0 104
47 160 135 160 39 0 60 -6 80 -22z"/>
<path d="M5510 503 l0 -116 -22 20 c-37 33 -64 43 -117 43 -84 0 -135 -30
-171 -100 -62 -121 -11 -295 96 -330 61 -20 138 -8 184 29 l40 32 0 -31 c0
-27 3 -30 30 -30 l30 0 0 300 0 300 -35 0 -35 0 0 -117z m-46 -143 c44 -39 61
-106 45 -177 -16 -77 -57 -113 -127 -113 -90 0 -136 51 -136 155 -1 111 43
165 136 165 38 0 54 -6 82 -30z"/>
<path d="M4483 555 c-30 -13 -33 -18 -33 -60 l0 -45 -40 0 c-38 0 -40 -2 -40
-30 0 -28 2 -30 39 -30 l39 0 4 -147 c5 -204 24 -233 149 -233 48 0 49 1 49
30 0 29 -1 30 -49 30 -75 0 -81 14 -81 182 l0 138 65 0 65 0 0 30 0 30 -65 0
-64 0 -3 59 -3 59 -32 -13z"/>
<path d="M2685 454 c-5 -1 -23 -5 -39 -9 -16 -3 -42 -20 -58 -37 l-28 -30 0
37 c0 35 -1 36 -32 33 l-33 -3 -3 -212 -2 -213 34 0 34 0 3 143 c4 117 7 148
22 171 20 30 72 56 112 56 21 0 25 5 25 29 0 28 -13 41 -35 35z"/>
<path d="M3195 450 c-44 -10 -92 -37 -109 -62 -16 -22 -16 -21 -16 20 0 40 -1
42 -30 42 l-30 0 0 -215 0 -215 29 0 29 0 4 137 c3 122 6 142 25 174 27 44 59
59 122 59 37 0 52 -5 69 -23 21 -22 22 -33 22 -185 l0 -162 36 0 35 0 -3 179
c-3 162 -5 181 -23 201 -38 42 -105 63 -160 50z"/>
<path d="M4120 450 c-76 -14 -110 -51 -110 -118 0 -64 42 -103 135 -126 94
-23 115 -38 115 -81 0 -42 -25 -59 -91 -59 -53 0 -95 23 -109 60 -7 18 -17 24
-40 24 -37 0 -40 -22 -7 -71 31 -47 80 -69 150 -69 111 0 173 49 164 130 -7
62 -44 92 -152 125 -58 18 -88 33 -96 47 -42 79 99 122 162 48 17 -20 35 -30
53 -30 26 0 28 2 21 28 -17 68 -103 109 -195 92z"/>
<path d="M4860 449 c-190 -36 -225 -328 -50 -416 88 -45 205 -19 255 55 31 46
31 52 0 52 -16 0 -39 -13 -61 -35 -32 -32 -40 -35 -93 -35 -44 0 -65 5 -85 21
-30 24 -56 69 -56 99 0 19 5 20 165 20 l165 0 0 48 c-1 131 -107 216 -240 191z
m93 -63 c42 -17 65 -45 73 -84 l7 -32 -133 0 -132 0 7 28 c8 34 41 71 80 88
39 17 58 17 98 0z"/>
<path d="M2807 443 c-4 -3 -7 -100 -7 -215 l0 -208 35 0 35 0 0 215 0 215 -28
0 c-16 0 -32 -3 -35 -7z"/>
</g>
</svg>
