<?xml version="1.0" standalone="no"?>
<!DOCTYPE svg PUBLIC "-//W3C//DTD SVG 20010904//EN"
 "http://www.w3.org/TR/2001/REC-SVG-20010904/DTD/svg10.dtd">
<svg version="1.0" xmlns="http://www.w3.org/2000/svg"
 width="964.000000pt" height="400.000000pt" viewBox="0 0 964.000000 400.000000"
 preserveAspectRatio="xMidYMid meet">

<g transform="translate(0.000000,400.000000) scale(0.100000,-0.100000)"
fill="#fafafa" stroke="none">
<path d="M468 3983 l-448 -3 0 -1985 0 -1985 4800 0 4800 0 -1 1888 c-1 1038
-4 1932 -8 1987 l-6 100 -3315 -1 -3315 0 -5 -117 c-4 -91 -2 -118 8 -122 7
-3 1449 -5 3204 -5 1755 0 3194 -2 3197 -5 7 -8 15 -3429 7 -3459 l-6 -26
-4563 2 -4562 3 -3 1743 -2 1742 810 0 811 0 -3 122 -3 121 -475 2 c-261 0
-676 0 -922 -2z"/>
<path d="M1373 3292 l-102 -3 -212 -229 c-117 -127 -218 -230 -226 -230 -10 0
-13 44 -13 230 l0 230 -77 0 -78 0 3 -540 2 -540 75 0 75 0 0 235 c0 182 3
235 13 235 6 0 118 -106 247 -235 l235 -235 97 0 c54 0 98 3 98 7 0 5 -120
128 -266 274 -209 209 -264 270 -258 282 5 9 99 107 209 219 217 220 290 297
284 301 -2 1 -50 1 -106 -1z"/>
<path d="M3718 2750 l2 -540 75 0 75 0 0 540 0 540 -77 0 -78 0 3 -540z"/>
<path d="M5062 3223 l3 -68 374 -3 c218 -1 377 2 380 7 3 5 4 36 3 70 l-4 61
-379 0 -380 0 3 -67z"/>
<path d="M8147 3273 c-4 -3 -7 -37 -7 -74 l0 -67 253 -4 c269 -3 274 -4 330
-57 40 -36 57 -83 57 -153 0 -72 -24 -122 -76 -157 -59 -40 -131 -51 -357 -51
l-207 0 2 -256 3 -257 75 -1 75 -1 3 188 2 187 95 0 94 0 28 -36 c162 -211
237 -306 256 -325 14 -16 32 -19 97 -19 52 0 80 4 80 11 0 6 -33 54 -72 106
-40 53 -80 105 -88 117 -8 11 -36 48 -62 80 -27 33 -48 65 -48 72 0 6 20 19
44 28 134 51 216 177 216 333 0 40 -5 85 -11 100 -32 79 -43 95 -88 136 -67
59 -143 86 -283 97 -131 11 -402 13 -411 3z"/>
<path d="M6527 3264 c-4 -4 -7 -152 -7 -328 0 -426 17 -513 120 -629 80 -90
175 -127 330 -127 212 0 343 89 408 275 30 88 33 128 30 465 l-3 345 -75 0
-75 0 -3 -365 c-2 -347 -3 -367 -23 -410 -35 -74 -55 -96 -121 -130 -55 -28
-73 -32 -138 -32 -134 0 -235 67 -275 182 -5 14 -12 189 -15 390 l-5 365 -70
3 c-39 1 -74 0 -78 -4z"/>
<path d="M1990 2902 c0 -286 3 -370 15 -417 46 -182 156 -280 342 -306 100
-15 210 0 295 38 105 47 196 176 218 309 6 33 10 211 10 397 l0 337 -75 0 -75
0 0 -323 c0 -344 -7 -417 -45 -482 -38 -65 -113 -121 -173 -129 -15 -2 -40 -7
-55 -11 -18 -5 -37 -3 -53 5 -13 8 -27 11 -30 7 -20 -20 -142 56 -175 110 -48
79 -49 88 -49 466 l0 357 -75 0 -75 0 0 -358z"/>
<path d="M5370 2630 l0 -421 73 3 72 3 0 415 0 415 -72 3 -73 3 0 -421z"/>
<path d="M4138 2363 l-168 -3 0 -53 c0 -104 -13 -97 190 -97 133 0 179 3 182
13 3 6 6 38 7 69 2 48 -1 58 -18 67 -11 6 -21 10 -23 9 -2 -1 -78 -4 -170 -5z"/>
<path d="M2131 1758 c-16 -35 -39 -79 -50 -98 -11 -19 -63 -120 -114 -225 -52
-104 -151 -303 -221 -440 -69 -138 -126 -254 -126 -258 0 -4 37 -7 83 -5 l82
3 35 70 c19 39 103 208 185 378 83 169 154 305 160 304 5 -2 44 -73 86 -158
114 -228 259 -528 259 -535 0 -3 9 -19 21 -35 20 -28 24 -29 100 -29 43 0 79
3 79 6 0 14 -535 1082 -542 1083 -4 1 -21 -27 -37 -61z"/>
<path d="M3170 1803 c-122 -34 -194 -90 -230 -183 -42 -107 -21 -224 53 -286
61 -51 172 -95 302 -119 248 -46 338 -111 302 -220 -20 -60 -73 -100 -162
-122 -144 -35 -310 7 -440 112 l-41 33 -37 -60 c-20 -33 -37 -63 -37 -68 0
-12 54 -56 107 -87 169 -99 433 -110 601 -25 59 29 124 96 149 152 23 49 23
185 0 226 -35 67 -113 124 -212 153 -22 7 -49 16 -60 21 -11 5 -60 16 -110 26
-180 34 -248 64 -271 121 -21 50 -4 103 48 147 22 20 45 33 50 30 5 -3 15 0
23 6 20 17 231 16 251 -1 8 -6 14 -9 14 -5 0 8 95 -39 133 -66 16 -11 29 -19
31 -17 10 16 39 64 55 93 l20 35 -56 37 c-84 56 -158 76 -298 80 -93 3 -135 0
-185 -13z"/>
<path d="M5915 1718 l3 -102 48 -45 c27 -25 123 -115 214 -201 91 -86 203
-192 250 -235 47 -44 94 -90 105 -101 42 -45 333 -314 339 -314 3 0 6 245 6
545 l0 545 -75 0 -75 0 0 -357 c0 -206 -4 -364 -10 -373 -7 -12 -30 5 -112 85
-57 55 -182 175 -278 265 -96 91 -223 212 -283 270 -59 57 -114 108 -121 112
-11 6 -13 -11 -11 -94z"/>
<path d="M8028 1723 l3 -98 99 -95 c54 -52 152 -144 216 -205 65 -60 170 -159
234 -220 259 -247 408 -385 414 -385 3 0 6 245 6 545 l0 545 -80 0 -80 0 0
-364 c0 -201 -4 -367 -8 -370 -9 -5 -47 29 -322 293 -113 108 -232 221 -264
251 -32 30 -93 88 -135 127 -42 40 -78 73 -81 73 -3 0 -4 -44 -2 -97z"/>
<path d="M640 1270 l0 -540 75 0 c53 0 75 4 75 13 1 6 1 110 1 230 0 180 2
217 14 217 8 0 116 -104 241 -230 l228 -230 104 0 105 0 -43 48 c-24 26 -141
146 -261 267 -121 122 -219 227 -219 235 0 8 57 73 128 145 70 72 183 188 251
258 l124 127 -105 0 -106 0 -58 -61 c-33 -34 -79 -82 -104 -108 -25 -25 -69
-73 -99 -106 -93 -104 -173 -186 -184 -188 -7 -1 -11 73 -11 228 l-1 230 -77
3 -78 3 0 -541z"/>
<path d="M3957 1744 c1 -37 5 -70 10 -75 4 -4 151 -5 326 -2 l317 6 0 69 0 68
-327 0 -328 0 2 -66z"/>
<path d="M4830 1741 c0 -49 4 -72 13 -73 6 -1 107 -3 222 -3 251 -1 285 -8
348 -65 39 -34 57 -82 57 -150 0 -78 -35 -132 -115 -178 -25 -14 -67 -18 -278
-22 -136 -3 -247 -8 -247 -12 0 -5 0 -120 0 -258 l0 -250 75 0 75 0 0 174 c0
96 3 181 6 190 5 13 23 16 94 16 l88 0 49 -61 c26 -34 62 -78 78 -99 17 -20
57 -72 90 -115 86 -111 75 -105 171 -105 46 0 84 2 84 5 0 3 -35 52 -77 107
-43 56 -106 139 -141 184 -35 46 -61 87 -58 93 3 5 18 12 33 16 45 11 111 55
148 98 53 61 75 131 75 237 0 162 -63 250 -223 312 -46 18 -82 21 -309 25
l-258 5 0 -71z"/>
<path d="M7137 1803 c-7 -14 -7 -118 1 -128 4 -6 123 -9 330 -7 l322 4 0 69 0
69 -324 0 c-179 0 -327 -3 -329 -7z"/>
<path d="M5914 1113 c3 -197 6 -364 6 -371 0 -10 18 -12 71 -10 l71 3 -1 305
0 305 -68 62 c-38 35 -72 63 -77 63 -4 0 -5 -161 -2 -357z"/>
<path d="M8026 1417 c0 -28 1 -195 2 -369 l2 -318 75 0 75 0 0 303 0 303 -68
67 c-37 37 -72 67 -77 67 -6 0 -10 -24 -9 -53z"/>
<path d="M3959 1338 c0 -2 -1 -33 -2 -71 l-2 -67 288 0 287 0 0 70 0 70 -285
0 c-157 0 -285 -1 -286 -2z"/>
<path d="M7130 1270 l0 -70 290 0 291 0 -3 68 -3 67 -287 3 -288 2 0 -70z"/>
<path d="M3959 875 c0 -3 0 -32 0 -65 0 -33 0 -64 0 -70 1 -6 116 -10 326 -10
l325 0 0 75 0 75 -325 0 c-179 0 -325 -2 -326 -5z"/>
<path d="M7130 805 l0 -75 330 0 330 0 0 75 0 75 -330 0 -330 0 0 -75z"/>
</g>
</svg>
