<?xml version="1.0" standalone="no"?>
<!DOCTYPE svg PUBLIC "-//W3C//DTD SVG 20010904//EN"
 "http://www.w3.org/TR/2001/REC-SVG-20010904/DTD/svg10.dtd">
<svg version="1.0" xmlns="http://www.w3.org/2000/svg"
 width="3308.000000pt" height="400.000000pt" viewBox="0 0 3308.000000 400.000000"
 preserveAspectRatio="xMidYMid meet">

<g transform="translate(0.000000,400.000000) scale(0.100000,-0.100000)"
fill="#fafafa" stroke="none">
<path d="M15235 3988 c-3 -7 -4 -836 -3 -1843 l3 -1830 408 -3 407 -2 0 360 0
359 137 151 c75 82 139 150 143 150 4 0 48 -71 99 -157 51 -87 121 -205 155
-263 34 -58 127 -216 207 -352 l144 -248 454 0 c358 0 452 3 448 13 -4 12 -98
164 -377 612 -243 392 -420 675 -492 792 l-70 113 143 157 c79 87 200 219 269
293 69 75 190 207 270 295 80 88 167 183 194 212 l48 53 -474 0 -474 0 -59
-72 c-33 -40 -123 -149 -200 -243 -77 -93 -187 -226 -244 -295 -57 -69 -113
-136 -125 -150 -12 -14 -57 -69 -100 -122 -44 -54 -83 -98 -87 -98 -5 0 -9
479 -9 1065 l0 1065 -405 0 c-315 0 -407 -3 -410 -12z"/>
<path d="M655 3964 c-204 -44 -408 -185 -521 -362 -89 -138 -124 -255 -131
-432 -4 -111 -2 -136 21 -224 76 -294 285 -513 576 -604 83 -25 92 -26 418
-30 l332 -3 0 -190 0 -189 -252 0 c-306 0 -411 -10 -532 -51 -222 -74 -413
-252 -504 -470 -90 -217 -81 -480 23 -691 47 -95 89 -151 183 -240 241 -230
597 -290 907 -153 98 44 189 110 274 202 63 67 91 107 130 187 82 166 83 175
90 554 l6 333 235 0 c129 -1 234 -4 233 -8 -1 -5 -17 -34 -37 -67 -152 -252
-165 -543 -37 -808 106 -217 291 -370 536 -440 105 -30 315 -32 415 -4 244 67
438 224 550 446 92 181 109 419 44 625 -18 55 -76 175 -105 217 -11 14 -19 30
-19 35 0 4 105 6 234 3 l235 -5 4 -315 c4 -285 6 -322 26 -394 85 -307 308
-531 611 -612 101 -27 311 -25 415 4 292 83 517 309 597 598 33 121 31 317 -6
437 -90 299 -316 517 -606 587 -76 18 -118 20 -390 20 -168 0 -311 4 -318 8
-9 7 -12 52 -10 193 l3 184 335 5 c326 6 337 7 420 32 239 74 416 228 521 452
78 168 98 373 54 556 -38 154 -141 318 -273 433 -75 65 -227 145 -332 174 -94
25 -330 25 -420 -1 -155 -45 -271 -114 -385 -230 -91 -92 -152 -192 -199 -324
l-30 -87 -6 -343 -5 -343 -238 -2 c-130 -1 -237 2 -237 6 0 5 8 21 19 35 34
49 89 167 113 242 20 66 23 94 23 240 0 159 -2 168 -32 256 -94 270 -303 468
-578 546 -107 30 -314 32 -420 4 -150 -40 -287 -119 -391 -228 -92 -96 -122
-140 -169 -246 -114 -261 -96 -529 54 -782 23 -37 41 -70 41 -72 0 -2 -107 -2
-237 -1 l-238 3 -6 332 c-7 380 -14 419 -92 567 -120 227 -327 386 -569 435
-95 20 -259 19 -353 0z m264 -295 c192 -31 361 -181 412 -367 17 -58 19 -105
19 -369 l0 -303 -292 0 c-356 1 -392 7 -519 92 -93 61 -160 150 -199 264 -29
81 -28 235 0 326 53 173 207 315 384 353 76 17 114 18 195 4z m2042 -25 c90
-27 151 -63 221 -134 207 -206 207 -524 1 -729 -103 -102 -219 -151 -361 -151
-95 0 -151 13 -240 58 -307 152 -377 573 -134 819 60 61 154 117 231 139 67
18 217 17 282 -2z m2002 -5 c209 -70 342 -245 354 -464 12 -212 -96 -401 -279
-489 -111 -53 -142 -57 -463 -54 l-290 3 0 295 c0 277 1 299 22 365 52 165
179 294 341 346 83 26 233 25 315 -2z m-1001 -1524 l0 -190 -1144 0 -1143 0
-3 193 -2 192 1145 -2 1146 -3 1 -190z m-2612 -803 c0 -317 -6 -364 -60 -469
-39 -76 -133 -171 -208 -211 -349 -185 -767 62 -765 453 0 106 19 178 69 261
63 105 151 181 263 226 53 22 73 23 371 28 173 3 318 4 323 2 4 -2 7 -132 7
-290z m3648 261 c154 -63 267 -184 314 -336 16 -55 20 -88 16 -176 -3 -104 -5
-111 -47 -197 -94 -188 -260 -294 -463 -294 -151 0 -278 50 -378 150 -65 65
-100 121 -131 210 -21 61 -23 85 -27 358 -3 189 0 297 6 305 8 9 86 11 334 7
301 -5 327 -7 376 -27z m-2027 7 c327 -101 465 -488 277 -778 -96 -148 -251
-232 -431 -232 -243 0 -459 173 -508 407 -15 73 -6 212 17 278 54 154 176 272
339 327 73 24 225 24 306 -2z"/>
<path d="M6470 2115 l0 -1805 365 0 365 0 -1 1328 c-1 730 -4 1372 -8 1427 -4
55 -6 102 -4 104 8 11 15 -13 23 -71 11 -83 23 -131 82 -328 28 -91 63 -210
80 -265 16 -55 35 -120 43 -145 7 -25 57 -189 110 -365 53 -176 101 -336 107
-355 5 -19 26 -87 45 -150 53 -174 283 -939 298 -990 7 -25 23 -76 34 -115 12
-38 21 -71 21 -72 0 -2 164 -3 364 -3 l364 0 10 38 c5 20 62 219 127 442 65
223 121 419 125 435 5 17 13 46 20 65 6 19 26 89 44 155 19 66 59 208 91 315
31 107 89 310 130 450 40 140 99 343 130 450 68 231 98 349 115 448 15 90 29
87 19 -5 -5 -37 -8 -680 -9 -1428 l0 -1360 390 -3 390 -2 0 1805 0 1805 -600
0 c-330 0 -600 -3 -600 -6 0 -3 -33 -121 -74 -262 -41 -142 -113 -392 -161
-557 -48 -165 -102 -354 -122 -420 -19 -66 -39 -133 -43 -150 -4 -16 -42 -149
-85 -295 -42 -146 -79 -274 -82 -285 -3 -11 -23 -78 -44 -150 -55 -189 -94
-355 -105 -453 -7 -64 -24 -96 -24 -44 0 45 -37 236 -69 357 -16 61 -86 299
-156 530 -70 231 -133 440 -140 465 -7 25 -70 234 -140 465 -70 231 -133 440
-140 465 -7 25 -33 110 -57 190 l-44 145 -592 3 -592 2 0 -1805z"/>
<path d="M11625 2904 c-273 -39 -446 -96 -600 -199 -224 -149 -356 -360 -394
-633 -7 -48 -6 -53 13 -58 12 -2 194 -3 406 -2 l385 3 7 55 c24 196 178 320
398 320 253 -1 372 -127 374 -398 l1 -106 -80 -12 c-44 -7 -183 -26 -310 -43
-397 -55 -528 -78 -681 -125 -338 -101 -514 -258 -581 -516 -20 -79 -23 -270
-5 -350 49 -217 183 -388 383 -486 168 -84 301 -109 527 -101 270 9 476 86
637 238 47 45 102 108 122 140 20 33 37 58 38 57 2 -2 6 -43 9 -93 8 -113 15
-166 27 -232 l10 -53 396 0 395 0 -6 28 c-52 226 -66 466 -66 1141 0 423 -3
557 -15 636 -59 399 -264 633 -645 738 -146 41 -224 49 -470 52 -135 2 -258 1
-275 -1z m615 -1567 c0 -213 -34 -319 -137 -421 -96 -97 -223 -146 -377 -146
-127 0 -205 28 -277 100 -45 45 -58 65 -69 109 -16 69 -8 165 18 217 41 80
142 147 282 188 54 16 493 93 538 95 22 1 22 0 22 -142z"/>
<path d="M14775 2894 c-109 -22 -258 -100 -344 -180 -111 -103 -205 -249 -262
-408 -13 -36 -27 -66 -31 -66 -5 0 -8 137 -8 305 l0 305 -385 0 -385 0 0
-1270 0 -1270 410 0 410 0 0 543 c0 306 5 591 11 653 29 308 142 490 356 577
95 39 155 49 326 56 l157 6 3 383 2 382 -95 -1 c-52 0 -126 -7 -165 -15z"/>
<path d="M24460 2877 c-53 -12 -110 -44 -138 -77 -30 -34 -53 -105 -60 -177
l-7 -78 -37 3 c-72 6 -78 0 -78 -84 l0 -74 60 0 60 0 2 -287 3 -288 118 -3
117 -3 0 291 0 290 85 0 86 0 -3 78 -3 77 -82 3 -83 3 0 50 c0 43 5 55 29 80
26 25 37 29 85 29 l56 0 0 79 c0 44 -4 82 -9 85 -20 13 -150 15 -201 3z"/>
<path d="M18755 2848 c-3 -7 -4 -242 -3 -523 l3 -510 102 -3 103 -3 2 398 3
398 48 -160 c27 -88 55 -180 62 -205 48 -168 127 -416 134 -423 4 -4 52 -6
106 -5 l99 3 27 89 c16 49 65 219 110 377 46 158 86 286 91 283 4 -3 8 -174 8
-380 l0 -375 110 3 110 3 0 513 c0 281 0 517 0 522 0 16 -325 13 -338 -2 -6
-7 -45 -132 -87 -278 -105 -366 -113 -391 -120 -423 -7 -34 -25 -26 -26 11 0
15 -46 178 -102 362 l-102 335 -168 3 c-128 2 -169 0 -172 -10z"/>
<path d="M23415 2768 c-55 -22 -102 -42 -103 -44 -2 -1 -5 -40 -5 -86 l-2 -83
-60 -5 -60 -5 -3 -77 -3 -77 58 -3 58 -3 6 -210 c6 -223 12 -251 61 -306 43
-49 84 -63 200 -67 60 -2 119 -1 133 2 26 7 26 7 23 99 l-3 92 -41 -3 c-23 -2
-57 3 -77 12 -50 20 -59 58 -55 236 l3 145 88 3 88 3 -3 77 -3 77 -87 3 -88 3
0 129 c0 98 -3 130 -12 129 -7 0 -58 -19 -113 -41z"/>
<path d="M21042 2540 c-63 -21 -119 -64 -147 -111 -29 -49 -27 -161 3 -209 42
-69 103 -98 257 -125 126 -21 154 -32 161 -61 9 -36 -2 -53 -43 -71 -79 -32
-206 -1 -279 68 l-30 29 -68 -50 -67 -51 23 -28 c38 -46 102 -90 164 -113 47
-17 83 -21 179 -22 118 -1 122 0 190 34 51 26 78 47 100 78 27 40 30 51 30
126 0 73 -3 87 -27 123 -37 56 -106 87 -246 112 -124 22 -162 39 -162 75 0 78
162 84 277 10 l52 -33 38 33 c21 19 48 42 61 52 l23 19 -20 22 c-74 79 -170
113 -315 112 -70 0 -118 -6 -154 -19z"/>
<path d="M21822 2541 c-143 -50 -232 -191 -232 -371 0 -122 29 -200 99 -270
80 -81 142 -103 286 -104 105 -1 113 1 175 32 36 17 76 42 90 55 35 31 70 77
70 92 0 7 -36 29 -80 49 l-80 36 -42 -44 c-35 -36 -52 -45 -90 -51 -94 -14
-155 15 -189 89 -10 23 -19 47 -19 54 0 9 57 12 253 12 140 0 256 2 258 4 2 3
1 51 -3 108 -5 80 -12 114 -31 153 -33 67 -100 127 -171 154 -75 28 -216 29
-294 2z m214 -137 c31 -21 51 -58 55 -104 l4 -35 -142 -3 c-131 -2 -143 -1
-143 15 1 32 37 99 65 121 35 28 123 30 161 6z"/>
<path d="M22626 2535 c-119 -49 -193 -147 -217 -289 -14 -83 0 -184 35 -262
102 -223 472 -264 642 -69 24 27 44 54 44 60 0 6 -37 27 -82 48 l-81 37 -36
-39 c-20 -21 -53 -44 -75 -51 -49 -16 -121 -8 -155 17 -36 27 -71 81 -71 109
l0 24 253 2 252 3 -1 95 c0 88 -3 101 -35 165 -61 124 -157 175 -323 175 -73
0 -103 -5 -150 -25z m219 -127 c32 -14 65 -75 65 -118 l0 -30 -140 0 c-134 0
-140 1 -140 20 0 35 26 85 59 113 26 21 43 27 81 27 27 0 61 -5 75 -12z"/>
<path d="M24951 2544 c-96 -30 -171 -98 -214 -192 -29 -66 -36 -226 -12 -308
31 -106 103 -186 205 -226 80 -32 242 -31 319 1 104 43 174 121 207 232 26 85
16 238 -20 309 -46 93 -121 157 -215 186 -58 17 -211 17 -270 -2z m206 -164
c45 -27 61 -55 75 -138 10 -58 10 -84 -1 -134 -17 -83 -37 -114 -88 -139 -72
-35 -136 -11 -172 64 -60 123 -24 322 63 357 36 15 90 11 123 -10z"/>
<path d="M25932 2530 c-40 -23 -60 -44 -85 -88 l-32 -57 -5 80 -5 80 -90 3
c-49 2 -100 0 -113 -3 l-22 -5 2 -363 3 -362 116 -3 117 -3 4 194 c3 183 5
196 28 242 31 59 80 87 162 93 l58 4 0 109 0 109 -42 0 c-29 0 -60 -10 -96
-30z"/>
<path d="M26729 2537 c-132 -55 -201 -149 -220 -302 -30 -231 84 -399 296
-436 161 -28 314 24 394 133 17 23 31 45 31 48 0 6 -156 80 -168 80 -4 0 -15
-14 -24 -31 -38 -65 -172 -90 -236 -42 -37 27 -72 81 -72 109 l0 24 253 2 252
3 0 85 c-1 100 -14 149 -55 212 -64 97 -155 138 -304 138 -72 0 -103 -5 -147
-23z m226 -139 c30 -24 55 -74 55 -113 l0 -25 -141 0 -142 0 7 41 c13 81 57
118 142 119 38 0 59 -6 79 -22z"/>
<path d="M27715 2540 c-46 -24 -92 -66 -101 -92 -11 -35 -23 -17 -26 40 l-3
57 -110 0 -110 0 -3 -368 -2 -368 117 3 118 3 5 240 c3 165 9 247 17 262 23
40 63 63 108 63 53 0 91 -28 105 -78 5 -20 10 -139 10 -264 l0 -228 116 0 115
0 -3 293 c-3 291 -3 292 -29 342 -15 30 -42 62 -68 80 -38 27 -51 30 -129 33
-71 2 -94 -2 -127 -18z"/>
<path d="M20044 2535 c-11 -28 3 -548 16 -590 27 -89 94 -141 197 -151 102
-11 189 26 237 100 28 44 28 44 30 -29 l1 -50 113 -3 112 -3 -2 368 -3 368
-115 0 -115 0 -5 -247 c-5 -230 -6 -248 -26 -275 -11 -15 -32 -34 -45 -41 -36
-19 -97 -8 -128 22 l-26 26 -5 258 -5 257 -113 3 c-94 2 -113 0 -118 -13z"/>
<path d="M26440 845 l0 -536 118 3 117 3 5 105 c5 96 7 108 34 143 34 44 47
46 67 10 9 -16 46 -81 84 -145 l68 -118 128 0 c71 0 129 3 129 6 0 3 -26 47
-57 97 -46 75 -92 150 -208 338 -2 3 6 16 18 30 135 146 237 260 237 264 0 3
-60 5 -134 5 l-133 0 -114 -139 -114 -140 -5 302 -5 302 -117 3 -118 3 0 -536z"/>
<path d="M28002 848 l3 -533 118 -3 117 -3 0 222 c0 241 6 282 50 324 33 31
93 42 130 23 54 -28 60 -60 60 -326 l0 -243 118 3 117 3 0 275 c0 249 -2 280
-20 328 -24 66 -86 126 -147 142 -100 28 -226 -13 -273 -88 -11 -17 -23 -31
-27 -32 -5 0 -8 99 -8 220 l0 220 -120 0 -120 0 2 -532z"/>
<path d="M28870 1265 l0 -106 123 3 122 3 0 100 0 100 -122 3 -123 3 0 -106z"/>
<path d="M31980 1265 l0 -105 125 0 125 0 0 105 0 105 -125 0 -125 0 0 -105z"/>
<path d="M18750 835 l0 -526 113 3 112 3 5 360 5 360 19 -40 c10 -22 71 -130
134 -240 63 -110 147 -255 186 -323 l70 -123 131 3 130 3 3 523 2 522 -115 0
-115 0 -2 -357 -3 -358 -64 120 c-35 66 -107 197 -160 290 -54 94 -114 200
-135 238 l-37 67 -139 0 -140 0 0 -525z"/>
<path d="M21030 835 l0 -527 263 4 c234 4 269 7 328 26 216 71 339 254 339
505 0 153 -42 269 -133 365 -58 61 -106 92 -193 124 -54 20 -82 22 -331 26
l-273 4 0 -527z m493 327 c57 -20 123 -82 148 -138 10 -22 23 -72 29 -112 26
-167 -37 -330 -150 -387 -44 -22 -62 -25 -160 -25 l-110 0 0 340 0 340 98 0
c65 -1 112 -6 145 -18z"/>
<path d="M30280 1308 c-40 -18 -102 -44 -140 -58 -60 -23 -62 -26 -58 -114 l3
-81 -63 -3 -62 -3 0 -79 0 -79 60 -3 60 -3 3 -205 c2 -192 4 -208 26 -253 45
-93 143 -134 293 -124 42 3 81 8 87 12 7 3 11 43 11 95 l0 89 -54 0 c-110 -2
-126 29 -126 240 l0 150 88 3 87 3 3 77 3 77 -88 3 -88 3 -3 133 c-1 72 -6
132 -10 131 -4 0 -18 -5 -32 -11z"/>
<path d="M22275 1055 c-127 -33 -202 -103 -229 -217 l-6 -28 119 0 119 0 7 29
c14 63 91 96 158 68 19 -9 40 -24 45 -34 17 -31 25 -90 13 -97 -6 -4 -68 -16
-138 -27 -166 -25 -225 -45 -278 -91 -52 -46 -69 -92 -62 -165 10 -98 69 -161
176 -189 105 -27 216 1 285 72 l34 35 8 -48 9 -48 114 -3 114 -3 -8 38 c-4 21
-10 148 -14 283 -6 230 -7 248 -29 293 -28 56 -79 101 -141 122 -66 23 -222
28 -296 10z m235 -455 c0 -98 -51 -150 -144 -150 -47 0 -61 4 -81 25 -50 49
-20 125 57 146 54 14 118 27 146 28 20 1 22 -3 22 -49z"/>
<path d="M23290 1061 c-53 -17 -89 -42 -129 -88 l-41 -48 0 63 0 63 -112 -3
-113 -3 0 -365 0 -365 118 -3 117 -3 0 234 c0 222 1 235 23 277 49 99 183 89
207 -15 5 -22 10 -143 10 -268 l0 -228 118 3 117 3 -1 270 c0 224 -3 279 -17
325 -18 60 -59 110 -110 137 -36 18 -149 27 -187 14z"/>
<path d="M24123 1053 c-27 -9 -59 -33 -88 -65 l-45 -50 0 56 0 56 -115 0 -115
0 0 -370 0 -371 118 3 117 3 5 250 c4 220 7 254 23 278 33 51 99 61 144 23
l28 -24 5 -264 5 -263 115 0 115 0 5 245 c4 219 7 248 24 277 24 40 64 57 111
49 66 -13 69 -28 75 -316 l5 -255 115 0 115 0 0 290 0 290 -27 52 c-46 87
-126 130 -223 120 -70 -7 -124 -36 -172 -93 l-40 -46 -26 45 c-50 84 -167 119
-274 80z"/>
<path d="M25260 1056 c-75 -17 -129 -47 -174 -96 -38 -43 -49 -62 -61 -117
l-7 -33 121 0 c113 0 121 1 121 19 0 31 48 80 85 87 42 8 100 -11 120 -39 8
-12 15 -40 15 -64 0 -48 20 -40 -168 -68 -174 -26 -246 -58 -287 -129 -26 -44
-32 -99 -18 -166 9 -49 87 -125 143 -141 117 -33 250 -2 315 74 l35 41 0 -40
c0 -69 10 -75 130 -72 88 3 104 5 101 18 -2 8 -7 132 -11 275 -7 267 -12 299
-53 358 -60 87 -245 129 -407 93z m230 -457 c0 -94 -54 -149 -148 -149 -67 0
-102 27 -102 80 0 51 39 84 117 100 32 7 63 14 68 15 6 2 22 4 38 4 26 1 27
-1 27 -50z"/>
<path d="M26258 1056 c-21 -8 -49 -21 -64 -30 -27 -18 -84 -101 -84 -123 0 -7
-4 -13 -10 -13 -6 0 -10 33 -10 80 l0 80 -110 0 -110 0 0 -370 0 -370 119 0
120 0 3 208 c3 195 4 209 26 244 30 47 92 78 160 78 l52 0 0 115 0 115 -27 0
c-16 -1 -45 -7 -65 -14z"/>
<path d="M27460 1059 c-129 -25 -210 -103 -218 -208 -5 -73 9 -118 51 -161 42
-44 93 -65 202 -85 124 -22 162 -33 180 -51 21 -22 19 -41 -10 -69 -21 -22
-32 -25 -102 -25 -88 0 -137 18 -196 70 l-37 32 -65 -47 c-36 -25 -65 -50 -65
-54 0 -19 104 -104 153 -126 162 -71 385 -47 479 52 59 62 73 165 34 249 -38
81 -94 110 -276 140 -80 14 -110 23 -127 40 -29 29 -29 39 3 71 24 24 31 25
97 21 70 -5 128 -24 188 -64 27 -17 27 -17 83 31 31 27 56 54 56 61 0 16 -52
60 -99 83 -87 44 -225 61 -331 40z"/>
<path d="M29470 1060 c-74 -16 -151 -61 -184 -108 -37 -52 -47 -145 -22 -204
34 -81 96 -117 246 -144 145 -26 169 -33 180 -55 29 -54 -22 -92 -120 -90 -81
1 -126 17 -187 67 l-43 35 -65 -46 c-36 -26 -65 -50 -65 -55 0 -4 25 -31 55
-58 154 -141 457 -146 580 -11 80 89 71 245 -18 313 -43 33 -96 50 -222 71
-122 21 -147 34 -143 78 4 46 36 59 124 53 72 -4 114 -19 169 -61 l30 -22 60
53 c50 45 58 57 49 71 -17 29 -102 82 -157 98 -64 20 -207 27 -267 15z"/>
<path d="M30823 1055 c-149 -42 -234 -133 -263 -283 -37 -184 42 -369 184
-436 147 -69 345 -47 457 52 108 95 147 300 87 460 -29 79 -112 161 -193 191
-77 30 -200 37 -272 16z m202 -190 c42 -44 59 -114 52 -215 -8 -125 -56 -190
-142 -190 -50 0 -89 22 -116 67 -19 30 -24 55 -27 128 -5 111 9 168 53 212 30
30 39 33 90 33 53 0 60 -3 90 -35z"/>
<path d="M31840 1061 c-73 -23 -113 -59 -159 -146 l-21 -40 0 88 0 87 -110 0
-110 0 0 -370 0 -371 118 3 117 3 5 205 c4 182 7 209 25 240 28 47 94 80 162
80 l53 0 0 115 0 115 -27 -1 c-16 0 -39 -4 -53 -8z"/>
<path d="M32610 1056 c-182 -51 -281 -203 -267 -411 7 -105 29 -164 84 -225
62 -69 117 -99 215 -116 94 -17 190 -7 264 26 49 21 129 92 150 132 14 27 14
27 -33 48 -27 12 -65 29 -87 37 l-38 16 -25 -32 c-44 -56 -123 -81 -194 -60
-54 17 -109 80 -109 126 l0 33 253 2 252 3 -2 86 c-3 141 -53 239 -150 296
-84 49 -216 66 -313 39z m191 -162 c30 -29 55 -95 45 -120 -4 -11 -34 -14
-141 -14 l-135 0 0 34 c0 110 152 176 231 100z"/>
<path d="M19770 1042 c0 -4 20 -59 44 -122 215 -559 227 -594 221 -626 -13
-71 -76 -109 -174 -103 l-46 3 0 -84 0 -85 115 0 c106 0 120 2 172 28 71 35
128 98 162 180 34 82 276 787 276 804 0 10 -27 13 -115 13 l-114 0 -11 -37
c-30 -109 -95 -357 -110 -418 l-17 -70 -12 40 c-40 142 -106 369 -121 420
l-18 60 -126 3 c-69 1 -126 -1 -126 -6z"/>
<path d="M28875 1037 c-3 -6 -4 -172 -3 -367 l3 -355 118 -3 117 -3 0 371 0
370 -115 0 c-84 0 -117 -3 -120 -13z"/>
<path d="M31988 1040 c-1 -5 -2 -172 0 -370 l2 -360 115 0 115 0 0 370 0 370
-114 0 c-67 0 -116 -4 -118 -10z"/>
</g>
</svg>
