<?xml version="1.0" standalone="no"?>
<!DOCTYPE svg PUBLIC "-//W3C//DTD SVG 20010904//EN"
 "http://www.w3.org/TR/2001/REC-SVG-20010904/DTD/svg10.dtd">
<svg version="1.0" xmlns="http://www.w3.org/2000/svg"
 width="1512.000000pt" height="400.000000pt" viewBox="0 0 1512.000000 400.000000"
 preserveAspectRatio="xMidYMid meet">

<g transform="translate(0.000000,400.000000) scale(0.100000,-0.100000)"
fill="#fafafa" stroke="none">
<path d="M4475 3984 c-79 -17 -189 -66 -253 -113 -101 -75 -172 -218 -172
-350 0 -190 92 -333 270 -419 61 -30 138 -54 275 -87 266 -64 329 -99 356
-197 13 -49 -1 -115 -32 -160 -63 -88 -253 -132 -404 -93 -114 29 -185 91
-228 197 l-23 55 -136 -41 c-75 -23 -140 -44 -143 -48 -11 -11 41 -143 80
-202 73 -111 206 -202 350 -241 33 -9 114 -18 180 -21 394 -19 674 194 675
511 0 179 -78 316 -234 409 -72 43 -166 75 -360 121 -213 51 -272 80 -302 152
-40 93 7 183 121 234 65 29 196 32 272 6 69 -24 135 -84 162 -147 12 -27 24
-50 27 -50 6 0 250 67 271 75 9 3 8 17 -3 57 -79 266 -412 422 -749 352z"/>
<path d="M0 3130 l0 -840 150 0 150 0 0 812 c0 446 2 809 5 806 4 -3 397
-1456 432 -1595 l5 -23 299 0 298 0 10 38 c78 295 424 1578 427 1581 2 2 4
-361 4 -807 l0 -812 150 0 150 0 0 840 0 840 -301 -2 -302 -3 -215 -807 c-119
-445 -218 -808 -221 -808 -4 0 -103 363 -221 808 l-216 807 -302 3 -302 2 0
-840z"/>
<path d="M2410 3387 c0 -549 1 -588 20 -661 28 -112 73 -190 160 -276 82 -83
173 -135 290 -167 89 -24 300 -24 390 0 227 61 392 224 457 452 15 53 17 130
21 648 l3 587 -155 0 -156 0 0 -532 c0 -318 -4 -559 -10 -597 -32 -195 -181
-304 -395 -287 -144 11 -238 75 -289 199 -21 51 -21 65 -24 635 l-3 582 -154
0 -155 0 0 -583z"/>
<path d="M5545 3958 c-3 -7 -4 -384 -3 -838 l3 -825 538 -3 537 -2 0 145 0
145 -380 0 -380 0 0 210 0 210 323 2 322 3 0 140 0 140 -322 3 -323 2 0 195 0
195 365 0 365 0 0 145 0 145 -520 0 c-407 0 -522 -3 -525 -12z"/>
<path d="M6900 3394 c0 -491 2 -586 16 -647 51 -228 217 -398 454 -463 89 -25
299 -26 390 -1 224 60 390 221 456 443 16 53 18 121 21 652 l4 592 -155 0
-155 0 -3 -577 c-3 -515 -5 -583 -20 -621 -40 -100 -119 -176 -212 -205 -52
-15 -208 -15 -263 1 -80 24 -134 71 -178 156 l-40 79 -3 583 -3 584 -154 0
-155 0 0 -576z"/>
<path d="M8560 3130 l0 -841 153 3 152 3 5 799 5 799 215 -801 215 -802 297 0
297 0 14 48 c8 26 106 390 218 808 l204 762 3 -809 2 -809 150 0 150 0 0 840
0 840 -300 0 -299 0 -9 -32 c-5 -18 -103 -385 -217 -816 -115 -430 -212 -777
-216 -770 -3 7 -102 374 -220 816 l-214 802 -302 0 -303 0 0 -840z"/>
<path d="M11917 1724 c-346 -62 -612 -325 -682 -673 -25 -124 -17 -325 19
-444 96 -321 338 -534 673 -592 410 -72 795 122 950 480 l22 50 -141 68 c-77
37 -142 67 -144 67 -2 0 -4 -6 -4 -14 0 -7 -16 -45 -35 -84 -84 -168 -278
-282 -480 -282 -251 0 -448 145 -531 390 -27 78 -27 282 0 360 82 243 283 390
531 390 197 0 386 -108 463 -263 13 -26 26 -47 29 -47 16 0 273 137 273 145 0
6 -17 40 -37 75 -47 80 -188 223 -265 269 -182 106 -419 145 -641 105z"/>
<path d="M1780 870 l0 -840 150 0 150 0 -2 257 -3 257 -122 70 -122 71 452 5
452 5 3 143 3 142 -331 0 -330 0 0 220 0 220 370 0 370 0 0 145 0 145 -520 0
-520 0 0 -840z"/>
<path d="M3110 870 l0 -840 155 0 155 0 0 301 0 301 208 -4 c225 -5 258 -12
316 -66 54 -51 60 -77 64 -315 l4 -217 154 0 154 0 0 255 c0 150 -5 276 -11
307 -33 154 -136 252 -312 298 -59 15 -66 18 -37 19 100 4 210 52 276 123 177
190 107 504 -140 619 -115 54 -162 59 -593 59 l-393 0 0 -840z m776 523 c77
-41 134 -136 134 -223 0 -90 -64 -190 -147 -231 -44 -21 -63 -23 -250 -27
l-203 -4 0 257 0 256 213 -3 c196 -3 215 -5 253 -25z"/>
<path d="M4680 870 l0 -840 535 0 535 0 0 145 0 145 -380 0 -380 0 0 215 0
215 325 0 325 0 0 140 0 140 -325 0 -325 0 0 195 0 195 370 0 370 0 0 145 0
145 -525 0 -525 0 0 -840z"/>
<path d="M6060 870 l0 -842 368 4 c358 4 369 5 464 31 363 97 578 373 595 762
18 419 -217 748 -612 857 -74 20 -107 22 -447 26 l-368 4 0 -842z m702 539
c72 -15 183 -69 237 -115 59 -51 117 -143 144 -229 31 -100 31 -290 0 -390
-55 -175 -176 -288 -359 -335 -62 -16 -111 -20 -246 -20 l-168 0 0 550 0 550
170 0 c93 0 193 -5 222 -11z"/>
<path d="M7740 870 l0 -840 535 0 535 0 0 145 0 145 -380 0 -380 0 0 215 0
215 325 0 325 0 0 140 0 140 -325 0 -325 0 0 195 0 195 365 0 365 0 0 145 0
145 -520 0 -520 0 0 -840z"/>
<path d="M9110 870 l0 -840 155 0 155 0 2 298 3 297 210 0 c200 0 212 -1 258
-24 51 -25 88 -66 106 -120 7 -21 11 -113 11 -242 l0 -209 160 0 160 0 0 233
c0 127 -5 261 -10 297 -28 174 -141 290 -325 331 l-60 14 55 7 c142 18 253 90
310 203 33 64 35 73 35 169 0 93 -3 106 -32 169 -40 83 -111 155 -196 196
-112 56 -160 61 -599 61 l-398 0 0 -840z m742 536 c66 -19 114 -60 144 -122
23 -48 26 -63 22 -127 -5 -80 -22 -119 -70 -168 -66 -66 -100 -74 -323 -74
l-200 0 -3 253 -2 252 193 0 c135 0 208 -4 239 -14z"/>
<path d="M10670 870 l0 -841 158 3 157 3 3 838 2 837 -160 0 -160 0 0 -840z"/>
<path d="M13130 870 l0 -840 155 0 155 0 0 840 0 840 -155 0 -155 0 0 -840z"/>
<path d="M13870 953 c-111 -417 -213 -795 -225 -841 l-23 -82 156 2 157 3 46
170 45 170 342 3 342 2 10 -22 c5 -13 23 -77 40 -143 17 -66 36 -135 41 -152
l11 -33 154 0 c143 0 155 1 150 18 -3 9 -102 379 -221 822 -119 443 -218 813
-221 823 -5 16 -28 17 -303 17 l-297 0 -204 -757z m639 202 l128 -480 -260 -3
c-143 -1 -262 0 -265 3 -4 4 240 937 255 975 5 13 7 13 10 0 2 -8 62 -231 132
-495z"/>
</g>
</svg>
