<?xml version="1.0" standalone="no"?>
<!DOCTYPE svg PUBLIC "-//W3C//DTD SVG 20010904//EN"
 "http://www.w3.org/TR/2001/REC-SVG-20010904/DTD/svg10.dtd">
<svg version="1.0" xmlns="http://www.w3.org/2000/svg"
 width="2313.000000pt" height="400.000000pt" viewBox="0 0 2313.000000 400.000000"
 preserveAspectRatio="xMidYMid meet">

<g transform="translate(0.000000,400.000000) scale(0.100000,-0.100000)"
fill="#fafafa" stroke="none">
<path d="M7720 3990 c0 -6 -37 -10 -90 -10 -53 0 -90 -4 -90 -10 0 -5 -22 -10
-50 -10 -27 0 -50 -4 -50 -10 0 -5 -13 -10 -30 -10 -16 0 -30 -4 -30 -10 0 -5
-13 -10 -30 -10 -16 0 -30 -4 -30 -10 0 -5 -9 -10 -20 -10 -11 0 -20 -4 -20
-10 0 -5 -8 -10 -18 -10 -10 0 -24 -9 -32 -20 -8 -11 -19 -20 -25 -20 -15 0
-75 -63 -75 -78 0 -7 -4 -12 -10 -12 -5 0 -10 -9 -10 -20 0 -11 -4 -20 -10
-20 -5 0 -10 -9 -10 -20 0 -11 -4 -20 -10 -20 -6 0 -10 -92 -10 -255 0 -163 4
-255 10 -255 6 0 10 -9 10 -20 0 -11 5 -20 10 -20 6 0 10 -7 10 -15 0 -37 84
-132 138 -156 18 -8 32 -17 32 -21 0 -5 9 -8 20 -8 11 0 20 -4 20 -10 0 -5 14
-10 30 -10 17 0 30 -4 30 -10 0 -5 18 -10 40 -10 22 0 40 -4 40 -10 0 -5 14
-10 30 -10 17 0 30 -4 30 -10 0 -5 18 -10 40 -10 22 0 40 -4 40 -10 0 -5 18
-10 40 -10 22 0 40 -4 40 -10 0 -5 14 -10 30 -10 17 0 30 -4 30 -10 0 -5 15
-10 34 -10 19 0 38 -4 41 -10 3 -5 17 -10 30 -10 13 0 27 -4 30 -10 3 -5 21
-10 40 -10 19 0 36 -4 39 -9 3 -5 26 -12 51 -15 25 -4 45 -11 45 -17 0 -5 7
-9 16 -9 37 0 44 -24 44 -154 0 -77 -4 -126 -10 -126 -5 0 -10 -7 -10 -15 0
-20 -45 -65 -65 -65 -8 0 -15 -4 -15 -10 0 -5 -18 -10 -40 -10 -22 0 -40 -4
-40 -10 0 -14 -537 -14 -545 0 -3 6 -52 10 -111 10 -63 0 -104 4 -104 10 0 6
-21 10 -47 10 -42 0 -50 -3 -60 -27 -16 -33 -18 -263 -3 -263 6 0 10 -13 10
-30 l0 -30 60 0 c33 0 60 -4 60 -10 0 -6 48 -10 125 -10 77 0 125 -4 125 -10
0 -6 92 -10 255 -10 163 0 255 4 255 10 0 6 30 10 70 10 40 0 70 4 70 10 0 6
23 10 50 10 28 0 50 5 50 10 0 6 14 10 30 10 17 0 30 5 30 10 0 6 9 10 20 10
11 0 20 5 20 10 0 6 9 10 20 10 11 0 20 5 20 10 0 6 5 10 11 10 16 0 139 121
139 137 0 7 5 13 10 13 6 0 10 14 10 30 0 17 5 30 10 30 6 0 10 95 10 265 0
170 -4 265 -10 265 -5 0 -10 13 -10 28 0 16 -8 34 -20 42 -11 8 -20 20 -20 28
0 18 -66 82 -85 82 -8 0 -15 4 -15 8 0 5 -16 14 -35 22 -19 8 -35 17 -35 22 0
4 -13 8 -30 8 -16 0 -30 5 -30 10 0 6 -13 10 -30 10 -16 0 -30 5 -30 10 0 6
-18 10 -40 10 -22 0 -40 5 -40 10 0 6 -13 10 -30 10 -16 0 -30 5 -30 10 0 6
-18 10 -40 10 -22 0 -40 5 -40 10 0 6 -13 10 -30 10 -16 0 -30 5 -30 10 0 6
-15 10 -34 10 -19 0 -38 5 -41 10 -3 6 -17 10 -30 10 -13 0 -27 5 -30 10 -3 6
-21 10 -40 10 -19 0 -37 5 -40 10 -3 6 -17 10 -30 10 -13 0 -27 5 -30 10 -3 6
-16 10 -28 10 -12 0 -41 17 -65 39 l-42 39 0 106 c0 64 4 106 10 106 6 0 10 7
10 16 0 20 24 44 44 44 9 0 16 5 16 10 0 6 9 10 20 10 11 0 20 5 20 10 0 6 18
10 40 10 22 0 40 5 40 10 0 6 88 10 245 10 157 0 245 -4 245 -10 0 -6 38 -10
95 -10 57 0 95 -4 95 -10 0 -6 33 -10 80 -10 l80 0 0 165 0 165 -50 0 c-27 0
-50 5 -50 10 0 6 -28 10 -65 10 -37 0 -65 4 -65 10 0 6 -47 10 -120 10 -73 0
-120 4 -120 10 0 6 -62 10 -165 10 -103 0 -165 -4 -165 -10z"/>
<path d="M12110 3990 c0 -6 -38 -10 -95 -10 -57 0 -95 -4 -95 -10 0 -5 -22
-10 -50 -10 -27 0 -50 -4 -50 -10 0 -5 -13 -10 -30 -10 -16 0 -30 -4 -30 -10
0 -5 -13 -10 -30 -10 -16 0 -30 -4 -30 -10 0 -5 -9 -10 -20 -10 -11 0 -20 -4
-20 -10 0 -5 -9 -10 -20 -10 -11 0 -20 -4 -20 -10 0 -5 -7 -10 -15 -10 -20 0
-135 -116 -135 -135 0 -8 -4 -15 -10 -15 -5 0 -10 -9 -10 -20 0 -11 -4 -20
-10 -20 -5 0 -10 -9 -10 -20 0 -11 -4 -20 -10 -20 -5 0 -10 -22 -10 -50 0 -27
-4 -50 -10 -50 -7 0 -10 -193 -10 -560 0 -367 3 -560 10 -560 6 0 10 -22 10
-50 0 -27 5 -50 10 -50 6 0 10 -13 10 -30 0 -16 5 -30 10 -30 6 0 10 -8 10
-18 0 -9 9 -23 20 -30 11 -7 20 -18 20 -25 0 -18 55 -77 72 -77 7 0 20 -9 28
-20 8 -11 22 -20 32 -20 10 0 18 -4 18 -10 0 -5 9 -10 20 -10 11 0 20 -4 20
-10 0 -5 14 -10 30 -10 17 0 30 -4 30 -10 0 -5 14 -10 30 -10 17 0 30 -4 30
-10 0 -5 23 -10 50 -10 28 0 50 -4 50 -10 0 -6 30 -10 70 -10 40 0 70 -4 70
-10 0 -6 78 -10 215 -10 137 0 215 4 215 10 0 6 31 10 74 10 41 0 78 5 81 10
3 6 26 10 51 10 24 0 44 5 44 10 0 6 14 10 30 10 17 0 30 5 30 10 0 6 9 10 20
10 11 0 20 5 20 10 0 6 9 10 20 10 11 0 20 5 20 10 0 6 9 10 20 10 11 0 20 5
20 10 0 6 7 10 15 10 9 0 43 28 78 63 62 63 107 133 107 167 0 11 5 22 10 25
6 4 10 227 10 635 0 408 -4 631 -10 635 -5 3 -10 14 -10 24 0 23 -26 75 -45
91 -8 7 -15 17 -15 23 0 15 -88 97 -103 97 -7 0 -19 9 -27 20 -8 11 -22 20
-32 20 -10 0 -18 5 -18 10 0 6 -9 10 -20 10 -11 0 -20 5 -20 10 0 6 -13 10
-30 10 -16 0 -30 5 -30 10 0 6 -18 10 -40 10 -22 0 -40 5 -40 10 0 6 -20 10
-45 10 -25 0 -45 5 -45 10 0 6 -37 10 -90 10 -53 0 -90 4 -90 10 0 6 -57 10
-150 10 -93 0 -150 -4 -150 -10z m300 -350 c0 -5 23 -10 50 -10 28 0 50 -4 50
-10 0 -5 9 -10 20 -10 11 0 30 -6 42 -12 35 -21 88 -76 88 -93 0 -8 5 -15 10
-15 6 0 10 -13 10 -30 0 -16 5 -30 10 -30 7 0 10 -163 10 -470 0 -307 -3 -470
-10 -470 -5 0 -10 -9 -10 -20 0 -11 -4 -20 -10 -20 -5 0 -10 -7 -10 -15 0 -17
-53 -72 -88 -92 -12 -7 -31 -13 -41 -13 -11 0 -23 -4 -26 -10 -3 -5 -26 -10
-51 -10 -24 0 -44 -4 -44 -10 0 -6 -55 -10 -144 -10 -86 0 -147 4 -151 10 -3
6 -26 10 -51 10 -24 0 -44 5 -44 10 0 6 -13 10 -30 10 -16 0 -30 5 -30 10 0 6
-7 10 -15 10 -20 0 -105 85 -105 105 0 8 -4 15 -10 15 -7 0 -10 173 -10 500 0
327 3 500 10 500 6 0 10 7 10 15 0 20 85 105 105 105 8 0 15 5 15 10 0 6 9 10
20 10 11 0 20 5 20 10 0 6 23 10 50 10 28 0 50 5 50 10 0 6 58 10 155 10 97 0
155 -4 155 -10z"/>
<path d="M20 2970 l0 -990 40 0 c22 0 40 -4 40 -10 0 -6 48 -10 125 -10 77 0
125 4 125 10 0 6 18 10 40 10 l40 0 0 645 c0 355 4 645 8 645 11 0 52 -44 52
-56 0 -5 9 -16 20 -24 11 -8 20 -21 20 -30 0 -9 9 -22 20 -30 11 -8 20 -22 20
-32 0 -10 5 -18 10 -18 6 0 10 -8 10 -18 0 -10 9 -24 20 -32 11 -8 20 -21 20
-30 0 -9 9 -22 20 -30 11 -8 20 -22 20 -32 0 -10 5 -18 10 -18 6 0 10 -8 10
-18 0 -10 9 -24 20 -32 11 -8 20 -22 20 -32 0 -10 4 -18 8 -18 5 0 17 -19 27
-42 10 -24 27 -50 37 -59 10 -9 18 -23 18 -30 0 -8 9 -21 20 -29 11 -8 20 -22
20 -32 0 -10 5 -18 10 -18 6 0 10 -8 10 -18 0 -10 9 -24 20 -32 11 -8 20 -21
20 -30 0 -9 9 -22 20 -30 11 -8 20 -21 20 -30 0 -9 9 -22 20 -30 11 -8 20 -22
20 -32 0 -10 5 -18 10 -18 6 0 10 -8 10 -18 0 -10 9 -24 20 -32 11 -8 20 -21
20 -30 0 -9 9 -22 20 -30 11 -8 20 -22 20 -32 0 -10 5 -18 10 -18 6 0 10 -7
10 -15 0 -8 4 -15 8 -15 5 0 15 -12 23 -27 8 -16 22 -37 32 -47 9 -11 17 -26
17 -33 0 -7 5 -13 10 -13 6 0 10 -8 10 -18 0 -10 9 -24 20 -32 11 -8 20 -22
20 -32 0 -16 10 -18 75 -18 43 0 75 -4 75 -10 0 -6 40 -10 100 -10 60 0 100 4
100 10 0 6 30 10 70 10 l70 0 0 990 0 990 -210 0 -210 0 0 -666 c0 -627 -1
-665 -17 -662 -10 2 -27 22 -39 46 -12 23 -29 51 -38 60 -9 10 -16 23 -16 28
0 5 -9 16 -20 24 -11 8 -20 22 -20 32 0 10 -4 18 -10 18 -5 0 -10 8 -10 18 0
10 -9 24 -20 32 -11 8 -20 21 -20 30 0 9 -9 22 -20 30 -11 8 -20 22 -20 32 0
10 -4 18 -10 18 -5 0 -10 8 -10 18 0 10 -9 24 -20 32 -11 8 -20 21 -20 30 0 9
-9 22 -20 30 -11 8 -20 22 -20 32 0 10 -4 18 -10 18 -5 0 -10 8 -10 18 0 10
-9 24 -20 32 -11 8 -20 21 -20 29 0 7 -8 21 -18 30 -10 9 -26 32 -35 52 -9 20
-23 42 -32 49 -8 7 -15 19 -15 26 0 8 -4 14 -8 14 -8 0 -42 69 -42 85 0 4 -8
15 -18 24 -9 9 -23 28 -31 44 -8 15 -18 27 -23 27 -4 0 -8 9 -8 20 0 11 -4 20
-10 20 -5 0 -10 6 -10 13 0 8 -9 22 -20 32 -11 10 -20 23 -20 30 0 7 -9 20
-20 30 -11 10 -20 24 -20 32 0 7 -4 13 -10 13 -5 0 -10 8 -10 18 0 10 -9 24
-20 32 -11 8 -20 21 -20 30 0 9 -9 22 -20 30 -11 8 -20 20 -20 28 0 38 -22 42
-249 42 l-221 0 0 -990z"/>
<path d="M3073 3945 c-7 -8 -13 -26 -13 -40 0 -14 -4 -25 -10 -25 -5 0 -10
-13 -10 -30 0 -16 -4 -30 -10 -30 -5 0 -10 -9 -10 -20 0 -11 -4 -20 -10 -20
-5 0 -10 -9 -10 -20 0 -11 -9 -35 -20 -55 -11 -20 -20 -42 -20 -50 0 -8 -9
-30 -20 -50 -11 -20 -20 -44 -20 -55 0 -11 -4 -20 -10 -20 -5 0 -10 -12 -10
-27 0 -16 -7 -41 -15 -57 -8 -15 -15 -34 -15 -42 0 -7 -9 -29 -20 -49 -11 -20
-20 -44 -20 -55 0 -11 -4 -20 -10 -20 -5 0 -10 -9 -10 -20 0 -11 -4 -20 -10
-20 -5 0 -10 -13 -10 -30 0 -16 -4 -30 -10 -30 -5 0 -10 -13 -10 -30 0 -16 -4
-30 -10 -30 -5 0 -10 -9 -10 -20 0 -11 -4 -20 -10 -20 -5 0 -10 -13 -10 -30 0
-16 -4 -30 -10 -30 -5 0 -10 -9 -10 -20 0 -11 -4 -20 -10 -20 -5 0 -10 -13
-10 -30 0 -16 -4 -30 -10 -30 -5 0 -10 -9 -10 -20 0 -11 -4 -20 -10 -20 -5 0
-10 -13 -10 -30 0 -16 -4 -30 -10 -30 -5 0 -10 -9 -10 -20 0 -11 -9 -35 -20
-55 -11 -20 -20 -44 -20 -55 0 -11 -4 -20 -10 -20 -5 0 -10 -9 -10 -20 0 -11
-4 -20 -10 -20 -5 0 -10 -13 -10 -30 0 -16 -4 -30 -10 -30 -5 0 -10 -9 -10
-20 0 -11 -4 -20 -10 -20 -5 0 -10 -13 -10 -30 0 -16 -4 -30 -10 -30 -5 0 -10
-13 -10 -30 0 -16 -4 -30 -10 -30 -5 0 -10 -9 -10 -20 0 -11 -4 -20 -10 -20
-5 0 -10 -13 -10 -30 0 -16 -4 -30 -10 -30 -5 0 -10 -9 -10 -20 0 -11 -4 -20
-10 -20 -5 0 -10 -9 -10 -20 0 -11 -9 -35 -20 -54 -10 -19 -22 -58 -26 -86 -4
-27 -10 -50 -15 -50 -5 0 -9 -9 -9 -20 0 -11 -4 -20 -10 -20 -5 0 -10 -9 -10
-20 0 -18 7 -20 55 -20 30 0 55 -4 55 -10 0 -6 40 -10 100 -10 60 0 100 4 100
10 0 6 27 10 60 10 53 0 60 2 60 20 0 11 5 20 10 20 6 0 10 14 10 30 0 17 5
30 10 30 6 0 10 9 10 20 0 11 5 20 10 20 6 0 10 14 10 30 0 17 5 30 10 30 6 0
10 11 10 24 0 14 5 28 10 31 6 3 10 17 10 30 0 13 5 27 10 30 6 3 10 16 11 28
0 12 8 36 18 52 l18 30 367 3 367 2 24 -24 c14 -14 25 -37 25 -51 0 -14 5 -25
10 -25 6 0 10 -11 10 -24 0 -14 5 -28 10 -31 6 -3 10 -17 10 -31 0 -13 5 -24
10 -24 6 0 10 -9 10 -20 0 -11 5 -20 10 -20 6 0 10 -13 10 -30 0 -16 5 -30 10
-30 6 0 10 -13 10 -30 0 -16 5 -30 10 -30 6 0 10 -13 10 -30 l0 -30 70 0 c40
0 70 -4 70 -10 0 -6 38 -10 95 -10 57 0 95 4 95 10 0 6 27 10 60 10 53 0 60 2
60 20 0 11 -4 20 -10 20 -5 0 -10 9 -10 20 0 11 -4 20 -10 20 -5 0 -10 14 -10
30 0 17 -4 30 -10 30 -5 0 -10 9 -10 20 0 11 -4 20 -10 20 -5 0 -10 14 -10 30
0 17 -4 30 -10 30 -5 0 -10 9 -10 20 0 11 -4 20 -10 20 -5 0 -10 11 -10 24 0
14 -4 28 -10 31 -5 3 -10 17 -10 31 0 13 -4 24 -10 24 -5 0 -10 9 -10 20 0 11
-4 20 -10 20 -5 0 -10 14 -10 30 0 17 -4 30 -10 30 -5 0 -10 9 -10 19 0 11 -4
22 -9 25 -5 3 -11 18 -14 33 -5 30 -24 87 -38 115 -5 10 -9 24 -9 33 0 8 -9
30 -20 50 -11 20 -20 44 -20 55 0 11 -4 20 -10 20 -5 0 -10 9 -10 20 0 11 -4
20 -10 20 -5 0 -10 14 -10 30 0 17 -4 30 -10 30 -5 0 -10 9 -10 20 0 11 -4 20
-10 20 -5 0 -10 14 -10 30 0 17 -4 30 -10 30 -5 0 -10 14 -10 30 0 17 -4 30
-10 30 -5 0 -10 9 -10 20 0 11 -4 20 -10 20 -5 0 -10 11 -10 24 0 14 -4 28
-10 31 -5 3 -10 15 -10 26 0 10 -4 19 -10 19 -5 0 -10 11 -10 25 0 14 -4 25
-10 25 -5 0 -10 9 -10 20 0 11 -4 20 -10 20 -5 0 -10 14 -10 30 0 17 -4 30
-10 30 -5 0 -10 14 -10 30 0 17 -4 30 -10 30 -5 0 -10 9 -10 20 0 11 -4 20
-10 20 -5 0 -10 14 -10 30 0 17 -4 30 -10 30 -5 0 -10 9 -10 20 0 11 -4 20
-10 20 -5 0 -10 14 -10 30 0 17 -4 30 -10 30 -5 0 -10 9 -10 20 0 11 -4 20
-10 20 -5 0 -10 14 -10 30 0 17 -4 30 -10 30 -5 0 -10 9 -10 20 0 11 -9 35
-20 55 -11 20 -20 44 -20 55 0 11 -4 20 -10 20 -5 0 -10 7 -10 15 0 8 -5 26
-12 40 l-11 25 -201 0 c-161 -1 -204 -4 -213 -15z m227 -515 c0 -11 5 -20 10
-20 6 0 10 -13 10 -30 0 -16 5 -30 10 -30 6 0 10 -13 10 -30 0 -16 5 -30 10
-30 6 0 10 -9 10 -20 0 -11 5 -20 10 -20 6 0 10 -11 10 -24 0 -14 5 -28 10
-31 6 -3 10 -17 10 -30 0 -13 5 -27 10 -30 6 -3 10 -14 10 -24 0 -10 7 -32 15
-47 8 -16 15 -41 15 -56 0 -16 5 -28 10 -28 6 0 10 -11 10 -24 0 -14 5 -28 10
-31 6 -3 10 -17 10 -30 0 -13 5 -27 10 -30 6 -3 10 -15 10 -25 0 -11 9 -35 20
-55 l20 -35 -265 0 c-229 0 -265 2 -265 15 0 8 5 15 10 15 6 0 10 14 10 30 0
17 5 30 10 30 6 0 10 14 10 30 0 17 5 30 10 30 6 0 10 14 10 30 0 17 5 30 10
30 6 0 10 9 10 20 0 11 5 20 10 20 6 0 10 14 10 30 0 17 5 30 10 30 6 0 10 14
10 30 0 17 5 30 10 30 6 0 10 14 10 30 0 17 5 30 10 30 6 0 10 9 10 20 0 11 5
20 10 20 6 0 10 11 10 24 0 14 5 28 10 31 6 3 10 17 10 31 0 13 5 24 10 24 6
0 10 14 10 30 0 17 5 30 10 30 6 0 10 14 10 30 0 23 4 30 20 30 13 0 20 -7 20
-20z"/>
<path d="M4830 2970 l0 -990 60 0 c33 0 60 -4 60 -10 0 -6 38 -10 95 -10 57 0
95 4 95 10 0 6 23 10 50 10 l50 0 0 376 c0 312 2 378 14 390 10 9 37 14 85 14
38 0 73 5 76 10 3 6 13 10 20 10 17 0 85 -60 85 -76 0 -5 14 -23 30 -39 17
-16 30 -34 30 -41 0 -7 11 -24 25 -38 14 -14 25 -30 25 -37 0 -6 14 -24 30
-39 17 -15 30 -34 30 -42 0 -7 9 -20 20 -28 11 -8 20 -21 20 -28 0 -8 14 -27
30 -42 17 -15 30 -32 30 -38 0 -5 12 -22 28 -38 15 -16 33 -42 41 -57 8 -14
22 -29 33 -33 10 -3 18 -13 18 -22 0 -10 9 -24 20 -32 11 -8 20 -21 20 -28 0
-8 14 -27 30 -42 17 -15 30 -33 30 -39 0 -7 11 -23 25 -36 21 -22 33 -25 95
-25 40 0 70 -4 70 -10 0 -6 43 -10 110 -10 67 0 110 4 110 10 0 6 27 10 60 10
33 0 60 4 60 10 0 6 -4 10 -10 10 -5 0 -10 7 -10 16 0 9 -13 29 -30 44 -16 15
-30 34 -30 42 0 7 -9 20 -20 28 -11 8 -20 21 -20 28 0 8 -13 27 -30 42 -16 15
-30 35 -30 43 0 9 -8 18 -18 21 -11 4 -25 19 -33 34 -8 15 -22 34 -31 43 -10
9 -18 22 -18 29 0 6 -13 25 -30 40 -16 15 -30 35 -30 44 0 9 -4 16 -10 16 -5
0 -12 11 -16 24 -3 13 -17 35 -30 47 -14 13 -32 38 -41 56 -8 18 -19 33 -24
33 -5 0 -9 6 -9 13 0 7 -13 26 -30 42 -16 16 -30 34 -30 41 0 7 -13 24 -30 37
-16 14 -30 32 -30 39 0 8 -9 20 -20 28 -11 8 -20 21 -20 28 0 8 -13 27 -30 42
-16 15 -30 35 -30 44 0 9 -4 16 -10 16 -5 0 -10 9 -10 20 0 11 5 20 10 20 6 0
10 8 10 18 0 10 9 24 20 32 11 8 20 21 20 28 0 8 14 27 30 42 17 15 30 34 30
42 0 7 9 20 20 28 11 8 20 19 20 26 0 6 9 19 20 29 11 10 20 23 20 30 0 6 14
24 30 40 17 16 30 34 30 40 0 7 9 20 20 30 11 10 20 23 20 30 0 7 9 20 19 29
11 10 22 28 25 42 4 13 11 24 16 24 6 0 10 7 10 16 0 9 14 29 30 44 17 15 30
34 30 42 0 7 9 20 20 28 11 8 20 19 20 26 0 6 9 19 20 29 11 10 20 23 20 29 0
7 9 18 20 26 11 8 20 21 20 28 0 8 14 27 30 42 17 15 30 34 30 42 0 7 9 20 20
28 11 8 20 22 20 32 0 10 5 18 10 18 6 0 10 5 10 10 0 6 -80 10 -220 10 l-221
0 -34 -35 c-19 -19 -35 -40 -35 -47 0 -8 -9 -20 -20 -28 -11 -8 -20 -21 -20
-30 0 -9 -9 -22 -20 -30 -11 -8 -20 -19 -20 -25 0 -6 -9 -17 -20 -25 -11 -8
-20 -21 -20 -30 0 -9 -9 -22 -20 -30 -11 -8 -20 -21 -20 -30 0 -9 -9 -22 -20
-30 -11 -8 -20 -21 -20 -28 0 -8 -13 -27 -30 -42 -16 -15 -30 -34 -30 -42 0
-7 -9 -20 -20 -28 -11 -8 -20 -21 -20 -30 0 -9 -9 -22 -20 -30 -11 -8 -20 -21
-20 -30 0 -9 -9 -22 -20 -30 -11 -8 -20 -22 -20 -32 0 -10 -4 -18 -9 -18 -5 0
-13 -10 -17 -22 -4 -13 -15 -30 -25 -39 -11 -9 -19 -22 -19 -28 0 -26 -49 -61
-85 -61 -19 0 -35 -4 -35 -10 0 -6 -37 -10 -90 -10 l-90 0 0 410 0 410 -205 0
-205 0 0 -990z"/>
<path d="M9250 2970 l0 -990 54 0 c30 0 58 -4 61 -10 3 -6 48 -10 101 -10 56
0 94 4 94 10 0 6 23 10 50 10 l50 0 0 378 c0 281 3 381 12 390 7 7 41 12 84
12 40 0 76 5 79 10 3 6 13 10 21 10 19 0 94 -74 94 -92 0 -7 9 -20 20 -28 11
-8 20 -21 20 -28 0 -8 14 -27 30 -42 17 -15 30 -33 30 -40 0 -7 14 -25 30 -40
17 -15 30 -33 30 -40 0 -7 14 -25 30 -40 17 -15 30 -34 30 -42 0 -7 9 -20 20
-28 11 -8 20 -21 20 -28 0 -8 14 -27 30 -42 17 -15 30 -34 30 -42 0 -7 14 -24
30 -37 17 -13 30 -28 30 -35 0 -6 14 -24 30 -39 17 -16 30 -34 30 -41 0 -6 9
-18 20 -26 11 -8 20 -20 20 -27 0 -7 10 -24 22 -38 19 -22 29 -25 95 -25 42 0
73 -4 73 -10 0 -6 43 -10 110 -10 67 0 110 4 110 10 0 6 27 10 60 10 33 0 60
4 60 10 0 6 -4 10 -10 10 -5 0 -10 8 -10 18 0 10 -9 24 -20 32 -11 8 -20 21
-20 28 0 8 -13 27 -30 42 -16 15 -30 33 -30 38 0 6 -13 23 -30 39 -16 15 -30
34 -30 40 0 7 -9 18 -20 25 -11 7 -20 19 -20 26 0 8 -13 27 -30 42 -16 15 -30
34 -30 42 0 7 -9 20 -20 28 -11 8 -20 21 -20 28 0 8 -13 27 -30 42 -16 15 -30
34 -30 42 0 7 -9 20 -20 28 -11 8 -20 21 -20 29 0 7 -8 21 -19 30 -10 9 -25
30 -33 46 -9 17 -25 39 -37 49 -12 11 -21 24 -21 31 0 7 -9 20 -20 30 -11 10
-20 22 -20 28 0 5 -13 22 -30 37 -16 15 -30 34 -30 42 0 7 -9 20 -20 28 -11 8
-20 21 -20 30 0 9 -9 22 -20 30 -21 15 -28 50 -10 50 6 0 10 7 10 16 0 9 14
29 30 44 17 15 30 34 30 42 0 7 9 20 20 28 11 8 20 21 20 30 0 9 9 22 20 30
11 8 20 19 20 24 0 6 12 22 26 37 26 27 37 43 69 107 10 17 21 32 26 32 5 0 9
8 9 18 0 10 9 24 20 32 11 8 20 21 20 28 0 8 14 27 30 42 17 15 30 34 30 42 0
7 9 20 20 28 11 8 20 21 20 30 0 9 9 22 20 30 11 8 20 21 20 30 0 9 9 22 20
30 11 8 20 19 20 25 0 6 14 24 30 40 17 16 30 35 30 42 0 7 4 13 8 13 5 0 15
12 23 28 8 15 22 34 31 43 10 9 18 24 18 33 0 9 5 16 10 16 6 0 10 5 10 10 0
6 -83 10 -230 10 -135 0 -230 -4 -230 -9 0 -5 -6 -16 -12 -23 -22 -23 -58 -77
-58 -86 0 -4 -13 -21 -30 -37 -16 -16 -30 -34 -30 -40 0 -6 -9 -17 -20 -25
-11 -8 -20 -21 -20 -30 0 -9 -9 -22 -20 -30 -11 -8 -20 -21 -20 -30 0 -9 -9
-22 -20 -30 -11 -8 -20 -21 -20 -30 0 -9 -9 -22 -20 -30 -11 -8 -20 -21 -20
-30 0 -9 -9 -22 -20 -30 -11 -8 -20 -21 -20 -28 0 -8 -13 -27 -30 -42 -16 -15
-30 -34 -30 -42 0 -7 -9 -20 -20 -28 -11 -8 -20 -21 -20 -30 0 -9 -9 -22 -20
-30 -11 -8 -20 -19 -20 -26 0 -6 -9 -19 -20 -29 -11 -10 -20 -23 -20 -29 -1
-27 -39 -56 -74 -56 -20 0 -36 -4 -36 -10 0 -6 -37 -10 -90 -10 l-90 0 0 410
0 410 -205 0 -205 0 0 -990z"/>
<path d="M13610 3930 c0 -16 5 -30 10 -30 6 0 10 -13 10 -30 0 -16 5 -30 10
-30 6 0 10 -13 10 -28 0 -16 3 -32 7 -36 13 -12 43 -100 43 -123 0 -13 5 -23
10 -23 6 0 10 -9 10 -20 0 -11 5 -20 10 -20 6 0 10 -13 10 -30 0 -16 5 -30 10
-30 6 0 10 -13 10 -30 0 -16 5 -30 10 -30 6 0 10 -9 10 -20 0 -11 5 -20 10
-20 6 0 10 -13 10 -30 0 -16 5 -30 10 -30 6 0 10 -9 10 -20 0 -11 9 -35 20
-55 11 -20 20 -44 20 -55 0 -11 5 -20 10 -20 6 0 10 -13 10 -30 0 -16 5 -30
10 -30 6 0 10 -9 10 -20 0 -11 5 -20 10 -20 6 0 10 -13 10 -30 0 -16 5 -30 10
-30 6 0 10 -13 10 -30 0 -16 5 -30 10 -30 6 0 10 -9 10 -20 0 -11 5 -20 10
-20 6 0 10 -13 10 -30 0 -16 5 -30 10 -30 6 0 10 -13 10 -30 0 -16 5 -30 10
-30 6 0 10 -9 10 -20 0 -11 5 -20 10 -20 6 0 10 -13 10 -30 0 -16 5 -30 10
-30 6 0 10 -8 10 -18 0 -22 22 -72 33 -72 4 0 7 -13 7 -30 0 -16 5 -30 10 -30
6 0 10 -13 10 -30 0 -16 5 -30 10 -30 6 0 10 -9 10 -20 0 -11 5 -20 10 -20 6
0 10 -13 10 -30 0 -16 5 -30 10 -30 6 0 10 -13 10 -30 0 -16 4 -30 9 -30 6 0
13 -20 17 -45 3 -25 10 -48 15 -51 5 -3 9 -13 9 -23 0 -21 22 -71 33 -71 4 0
7 -13 7 -30 0 -16 5 -30 10 -30 6 0 10 -13 10 -30 0 -16 5 -30 10 -30 6 0 10
-9 10 -20 0 -11 5 -20 10 -20 6 0 10 -9 10 -20 0 -18 7 -20 60 -20 33 0 60 -4
60 -10 0 -6 37 -10 90 -10 53 0 90 4 90 10 0 6 25 10 56 10 47 0 57 3 61 20 3
11 9 20 14 20 5 0 9 14 9 30 0 17 5 30 10 30 6 0 10 12 10 28 0 15 7 40 15 56
8 15 15 37 15 47 0 11 5 19 10 19 6 0 10 14 10 30 0 17 5 30 10 30 6 0 10 14
10 30 0 17 5 30 10 30 6 0 10 9 10 20 0 11 5 20 10 20 6 0 10 14 10 30 0 17 5
30 10 30 6 0 10 14 10 30 0 17 5 30 10 30 6 0 10 14 10 30 0 17 5 30 10 30 6
0 10 9 10 20 0 11 5 20 10 20 6 0 10 14 10 30 0 17 5 30 10 30 6 0 10 11 10
24 0 14 5 28 10 31 6 3 10 17 10 31 0 13 5 24 10 24 6 0 10 9 10 20 0 11 5 20
10 20 6 0 10 14 10 30 0 17 5 30 10 30 6 0 10 14 10 30 0 17 5 30 10 30 6 0
10 14 10 30 0 17 5 30 10 30 6 0 10 9 10 20 0 11 5 20 10 20 6 0 10 14 10 30
0 17 5 30 10 30 6 0 10 14 10 30 0 17 5 30 10 30 6 0 10 9 10 20 0 11 9 35 20
55 11 20 20 44 20 55 0 10 5 22 10 25 6 3 10 17 10 30 0 13 5 27 10 30 6 3 10
15 10 25 0 11 9 35 20 55 11 20 20 42 20 50 0 9 4 23 9 33 5 9 17 45 27 80 10
35 21 65 26 68 4 3 8 16 8 30 0 13 5 24 10 24 6 0 10 14 10 30 0 17 5 30 10
30 6 0 10 14 10 30 0 17 5 30 10 30 6 0 10 9 10 20 0 11 5 20 10 20 6 0 10 14
10 30 l0 30 -215 0 -215 0 0 -30 c0 -16 -4 -30 -10 -30 -5 0 -10 -13 -10 -30
0 -16 -4 -30 -10 -30 -5 0 -10 -13 -10 -30 0 -16 -4 -30 -10 -30 -5 0 -10 -11
-10 -24 0 -14 -4 -28 -10 -31 -5 -3 -10 -17 -10 -30 0 -13 -4 -27 -10 -30 -5
-3 -10 -17 -10 -31 0 -13 -4 -24 -10 -24 -5 0 -10 -13 -10 -30 0 -16 -4 -30
-10 -30 -5 0 -10 -9 -10 -20 0 -11 -4 -20 -10 -20 -5 0 -10 -13 -10 -30 0 -16
-4 -30 -10 -30 -5 0 -10 -13 -10 -30 0 -16 -4 -30 -10 -30 -5 0 -10 -13 -10
-30 0 -16 -4 -30 -10 -30 -5 0 -10 -11 -10 -24 0 -14 -4 -28 -10 -31 -5 -3
-10 -17 -10 -30 0 -13 -4 -27 -10 -30 -5 -3 -10 -17 -10 -30 0 -13 -4 -26 -9
-29 -5 -3 -12 -26 -15 -51 -4 -25 -11 -45 -17 -45 -5 0 -9 -13 -9 -30 0 -16
-4 -30 -10 -30 -5 0 -10 -13 -10 -30 0 -16 -4 -30 -10 -30 -5 0 -10 -13 -10
-30 0 -16 -4 -30 -10 -30 -5 0 -10 -11 -10 -24 0 -14 -4 -28 -10 -31 -5 -3
-10 -17 -10 -31 0 -13 -4 -24 -10 -24 -5 0 -10 -13 -10 -30 0 -16 -4 -30 -10
-30 -5 0 -10 -13 -10 -30 0 -16 -4 -30 -10 -30 -5 0 -10 -12 -10 -26 0 -14 -7
-32 -15 -40 -13 -14 -17 -14 -30 0 -8 8 -15 26 -15 40 0 14 -4 26 -10 26 -5 0
-10 14 -10 30 0 17 -4 30 -10 30 -5 0 -10 14 -10 30 0 17 -4 30 -10 30 -5 0
-10 11 -10 25 0 14 -4 25 -10 25 -5 0 -10 14 -10 30 0 17 -4 30 -10 30 -5 0
-10 9 -10 20 0 11 -4 20 -10 20 -5 0 -10 14 -10 30 0 17 -4 30 -10 30 -5 0
-10 14 -10 30 0 17 -4 30 -10 30 -5 0 -10 14 -10 30 0 17 -4 30 -10 30 -5 0
-10 14 -10 30 0 17 -4 30 -10 30 -5 0 -10 14 -10 30 0 17 -4 30 -9 30 -6 0
-13 20 -17 45 -3 25 -10 45 -15 45 -5 0 -9 14 -9 30 0 17 -4 30 -10 30 -5 0
-10 14 -10 30 0 17 -4 30 -10 30 -5 0 -10 14 -10 30 0 17 -4 30 -10 30 -5 0
-10 9 -10 20 0 11 -4 20 -10 20 -5 0 -10 14 -10 30 0 17 -4 30 -10 30 -5 0
-10 14 -10 30 0 17 -4 30 -10 30 -5 0 -10 11 -10 24 0 14 -4 28 -10 31 -5 3
-10 17 -10 30 0 13 -4 27 -10 30 -5 3 -10 17 -10 31 0 13 -4 24 -10 24 -5 0
-10 9 -10 20 0 11 -4 20 -10 20 -5 0 -10 14 -10 30 0 17 -4 30 -10 30 -5 0
-10 9 -10 20 0 19 -7 20 -215 20 l-215 0 0 -30z"/>
<path d="M16200 3950 c0 -6 -30 -10 -70 -10 -40 0 -70 -4 -70 -10 0 -5 -14
-10 -30 -10 l-31 0 3 -87 3 -88 78 -3 c48 -2 77 1 77 8 0 6 42 10 114 10 66 0
117 4 121 10 4 6 55 10 120 10 65 0 116 -4 120 -10 3 -5 35 -10 71 -10 36 0
64 -4 64 -10 0 -5 14 -10 30 -10 17 0 30 -4 30 -10 0 -5 12 -10 27 -10 36 0
123 -89 123 -125 0 -14 5 -25 10 -25 15 0 13 -315 -2 -343 -20 -34 -50 -67
-63 -67 -6 0 -17 -9 -25 -20 -8 -12 -26 -20 -42 -20 -15 0 -28 -4 -28 -10 0
-5 -9 -10 -20 -10 -11 0 -20 -4 -20 -10 0 -5 -13 -10 -30 -10 -16 0 -30 -4
-30 -10 0 -5 -13 -10 -30 -10 -16 0 -30 -4 -30 -10 0 -5 -13 -10 -30 -10 -16
0 -30 -4 -30 -10 0 -5 -13 -10 -30 -10 -16 0 -30 -4 -30 -10 0 -5 -13 -10 -30
-10 -16 0 -30 -4 -30 -10 0 -5 -13 -10 -30 -10 -16 0 -30 -4 -30 -10 0 -5 -13
-10 -30 -10 -16 0 -30 -4 -30 -10 0 -5 -11 -10 -25 -10 -14 0 -25 -4 -25 -10
0 -5 -13 -10 -30 -10 -16 0 -30 -4 -30 -10 0 -5 -9 -10 -20 -10 -11 0 -20 -4
-20 -10 0 -5 -8 -10 -18 -10 -10 0 -24 -9 -32 -20 -8 -11 -20 -20 -27 -20 -17
0 -93 -74 -110 -107 -7 -14 -13 -34 -13 -44 0 -10 -4 -21 -10 -24 -6 -4 -10
-130 -10 -346 l0 -339 606 0 c511 0 608 2 620 14 19 20 19 152 0 172 -12 12
-94 14 -510 14 l-496 0 0 205 c0 130 4 205 10 205 6 0 10 9 10 20 0 11 5 20
10 20 6 0 10 7 10 15 0 9 10 26 23 38 26 27 124 77 149 77 10 0 18 5 18 10 0
6 14 10 30 10 17 0 30 5 30 10 0 6 14 10 30 10 17 0 30 5 30 10 0 6 14 10 30
10 17 0 30 5 30 10 0 6 14 10 30 10 17 0 30 5 30 10 0 6 14 10 30 10 17 0 30
5 30 10 0 6 14 10 30 10 17 0 30 5 30 10 0 6 14 10 30 10 17 0 30 5 30 10 0 6
11 10 24 10 14 0 28 5 31 10 3 6 17 10 31 10 13 0 24 5 24 10 0 6 9 10 20 10
11 0 20 5 20 10 0 6 8 10 18 10 10 0 24 9 32 20 8 11 20 20 27 20 19 0 103 86
103 105 0 8 5 15 10 15 6 0 10 15 10 34 0 19 5 38 10 41 6 4 10 78 10 191 0
116 -4 184 -10 184 -5 0 -10 18 -10 40 0 22 -4 40 -10 40 -5 0 -10 13 -10 28
0 16 -8 34 -20 42 -11 8 -20 18 -20 22 0 15 -89 98 -105 98 -8 0 -15 4 -15 8
0 5 -16 14 -35 22 -19 8 -35 17 -35 22 0 4 -13 8 -30 8 -16 0 -30 5 -30 10 0
6 -22 10 -50 10 -27 0 -50 5 -50 10 0 6 -108 10 -305 10 -197 0 -305 -4 -305
-10z"/>
<path d="M18340 3950 c0 -5 -22 -10 -50 -10 -27 0 -50 -4 -50 -10 0 -5 -13
-10 -30 -10 -16 0 -30 -4 -30 -10 0 -5 -9 -10 -20 -10 -11 0 -20 -4 -20 -10 0
-5 -8 -10 -18 -10 -10 0 -24 -9 -32 -20 -8 -11 -20 -20 -28 -20 -15 0 -62 -44
-62 -58 0 -5 -7 -15 -15 -22 -8 -7 -15 -21 -15 -31 0 -11 -4 -19 -10 -19 -5 0
-10 -9 -10 -20 0 -11 -4 -20 -10 -20 -5 0 -10 -13 -10 -30 0 -16 -4 -30 -10
-30 -7 0 -10 -227 -10 -660 0 -433 3 -660 10 -660 6 0 10 -13 10 -30 0 -16 3
-30 8 -30 4 0 15 -18 25 -40 19 -46 118 -150 142 -150 8 0 15 -4 15 -10 0 -5
9 -10 20 -10 11 0 20 -4 20 -10 0 -5 14 -10 30 -10 17 0 30 -4 30 -10 0 -5 14
-10 30 -10 17 0 30 -4 30 -10 0 -6 27 -10 60 -10 33 0 60 -4 60 -10 0 -6 62
-10 165 -10 103 0 165 4 165 10 0 6 27 10 60 10 33 0 60 4 60 10 0 6 18 10 40
10 22 0 40 5 40 10 0 6 9 10 20 10 11 0 20 5 20 10 0 6 9 10 20 10 11 0 20 5
20 10 0 6 7 10 16 10 9 0 29 14 44 30 15 17 32 30 37 30 10 1 44 53 64 98 8
18 17 32 21 32 5 0 8 14 8 30 0 17 5 30 10 30 6 0 10 23 10 50 0 28 5 50 10
50 7 0 10 193 10 560 0 367 -3 560 -10 560 -6 0 -10 27 -10 60 0 33 -4 60 -10
60 -5 0 -10 14 -10 30 0 17 -4 30 -10 30 -5 0 -10 8 -10 18 0 10 -9 24 -20 32
-11 8 -20 19 -20 25 -1 17 -77 95 -94 95 -9 0 -16 5 -16 10 0 6 -9 10 -20 10
-11 0 -20 5 -20 10 0 6 -9 10 -20 10 -11 0 -20 5 -20 10 0 6 -13 10 -30 10
-16 0 -30 5 -30 10 0 6 -22 10 -50 10 -27 0 -50 5 -50 10 0 6 -82 10 -225 10
-143 0 -225 -4 -225 -10z m415 -200 c3 -5 17 -10 31 -10 13 0 24 -4 24 -10 0
-5 13 -10 29 -10 22 0 43 -13 80 -49 28 -27 51 -57 51 -65 0 -9 5 -16 10 -16
6 0 10 -18 10 -40 0 -22 5 -40 10 -40 7 0 10 -191 10 -554 0 -359 -4 -557 -10
-561 -5 -3 -10 -14 -10 -24 0 -10 -6 -31 -14 -46 -19 -36 -112 -125 -131 -125
-8 0 -15 -4 -15 -10 0 -5 -13 -10 -30 -10 -16 0 -30 -4 -30 -10 0 -5 -24 -10
-54 -10 -30 0 -58 -4 -61 -10 -3 -5 -39 -10 -80 -10 -41 0 -77 5 -80 10 -3 6
-35 10 -71 10 -36 0 -64 4 -64 10 0 6 -13 10 -30 10 -16 0 -30 5 -30 10 0 6
-7 10 -15 10 -9 0 -32 16 -53 35 -20 20 -45 43 -54 52 -10 9 -18 27 -18 40 0
13 -4 23 -10 23 -5 0 -10 14 -10 30 0 17 -4 30 -10 30 -7 0 -10 190 -10 550 0
360 3 550 10 550 6 0 10 14 10 30 0 17 5 30 10 30 6 0 10 9 10 20 0 11 5 20
10 20 6 0 10 7 10 15 0 24 64 82 98 90 18 3 34 11 37 16 4 5 17 9 30 9 13 0
27 5 30 10 4 6 78 10 190 10 112 0 186 -4 190 -10z"/>
<path d="M20070 3950 c0 -6 -30 -10 -70 -10 -40 0 -70 -4 -70 -10 0 -5 -14
-10 -30 -10 l-31 0 3 -87 3 -88 59 -3 c32 -2 64 2 69 7 6 6 55 11 114 11 62 0
103 4 103 10 0 6 50 10 130 10 80 0 130 -4 130 -10 0 -6 33 -10 80 -10 47 0
80 -4 80 -10 0 -5 11 -10 24 -10 14 0 27 -4 31 -9 3 -5 19 -13 36 -16 42 -10
119 -87 119 -120 0 -14 5 -25 10 -25 6 0 10 -57 10 -150 0 -93 -4 -150 -10
-150 -5 0 -10 -10 -10 -23 0 -38 -105 -127 -149 -127 -11 0 -23 -4 -26 -10 -3
-5 -22 -10 -41 -10 -19 0 -34 -4 -34 -10 0 -6 -98 -10 -275 -10 l-275 0 0
-100 0 -100 285 0 c183 0 285 -4 285 -10 0 -5 15 -10 34 -10 19 0 38 -4 41
-10 3 -5 16 -10 29 -10 13 0 31 -9 41 -20 10 -11 23 -20 30 -20 15 0 75 -62
75 -78 0 -7 5 -12 10 -12 6 0 10 -13 10 -30 0 -16 5 -30 10 -30 6 0 10 -53 10
-140 0 -87 -4 -140 -10 -140 -5 0 -10 -12 -10 -26 0 -15 -8 -34 -18 -43 -10
-9 -21 -24 -25 -34 -4 -9 -17 -21 -31 -27 -13 -5 -27 -13 -30 -19 -9 -14 -66
-41 -87 -41 -10 0 -21 -4 -24 -10 -3 -5 -31 -10 -61 -10 -30 0 -54 -4 -54 -10
0 -14 -407 -14 -415 0 -3 6 -48 10 -101 10 -56 0 -94 4 -94 10 0 6 -18 10 -40
10 l-40 0 0 -40 c0 -22 -4 -40 -10 -40 -5 0 -10 -9 -10 -20 0 -11 5 -20 10
-20 6 0 10 -18 10 -40 l0 -40 40 0 c22 0 40 -4 40 -10 0 -6 38 -10 94 -10 53
0 98 -4 101 -10 8 -14 435 -14 435 0 0 6 28 10 64 10 36 0 68 5 71 10 3 5 22
10 41 10 19 0 34 5 34 10 0 6 14 10 30 10 17 0 30 5 30 10 0 6 9 10 20 10 11
0 20 5 20 10 0 6 9 10 20 10 11 0 20 5 20 10 0 6 7 10 15 10 16 0 132 112 153
148 6 12 12 31 12 41 0 11 5 23 10 26 6 4 10 87 10 215 0 128 -4 211 -10 215
-5 3 -10 15 -10 26 0 23 -18 58 -42 80 -10 9 -18 22 -18 28 0 16 -46 61 -62
61 -8 0 -20 9 -28 20 -8 11 -22 20 -32 20 -10 0 -18 5 -18 10 0 6 -12 10 -26
10 -23 0 -54 20 -54 34 0 3 9 6 20 6 11 0 20 5 20 10 0 6 9 10 20 10 11 0 20
5 20 10 0 6 8 10 18 10 10 0 24 9 32 20 8 11 20 20 28 20 17 0 42 25 42 42 0
8 9 20 20 28 11 8 20 22 20 32 0 10 5 18 10 18 6 0 10 15 10 34 0 19 5 38 10
41 6 4 10 72 10 171 0 103 -4 164 -10 164 -5 0 -10 11 -10 24 0 14 -4 28 -10
31 -5 3 -10 16 -10 29 0 13 -9 31 -20 41 -11 10 -20 22 -20 27 0 14 -68 78
-82 78 -8 0 -20 9 -28 20 -8 11 -22 20 -32 20 -10 0 -18 5 -18 10 0 6 -13 10
-30 10 -16 0 -30 5 -30 10 0 6 -13 10 -30 10 -16 0 -30 5 -30 10 0 6 -20 10
-45 10 -25 0 -45 5 -45 10 0 6 -105 10 -295 10 -190 0 -295 -4 -295 -10z"/>
<path d="M22230 3950 c0 -5 -18 -10 -40 -10 -22 0 -40 -4 -40 -10 0 -5 -13
-10 -30 -10 -16 0 -30 -4 -30 -10 0 -5 -9 -10 -20 -10 -11 0 -20 -4 -20 -10 0
-5 -9 -10 -20 -10 -11 0 -20 -4 -20 -10 0 -5 -7 -10 -15 -10 -48 0 -185 -194
-185 -261 0 -15 -4 -31 -10 -34 -6 -4 -10 -217 -10 -605 0 -388 4 -601 10
-605 6 -3 10 -23 10 -45 0 -40 33 -113 63 -141 9 -9 17 -22 17 -28 0 -17 67
-81 85 -81 8 0 15 -4 15 -10 0 -5 9 -10 20 -10 11 0 20 -4 20 -10 0 -5 9 -10
20 -10 11 0 20 -4 20 -10 0 -5 9 -10 20 -10 11 0 20 -4 20 -10 0 -5 14 -10 30
-10 17 0 30 -4 30 -10 0 -6 27 -10 60 -10 33 0 60 -4 60 -10 0 -6 65 -10 175
-10 110 0 175 4 175 10 0 6 27 10 60 10 33 0 60 4 60 10 0 6 14 10 30 10 17 0
30 5 30 10 0 6 14 10 30 10 17 0 30 5 30 10 0 6 6 10 13 10 7 0 19 9 27 20 8
11 20 20 27 20 19 0 103 86 103 105 0 8 5 15 10 15 6 0 10 7 10 15 0 8 5 15
10 15 6 0 10 9 10 20 0 11 5 20 10 20 6 0 10 18 10 40 0 22 5 40 10 40 7 0 10
217 10 630 0 413 -3 630 -10 630 -5 0 -10 14 -10 30 0 17 -4 30 -10 30 -5 0
-10 14 -10 30 0 17 -4 30 -10 30 -5 0 -10 7 -10 15 0 17 -119 134 -136 135 -6
0 -19 9 -29 20 -10 11 -29 20 -42 20 -12 0 -23 5 -23 10 0 6 -13 10 -30 10
-16 0 -30 5 -30 10 0 6 -18 10 -40 10 -22 0 -40 5 -40 10 0 6 -85 10 -235 10
-150 0 -235 -4 -235 -10z m410 -200 c0 -5 18 -10 40 -10 22 0 40 -4 40 -9 0
-5 15 -12 33 -15 36 -7 81 -47 92 -83 3 -13 11 -23 16 -23 5 0 9 -13 9 -30 0
-16 5 -30 10 -30 6 0 10 -20 10 -44 0 -25 5 -48 10 -51 6 -4 10 -180 10 -496
0 -319 -3 -489 -10 -489 -5 0 -10 -22 -10 -50 0 -27 -4 -50 -10 -50 -5 0 -10
-13 -10 -30 0 -16 -4 -30 -10 -30 -5 0 -10 -7 -10 -16 0 -21 -54 -74 -75 -74
-8 0 -15 -4 -15 -10 0 -5 -9 -10 -20 -10 -11 0 -20 -4 -20 -10 0 -5 -13 -10
-30 -10 -16 0 -30 -4 -30 -10 0 -6 -27 -10 -60 -10 -33 0 -60 -4 -60 -10 0 -6
-33 -10 -80 -10 -47 0 -80 4 -80 10 0 6 -24 10 -54 10 -30 0 -58 5 -61 10 -3
6 -14 10 -24 10 -40 0 -151 70 -151 94 0 7 -9 18 -20 26 -12 8 -20 26 -20 42
0 15 -4 28 -10 28 -7 0 -10 203 -10 590 0 387 3 590 10 590 6 0 10 13 10 28 0
16 8 34 20 42 11 8 20 20 20 28 0 18 25 42 44 42 9 0 16 4 16 8 0 12 73 42
103 42 14 0 29 5 32 10 4 6 75 10 181 10 109 0 174 -4 174 -10z"/>
<path d="M13 715 c-10 -11 -13 -96 -13 -350 0 -379 -3 -365 74 -365 l46 0 -2
363 -3 362 -45 2 c-29 2 -49 -2 -57 -12z"/>
<path d="M457 723 c-4 -3 -7 -168 -7 -365 l0 -358 50 0 50 0 0 275 c0 177 4
275 10 275 6 0 10 -13 10 -30 0 -16 5 -30 10 -30 6 0 10 -9 10 -20 0 -11 5
-20 10 -20 6 0 10 -8 10 -18 0 -10 9 -24 20 -32 11 -8 20 -22 20 -32 0 -10 5
-18 10 -18 6 0 10 -9 10 -20 0 -11 5 -20 10 -20 6 0 10 -9 10 -20 0 -11 5 -20
10 -20 6 0 10 -9 10 -20 0 -11 3 -20 8 -20 4 0 15 -20 25 -45 11 -25 23 -45
28 -45 5 0 9 -9 9 -20 0 -11 5 -20 10 -20 6 0 10 -9 10 -20 0 -11 5 -20 10
-20 6 0 10 -7 10 -16 0 -33 26 -44 104 -44 l76 0 0 365 0 366 -57 -3 -58 -3
-3 -272 c-1 -171 -6 -273 -12 -273 -6 0 -10 9 -10 20 0 11 -3 20 -8 20 -4 0
-13 15 -21 33 -38 88 -64 137 -72 137 -5 0 -9 9 -9 20 0 11 -4 20 -10 20 -5 0
-10 9 -10 20 0 11 -4 20 -10 20 -5 0 -10 9 -10 20 0 11 -4 20 -10 20 -5 0 -10
9 -10 20 0 11 -4 20 -10 20 -5 0 -10 9 -10 20 0 11 -4 20 -10 20 -5 0 -10 9
-10 19 0 10 -7 21 -15 24 -8 3 -23 26 -35 52 l-20 45 -59 0 c-32 0 -61 -3 -64
-7z"/>
<path d="M1317 723 c-4 -3 -7 -168 -7 -365 l0 -358 60 0 60 0 0 365 0 365 -53
0 c-30 0 -57 -3 -60 -7z"/>
<path d="M1670 670 l0 -60 105 0 105 0 0 -305 0 -305 50 0 50 0 0 305 0 305
110 0 111 0 -3 58 -3 57 -262 3 -263 2 0 -60z"/>
<path d="M2447 712 c-15 -17 -17 -56 -17 -351 0 -374 -3 -361 74 -361 l46 0 0
365 0 365 -43 0 c-30 0 -49 -6 -60 -18z"/>
<path d="M3037 712 c-9 -10 -17 -28 -17 -40 0 -11 -4 -24 -10 -27 -5 -3 -10
-17 -10 -30 0 -13 -4 -27 -10 -30 -5 -3 -10 -17 -10 -30 0 -13 -4 -27 -10 -30
-5 -3 -10 -17 -10 -31 0 -13 -4 -24 -10 -24 -5 0 -10 -13 -10 -30 0 -16 -4
-30 -10 -30 -5 0 -10 -13 -10 -30 0 -16 -4 -30 -9 -30 -5 0 -12 -25 -16 -55
-3 -30 -11 -55 -16 -55 -5 0 -9 -13 -9 -30 0 -16 -4 -30 -10 -30 -5 0 -10 -13
-10 -30 0 -16 -4 -30 -10 -30 -5 0 -10 -13 -10 -30 0 -16 -4 -30 -10 -30 -5 0
-10 -13 -10 -30 l0 -30 60 0 c53 0 60 2 60 20 0 11 4 20 9 20 4 0 11 21 15 47
3 26 12 60 19 75 l12 28 132 0 c145 0 163 -3 163 -30 0 -11 5 -22 10 -25 6 -3
10 -17 10 -31 0 -13 5 -24 10 -24 6 0 10 -12 10 -26 0 -38 22 -54 74 -54 l46
0 0 44 c0 25 -4 48 -10 51 -5 3 -10 17 -10 30 0 13 -4 27 -10 30 -5 3 -10 17
-10 30 0 13 -4 27 -10 30 -5 3 -10 17 -10 31 0 13 -4 24 -10 24 -5 0 -10 14
-10 30 0 17 -4 30 -10 30 -5 0 -10 14 -10 30 0 17 -4 30 -10 30 -5 0 -10 14
-10 30 0 17 -4 30 -10 30 -5 0 -10 9 -10 20 0 11 -4 20 -10 20 -5 0 -10 14
-10 30 0 17 -4 30 -10 30 -5 0 -10 14 -10 30 0 17 -4 30 -10 30 -5 0 -10 14
-10 30 0 17 -4 30 -9 30 -5 0 -11 12 -13 28 -3 27 -4 27 -84 30 -68 2 -83 0
-97 -16z m103 -132 c0 -16 5 -30 10 -30 6 0 10 -13 10 -30 0 -16 5 -30 10 -30
6 0 10 -13 10 -30 0 -16 5 -30 10 -30 6 0 10 -13 10 -30 0 -16 5 -30 10 -30 6
0 10 -13 10 -30 0 -16 5 -30 10 -30 6 0 10 -4 10 -10 0 -6 -42 -10 -105 -10
-90 0 -107 3 -112 17 -4 9 -1 19 5 21 7 2 12 17 12 33 0 16 5 29 10 29 6 0 10
18 10 40 0 22 5 40 10 40 6 0 10 14 10 30 0 17 5 30 10 30 6 0 10 11 10 25 0
25 17 54 33 55 4 0 7 -13 7 -30z"/>
<path d="M3557 723 c-4 -3 -7 -30 -7 -60 l0 -53 110 0 110 0 0 -305 0 -305 46
0 c76 0 74 -9 74 319 l0 291 95 0 95 0 0 60 0 60 -258 0 c-142 0 -262 -3 -265
-7z"/>
<path d="M4340 366 l0 -366 50 0 50 0 -2 363 -3 362 -47 3 -48 3 0 -365z"/>
<path d="M4697 723 c-11 -10 -8 -73 3 -73 6 0 10 -13 10 -30 0 -16 5 -30 10
-30 6 0 10 -13 10 -30 0 -16 5 -30 10 -30 6 0 10 -13 10 -30 0 -16 5 -30 10
-30 6 0 10 -13 10 -30 0 -16 5 -30 10 -30 6 0 10 -18 10 -40 0 -22 5 -40 10
-40 6 0 10 -11 10 -24 0 -14 5 -28 10 -31 6 -3 10 -19 10 -36 0 -16 5 -29 10
-29 6 0 10 -11 10 -25 0 -14 5 -25 10 -25 6 0 10 -13 10 -30 0 -16 5 -30 10
-30 6 0 10 -13 10 -30 0 -16 5 -30 10 -30 6 0 10 -9 10 -20 0 -19 7 -20 90
-20 83 0 90 1 90 20 0 11 5 20 10 20 6 0 10 11 10 24 0 13 7 43 15 66 8 23 15
55 15 71 0 16 5 29 10 29 6 0 10 14 10 30 0 17 5 30 10 30 6 0 10 14 10 30 0
17 5 30 10 30 6 0 10 14 10 30 0 17 5 30 10 30 6 0 10 14 10 30 0 17 5 30 10
30 6 0 10 14 10 30 0 17 5 30 10 30 6 0 10 14 10 30 0 17 5 30 10 30 6 0 10
18 10 40 0 22 5 40 10 40 6 0 10 14 10 30 0 30 -1 30 -54 30 -51 0 -56 -2 -70
-32 -9 -17 -16 -44 -16 -59 0 -15 -4 -31 -10 -34 -5 -3 -10 -17 -10 -30 0 -13
-4 -27 -10 -30 -5 -3 -10 -17 -10 -31 0 -13 -4 -24 -10 -24 -5 0 -10 -18 -10
-40 0 -22 -4 -40 -10 -40 -5 0 -10 -13 -10 -30 0 -16 -4 -30 -9 -30 -5 0 -12
-25 -16 -55 -3 -30 -11 -55 -16 -55 -5 0 -9 -18 -9 -40 0 -22 -4 -40 -10 -40
-5 0 -10 -9 -10 -20 0 -11 -3 -20 -7 -20 -11 0 -33 50 -33 71 0 10 -4 21 -10
24 -5 3 -10 22 -10 41 0 19 -4 34 -10 34 -5 0 -10 14 -10 30 0 17 -4 30 -10
30 -5 0 -10 14 -10 30 0 17 -4 30 -10 30 -5 0 -10 14 -10 30 0 17 -4 30 -10
30 -5 0 -10 18 -10 40 0 22 -4 40 -10 40 -5 0 -10 14 -10 30 0 17 -4 30 -10
30 -5 0 -10 14 -10 30 0 17 -4 30 -10 30 -5 0 -10 7 -10 16 0 26 -27 44 -68
44 -21 0 -42 -3 -45 -7z"/>
<path d="M7130 365 l0 -365 60 0 60 0 -2 363 -3 362 -57 3 -58 3 0 -366z"/>
<path d="M7503 685 c-24 -25 -43 -49 -43 -55 0 -6 -22 -33 -50 -60 -27 -27
-50 -54 -50 -60 0 -6 -18 -29 -40 -50 -22 -21 -40 -45 -40 -53 0 -9 -5 -17
-10 -19 -6 -2 -2 -13 10 -25 11 -12 20 -26 20 -31 0 -4 18 -26 40 -47 22 -21
40 -44 40 -50 0 -6 14 -24 30 -40 17 -16 30 -33 30 -38 0 -5 18 -26 40 -47 22
-21 40 -43 40 -50 0 -6 11 -22 25 -35 21 -22 33 -25 90 -25 56 0 65 3 65 18 0
10 -9 24 -20 32 -11 8 -20 20 -20 26 0 7 -22 34 -50 62 -27 28 -50 54 -50 59
0 4 -18 27 -40 51 -22 23 -40 45 -40 48 0 3 -19 23 -41 45 l-41 40 21 18 c11
10 21 24 21 30 0 7 23 34 50 61 28 27 50 54 50 60 0 6 23 33 50 60 28 27 50
55 50 64 0 8 5 16 12 18 6 2 9 12 5 21 -5 13 -18 17 -59 16 -49 0 -56 -4 -95
-44z"/>
<path d="M7877 723 c-11 -10 -8 -73 3 -73 6 0 10 -13 10 -30 0 -16 5 -30 10
-30 6 0 10 -13 10 -30 0 -16 5 -30 10 -30 6 0 10 -13 10 -30 0 -16 5 -30 10
-30 6 0 10 -13 10 -30 0 -16 5 -30 10 -30 6 0 10 -13 10 -30 0 -16 5 -30 10
-30 6 0 10 -13 10 -30 0 -16 5 -30 10 -30 6 0 10 -15 10 -34 0 -19 5 -38 10
-41 6 -3 10 -17 10 -31 0 -13 5 -24 10 -24 6 0 10 -13 10 -30 0 -16 5 -30 10
-30 6 0 10 -13 10 -30 0 -16 5 -30 10 -30 6 0 10 -9 10 -20 0 -19 7 -20 90
-20 83 0 90 1 90 20 0 11 5 20 10 20 6 0 10 14 10 30 0 17 5 30 10 30 6 0 10
14 10 30 0 17 5 30 10 30 6 0 10 11 10 24 0 14 4 27 9 30 5 3 12 35 16 71 3
36 11 65 16 65 5 0 9 14 9 30 0 17 5 30 10 30 6 0 10 14 10 30 0 17 5 30 10
30 6 0 10 14 10 30 0 17 5 30 10 30 6 0 10 14 10 30 0 17 5 30 10 30 6 0 10
11 10 24 0 14 5 28 10 31 6 3 10 24 10 46 l0 40 -57 -3 c-53 -3 -58 -5 -61
-28 -2 -14 -8 -29 -13 -35 -5 -5 -9 -19 -9 -31 0 -13 -4 -26 -10 -29 -5 -3
-10 -16 -10 -29 0 -12 -4 -26 -8 -31 -5 -6 -17 -48 -27 -95 -10 -47 -22 -89
-27 -94 -4 -6 -8 -20 -8 -32 0 -13 -4 -26 -10 -29 -5 -3 -10 -22 -10 -41 0
-19 -4 -34 -10 -34 -5 0 -10 -13 -10 -30 0 -16 -4 -30 -10 -30 -5 0 -10 -9
-10 -20 0 -11 -3 -20 -7 -20 -13 0 -33 51 -33 81 0 15 -4 31 -10 34 -5 3 -10
17 -10 31 0 13 -4 24 -10 24 -5 0 -10 14 -10 30 0 17 -4 30 -10 30 -5 0 -10
14 -10 30 0 17 -4 30 -10 30 -5 0 -10 14 -10 30 0 17 -4 30 -10 30 -5 0 -10
18 -10 40 0 22 -4 40 -10 40 -5 0 -10 14 -10 30 0 17 -4 30 -10 30 -5 0 -10
14 -10 30 0 17 -4 30 -10 30 -5 0 -10 7 -10 16 0 26 -27 44 -68 44 -21 0 -42
-3 -45 -7z"/>
<path d="M8847 713 c-8 -10 -18 -39 -22 -66 -4 -26 -11 -50 -16 -53 -5 -3 -9
-18 -9 -35 0 -16 -4 -29 -10 -29 -5 0 -10 -13 -10 -30 0 -16 -4 -30 -10 -30
-5 0 -10 -13 -10 -30 0 -16 -4 -30 -10 -30 -5 0 -10 -13 -10 -30 0 -16 -4 -30
-10 -30 -5 0 -10 -11 -10 -24 0 -14 -4 -28 -10 -31 -5 -3 -10 -17 -10 -31 0
-13 -4 -24 -10 -24 -5 0 -10 -13 -10 -30 0 -16 -4 -30 -10 -30 -5 0 -10 -13
-10 -30 0 -16 -4 -30 -10 -30 -5 0 -10 -13 -10 -30 0 -16 -4 -30 -10 -30 -5 0
-10 -13 -10 -30 l0 -30 60 0 60 0 0 30 c0 17 5 30 10 30 6 0 10 14 10 30 0 17
5 30 10 30 6 0 10 13 10 29 0 17 6 31 16 35 20 8 258 8 278 0 9 -3 16 -15 16
-25 0 -10 5 -19 10 -19 6 0 10 -13 10 -30 0 -16 5 -30 10 -30 6 0 10 -12 10
-26 0 -38 22 -54 74 -54 l46 0 0 40 c0 22 -4 40 -10 40 -5 0 -10 11 -10 24 0
14 -4 28 -10 31 -5 3 -10 17 -10 30 0 13 -4 27 -10 30 -5 3 -10 17 -10 30 0
13 -4 27 -10 30 -5 3 -10 17 -10 31 0 13 -4 24 -10 24 -5 0 -10 14 -10 30 0
17 -4 30 -10 30 -5 0 -10 14 -10 30 0 17 -4 30 -10 30 -5 0 -10 14 -10 30 0
17 -4 30 -10 30 -5 0 -10 14 -10 30 0 17 -4 30 -10 30 -5 0 -10 14 -10 30 0
17 -4 30 -10 30 -5 0 -10 14 -10 30 0 17 -4 30 -10 30 -5 0 -10 7 -10 16 0 32
-27 44 -98 44 -53 0 -73 -4 -85 -17z m114 -163 c5 0 9 -13 9 -30 0 -16 5 -30
10 -30 6 0 10 -13 10 -30 0 -16 5 -30 10 -30 6 0 10 -13 10 -30 0 -16 5 -30
10 -30 6 0 10 -13 10 -30 0 -16 5 -30 10 -30 6 0 10 -4 10 -10 0 -6 -42 -10
-105 -10 l-105 0 0 25 c0 14 4 33 9 43 15 28 41 123 41 148 0 13 5 24 10 24 6
0 10 10 10 22 0 12 8 30 18 41 17 19 17 19 20 -12 2 -17 7 -31 13 -31z"/>
<path d="M9517 712 c-15 -17 -17 -56 -17 -351 0 -275 2 -335 14 -347 12 -11
54 -14 211 -14 l196 0 -3 58 -3 57 -147 3 -148 3 0 304 0 305 -43 0 c-30 0
-49 -6 -60 -18z"/>
<path d="M10177 724 c-4 -4 -7 -169 -7 -366 l0 -358 50 0 50 0 -2 363 -3 362
-40 3 c-23 2 -44 0 -48 -4z"/>
<path d="M10527 723 c-4 -3 -7 -30 -7 -60 l0 -53 100 0 100 0 0 -291 c0 -328
-2 -319 74 -319 l46 0 0 305 0 305 105 0 105 0 0 60 0 60 -258 0 c-142 0 -262
-3 -265 -7z"/>
<path d="M11290 365 l0 -365 215 0 215 0 0 50 0 50 -155 0 -155 0 0 115 0 115
155 0 155 0 0 50 0 50 -155 0 -155 0 0 100 0 100 155 0 155 0 0 50 0 50 -215
0 -215 0 0 -365z"/>
<path d="M11960 670 l0 -60 105 0 105 0 0 -305 0 -305 46 0 c76 0 74 -9 74
319 l0 291 100 0 101 0 -3 58 -3 57 -262 3 -263 2 0 -60z"/>
<path d="M14327 712 c-15 -17 -17 -56 -17 -351 0 -374 -3 -361 74 -361 l46 0
0 155 0 155 168 2 167 3 3 48 3 47 -170 0 -171 0 0 110 0 110 170 0 170 0 0
33 c0 63 -13 67 -232 67 -176 0 -196 -2 -211 -18z"/>
<path d="M15033 715 c-10 -11 -13 -96 -13 -350 0 -379 -3 -365 74 -365 l46 0
0 145 0 145 68 0 69 0 19 -45 c10 -25 22 -45 26 -45 4 0 8 -8 8 -18 0 -10 9
-24 20 -32 11 -8 20 -22 20 -32 0 -10 5 -18 10 -18 6 0 10 -9 10 -20 0 -11 5
-20 10 -20 6 0 10 -7 10 -16 0 -30 27 -44 84 -44 49 0 56 2 56 20 0 11 -4 20
-10 20 -5 0 -10 9 -10 20 0 11 -4 20 -10 20 -5 0 -10 9 -10 20 0 11 -4 20 -10
20 -5 0 -10 8 -10 18 0 10 -9 24 -20 32 -11 8 -20 22 -20 32 0 10 -3 18 -7 18
-11 0 -33 50 -33 72 0 11 7 18 20 18 11 0 20 5 20 10 0 6 7 10 16 10 20 0 44
24 44 44 0 9 5 16 10 16 6 0 10 9 10 20 0 11 5 20 10 20 6 0 10 33 10 80 0 47
-4 80 -10 80 -5 0 -10 9 -10 20 0 11 -4 20 -10 20 -5 0 -10 7 -10 16 0 20 -24
44 -44 44 -9 0 -16 5 -16 10 0 6 -13 10 -30 10 -16 0 -30 5 -30 10 0 6 -64 10
-172 10 -137 -1 -176 -4 -185 -15z m317 -95 c0 -5 7 -10 15 -10 9 0 27 -11 40
-25 20 -19 25 -34 25 -75 0 -44 -4 -55 -35 -85 l-34 -35 -111 0 -110 0 0 120
0 120 105 0 c63 0 105 -4 105 -10z"/>
<path d="M15847 724 c-4 -4 -7 -169 -7 -366 l0 -358 220 0 220 0 0 50 0 50
-160 0 -160 0 0 115 0 115 160 0 160 0 0 50 0 50 -160 0 -160 0 0 100 0 100
161 0 160 0 -3 48 -3 47 -211 3 c-115 1 -213 -1 -217 -4z"/>
<path d="M16617 724 c-4 -4 -7 -36 -7 -71 0 -35 -4 -63 -10 -63 -6 0 -10 -33
-10 -80 0 -47 -4 -80 -10 -80 -6 0 -10 -35 -10 -84 0 -47 -4 -88 -10 -91 -5
-3 -10 -40 -10 -81 0 -43 -4 -74 -10 -74 -5 0 -10 -22 -10 -50 l0 -50 60 0 60
0 0 50 c0 28 5 50 10 50 6 0 10 38 10 95 0 57 4 95 10 95 6 0 10 40 10 100 0
60 4 100 10 100 6 0 10 23 10 50 0 28 5 50 10 50 6 0 10 -9 10 -20 0 -11 5
-20 10 -20 6 0 10 -13 10 -30 0 -16 5 -30 10 -30 6 0 10 -13 10 -30 0 -16 5
-30 10 -30 6 0 10 -9 10 -20 0 -11 5 -20 10 -20 6 0 10 -13 10 -30 0 -16 5
-30 10 -30 6 0 10 -9 10 -20 0 -11 5 -20 10 -20 6 0 10 -9 10 -20 0 -18 7 -20
65 -20 58 0 65 2 65 20 0 11 5 20 10 20 6 0 10 14 10 30 0 17 5 30 10 30 6 0
10 9 10 20 0 11 5 20 10 20 6 0 10 14 10 30 0 17 5 30 10 30 6 0 10 9 10 20 0
11 5 20 10 20 6 0 10 14 10 30 0 17 5 30 10 30 6 0 10 9 10 20 0 11 5 20 10
20 6 0 10 -30 10 -70 0 -40 4 -70 10 -70 6 0 10 -38 10 -94 0 -53 4 -98 10
-101 6 -3 10 -44 10 -91 0 -49 4 -84 10 -84 6 0 10 -18 10 -40 l0 -40 60 0 60
0 0 40 c0 22 -4 40 -10 40 -6 0 -10 31 -10 74 0 41 -4 78 -10 81 -5 3 -10 40
-10 81 0 43 -4 74 -10 74 -6 0 -10 37 -10 90 0 53 -4 90 -10 90 -6 0 -10 29
-10 66 0 85 -9 94 -99 94 -68 0 -70 -1 -85 -32 -9 -17 -16 -39 -16 -49 0 -10
-4 -21 -10 -24 -5 -3 -10 -17 -10 -31 0 -13 -4 -24 -10 -24 -5 0 -10 -9 -10
-19 0 -11 -4 -23 -10 -26 -5 -3 -10 -17 -10 -31 0 -13 -4 -24 -10 -24 -5 0
-10 -13 -10 -30 0 -16 -4 -30 -9 -30 -5 0 -12 -10 -14 -22 l-4 -23 -2 23 c0
12 -5 22 -11 22 -5 0 -10 9 -10 20 0 11 -4 20 -10 20 -5 0 -10 14 -10 30 0 17
-4 30 -10 30 -5 0 -10 14 -10 30 0 17 -4 30 -10 30 -5 0 -10 14 -10 30 0 17
-4 30 -9 30 -9 0 -19 23 -30 70 -6 24 -10 25 -87 28 -44 1 -83 0 -87 -4z"/>
<path d="M17497 723 c-4 -3 -7 -30 -7 -60 l0 -53 110 0 110 0 0 -305 0 -305
46 0 c76 0 74 -9 74 319 l0 290 98 3 97 3 3 34 c2 19 1 44 -2 57 l-6 24 -259
0 c-142 0 -261 -3 -264 -7z"/>
<path d="M18273 715 c-10 -11 -13 -96 -13 -350 0 -379 -3 -365 74 -365 l46 0
-2 363 -3 362 -45 2 c-29 2 -49 -2 -57 -12z"/>
<path d="M18707 712 c-15 -17 -17 -56 -17 -351 0 -275 2 -335 14 -347 12 -11
51 -14 190 -14 111 0 176 4 176 10 0 6 14 10 30 10 17 0 30 5 30 10 0 6 6 10
13 10 19 0 45 31 73 86 23 45 24 56 24 246 0 125 -4 198 -10 198 -5 0 -10 9
-10 20 0 11 -4 20 -10 20 -5 0 -10 7 -10 15 0 29 -72 85 -109 85 -11 0 -23 5
-26 10 -4 6 -73 10 -174 10 -150 0 -170 -2 -184 -18z m327 -96 c14 -7 40 -27
56 -45 l30 -31 0 -177 -1 -178 -29 -32 c-16 -18 -37 -33 -45 -33 -8 0 -15 -4
-15 -10 0 -17 -189 -13 -206 4 -19 20 -21 479 -1 501 16 19 174 20 211 1z"/>
<path d="M6116 394 c-11 -28 -6 -140 6 -152 22 -22 86 -14 113 13 34 33 35
102 2 133 -29 27 -111 31 -121 6z"/>
<path d="M13303 395 c-7 -8 -13 -40 -13 -73 0 -70 18 -92 74 -92 52 0 86 35
86 90 0 57 -34 90 -92 90 -24 -1 -48 -7 -55 -15z"/>
</g>
</svg>
