<?xml version="1.0" standalone="no"?>
<!DOCTYPE svg PUBLIC "-//W3C//DTD SVG 20010904//EN"
 "http://www.w3.org/TR/2001/REC-SVG-20010904/DTD/svg10.dtd">
<svg version="1.0" xmlns="http://www.w3.org/2000/svg"
 width="330.000000pt" height="100.000000pt" viewBox="0 0 330.000000 100.000000"
 preserveAspectRatio="xMidYMid meet">

<g transform="translate(0.000000,100.000000) scale(0.100000,-0.100000)"
fill="#fafafa" stroke="none">
<path d="M2886 970 c-9 -19 -51 -118 -94 -220 -60 -144 -83 -187 -102 -197
-22 -11 -17 -13 45 -12 39 0 64 3 58 6 -17 6 -16 33 2 77 l15 36 74 0 74 0 16
-40 c19 -49 20 -67 4 -73 -7 -3 25 -5 72 -6 60 0 79 3 63 9 -13 5 -23 11 -23
12 0 2 -42 102 -94 223 l-94 219 -16 -34z m28 -194 c14 -37 26 -70 26 -72 0
-2 -25 -4 -55 -4 -30 0 -55 4 -55 10 0 5 8 31 18 57 11 26 22 57 26 67 9 25
10 23 40 -58z"/>
<path d="M742 971 c-137 -47 -197 -194 -132 -321 24 -46 92 -110 212 -199 53
-39 110 -90 126 -112 99 -135 34 -299 -118 -299 -69 0 -128 38 -162 104 -40
78 -9 216 61 280 37 34 22 38 -23 7 -89 -61 -146 -147 -146 -219 0 -97 115
-198 240 -209 157 -15 289 93 290 235 0 103 -40 160 -194 276 -170 127 -202
166 -213 255 -7 58 22 130 62 157 42 27 114 30 162 5 61 -31 87 -90 81 -184
-5 -79 -22 -119 -68 -166 -39 -39 -26 -40 26 -3 145 106 171 235 69 338 -71
70 -171 90 -273 55z"/>
<path d="M1715 982 c-24 -6 -27 -9 -12 -14 15 -7 17 -26 17 -208 0 -182 -2
-201 -17 -208 -26 -10 45 -21 139 -21 175 -2 278 87 278 239 0 52 -27 117 -61
149 -53 50 -98 64 -209 67 -58 2 -118 0 -135 -4z m243 -58 c45 -33 72 -99 72
-174 0 -114 -55 -180 -151 -180 -74 0 -79 12 -79 206 0 88 3 164 8 168 14 15
121 0 150 -20z"/>
<path d="M27 954 l33 -25 0 -159 c0 -153 -8 -206 -33 -222 -7 -4 16 -8 51 -8
l62 0 -17 26 c-13 21 -17 55 -20 168 l-4 141 33 -36 c18 -20 89 -98 158 -174
l125 -137 6 183 c7 203 13 244 37 259 12 7 -2 9 -52 10 -68 0 -68 0 -46 -18
21 -17 23 -29 28 -148 l4 -129 -32 30 c-17 17 -79 83 -138 148 l-106 117 -61
0 -60 0 32 -26z"/>
<path d="M1223 969 c15 -9 17 -30 17 -207 0 -141 -3 -201 -12 -210 -9 -9 4
-12 62 -12 66 0 72 1 54 14 -16 12 -19 27 -19 88 0 94 15 96 73 8 69 -106 80
-114 164 -117 69 -3 71 -3 43 10 -38 18 -70 54 -128 141 l-45 68 34 34 c29 29
34 42 34 80 0 38 -5 51 -30 74 -36 33 -66 40 -179 40 -63 -1 -81 -3 -68 -11z
m164 -34 c47 -33 36 -157 -17 -185 -42 -23 -50 -8 -50 93 0 52 3 97 7 100 11
12 37 8 60 -8z"/>
<path d="M2294 958 c13 -18 16 -55 16 -198 0 -143 -3 -180 -16 -198 l-15 -22
129 0 c126 0 130 1 136 23 3 12 6 31 6 41 0 19 0 19 -14 1 -15 -20 -111 -33
-134 -17 -8 5 -16 39 -19 85 l-6 77 47 0 c26 0 56 -5 67 -10 17 -10 19 -7 19
32 0 33 -3 39 -12 30 -7 -7 -36 -12 -65 -12 -60 0 -59 -3 -47 98 l7 52 44 0
c24 0 53 -5 64 -10 17 -10 19 -7 19 20 l0 30 -121 0 -120 0 15 -22z"/>
<path d="M1842 453 c-21 -4 -21 -6 -7 -26 22 -31 22 -363 0 -394 -15 -21 -14
-21 61 -28 197 -19 313 42 344 178 26 120 -37 227 -152 262 -48 14 -190 19
-246 8z m228 -53 c57 -29 84 -85 85 -175 0 -85 -24 -139 -75 -167 -39 -20
-120 -24 -138 -6 -13 13 -18 349 -5 361 14 14 96 6 133 -13z"/>
<path d="M203 432 c24 -27 25 -366 1 -400 l-15 -22 72 0 c69 0 71 1 56 18 -13
14 -17 39 -17 105 l0 87 49 0 c28 0 53 -4 56 -10 13 -20 21 -9 17 23 l-4 33
-59 -4 -59 -4 0 76 0 76 54 0 c30 0 58 -4 61 -10 12 -20 25 -9 25 20 l0 30
-127 0 c-122 0 -126 -1 -110 -18z"/>
<path d="M1219 422 l33 -27 -3 -172 c-4 -151 -6 -173 -23 -192 l-19 -21 63 0
63 0 -19 21 c-16 18 -19 41 -22 167 -3 128 -2 145 10 132 8 -8 80 -87 159
-174 l144 -159 5 199 c6 195 12 235 42 247 7 3 -17 6 -54 6 l-68 1 20 -20 c18
-18 20 -33 20 -145 l0 -126 -58 63 c-32 35 -92 100 -133 145 l-74 82 -60 1
-59 0 33 -28z"/>
<path d="M2416 436 c18 -13 19 -28 19 -206 0 -178 -1 -193 -19 -206 -18 -12
-4 -14 117 -14 124 0 137 2 137 18 0 9 3 28 7 42 l6 24 -28 -22 c-20 -16 -41
-22 -76 -22 -60 0 -69 14 -69 104 l0 66 46 0 c25 0 54 -5 65 -10 17 -10 19 -7
19 32 0 33 -3 39 -12 30 -7 -7 -36 -12 -65 -12 l-54 0 3 73 3 72 47 3 c26 2
56 -2 68 -8 18 -10 20 -8 20 20 l0 30 -127 0 c-112 0 -125 -2 -107 -14z"/>
<path d="M2865 419 l35 -31 -1 -122 c-1 -156 -10 -225 -34 -242 -17 -12 -10
-14 50 -14 62 0 67 1 49 14 -16 12 -19 29 -22 123 -2 59 -2 126 0 147 l3 39
155 -169 155 -168 5 206 c4 184 7 208 24 227 l19 21 -62 0 -62 0 21 -28 c19
-25 20 -40 18 -145 l-3 -118 -133 146 -133 145 -60 0 -60 0 36 -31z"/>
</g>
</svg>
