<?xml version="1.0" standalone="no"?>
<!DOCTYPE svg PUBLIC "-//W3C//DTD SVG 20010904//EN"
 "http://www.w3.org/TR/2001/REC-SVG-20010904/DTD/svg10.dtd">
<svg version="1.0" xmlns="http://www.w3.org/2000/svg"
 width="1708.000000pt" height="400.000000pt" viewBox="0 0 1708.000000 400.000000"
 preserveAspectRatio="xMidYMid meet">

<g transform="translate(0.000000,400.000000) scale(0.100000,-0.100000)"
fill="#fafafa" stroke="none">
<path d="M2200 3994 c-355 -31 -623 -102 -899 -240 -255 -127 -440 -262 -641
-470 -248 -256 -425 -546 -536 -879 -270 -808 -88 -1683 485 -2322 35 -40 69
-73 75 -73 14 0 176 162 176 176 0 6 -12 21 -26 35 -14 13 -62 69 -107 124
-513 636 -612 1503 -253 2230 464 938 1524 1382 2515 1053 231 -77 492 -224
665 -374 43 -38 93 -81 110 -96 l32 -27 89 89 89 90 -44 46 c-25 25 -85 79
-135 119 -327 266 -719 437 -1145 499 -107 15 -368 27 -450 20z"/>
<path d="M2267 3068 c-4 -84 -14 -333 -22 -553 -9 -220 -19 -441 -23 -491 l-7
-91 -290 253 -290 253 -42 -41 -42 -41 118 -136 c66 -75 180 -206 254 -291 74
-85 134 -156 133 -157 -5 -5 -117 -13 -341 -23 -126 -6 -306 -15 -400 -20 -93
-5 -194 -10 -222 -10 l-53 0 0 -60 c0 -55 2 -60 23 -60 12 -1 47 -3 77 -5 30
-3 249 -14 485 -26 237 -11 431 -22 432 -23 2 -1 -110 -132 -247 -290 -138
-158 -250 -290 -250 -294 0 -5 17 -25 39 -46 l38 -37 288 250 c159 138 290
250 291 248 3 -3 14 -238 45 -984 l13 -293 58 0 58 0 1 43 c0 23 2 58 4 77 2
19 9 174 15 345 6 171 12 335 15 365 2 30 7 144 11 252 4 109 8 198 11 198 2
0 132 -113 290 -251 l286 -250 38 37 c22 21 39 41 39 46 0 4 -112 137 -249
295 -137 158 -248 289 -247 290 0 0 195 10 431 22 237 12 455 23 485 26 30 2
65 4 78 5 20 0 22 5 22 60 l0 60 -52 0 c-29 0 -129 5 -223 10 -93 5 -273 14
-400 20 -257 12 -325 16 -332 24 -3 2 53 71 124 153 71 81 183 211 250 289
l122 141 -42 41 -42 41 -290 -254 -290 -255 -6 138 c-4 75 -10 211 -14 302 -3
91 -13 314 -21 495 -7 182 -14 336 -14 343 0 8 -18 12 -58 12 l-59 0 -6 -152z"/>
<path d="M9924 2750 c-79 -32 -85 -164 -9 -198 61 -28 171 -7 195 37 13 26 13
97 -1 123 -21 40 -127 62 -185 38z"/>
<path d="M9272 2485 c2 -135 2 -245 2 -245 -1 0 -14 24 -28 54 -31 62 -80 109
-145 140 -40 18 -65 21 -186 21 -132 0 -143 -2 -200 -28 -156 -73 -225 -210
-212 -420 6 -113 33 -188 88 -251 131 -149 451 -167 595 -34 24 22 55 63 68
92 l25 51 -6 -102 -6 -103 117 0 116 0 0 535 0 535 -116 0 -115 0 3 -245z
m-177 -220 c115 -30 175 -105 177 -223 1 -64 -1 -73 -30 -109 -62 -79 -177
-116 -310 -101 -74 8 -113 29 -156 81 -26 33 -31 48 -34 107 -6 95 3 134 40
176 67 76 184 102 313 69z"/>
<path d="M11530 2195 l0 -535 120 0 120 0 0 535 0 535 -120 0 -120 0 0 -535z"/>
<path d="M12050 2195 l0 -535 120 0 120 0 0 535 0 535 -120 0 -120 0 0 -535z"/>
<path d="M15699 2483 c0 -202 -3 -242 -12 -216 -26 69 -73 120 -143 154 -63
31 -77 34 -180 38 -132 4 -201 -12 -282 -65 -67 -44 -107 -100 -133 -187 -18
-58 -21 -87 -17 -185 3 -101 8 -125 32 -177 73 -161 245 -238 457 -206 129 20
228 87 261 178 7 18 14 33 18 33 3 0 4 -43 2 -95 l-3 -95 115 0 116 0 0 535 0
535 -115 0 -115 0 -1 -247z m-121 -240 c84 -42 114 -89 120 -193 l5 -81 -55
-53 c-68 -66 -126 -87 -237 -87 -89 0 -140 16 -184 59 -48 45 -61 80 -61 162
0 97 25 148 90 186 63 37 96 44 187 40 61 -3 91 -10 135 -33z"/>
<path d="M5047 2693 c-4 -3 -7 -237 -7 -520 l0 -513 120 0 121 0 -1 403 c-1
221 -1 406 -1 412 1 5 125 -176 276 -403 l275 -412 160 0 160 0 0 520 0 520
-116 0 -115 0 3 -400 c2 -220 0 -400 -3 -400 -3 0 -126 180 -272 400 l-267
400 -163 0 c-90 0 -167 -3 -170 -7z"/>
<path d="M6786 2460 c-174 -31 -288 -112 -338 -239 -32 -81 -31 -261 1 -343
67 -171 252 -259 516 -245 173 10 275 46 355 127 58 57 87 120 101 215 20 132
-15 272 -89 356 -36 41 -122 90 -202 114 -64 19 -271 28 -344 15z m257 -191
c48 -13 105 -63 128 -114 11 -24 19 -64 19 -101 0 -110 -33 -170 -119 -212
-48 -23 -68 -27 -146 -27 -79 0 -98 4 -148 29 -86 41 -111 85 -115 195 -3 75
0 92 21 131 53 99 198 139 360 99z"/>
<path d="M12895 2459 c-78 -10 -155 -30 -231 -60 l-51 -20 -11 -87 c-5 -48 -9
-88 -9 -88 1 -1 47 13 103 32 236 79 456 66 515 -30 10 -17 19 -36 19 -42 0
-6 -77 -17 -207 -27 -210 -17 -297 -33 -364 -67 -113 -58 -151 -211 -79 -324
89 -140 425 -154 566 -24 24 22 53 60 64 84 12 24 23 44 24 44 1 0 0 -43 -2
-95 l-4 -95 117 0 116 0 -3 278 c-3 266 -4 279 -27 329 -70 156 -266 226 -536
192z m335 -471 c0 -95 -137 -178 -292 -178 -85 0 -142 21 -158 60 -15 37 4 79
45 99 16 8 110 22 210 31 99 10 183 18 188 19 4 1 7 -14 7 -31z"/>
<path d="M16458 2460 c-176 -32 -250 -102 -250 -236 0 -81 24 -129 85 -171 58
-39 139 -57 341 -78 160 -16 208 -32 214 -74 5 -35 -24 -69 -70 -82 -28 -7
-93 -9 -183 -6 -140 5 -243 26 -349 71 l-39 16 7 -62 c16 -146 11 -136 84
-158 220 -68 521 -67 659 3 58 30 76 48 102 107 37 80 25 189 -26 243 -54 56
-133 79 -363 103 -80 8 -162 19 -182 25 -71 18 -76 88 -10 117 28 12 67 16
162 15 129 -1 229 -17 335 -53 l58 -20 -7 63 c-13 114 -14 115 -65 131 -104
34 -183 47 -316 51 -77 2 -161 0 -187 -5z"/>
<path d="M8121 2445 c-100 -28 -164 -86 -202 -183 l-18 -47 -1 113 0 112 -110
0 -110 0 0 -390 0 -390 115 0 115 0 0 220 0 221 48 48 c74 74 138 94 280 88
l113 -4 -6 71 c-9 112 -14 134 -33 141 -38 14 -139 14 -191 0z"/>
<path d="M14195 2446 c-95 -30 -154 -79 -191 -161 l-24 -50 0 103 0 102 -115
0 -115 0 0 -390 0 -390 118 0 117 0 -3 228 -3 228 30 45 c82 123 317 150 395
46 39 -52 46 -99 46 -329 l0 -218 115 0 115 0 0 263 c0 268 -6 322 -43 393
-25 48 -100 109 -158 127 -62 20 -224 22 -284 3z"/>
<path d="M9870 2040 c0 -442 0 -444 -62 -476 -24 -12 -49 -15 -101 -11 l-69 4
7 -61 c11 -112 13 -115 53 -123 54 -10 171 -7 218 6 95 26 156 96 179 206 11
55 15 155 15 463 l0 392 -120 0 -120 0 0 -400z"/>
<path d="M10320 2437 c0 -1 76 -169 168 -372 l168 -370 47 -3 c26 -2 47 -5 47
-6 0 -2 -29 -68 -65 -146 -36 -78 -65 -146 -65 -151 0 -5 53 -9 118 -9 l119 0
244 521 c134 286 246 525 247 530 2 5 -49 9 -120 9 l-124 0 -129 -295 c-90
-203 -134 -294 -144 -293 -8 2 -67 127 -139 296 l-124 292 -124 0 c-68 0 -124
-1 -124 -3z"/>
<path d="M9402 925 c2 -135 2 -245 1 -245 -1 0 -11 21 -23 48 -28 62 -81 116
-144 143 -71 32 -250 39 -343 14 -134 -36 -225 -139 -253 -283 -15 -76 -8
-216 14 -289 44 -140 174 -228 352 -237 185 -10 310 48 374 173 l29 56 -6
-103 -6 -102 116 0 117 0 0 535 0 535 -115 0 -116 0 3 -245z m-137 -229 c89
-37 135 -110 135 -212 0 -78 -19 -117 -77 -157 -60 -41 -117 -57 -207 -57
-167 1 -246 72 -246 221 0 96 25 149 87 186 24 14 59 30 76 34 49 13 187 3
232 -15z"/>
<path d="M5040 620 l0 -520 120 0 120 0 0 185 0 185 340 0 340 0 0 95 0 95
-340 0 -340 0 0 145 0 145 350 0 350 0 0 95 0 95 -470 0 -470 0 0 -520z"/>
<path d="M6532 895 c-224 -49 -332 -181 -332 -405 0 -211 100 -343 301 -397
90 -24 309 -23 399 1 143 39 244 126 280 243 27 88 27 218 0 307 -40 127 -152
216 -317 251 -84 18 -248 18 -331 0z m289 -187 c22 -6 57 -27 79 -45 82 -71
93 -228 23 -322 -87 -114 -359 -114 -446 0 -47 63 -58 147 -32 236 30 102 137
158 279 148 32 -3 76 -10 97 -17z"/>
<path d="M7941 898 c-104 -16 -194 -81 -238 -173 l-24 -50 3 103 3 102 -117 0
-118 0 0 -390 0 -390 120 0 120 0 0 238 c0 234 0 239 23 270 52 70 122 102
224 102 68 0 124 -18 161 -52 42 -41 52 -103 52 -340 l0 -218 116 0 115 0 -3
288 c-3 285 -3 287 -29 342 -31 67 -79 117 -139 144 -52 23 -189 35 -269 24z"/>
<path d="M10211 894 c-224 -48 -331 -197 -319 -439 14 -268 207 -398 563 -382
122 6 199 21 292 58 56 22 54 19 69 143 6 55 5 59 -12 51 -270 -112 -589 -96
-663 35 -11 21 -21 43 -21 49 0 8 101 11 355 11 l354 0 7 36 c12 63 -3 169
-32 234 -46 103 -148 177 -283 206 -83 17 -226 17 -310 -2z m249 -165 c81 -18
132 -63 154 -136 l7 -23 -250 0 c-166 0 -251 4 -251 10 0 23 29 76 53 99 56
52 183 74 287 50z"/>
<path d="M11589 897 c-110 -15 -199 -80 -241 -174 -10 -24 -20 -43 -21 -43 -2
0 -1 45 1 100 l4 100 -116 0 -116 0 0 -390 0 -390 115 0 115 0 0 233 0 234 30
41 c48 67 108 95 209 100 113 5 163 -19 201 -93 24 -48 25 -58 28 -283 l4
-232 115 0 114 0 -3 282 c-5 331 -9 350 -92 433 -37 37 -66 56 -106 68 -63 20
-163 25 -241 14z"/>
</g>
</svg>
