<?xml version="1.0" standalone="no"?>
<!DOCTYPE svg PUBLIC "-//W3C//DTD SVG 20010904//EN"
 "http://www.w3.org/TR/2001/REC-SVG-20010904/DTD/svg10.dtd">
<svg version="1.0" xmlns="http://www.w3.org/2000/svg"
 width="768.000000pt" height="400.000000pt" viewBox="0 0 768.000000 400.000000"
 preserveAspectRatio="xMidYMid meet">

<g transform="translate(0.000000,400.000000) scale(0.100000,-0.100000)"
fill="#fafafa" stroke="none">
<path d="M4814 3889 c-18 -19 -19 -42 -22 -288 -4 -380 15 -514 118 -830 80
-247 179 -411 358 -595 76 -78 99 -96 123 -96 16 0 29 4 29 8 0 5 8 17 18 28
40 44 62 78 62 95 0 16 -8 19 -59 19 -41 0 -65 5 -75 16 -33 32 -225 365 -268
465 -74 170 -115 297 -123 379 -9 105 -13 135 -37 289 -14 92 -22 194 -24 316
-1 99 -3 183 -3 186 -1 8 -49 29 -65 29 -7 0 -21 -9 -32 -21z"/>
<path d="M980 3880 c-36 -4 -81 -11 -100 -15 -19 -3 -55 -10 -80 -14 -155 -27
-369 -76 -390 -89 -14 -9 -45 -27 -70 -40 -176 -94 -249 -158 -281 -247 -39
-109 -15 -228 72 -361 27 -41 56 -91 64 -111 8 -19 31 -53 49 -74 41 -44 116
-158 141 -212 17 -37 67 -85 154 -150 25 -18 61 -60 82 -94 46 -77 105 -146
279 -328 98 -102 146 -161 175 -214 24 -45 67 -101 107 -141 73 -73 83 -100
46 -124 -46 -30 -240 -87 -345 -101 -201 -28 -228 -33 -286 -55 -31 -12 -73
-37 -93 -56 -34 -32 -36 -35 -22 -56 20 -30 69 -35 263 -27 230 10 309 18 442
45 143 28 183 30 245 8 66 -22 99 -69 466 -654 187 -298 219 -357 286 -532 53
-137 100 -172 176 -133 34 17 47 53 31 83 -6 12 -22 62 -35 112 -22 80 -47
129 -197 388 -163 280 -338 560 -392 627 -79 97 -91 136 -59 189 18 30 4 24
522 215 262 97 398 161 505 237 78 56 296 287 325 344 13 25 35 63 49 85 56
85 67 151 49 304 -11 99 -40 158 -153 315 -110 152 -194 241 -324 346 -260
209 -362 268 -642 370 -218 80 -357 116 -504 131 -55 6 -135 17 -178 25 -81
15 -264 17 -377 4z m465 -159 c266 -49 344 -73 645 -196 157 -64 363 -172 463
-242 166 -116 345 -312 406 -444 54 -114 58 -266 11 -363 -27 -57 -169 -208
-262 -279 -86 -66 -206 -136 -338 -196 -140 -65 -204 -87 -420 -141 -107 -27
-235 -61 -285 -75 -49 -13 -115 -25 -146 -25 l-57 0 -128 139 c-71 76 -178
205 -239 287 -170 230 -243 314 -456 527 -254 253 -325 341 -414 516 -52 103
-18 207 92 282 77 53 315 146 486 190 206 52 428 59 642 20z"/>
<path d="M6378 3072 l-35 -39 -7 -279 c-4 -153 -11 -308 -17 -343 -20 -128
-70 -181 -170 -181 -139 0 -266 75 -320 189 -55 116 -92 344 -71 437 6 27 14
68 18 92 l6 43 -54 -3 c-53 -3 -53 -3 -78 -53 -22 -45 -25 -62 -24 -160 0 -64
7 -135 16 -170 43 -166 82 -282 103 -305 12 -14 40 -52 63 -85 89 -132 133
-160 252 -159 117 1 151 9 203 49 64 49 74 46 83 -21 16 -133 -12 -201 -130
-320 l-81 -81 -140 -47 c-76 -26 -173 -56 -215 -68 -41 -11 -94 -31 -117 -44
-23 -13 -54 -24 -70 -24 -15 0 -44 -4 -63 -10 -65 -18 -234 -42 -350 -50 -329
-24 -671 -84 -722 -128 -27 -23 -22 -42 26 -88 78 -75 106 -79 451 -77 288 1
384 7 650 38 271 32 474 116 680 282 91 73 198 245 224 358 17 77 12 1147 -6
1200 -13 37 -48 85 -64 85 -3 0 -22 -17 -41 -38z"/>
<path d="M3955 2994 c-33 -15 -87 -35 -120 -46 -143 -47 -182 -64 -249 -108
-171 -112 -240 -248 -240 -480 l-1 -125 47 -97 c28 -60 64 -116 95 -149 113
-121 301 -221 469 -248 48 -7 80 -6 150 8 101 20 114 26 193 86 94 72 135 123
170 215 68 177 79 270 47 371 -10 30 -22 70 -28 89 -31 107 -172 350 -244 424
-38 39 -144 86 -191 86 -21 0 -65 -12 -98 -26z m210 -211 c190 -99 274 -423
162 -623 -38 -68 -119 -151 -176 -179 -76 -39 -138 -45 -232 -21 -103 27 -122
36 -236 122 -134 100 -169 149 -177 245 -6 78 25 171 79 237 34 41 115 100
257 189 15 10 49 26 75 37 64 27 189 23 248 -7z"/>
<path d="M7589 2656 c-2 -2 -35 -7 -74 -10 -166 -15 -407 -59 -438 -79 -30
-19 -44 -65 -25 -83 14 -14 87 -8 253 21 44 7 137 22 208 31 l127 18 0 53 c0
49 -2 53 -23 53 -13 0 -26 -2 -28 -4z"/>
<path d="M3108 756 c-20 -7 -38 -22 -47 -40 -19 -40 -2 -71 59 -106 37 -22 45
-31 45 -56 0 -28 -2 -29 -50 -30 -43 -1 -50 -4 -53 -21 -7 -45 102 -41 138 4
38 48 22 101 -39 132 -20 11 -43 27 -50 35 -20 24 4 48 43 45 37 -4 57 7 50
25 -7 19 -56 25 -96 12z"/>
<path d="M4750 762 c-88 -13 -124 -182 -55 -256 30 -33 68 -41 116 -27 l39 12
0 64 0 65 -46 0 c-41 0 -45 -2 -42 -22 2 -15 11 -24 26 -26 16 -3 22 -10 22
-28 0 -21 -5 -24 -36 -24 -31 0 -37 4 -50 35 -17 41 -18 81 -3 123 12 36 37
47 85 37 26 -4 36 -2 40 10 4 9 4 18 1 21 -10 10 -71 20 -97 16z"/>
<path d="M4978 762 c-31 -4 -68 -44 -68 -74 0 -23 42 -66 89 -90 26 -15 32
-23 29 -45 -3 -27 -6 -28 -55 -28 -48 1 -53 -1 -53 -21 0 -18 7 -23 38 -29 66
-11 122 27 122 83 0 38 -18 61 -70 87 -75 38 -61 85 21 73 18 -2 25 2 27 18 2
17 -3 22 -25 25 -15 2 -40 3 -55 1z"/>
<path d="M6355 760 c-79 -31 -96 -196 -28 -265 42 -41 110 -29 138 25 34 65
19 207 -24 229 -28 15 -66 19 -86 11z m66 -62 c16 -30 16 -127 1 -155 -16 -29
-57 -30 -72 -3 -24 46 -17 153 12 172 23 14 47 8 59 -14z"/>
<path d="M2586 745 c-10 -26 -7 -166 4 -207 17 -61 67 -83 125 -56 35 16 47
64 43 178 -3 90 -4 95 -25 98 -23 3 -23 2 -23 -106 0 -115 -8 -138 -47 -130
-16 3 -19 18 -23 118 -5 108 -6 115 -26 118 -13 2 -24 -4 -28 -13z"/>
<path d="M2822 618 l3 -143 25 -3 c82 -10 150 54 150 140 0 96 -47 148 -134
148 l-47 0 3 -142z m111 70 c27 -32 23 -113 -8 -143 -47 -48 -55 -36 -55 76 0
99 0 100 23 94 12 -4 30 -16 40 -27z"/>
<path d="M3260 740 c0 -20 32 -34 65 -28 15 3 17 -8 16 -114 -1 -76 2 -119 8
-119 6 -1 17 -2 24 -3 9 -1 13 32 17 119 l5 120 31 -3 c32 -3 61 19 49 38 -4
6 -49 10 -111 10 -97 0 -104 -1 -104 -20z"/>
<path d="M3530 740 c0 -18 10 -25 33 -21 4 0 7 -44 7 -99 0 -94 -1 -100 -21
-100 -15 0 -20 -5 -17 -22 2 -19 10 -24 47 -26 57 -4 91 5 91 24 0 8 -9 18
-21 22 -19 7 -21 16 -21 102 0 80 3 94 17 96 23 3 28 10 22 29 -5 11 -22 15
-72 15 -58 0 -65 -2 -65 -20z"/>
<path d="M3762 618 l3 -143 54 -3 c72 -4 103 4 99 26 -2 13 -17 18 -57 22
l-53 5 -1 115 c-2 112 -3 115 -25 118 l-23 3 3 -143z"/>
<path d="M3992 618 l3 -143 75 0 c70 0 75 1 78 23 3 21 0 22 -52 22 l-55 0 -3
118 c-3 113 -4 117 -26 120 l-23 3 3 -143z"/>
<path d="M4232 738 c2 -13 10 -23 18 -23 12 0 16 -19 18 -97 3 -94 2 -98 -18
-98 -16 0 -21 -5 -18 -22 3 -20 10 -23 59 -26 41 -2 59 1 69 13 16 19 -3 47
-26 38 -12 -5 -14 10 -12 93 2 68 7 98 15 97 15 -3 36 24 28 37 -3 5 -35 10
-71 10 -62 0 -65 -1 -62 -22z"/>
<path d="M4447 753 c-11 -10 -8 -271 2 -277 5 -4 16 -3 25 0 13 5 16 23 16 88
l1 81 38 -81 c42 -89 54 -102 77 -83 12 10 14 37 12 143 -3 123 -4 131 -23
131 -18 0 -21 -8 -25 -80 l-5 -80 -38 83 c-27 59 -42 82 -56 82 -9 0 -21 -3
-24 -7z"/>
<path d="M5157 753 c-4 -3 -7 -66 -7 -139 0 -103 3 -133 14 -137 24 -9 36 15
36 71 0 29 4 51 8 48 16 -10 81 15 97 37 41 59 -8 127 -94 127 -26 0 -51 -3
-54 -7z m97 -49 c29 -29 12 -64 -31 -64 -20 0 -23 5 -23 40 0 33 3 40 19 40
11 0 27 -7 35 -16z"/>
<path d="M5387 753 c-4 -3 -7 -66 -7 -139 0 -153 -4 -148 101 -142 50 3 54 5
54 28 0 23 -3 24 -52 21 l-53 -2 0 120 c0 111 -2 121 -18 121 -10 0 -22 -3
-25 -7z"/>
<path d="M5656 728 c-7 -18 -29 -79 -47 -135 -25 -76 -30 -106 -22 -114 16
-16 32 -3 53 47 18 40 22 44 54 44 32 0 36 -3 47 -40 15 -49 35 -68 52 -51 9
9 1 42 -33 144 -39 113 -48 132 -68 135 -17 3 -25 -4 -36 -30z m44 -67 c0 -5
3 -16 6 -24 3 -9 -3 -16 -15 -20 -23 -6 -24 -3 -15 31 6 21 24 31 24 13z"/>
<path d="M5822 738 c3 -20 9 -23 41 -22 l37 1 0 -118 c0 -120 7 -142 36 -118
12 10 15 35 13 123 -1 101 0 111 16 108 33 -6 65 8 65 28 0 19 -7 20 -106 20
-104 0 -105 0 -102 -22z"/>
<path d="M6080 621 c0 -141 6 -165 35 -141 10 8 15 31 15 66 l0 53 48 3 c39 3
47 6 47 23 0 17 -8 20 -47 23 -47 3 -48 4 -48 35 0 32 1 32 43 29 48 -3 73 9
64 32 -5 13 -22 16 -82 16 l-75 0 0 -139z"/>
<path d="M6537 753 c-4 -3 -7 -66 -7 -139 0 -111 2 -133 16 -138 27 -10 34 3
34 59 0 30 4 56 9 60 6 3 29 -22 51 -55 43 -64 64 -80 81 -63 7 7 -2 29 -26
67 l-36 57 25 30 c33 39 33 74 0 104 -22 21 -37 25 -84 25 -31 0 -60 -3 -63
-7z m107 -46 c36 -26 -16 -86 -53 -62 -12 7 -15 58 -4 68 10 11 38 8 57 -6z"/>
<path d="M6760 621 c0 -142 6 -165 37 -140 12 11 14 29 11 91 -3 43 -1 78 4
78 4 0 8 -8 8 -19 0 -28 26 -47 45 -31 8 7 15 19 15 26 0 8 4 14 10 14 5 0 10
-37 12 -82 2 -66 6 -83 18 -83 13 0 15 24 18 143 l3 142 -25 0 c-20 0 -28 -9
-42 -45 -9 -25 -20 -45 -23 -45 -4 0 -13 19 -21 43 -12 34 -20 43 -42 45 l-28
3 0 -140z"/>
</g>
</svg>
