<?xml version="1.0" standalone="no"?>
<!DOCTYPE svg PUBLIC "-//W3C//DTD SVG 20010904//EN"
 "http://www.w3.org/TR/2001/REC-SVG-20010904/DTD/svg10.dtd">
<svg version="1.0" xmlns="http://www.w3.org/2000/svg"
 width="768.000000pt" height="197.000000pt" viewBox="0 0 768.000000 197.000000"
 preserveAspectRatio="xMidYMid meet">

<g transform="translate(0.000000,197.000000) scale(0.100000,-0.100000)"
fill="#fafafa" stroke="none">
<path d="M1793 1958 c2 -7 14 -13 27 -13 13 0 25 6 28 13 2 8 -7 12 -28 12
-21 0 -30 -4 -27 -12z"/>
<path d="M1910 1940 c0 -5 9 -10 20 -10 11 0 20 5 20 10 0 6 -9 10 -20 10 -11
0 -20 -4 -20 -10z"/>
<path d="M1726 1923 c-11 -11 -6 -23 9 -23 8 0 15 4 15 9 0 13 -16 22 -24 14z"/>
<path d="M2090 1915 c-6 -7 -10 -28 -8 -46 l3 -32 74 -1 c50 -1 78 3 88 12 23
23 15 33 -23 26 -30 -5 -42 -2 -79 25 -36 26 -45 28 -55 16z"/>
<path d="M1680 1864 c0 -8 5 -12 10 -9 6 3 10 10 10 16 0 5 -4 9 -10 9 -5 0
-10 -7 -10 -16z"/>
<path d="M2325 1850 c10 -11 13 -20 7 -20 -7 0 -10 -15 -8 -37 4 -41 30 -63
76 -63 36 0 69 -26 63 -49 -3 -11 2 -21 11 -24 9 -4 16 -15 16 -25 0 -22 27
-48 54 -53 11 -2 21 -10 24 -17 2 -7 -2 -10 -11 -6 -19 7 -33 -14 -18 -29 21
-21 11 -29 -31 -21 -24 4 -73 6 -110 5 -86 -2 -91 17 -5 21 61 3 62 3 65 34 4
39 -26 66 -76 70 -49 3 -48 2 -34 16 21 21 13 44 -25 65 l-37 21 -57 -39 c-34
-23 -64 -36 -73 -33 -27 11 -18 -20 15 -49 27 -23 29 -29 18 -43 -10 -12 -24
-15 -52 -11 -26 4 -54 -1 -83 -13 -38 -17 -44 -23 -44 -50 0 -20 -5 -30 -15
-30 -8 0 -15 6 -15 14 0 7 -7 19 -15 26 -21 17 -19 30 5 30 10 0 25 10 31 23
7 12 21 32 33 44 52 53 61 79 24 68 -13 -4 -27 -11 -32 -16 -6 -5 -24 -9 -42
-9 -45 0 -93 -19 -105 -42 -6 -11 -9 -21 -7 -22 2 -2 14 -10 28 -20 24 -17 23
-17 -46 -10 -62 5 -73 4 -82 -11 -5 -10 -7 -26 -5 -36 5 -16 0 -19 -30 -19
-22 0 -37 6 -41 15 -7 20 -32 19 -40 -2 -4 -11 -1 -22 8 -29 25 -18 19 -38
-16 -54 -18 -7 -36 -15 -39 -17 -3 -2 -11 9 -18 23 l-12 27 -34 -33 c-39 -38
-45 -69 -15 -77 20 -5 25 -15 14 -25 -3 -3 -21 -2 -39 3 -26 7 -42 6 -64 -6
-65 -33 -87 -15 -99 81 -7 54 -9 57 -47 72 -53 20 -52 18 -24 50 33 36 79 99
79 108 0 15 -97 -8 -132 -31 -21 -14 -60 -34 -86 -44 -33 -13 -47 -24 -47 -37
0 -16 9 -19 58 -22 66 -3 76 -25 14 -30 -20 -2 -37 -7 -37 -12 0 -4 -20 -16
-44 -25 -36 -14 -45 -23 -50 -48 -6 -27 -2 -36 25 -58 27 -22 29 -27 16 -38
-13 -10 -20 -10 -39 2 -13 8 -40 17 -60 20 -32 5 -41 1 -73 -30 l-36 -35 21
-20 c24 -23 20 -34 -17 -41 -16 -4 -46 -10 -68 -14 -35 -7 -40 -12 -43 -38 -4
-54 8 -60 77 -43 67 17 90 7 53 -23 -25 -20 -19 -28 42 -53 42 -18 56 -14 56
15 0 29 14 23 57 -21 l38 -40 42 27 c23 15 44 35 46 44 3 10 19 18 47 22 26 3
53 15 70 32 26 25 29 26 63 11 19 -8 56 -14 80 -14 54 0 137 -34 137 -56 0
-20 -29 -20 -58 -1 -25 18 -116 11 -142 -10 -8 -6 -36 -18 -62 -25 -52 -14
-60 -30 -31 -62 9 -10 14 -20 12 -22 -2 -3 -50 0 -107 7 -93 10 -104 10 -120
-7 -16 -16 -16 -18 2 -32 13 -9 45 -14 94 -14 l74 0 42 -45 c35 -38 46 -45 77
-43 20 0 40 -2 46 -5 5 -3 42 3 83 13 40 10 86 16 102 13 19 -4 35 0 48 12 11
10 26 14 38 11 16 -6 24 2 42 39 l23 47 -38 38 c-21 21 -48 41 -61 44 -18 5
-24 13 -24 35 0 20 -9 37 -31 55 -17 14 -35 26 -39 26 -5 0 -23 14 -40 30 -17
17 -42 30 -55 30 -29 0 -43 19 -24 31 24 16 91 -1 144 -36 53 -35 88 -69 124
-123 17 -24 28 -31 44 -27 17 4 32 -7 67 -51 54 -66 68 -108 45 -134 -11 -13
-15 -28 -11 -51 4 -19 8 -52 11 -74 2 -22 8 -41 14 -43 15 -5 -7 -65 -30 -83
-19 -14 -21 -21 -13 -55 4 -21 8 -44 9 -49 0 -6 10 -29 23 -53 29 -57 28 -72
-9 -105 -27 -24 -31 -32 -26 -63 8 -47 20 -61 62 -68 23 -5 44 -19 65 -46 18
-22 40 -40 51 -40 16 0 17 3 8 18 -6 9 -31 33 -55 52 -71 57 -91 112 -54 145
42 38 46 117 12 218 -14 41 -14 53 -3 95 29 98 41 291 21 322 -8 12 -10 11
-10 -7 0 -28 -16 -30 -30 -4 -15 28 -12 51 5 51 8 0 15 7 15 15 0 8 6 15 14
15 18 0 60 -56 52 -69 -4 -5 -3 -16 0 -25 5 -13 9 -14 20 -5 17 14 64 -13 64
-36 0 -21 -37 -19 -49 2 -17 32 -22 7 -6 -37 17 -49 19 -93 5 -120 -6 -11 -12
-51 -14 -90 -3 -57 0 -81 17 -118 11 -26 21 -51 22 -57 1 -10 6 -23 26 -73 5
-13 9 -34 9 -48 0 -39 82 -119 144 -143 29 -10 70 -28 91 -40 22 -11 81 -27
130 -35 107 -17 154 -33 222 -75 50 -31 108 -45 71 -18 -10 8 -14 22 -11 38 4
24 2 27 -39 32 -67 10 -142 33 -146 45 -5 15 2 15 153 13 114 -2 166 -10 365
-58 99 -24 161 -31 157 -19 -2 6 -23 14 -48 17 -24 3 -71 17 -105 32 -33 14
-82 31 -108 38 -51 13 -106 52 -106 75 0 8 -10 14 -22 14 -13 0 -38 9 -55 20
-27 16 -33 26 -33 53 0 30 -5 35 -65 65 -36 18 -74 32 -84 32 -19 0 -111 -65
-111 -79 0 -5 22 -11 49 -13 46 -5 191 -65 191 -80 0 -9 -68 -31 -78 -24 -5 3
-38 10 -74 15 -35 6 -86 22 -112 36 -26 14 -69 30 -94 35 -70 15 -98 29 -111
53 -19 36 -40 125 -34 147 3 11 0 27 -6 34 -7 8 -15 39 -18 69 -5 51 -4 55 25
75 53 38 170 27 202 -19 3 -4 23 -20 45 -34 31 -22 53 -28 112 -31 l73 -3 32
49 c18 28 36 50 41 50 10 0 57 -50 57 -60 0 -4 -12 -10 -27 -13 -35 -8 -60
-24 -51 -33 4 -3 25 1 47 10 39 15 62 13 89 -7 10 -8 10 -13 0 -24 -10 -12 -9
-18 7 -30 11 -8 32 -17 48 -20 45 -9 31 -23 -24 -23 -46 0 -97 15 -139 41 -48
30 -146 47 -195 35 -23 -6 -26 -11 -21 -31 5 -18 1 -28 -14 -37 -25 -16 -27
-43 -2 -33 9 3 36 10 58 14 23 4 55 17 70 28 39 26 58 33 73 23 13 -7 18 -43
10 -69 -3 -9 7 -17 27 -21 42 -9 54 -18 54 -41 0 -10 6 -19 13 -19 6 0 23 -3
36 -7 21 -5 23 -3 19 15 -4 12 -2 25 3 28 17 10 80 -26 89 -52 13 -34 32 -38
71 -15 41 25 81 27 114 5 23 -15 29 -15 77 1 l52 17 22 -27 c23 -29 44 -27 44
5 0 28 16 33 50 15 30 -16 32 -15 51 9 11 14 29 26 40 26 15 0 20 6 17 22 -3
20 -10 23 -51 26 -51 3 -69 21 -47 47 21 25 4 48 -30 42 -23 -5 -32 -2 -40 13
-14 26 -3 48 32 66 33 17 48 12 48 -17 0 -23 46 -99 60 -99 5 0 12 5 15 10 11
18 32 11 63 -21 29 -30 33 -31 62 -19 34 14 37 22 15 40 -18 15 -20 70 -2 70
7 0 17 -13 23 -29 8 -18 21 -31 40 -35 37 -10 54 -24 54 -45 0 -26 56 -54 88
-45 15 4 32 8 37 9 6 1 28 9 49 19 22 10 51 15 65 13 16 -3 33 1 43 10 10 9
24 13 33 10 12 -5 13 -12 5 -33 -8 -19 -7 -30 1 -40 10 -12 15 -9 30 16 10 16
23 30 29 30 14 0 13 27 -2 32 -7 3 -12 17 -13 33 0 28 -10 37 -60 59 -6 3 -3
9 5 15 13 9 12 12 -5 26 -11 8 -29 13 -41 10 -15 -3 -24 2 -32 20 -14 31 -52
53 -52 30 0 -19 -23 -19 -60 0 -36 19 -39 29 -6 21 61 -15 27 63 -37 88 -67
25 -155 46 -171 40 -8 -3 -24 0 -36 6 -34 18 -68 5 -72 -27 -2 -18 -10 -29
-22 -31 -14 -3 -17 0 -12 13 4 12 -3 26 -21 43 -26 25 -35 27 -129 28 l-101 2
-41 43 c-23 24 -42 50 -42 57 0 23 39 12 62 -18 24 -33 48 -40 48 -14 0 15 2
15 26 -1 14 -9 27 -15 28 -13 30 40 34 52 24 74 -7 15 -20 24 -34 24 -59 0
-76 40 -24 59 27 9 30 14 24 38 -18 83 -48 134 -92 155 -18 9 -28 22 -30 40
-5 40 -42 65 -92 62 -23 -1 -49 -8 -57 -17 -13 -13 -20 -13 -57 -1 -35 12 -45
22 -60 57 -9 23 -21 49 -25 57 -10 22 -110 70 -143 70 -16 0 -38 6 -51 13 -12
6 -23 13 -25 14 -2 0 2 10 9 21 17 27 -1 62 -44 87 -50 28 -77 57 -77 81 0 40
-31 64 -109 84 -41 11 -86 20 -99 20 -24 0 -25 -1 -7 -20z m3 -253 c2 -10 -3
-17 -12 -17 -10 0 -16 9 -16 21 0 24 23 21 28 -4z m-60 -139 c4 -32 -29 -74
-51 -65 -24 9 -21 53 4 78 25 25 43 20 47 -13z m57 -28 c0 -8 -8 -16 -17 -18
-13 -2 -18 3 -18 18 0 15 5 20 18 18 9 -2 17 -10 17 -18z m-577 -56 l3 -29
-22 21 c-12 12 -18 27 -14 34 12 19 30 5 33 -26z m173 -9 c8 -44 -1 -61 -25
-52 -11 5 -16 20 -16 52 0 39 3 46 17 43 12 -2 20 -17 24 -43z m-73 1 c-2 -10
-7 -13 -17 -7 -8 6 -11 16 -7 27 8 21 30 4 24 -20z m218 -2 c6 -22 11 -25 34
-21 22 5 29 1 38 -18 15 -32 6 -52 -28 -70 -21 -11 -28 -23 -33 -55 -5 -41
-30 -90 -46 -90 -5 0 -14 14 -21 31 -11 26 -11 39 3 83 10 29 17 71 17 94 0
69 23 99 36 46z m414 -22 c0 -2 -8 -1 -17 2 -9 4 -20 1 -24 -6 -13 -20 -22 -1
-10 21 11 19 12 20 31 4 11 -10 20 -19 20 -21z m-613 -35 l45 -43 -21 -68
c-12 -37 -21 -76 -21 -86 0 -29 -17 -33 -39 -11 -15 15 -20 33 -20 68 1 27 -4
74 -10 105 -19 91 -3 100 66 35z m-580 0 c-2 -7 -13 -13 -25 -15 -16 -3 -22 2
-22 16 0 10 3 22 6 25 10 10 46 -13 41 -26z m437 17 c9 -22 7 -44 -2 -44 -12
0 -32 46 -25 54 11 10 21 7 27 -10z m542 -9 c9 -8 12 -20 8 -26 -3 -6 0 -15 7
-20 10 -6 4 -9 -18 -9 -34 0 -42 16 -27 54 8 20 12 20 30 1z m-889 -51 c27
-21 32 -29 22 -40 -16 -19 -73 -18 -90 2 -16 19 -56 13 -134 -21 -47 -21 -56
-23 -61 -10 -11 28 4 45 39 45 19 0 40 7 47 15 7 8 27 15 44 15 17 0 38 5 46
10 25 16 51 11 87 -16z m1375 -21 c8 -10 17 -25 20 -34 7 -19 72 -39 127 -39
41 0 55 -13 25 -24 -9 -3 -27 -6 -40 -6 -33 0 -30 -14 11 -47 19 -15 35 -32
35 -36 0 -4 -27 -7 -60 -6 -69 2 -92 18 -71 51 21 34 -7 63 -79 78 -67 14 -88
30 -41 30 30 0 41 13 21 25 -18 11 -11 25 13 25 13 0 31 -8 39 -17z m-1195 -8
c44 -18 43 -18 43 1 0 28 35 11 38 -19 3 -21 -1 -27 -17 -27 -11 0 -23 5 -26
10 -3 6 -20 10 -36 10 -36 0 -72 17 -64 31 8 13 20 11 62 -6z m-258 -21 c26
-19 19 -29 -26 -39 -38 -8 -52 9 -27 36 21 23 23 23 53 3z m441 -8 c0 -2 -7
-20 -15 -40 -17 -40 -29 -44 -57 -19 -18 16 -18 17 9 39 24 20 63 32 63 20z
m520 -44 c0 -10 5 -23 11 -29 18 -18 1 -33 -35 -33 -48 0 -61 20 -35 54 24 30
59 35 59 8z m770 -52 c0 -5 -6 -10 -14 -10 -8 0 -18 5 -21 10 -3 6 3 10 14 10
12 0 21 -4 21 -10z m-400 -26 c0 -9 -5 -14 -12 -12 -18 6 -21 28 -4 28 9 0 16
-7 16 -16z m-374 -25 c3 -6 1 -16 -5 -22 -6 -6 -11 -19 -11 -29 0 -10 -7 -18
-15 -18 -17 0 -39 46 -31 67 6 16 52 17 62 2z m350 0 c3 -6 1 -15 -6 -19 -7
-4 -10 -15 -7 -23 7 -20 -17 -52 -31 -43 -15 9 -16 43 -2 51 6 4 8 15 5 26 -5
14 -2 19 14 19 11 0 23 -5 27 -11z m124 -30 c0 -12 -49 -31 -61 -23 -15 9 -10
32 8 43 19 10 53 -2 53 -20z m215 -23 c18 -19 39 -36 47 -39 10 -4 10 -8 -2
-16 -21 -15 -22 -15 -65 23 -25 23 -36 39 -32 50 9 22 13 21 52 -18z m-457 -9
c2 -12 -3 -17 -17 -17 -15 0 -21 6 -21 21 0 25 33 22 38 -4z m-168 -31 c0 -19
-120 -60 -134 -46 -16 16 7 45 37 45 14 0 29 3 33 8 13 13 64 8 64 -7z m265
-16 c11 -18 -15 -40 -46 -40 -24 0 -29 4 -29 25 0 22 4 25 34 25 19 0 38 -5
41 -10z m60 -8 c0 -18 -20 -15 -23 4 -3 10 1 15 10 12 7 -3 13 -10 13 -16z
m-187 -20 c6 -18 -15 -14 -22 4 -4 10 -1 14 6 12 6 -2 14 -10 16 -16z m292
-16 c-13 -13 -35 7 -25 24 5 8 11 8 21 -1 10 -8 12 -15 4 -23z m358 -15 c3 -8
-1 -12 -9 -9 -7 2 -15 10 -17 17 -3 8 1 12 9 9 7 -2 15 -10 17 -17z m-363 -20
c8 -17 12 -37 9 -45 -4 -10 2 -17 21 -22 50 -12 18 -28 -92 -45 -131 -19 -145
-25 -113 -49 30 -23 19 -43 -17 -29 -14 5 -40 7 -58 3 -29 -5 -35 -2 -53 28
-31 50 -67 66 -165 74 -48 4 -90 10 -93 15 -7 11 32 35 105 63 l61 25 47 -21
c43 -19 53 -19 154 -9 116 12 139 18 139 32 0 22 41 7 55 -20z m40 19 c3 -5 1
-10 -4 -10 -6 0 -11 5 -11 10 0 6 2 10 4 10 3 0 8 -4 11 -10z m-1374 -10 c5 0
9 -5 9 -11 0 -15 -43 -7 -48 10 -3 10 0 12 12 8 10 -4 22 -7 27 -7z m1545 -35
c34 -34 41 -45 27 -45 -28 0 -156 45 -160 56 -3 9 43 29 74 33 7 0 33 -19 59
-44z m257 -30 c42 -8 50 -25 12 -25 -18 0 -25 -5 -25 -20 0 -17 -7 -20 -51
-20 -36 0 -63 7 -87 22 -20 12 -30 24 -23 26 6 2 23 -3 36 -12 38 -25 55 -21
55 15 0 27 3 30 23 26 12 -3 39 -9 60 -12z m342 -15 c3 -5 1 -10 -4 -10 -6 0
-11 5 -11 10 0 6 2 10 4 10 3 0 8 -4 11 -10z m120 -20 c3 -5 -1 -10 -9 -10 -8
0 -18 5 -21 10 -3 6 1 10 9 10 8 0 18 -4 21 -10z m-356 -24 c9 -7 30 -18 46
-23 27 -9 44 -40 20 -36 -5 1 -27 4 -48 8 -35 7 -38 6 -48 -24 -8 -23 -17 -31
-36 -31 -31 0 -115 49 -110 64 2 6 32 12 71 14 52 2 67 6 63 16 -11 27 16 35
42 12z m-409 -96 c0 -15 -7 -20 -25 -20 -24 0 -34 18 -18 33 15 15 43 7 43
-13z m305 -20 c4 -6 -5 -10 -19 -10 -14 0 -26 5 -26 10 0 6 9 10 19 10 11 0
23 -4 26 -10z m413 -2 c-6 -18 -28 -21 -28 -4 0 9 7 16 16 16 9 0 14 -5 12
-12z m-638 -7 c0 -16 -19 -23 -40 -16 -30 10 -24 25 10 25 17 0 30 -4 30 -9z
m-962 -34 c2 -19 -1 -27 -12 -27 -11 0 -16 10 -16 31 0 38 24 35 28 -4z m1852
-1 c0 -3 -4 -8 -10 -11 -5 -3 -10 -1 -10 4 0 6 5 11 10 11 6 0 10 -2 10 -4z
m-422 -27 c-2 -6 -8 -10 -13 -10 -5 0 -11 4 -13 10 -2 6 4 11 13 11 9 0 15 -5
13 -11z m-1396 -44 c6 -14 8 -28 5 -31 -10 -11 -37 17 -37 37 0 27 18 23 32
-6z m999 -10 c33 -18 30 -38 -5 -29 -16 4 -25 0 -29 -10 -8 -21 -37 -21 -37 0
0 21 19 54 31 54 5 0 23 -7 40 -15z m269 -75 c0 -5 -7 -10 -15 -10 -8 0 -15 5
-15 10 0 6 7 10 15 10 8 0 15 -4 15 -10z m-1146 -44 c3 -13 9 -31 12 -40 13
-33 -18 -15 -32 19 -17 42 -17 45 0 45 8 0 17 -11 20 -24z m121 -157 c11 -17
0 -20 -21 -4 -17 13 -17 14 -2 15 9 0 20 -5 23 -11z m474 -33 c13 -7 20 -16
15 -19 -16 -9 -127 8 -132 21 -5 17 85 16 117 -2z m-423 -22 c30 -8 54 -17 54
-20 0 -14 -81 -1 -101 16 -29 24 -22 24 47 4z m148 -13 c3 -5 -4 -11 -16 -14
-25 -7 -33 -3 -23 12 8 13 32 14 39 2z"/>
<path d="M2515 760 c-3 -5 -2 -10 4 -10 5 0 13 5 16 10 3 6 2 10 -4 10 -5 0
-13 -4 -16 -10z"/>
<path d="M5958 1847 c-42 -12 -48 -22 -18 -30 19 -5 20 -14 20 -196 l0 -191
-27 -12 c-28 -12 -28 -12 15 -16 23 -2 59 -2 80 0 l37 4 -27 12 c-26 11 -28
16 -28 67 0 30 4 55 9 55 6 0 36 -31 67 -70 57 -69 59 -70 107 -70 29 0 46 4
42 10 -3 6 -12 10 -20 10 -16 0 -135 129 -135 146 0 20 79 94 99 94 11 0 23 5
26 10 4 6 -18 10 -59 10 -37 0 -66 -4 -66 -10 0 -5 5 -10 10 -10 19 0 10 -30
-21 -65 -55 -62 -59 -53 -59 115 0 83 -3 149 -7 149 -5 -1 -25 -6 -45 -12z"/>
<path d="M1350 1830 c0 -5 7 -10 15 -10 8 0 15 5 15 10 0 6 -7 10 -15 10 -8 0
-15 -4 -15 -10z"/>
<path d="M1545 1820 c-3 -5 2 -10 12 -10 24 0 43 -19 43 -41 0 -22 41 -52 53
-40 5 5 2 22 -7 39 -9 17 -16 38 -16 47 0 11 -10 15 -39 15 -22 0 -43 -4 -46
-10z"/>
<path d="M4583 1816 c-40 -18 -65 -56 -66 -100 -1 -45 24 -81 81 -116 102 -62
118 -85 99 -141 -8 -27 -43 -49 -78 -49 -25 0 -89 61 -89 84 0 9 -6 16 -13 16
-17 0 -7 -84 12 -103 6 -6 39 -13 74 -15 53 -3 67 0 97 20 45 31 62 64 56 111
-5 48 -31 76 -107 117 -63 34 -79 53 -79 97 0 36 9 50 40 61 40 14 73 0 95
-41 11 -20 24 -37 29 -37 10 0 -1 81 -13 93 -15 15 -106 18 -138 3z"/>
<path d="M1460 1785 c0 -37 22 -49 34 -19 9 23 -2 54 -20 54 -9 0 -14 -11 -14
-35z"/>
<path d="M1935 1810 c3 -5 10 -10 16 -10 5 0 9 5 9 10 0 6 -7 10 -16 10 -8 0
-12 -4 -9 -10z"/>
<path d="M2100 1744 c-19 -7 -45 -13 -57 -13 -22 -1 -40 -18 -30 -28 3 -3 29
2 57 10 28 8 58 13 68 11 9 -2 24 0 32 6 13 9 13 11 0 20 -18 12 -25 11 -70
-6z"/>
<path d="M1213 1733 c-7 -2 -13 -11 -13 -19 0 -8 6 -14 13 -14 14 1 47 24 47
34 0 7 -29 7 -47 -1z"/>
<path d="M1328 1717 c-16 -13 -28 -28 -28 -34 0 -13 23 -23 52 -23 12 0 27 -8
34 -17 13 -17 15 -17 29 1 19 25 19 41 -1 71 -20 31 -50 31 -86 2z"/>
<path d="M1798 1728 c-48 -17 -29 -39 45 -52 33 -6 37 -5 37 13 0 11 -10 27
-22 35 -25 18 -23 18 -60 4z"/>
<path d="M1715 1720 c-3 -5 -1 -10 4 -10 6 0 11 5 11 10 0 6 -2 10 -4 10 -3 0
-8 -4 -11 -10z"/>
<path d="M1177 1684 c-11 -11 -8 -44 3 -44 15 0 24 30 13 41 -5 5 -12 6 -16 3z"/>
<path d="M1565 1678 c-16 -6 -35 -15 -41 -19 -13 -10 -4 -71 15 -106 11 -21
13 -22 34 -8 13 8 33 26 45 39 17 20 27 24 56 19 44 -7 136 15 136 32 0 10 -7
12 -27 6 -35 -10 -52 -4 -80 26 -24 26 -83 30 -138 11z"/>
<path d="M4828 1677 c-42 -12 -48 -22 -18 -30 19 -5 20 -14 20 -192 0 -178 -1
-187 -20 -192 -44 -12 -16 -23 55 -23 41 0 75 4 75 9 0 5 -10 11 -22 13 -21 3
-23 9 -26 69 l-3 66 29 -5 c33 -4 96 24 129 60 64 68 55 186 -17 223 -38 20
-53 19 -100 -5 l-40 -20 0 20 c0 22 -7 23 -62 7z m155 -38 c34 -15 50 -50 49
-105 -1 -79 -60 -132 -117 -106 -24 11 -25 15 -25 105 0 88 2 95 23 105 29 14
41 14 70 1z"/>
<path d="M5213 1669 c-50 -24 -67 -43 -59 -64 9 -24 36 -17 47 12 18 47 47 55
79 23 11 -11 20 -31 20 -44 0 -21 -10 -28 -69 -51 -79 -31 -97 -55 -80 -105
18 -51 63 -64 119 -32 29 16 31 16 41 0 12 -22 38 -23 67 -2 28 19 28 31 0 30
-22 -1 -23 3 -29 109 -4 61 -7 111 -8 112 -3 7 -62 33 -73 33 -7 0 -32 -9 -55
-21z m87 -174 c0 -50 -23 -71 -65 -61 -47 12 -43 65 8 90 50 24 57 21 57 -29z"/>
<path d="M5549 1661 l-29 -29 0 24 c0 27 -8 29 -65 13 -37 -11 -38 -12 -19
-21 24 -11 34 -45 34 -118 0 -66 -10 -110 -26 -110 -7 0 -16 -4 -19 -10 -4 -6
22 -10 70 -10 48 0 74 4 70 10 -3 6 -15 10 -26 10 -17 0 -19 8 -19 90 0 78 3
93 21 111 13 13 27 18 37 14 33 -14 47 -10 50 14 4 24 -11 41 -36 41 -8 0 -27
-13 -43 -29z"/>
<path d="M5740 1672 c-54 -30 -82 -85 -77 -156 3 -53 7 -62 40 -92 46 -43 95
-46 150 -9 38 26 51 53 20 40 -60 -25 -69 -27 -95 -16 -32 12 -68 65 -68 99 0
19 5 22 38 22 20 0 61 3 90 6 49 6 52 8 52 35 0 68 -83 107 -150 71z m84 -34
c28 -40 21 -48 -44 -48 -65 0 -72 8 -44 48 20 30 68 30 88 0z"/>
<path d="M6323 1669 c-50 -24 -67 -43 -59 -64 8 -22 34 -19 41 5 8 26 33 50
51 50 22 0 54 -38 54 -64 0 -21 -10 -28 -71 -51 -80 -31 -99 -57 -78 -107 21
-51 71 -62 119 -28 l29 21 11 -21 c13 -25 38 -26 70 -3 l24 17 -24 6 c-24 6
-25 10 -30 105 -7 113 -11 128 -46 144 -34 15 -43 14 -91 -10z m71 -226 c-29
-21 -63 -16 -76 11 -15 35 -4 54 44 75 l43 18 3 -46 c3 -34 -1 -48 -14 -58z"/>
<path d="M6604 1680 c-30 -12 -54 -49 -54 -81 0 -28 18 -47 90 -92 37 -24 50
-58 30 -83 -27 -31 -89 -4 -105 46 -10 30 -25 24 -25 -10 0 -45 31 -70 86 -70
37 0 51 5 75 29 53 54 35 102 -59 153 -44 24 -56 51 -34 78 23 29 56 20 82
-22 21 -34 30 -27 23 19 -6 41 -54 55 -109 33z"/>
<path d="M6824 1671 c-64 -39 -53 -98 27 -151 39 -25 55 -43 57 -61 7 -60 -65
-63 -100 -4 -11 19 -24 33 -29 30 -13 -8 1 -68 19 -82 35 -29 141 -6 156 32
10 27 7 70 -7 89 -7 10 -35 30 -62 44 -39 21 -51 33 -53 54 -3 22 2 30 23 40
25 11 30 10 56 -20 34 -38 39 -39 39 -8 0 54 -66 74 -126 37z"/>
<path d="M7100 1672 c-46 -25 -80 -85 -80 -140 0 -119 100 -179 193 -117 38
26 51 53 20 40 -60 -25 -69 -27 -95 -16 -32 12 -68 65 -68 99 0 19 5 22 38 22
20 0 61 3 90 6 49 6 52 8 52 35 0 68 -83 107 -150 71z m84 -34 c28 -40 21 -48
-44 -48 -65 0 -72 8 -44 48 20 30 68 30 88 0z"/>
<path d="M7426 1665 c-35 -24 -36 -24 -36 -4 0 19 -4 20 -37 14 -21 -4 -41 -9
-45 -11 -14 -9 -9 -24 7 -24 12 0 15 -19 15 -109 0 -104 -1 -109 -22 -116 -20
-7 -18 -9 15 -12 20 -2 54 -2 75 0 32 3 34 5 15 12 -22 7 -23 13 -23 106 0 90
2 99 22 113 28 20 58 20 83 2 16 -11 20 -30 23 -90 5 -94 -1 -121 -30 -131
-20 -7 -18 -9 15 -12 20 -2 54 -2 75 0 31 3 34 5 15 11 -20 7 -22 16 -25 118
-3 106 -4 111 -31 134 -36 31 -65 30 -111 -1z"/>
<path d="M1110 1620 c0 -5 7 -10 15 -10 8 0 15 5 15 10 0 6 -7 10 -15 10 -8 0
-15 -4 -15 -10z"/>
<path d="M1035 1580 c-10 -11 -13 -20 -8 -20 13 0 38 29 31 35 -3 3 -13 -4
-23 -15z"/>
<path d="M1370 1536 c-16 -20 -6 -166 12 -166 5 0 8 7 4 15 -9 26 14 63 44 69
32 6 82 54 78 75 -4 18 -123 24 -138 7z"/>
<path d="M1036 1464 c-4 -10 -1 -14 6 -12 15 5 23 28 10 28 -5 0 -13 -7 -16
-16z"/>
<path d="M922 1458 c-16 -16 -15 -48 2 -48 7 0 16 11 18 25 6 29 -4 39 -20 23z"/>
<path d="M5798 1148 c-40 -10 -52 -28 -19 -28 25 0 31 -35 31 -190 0 -143 -6
-190 -26 -190 -7 0 -16 -4 -19 -10 -4 -6 18 -10 59 -10 37 0 66 4 66 10 0 6
-6 10 -14 10 -19 0 -26 32 -26 117 0 63 3 74 22 87 33 23 74 20 92 -6 11 -16
16 -46 16 -104 0 -73 -2 -83 -22 -97 -22 -15 -20 -16 47 -16 68 -1 69 0 48 17
-19 15 -22 29 -25 113 -2 77 -7 101 -21 117 -34 37 -69 36 -149 -6 -5 -2 -8
42 -8 97 0 56 -3 101 -7 100 -5 -1 -25 -6 -45 -11z"/>
<path d="M6435 1145 c-35 -12 -37 -15 -18 -20 29 -9 33 -29 33 -195 0 -166 -4
-185 -33 -196 -18 -6 -16 -8 16 -11 20 -2 54 -2 75 0 32 3 34 5 15 12 -14 4
-23 16 -23 29 0 11 -2 104 -3 205 -1 113 -6 185 -12 187 -5 1 -28 -4 -50 -11z"/>
<path d="M4510 1110 c0 -5 9 -10 19 -10 10 0 22 -7 25 -16 3 -9 6 -82 6 -164
0 -82 -3 -155 -6 -164 -3 -9 -17 -16 -30 -16 -13 0 -24 -4 -24 -10 0 -13 184
-13 232 0 106 30 118 173 16 195 l-32 7 27 14 c32 17 47 43 47 83 0 74 -32 91
-175 91 -63 0 -105 -4 -105 -10z m197 -25 c47 -33 36 -115 -19 -134 -17 -6
-42 -11 -54 -11 -23 0 -24 3 -24 73 0 41 3 77 7 80 12 12 68 7 90 -8z m30
-199 c32 -38 30 -81 -6 -117 -22 -21 -39 -29 -65 -29 -46 0 -56 19 -56 111 l0
72 52 -5 c40 -4 57 -11 75 -32z"/>
<path d="M1290 1030 c0 -5 4 -10 9 -10 6 0 13 5 16 10 3 6 -1 10 -9 10 -9 0
-16 -4 -16 -10z"/>
<path d="M810 990 c0 -5 7 -10 16 -10 8 0 12 5 9 10 -3 6 -10 10 -16 10 -5 0
-9 -4 -9 -10z"/>
<path d="M4975 986 c-17 -7 -43 -28 -58 -45 -36 -43 -39 -133 -6 -175 44 -56
118 -72 176 -36 48 29 67 65 67 125 0 66 -36 119 -92 135 -46 12 -50 12 -87
-4z m93 -41 c40 -51 35 -182 -8 -205 -48 -26 -90 5 -110 78 -12 47 -6 94 16
130 21 32 76 30 102 -3z"/>
<path d="M5315 969 l-35 -31 0 27 c0 25 -2 26 -32 20 -47 -10 -53 -16 -34 -31
33 -24 34 -214 1 -214 -8 0 -17 -4 -20 -10 -4 -6 22 -10 70 -10 48 0 74 4 70
10 -3 6 -14 10 -24 10 -23 0 -31 27 -31 102 0 46 5 62 24 85 22 25 27 26 45
16 27 -17 28 -16 41 6 7 15 6 23 -6 35 -21 22 -28 20 -69 -15z"/>
<path d="M5580 989 c-13 -6 -33 -17 -42 -26 -17 -15 -18 -15 -18 5 0 25 -13
27 -59 11 l-32 -11 20 -20 c18 -16 21 -31 21 -101 0 -87 -4 -98 -35 -112 -17
-8 -14 -10 18 -13 20 -2 54 -1 75 1 32 3 34 5 15 12 -22 7 -23 13 -23 101 0
85 2 94 22 108 30 21 61 20 81 -2 13 -14 17 -39 17 -104 0 -77 -2 -87 -22
-101 -22 -15 -19 -16 47 -16 66 0 69 1 48 16 -21 14 -23 23 -23 104 0 98 -11
131 -47 148 -28 13 -30 13 -63 0z"/>
<path d="M6185 980 c-52 -26 -79 -71 -79 -131 0 -137 174 -191 244 -76 24 38
26 116 6 156 -32 61 -107 84 -171 51z m98 -27 c40 -46 43 -162 5 -202 -76 -82
-167 94 -102 197 18 27 73 30 97 5z"/>
<path d="M6730 993 c-8 -3 -27 -15 -42 -25 -28 -19 -28 -19 -28 2 0 19 -4 21
-32 15 -54 -12 -65 -21 -40 -34 20 -11 22 -20 22 -107 0 -92 -1 -95 -25 -104
-41 -15 -29 -20 48 -19 68 0 71 1 50 16 -21 14 -23 24 -23 103 0 95 5 106 57
116 50 10 63 -13 63 -115 0 -81 -2 -90 -22 -104 -22 -15 -19 -16 47 -16 66 0
69 1 48 16 -21 14 -23 24 -23 103 0 95 5 106 56 116 46 9 65 -13 71 -83 8 -84
-2 -129 -30 -138 -19 -7 -17 -9 16 -12 20 -2 54 -2 75 0 31 3 33 5 15 11 -27
10 -33 32 -33 132 0 65 -4 87 -19 105 -25 31 -77 31 -121 -1 -29 -20 -34 -21
-44 -8 -12 16 -50 38 -63 37 -4 0 -15 -3 -23 -6z"/>
<path d="M7140 988 c-60 -32 -64 -106 -8 -136 53 -28 88 -67 81 -91 -6 -25
-43 -37 -71 -22 -10 6 -25 24 -32 40 -14 35 -30 32 -30 -5 0 -56 75 -83 139
-49 32 16 41 33 41 74 0 30 -27 59 -77 85 -45 23 -57 48 -35 76 14 18 22 20
44 11 14 -5 29 -19 33 -30 3 -12 11 -21 16 -21 11 0 12 40 1 58 -12 19 -73 25
-102 10z"/>
<path d="M900 956 c0 -17 17 -31 50 -41 25 -7 25 -7 -4 24 -32 34 -46 39 -46
17z"/>
<path d="M750 923 c-8 -4 -21 -14 -28 -24 -7 -10 -28 -19 -50 -21 -32 -3 -38
-7 -42 -32 -3 -20 -16 -34 -40 -47 -19 -11 -38 -28 -42 -39 -6 -16 -16 -20
-48 -20 -48 0 -62 -20 -35 -50 14 -16 15 -20 4 -23 -58 -17 -74 -24 -77 -38
-2 -11 6 -19 24 -23 19 -5 24 -10 16 -18 -17 -17 -88 15 -84 37 3 14 -1 16
-20 11 -13 -4 -42 -10 -65 -13 -24 -3 -48 -12 -54 -20 -10 -11 -15 -11 -31 3
-17 16 -21 16 -54 1 -19 -9 -37 -24 -40 -32 -5 -12 -15 -14 -40 -9 -29 5 -33
4 -28 -10 3 -9 0 -23 -7 -32 -27 -32 39 -59 99 -40 18 6 22 4 22 -14 0 -26 47
-47 72 -31 25 16 53 14 69 -5 7 -9 21 -13 33 -10 12 3 28 1 36 -4 17 -10 50
14 50 37 0 9 8 13 23 11 17 -2 23 -11 25 -34 l3 -32 92 -4 c51 -3 96 -1 102 3
5 5 17 9 27 9 11 0 23 11 28 25 10 26 13 26 103 29 25 1 42 7 48 19 12 21 39
23 39 2 0 -8 4 -15 9 -15 5 0 1 -22 -8 -48 -15 -41 -16 -52 -5 -67 10 -14 21
-16 50 -12 21 4 40 10 43 15 3 5 17 9 31 8 19 -1 26 5 28 23 3 21 7 23 43 17
36 -6 40 -4 49 19 11 29 26 32 52 8 10 -9 18 -11 18 -6 0 6 -7 13 -15 17 -14
5 -22 66 -9 66 3 0 19 -10 35 -22 95 -75 90 -72 112 -59 17 11 22 11 32 -2 12
-17 65 -41 72 -33 2 2 5 29 6 61 3 54 2 57 -25 62 -19 4 -28 12 -28 24 0 15 7
19 35 19 22 0 43 8 55 20 22 22 96 28 102 8 6 -17 28 0 28 21 0 24 20 41 47
41 32 0 29 24 -9 59 -43 40 -107 48 -208 27 -41 -9 -87 -16 -102 -16 -14 0
-33 -3 -42 -6 -28 -11 -17 -24 19 -24 19 0 35 -5 35 -10 0 -6 -16 -10 -37 -8
-35 3 -38 1 -41 -24 -4 -34 -17 -36 -37 -4 -13 20 -14 29 -5 47 14 25 1 20
-37 -14 -33 -29 -38 -15 -11 27 19 29 29 36 57 36 31 0 33 2 26 28 -10 42 -35
60 -95 66 -30 3 -75 9 -98 12 -35 5 -50 2 -73 -15 -35 -26 -119 -30 -119 -6 0
9 8 19 18 22 21 8 32 23 32 46 0 23 -40 22 -90 -3 -51 -26 -53 -26 -45 10 7
30 3 33 -25 23z m278 -121 c2 -8 -9 -12 -35 -12 -38 1 -38 1 -13 15 28 16 42
15 48 -3z m122 -2 c0 -5 -4 -10 -10 -10 -5 0 -10 5 -10 10 0 6 5 10 10 10 6 0
10 -4 10 -10z m-40 -21 c0 -5 -4 -9 -10 -9 -5 0 -10 7 -10 16 0 8 5 12 10 9 6
-3 10 -10 10 -16z m44 -35 c4 -9 4 -19 1 -22 -6 -6 -35 18 -35 29 0 16 28 10
34 -7z m373 -30 c-3 -3 -12 -4 -19 -1 -8 3 -5 6 6 6 11 1 17 -2 13 -5z m-57
-45 c0 -7 -62 -29 -82 -29 -18 0 -6 20 24 38 24 15 36 18 45 10 7 -6 13 -14
13 -19z m-542 2 c3 -8 -1 -12 -9 -9 -7 2 -15 10 -17 17 -3 8 1 12 9 9 7 -2 15
-10 17 -17z m-295 -8 c4 -3 -3 -17 -15 -30 -19 -20 -20 -27 -10 -43 17 -27 15
-30 -12 -30 -20 0 -25 6 -28 38 -3 20 0 45 6 55 11 17 46 23 59 10z m190 -37
c12 -18 28 -25 70 -30 69 -8 87 -14 87 -32 0 -18 -9 -18 -111 5 -118 25 -145
41 -117 69 19 19 55 14 71 -12z m665 13 c-2 -6 -8 -10 -13 -10 -5 0 -11 4 -13
10 -2 6 4 11 13 11 9 0 15 -5 13 -11z m-403 -19 c-3 -5 -14 -10 -23 -10 -15 0
-15 2 -2 10 20 13 33 13 25 0z m-315 -60 c0 -19 -28 -10 -33 10 -4 17 -2 18
14 9 10 -5 19 -14 19 -19z m-137 -51 c37 -10 46 -22 27 -34 -13 -8 -100 24
-100 36 0 12 27 11 73 -2z"/>
<path d="M433 793 c-15 -5 -17 -23 -4 -23 5 0 11 7 15 15 3 8 4 15 3 14 -1 0
-8 -3 -14 -6z"/>
<path d="M1747 777 c-12 -31 -19 -107 -10 -107 12 0 33 103 23 113 -4 5 -10 2
-13 -6z"/>
<path d="M170 705 c0 -16 26 -55 37 -55 17 0 17 11 -3 38 -13 19 -34 30 -34
17z"/>
<path d="M338 683 c7 -3 16 -2 19 1 4 3 -2 6 -13 5 -11 0 -14 -3 -6 -6z"/>
<path d="M1525 560 c-3 -5 -1 -10 4 -10 6 0 11 5 11 10 0 6 -2 10 -4 10 -3 0
-8 -4 -11 -10z"/>
<path d="M1617 503 c-9 -89 -9 -128 0 -119 9 9 20 186 12 186 -3 0 -9 -30 -12
-67z"/>
<path d="M5642 550 c-42 -10 -50 -18 -26 -27 28 -10 34 -23 34 -75 l0 -48 -43
0 c-88 0 -157 -65 -157 -149 0 -88 67 -149 134 -122 56 23 66 24 66 9 0 -13 7
-14 45 -5 43 10 62 27 30 27 -29 0 -35 39 -35 219 0 100 -3 181 -7 180 -5 -1
-23 -5 -41 -9z m-7 -194 c6 -7 9 -52 7 -99 -3 -83 -5 -87 -28 -93 -36 -9 -72
3 -90 31 -16 24 -21 97 -9 135 14 43 93 61 120 26z"/>
<path d="M1693 524 c-3 -8 0 -26 7 -39 7 -13 9 -29 4 -36 -4 -8 -9 -30 -11
-49 -7 -97 -26 -136 -82 -165 -25 -13 -57 -33 -71 -44 -21 -17 -23 -22 -12
-45 12 -27 78 -66 113 -66 18 0 19 3 9 14 -6 8 -21 16 -33 18 -42 6 -26 38 27
59 67 25 78 39 89 106 12 82 10 147 -8 190 -8 20 -13 44 -9 55 7 22 -14 25
-23 2z"/>
<path d="M4523 507 l27 -11 -2 -171 c-3 -168 -3 -170 -25 -173 -13 -2 -23 -8
-23 -13 0 -5 39 -9 87 -9 52 0 83 4 78 9 -6 5 -19 11 -30 13 -18 3 -20 12 -23
86 l-3 82 35 0 c46 0 86 -16 86 -35 0 -8 5 -15 10 -15 6 0 10 25 10 55 0 30
-4 55 -10 55 -5 0 -10 -6 -10 -14 0 -18 -22 -26 -76 -26 l-44 0 0 80 0 81 62
-3 c61 -3 63 -4 79 -37 19 -40 31 -29 22 22 l-6 37 -136 -1 c-109 -1 -131 -3
-108 -12z"/>
<path d="M4894 390 c-60 -24 -98 -119 -71 -181 46 -107 185 -118 239 -18 62
116 -48 248 -168 199z m96 -35 c44 -47 37 -178 -11 -208 -64 -40 -133 86 -99
180 22 57 71 70 110 28z"/>
<path d="M5153 388 c-36 -12 -42 -23 -18 -32 22 -8 22 -206 1 -206 -8 0 -18
-4 -21 -10 -4 -6 19 -10 62 -9 65 0 67 1 46 16 -21 14 -23 24 -23 101 0 69 3
87 18 98 22 17 76 18 91 0 28 -33 25 -196 -4 -196 -8 0 -17 -4 -20 -10 -4 -6
19 -10 61 -10 l68 0 -22 20 c-20 19 -22 31 -22 114 0 84 -2 95 -23 114 -29 28
-76 28 -110 2 -14 -11 -28 -20 -31 -20 -3 0 -6 9 -6 20 0 22 -1 22 -47 8z"/>
<path d="M1945 272 c-10 -89 19 -129 79 -106 23 9 20 19 -9 32 -18 8 -25 20
-25 39 -1 16 -9 44 -19 62 l-19 35 -7 -62z"/>
<path d="M1526 284 c-26 -23 -36 -25 -110 -24 -129 2 -170 0 -163 -6 6 -6 40
-7 217 -4 25 0 47 9 70 30 19 16 31 29 25 29 -5 0 -23 -11 -39 -25z"/>
<path d="M1121 209 c-30 -16 -62 -29 -72 -29 -10 0 -25 -10 -33 -22 -19 -26
-20 -38 -5 -38 11 0 179 108 179 116 0 8 -16 2 -69 -27z"/>
<path d="M2865 220 c3 -5 13 -10 21 -10 8 0 12 5 9 10 -3 6 -13 10 -21 10 -8
0 -12 -4 -9 -10z"/>
<path d="M2957 224 c-8 -8 1 -24 14 -24 5 0 9 7 9 15 0 15 -12 20 -23 9z"/>
<path d="M1262 200 c-18 -4 -41 -14 -50 -23 -9 -8 -38 -25 -64 -37 -27 -12
-48 -27 -48 -32 0 -15 51 0 75 22 35 31 83 50 129 50 49 0 76 7 76 21 0 11
-72 10 -118 -1z"/>
<path d="M3138 183 c-48 -5 -50 -23 -3 -24 19 -1 41 -2 48 -3 14 -1 17 27 2
29 -5 1 -27 0 -47 -2z"/>
<path d="M965 161 c-3 -6 -35 -7 -75 -4 -54 5 -74 2 -94 -11 -14 -9 -39 -16
-55 -16 -31 0 -49 -14 -32 -25 9 -5 62 1 209 23 29 5 60 16 70 25 15 16 15 17
0 17 -9 0 -19 -4 -23 -9z"/>
<path d="M1305 124 c-76 -23 -116 -46 -103 -60 12 -11 208 52 230 74 20 20
-38 13 -127 -14z"/>
<path d="M2043 134 c8 -8 116 -34 142 -34 14 0 8 6 -18 20 -33 18 -140 30
-124 14z"/>
<path d="M615 120 c-3 -6 5 -10 19 -10 14 0 28 5 31 10 3 6 -5 10 -19 10 -14
0 -28 -4 -31 -10z"/>
<path d="M2740 82 c0 -4 9 -8 20 -9 11 -1 18 2 15 8 -7 11 -35 12 -35 1z"/>
<path d="M3700 80 c36 -12 60 -12 60 0 0 6 -19 10 -42 9 -37 -1 -39 -2 -18 -9z"/>
<path d="M1450 70 c-7 -4 -9 -13 -6 -19 8 -13 42 -15 50 -3 7 12 -29 31 -44
22z"/>
<path d="M2840 60 c0 -5 5 -10 10 -10 6 0 10 5 10 10 0 6 -4 10 -10 10 -5 0
-10 -4 -10 -10z"/>
<path d="M3377 63 c-19 -18 1 -23 88 -23 58 0 109 -5 128 -13 18 -8 41 -11 52
-7 23 9 22 9 -72 34 -63 16 -184 22 -196 9z"/>
<path d="M3795 63 c11 -11 84 -33 109 -33 33 0 14 18 -26 24 -24 4 -54 10 -68
13 -16 4 -21 2 -15 -4z"/>
<path d="M2875 50 c3 -5 8 -10 11 -10 2 0 4 5 4 10 0 6 -5 10 -11 10 -5 0 -7
-4 -4 -10z"/>
</g>
</svg>
