<?xml version="1.0" standalone="no"?>
<!DOCTYPE svg PUBLIC "-//W3C//DTD SVG 20010904//EN"
 "http://www.w3.org/TR/2001/REC-SVG-20010904/DTD/svg10.dtd">
<svg version="1.0" xmlns="http://www.w3.org/2000/svg"
 width="964.000000pt" height="400.000000pt" viewBox="0 0 964.000000 400.000000"
 preserveAspectRatio="xMidYMid meet">

<g transform="translate(0.000000,400.000000) scale(0.100000,-0.100000)"
fill="#fafafa" stroke="none">
<path d="M3180 3776 c0 -62 8 -71 72 -80 27 -4 49 -13 52 -22 3 -9 6 -315 6
-680 l0 -665 123 3 122 3 3 748 2 747 -190 0 -190 0 0 -54z"/>
<path d="M3757 3824 c-4 -4 -7 -31 -7 -60 0 -58 -1 -57 78 -69 l42 -7 0 -679
0 -680 125 3 125 3 0 745 0 745 -178 3 c-98 1 -181 -1 -185 -4z"/>
<path d="M5340 3770 c0 -66 -1 -65 73 -75 l47 -6 0 -680 0 -680 113 3 c108 3
112 4 115 26 5 34 24 36 74 11 23 -13 45 -24 48 -24 3 -1 16 -6 30 -12 46 -19
152 -25 220 -13 110 20 213 97 264 198 48 94 60 161 60 328 0 121 -3 166 -13
178 -8 9 -11 19 -9 22 8 7 -37 128 -61 168 -28 45 -58 71 -121 103 -50 25 -65
28 -160 28 -107 0 -171 -13 -238 -47 -76 -38 -72 -51 -72 257 l0 275 -185 0
-185 0 0 -60z m650 -640 c41 -11 92 -61 108 -105 24 -65 32 -200 17 -296 -14
-96 -35 -136 -99 -183 -45 -34 -213 -24 -246 14 -3 3 -17 11 -32 17 l-28 13 0
245 0 244 30 16 c38 19 134 43 180 44 19 1 51 -4 70 -9z"/>
<path d="M164 3737 c-2 -7 -3 -85 -2 -172 l3 -160 55 0 c60 0 54 -7 74 94 3
13 9 28 13 32 4 4 73 9 153 10 l145 1 5 -603 5 -604 123 0 122 0 3 600 2 600
154 0 155 0 14 -68 15 -68 56 3 56 3 0 170 0 170 -573 3 c-462 2 -574 0 -578
-11z"/>
<path d="M1899 3334 c-31 -9 -64 -32 -102 -68 -30 -30 -58 -52 -61 -49 -3 4
-6 21 -6 39 0 66 4 64 -176 64 l-164 0 0 -65 c0 -62 1 -65 24 -65 13 0 38 -3
55 -6 l31 -6 2 -422 3 -421 125 0 125 0 3 344 c1 231 6 349 13 357 6 8 37 28
68 45 47 27 69 32 144 37 l87 4 0 108 c0 89 -3 109 -16 114 -27 10 -107 5
-155 -10z"/>
<path d="M2501 3339 c-52 -10 -144 -60 -189 -103 -49 -46 -99 -127 -124 -203
-19 -58 -22 -89 -22 -208 0 -159 13 -215 69 -311 39 -66 90 -115 150 -147 22
-12 42 -22 45 -22 3 -1 17 -7 32 -13 58 -24 194 -35 286 -22 48 7 98 17 112
23 14 6 30 11 35 12 6 0 19 5 30 10 101 43 125 55 125 63 0 5 -11 40 -25 78
-14 38 -25 70 -25 71 0 8 -48 1 -56 -7 -15 -15 -188 -50 -245 -50 -66 0 -144
26 -185 62 -38 34 -74 95 -74 127 0 11 -6 23 -12 28 -7 4 136 10 317 13 l330
5 3 108 c2 93 -1 121 -22 191 -39 128 -104 209 -211 265 -74 38 -232 52 -344
30z m237 -219 c38 -29 69 -91 74 -150 l3 -45 -189 -3 c-104 -1 -193 1 -198 6
-5 5 -5 19 0 33 6 13 15 43 22 65 15 49 50 90 94 110 48 22 155 13 194 -16z"/>
<path d="M4657 3335 c-66 -17 -146 -65 -199 -121 -39 -42 -98 -150 -98 -182 0
-10 -3 -22 -7 -25 -24 -25 -25 -298 0 -367 2 -8 13 -37 22 -65 35 -100 130
-198 225 -230 3 -1 16 -6 30 -12 14 -6 67 -16 117 -23 95 -12 204 -3 283 23
19 6 37 12 40 12 7 2 36 14 99 42 60 26 61 28 19 131 -22 54 -48 68 -76 40 -7
-7 -12 -8 -12 -4 0 5 -6 4 -12 -2 -17 -13 -168 -42 -222 -42 -135 1 -240 78
-260 192 l-7 38 323 2 323 3 -1 135 c-1 121 -4 143 -27 199 -14 35 -40 85 -58
111 -33 49 -124 116 -189 139 -54 20 -244 23 -313 6z m248 -209 c32 -21 74
-103 82 -161 l6 -45 -198 0 -197 0 7 53 c4 28 13 63 20 77 17 32 63 76 95 89
36 16 154 7 185 -13z"/>
<path d="M6875 3336 c-121 -28 -217 -105 -268 -214 -17 -37 -32 -73 -34 -82
-19 -109 -24 -173 -20 -265 12 -280 140 -432 390 -465 224 -30 428 53 505 207
71 140 76 462 10 603 -45 94 -136 174 -236 206 -67 22 -271 27 -347 10z m269
-209 c77 -51 112 -164 103 -337 -6 -111 -16 -153 -53 -211 -31 -50 -77 -69
-166 -69 -136 0 -188 56 -209 228 -13 101 -1 241 25 304 18 41 64 86 102 98
44 14 169 6 198 -13z"/>
<path d="M8131 3338 c-44 -12 -117 -62 -137 -94 -22 -33 -44 -31 -44 4 0 15
-3 37 -6 50 -6 22 -9 22 -176 22 l-169 0 3 -62 c3 -61 4 -63 30 -63 15 -1 30
-4 34 -8 4 -4 18 -7 31 -7 l23 0 2 -422 3 -423 125 0 125 0 5 350 5 349 64 40
c59 37 70 40 151 44 l86 4 -2 107 c-1 58 -2 109 -3 114 -1 10 -109 7 -150 -5z"/>
<path d="M8681 3339 c-90 -18 -198 -113 -241 -213 -28 -66 -58 -247 -55 -326
5 -91 32 -222 59 -285 33 -73 87 -129 159 -164 115 -54 239 -50 373 14 41 19
77 35 81 35 3 0 4 -44 1 -98 -4 -120 -24 -165 -89 -202 -42 -24 -52 -25 -184
-23 -98 1 -167 7 -230 21 -49 11 -93 17 -96 13 -4 -3 -16 -39 -27 -79 -15 -54
-18 -74 -9 -77 7 -3 26 -10 42 -16 34 -14 53 -19 75 -23 9 -1 20 -5 26 -9 24
-14 204 -37 294 -37 230 1 359 70 421 226 24 59 24 61 29 566 3 278 8 509 11
512 4 4 29 9 58 13 57 7 65 18 59 89 l-3 39 -177 3 -178 2 -6 -25 c-3 -14 -8
-25 -10 -25 -3 0 -27 11 -54 25 -99 50 -217 66 -329 44z m312 -225 c70 -25 67
-12 67 -278 l0 -242 -67 -34 c-59 -29 -78 -34 -144 -34 -67 -1 -79 2 -111 26
-42 32 -65 76 -79 155 -13 69 -6 253 12 303 23 64 66 106 123 121 40 10 148 1
199 -17z"/>
<path d="M6884 1535 c-8 -33 4 -95 19 -100 7 -2 33 -6 60 -10 l47 -6 0 -205
c0 -112 -2 -204 -4 -204 -5 0 -75 29 -116 48 -26 13 -63 17 -145 17 -115 0
-158 -12 -238 -68 -122 -84 -196 -331 -167 -554 28 -219 110 -346 255 -394 66
-22 219 -17 290 11 33 13 62 26 65 29 8 10 49 31 59 31 6 0 13 -16 17 -35 l6
-35 114 0 114 0 0 750 0 750 -185 0 -185 0 -6 -25z m16 -682 c8 -3 20 -7 25
-8 6 -2 27 -10 48 -18 l37 -16 0 -246 0 -246 -67 -31 c-56 -26 -81 -32 -143
-32 -94 -1 -130 21 -169 103 -24 52 -26 66 -26 191 0 84 5 152 13 180 18 58
87 127 134 132 38 5 126 -1 148 -9z"/>
<path d="M2970 1401 l0 -69 58 -8 57 -9 3 -628 2 -628 128 3 127 3 3 293 2
292 241 0 240 0 -3 103 -3 102 -235 1 -235 1 -6 174 c-3 96 -3 189 -1 207 l5
33 238 -1 c157 -1 241 -5 245 -12 4 -6 12 -36 18 -67 l11 -56 63 -3 62 -3 -2
168 -3 168 -507 3 -508 2 0 -69z"/>
<path d="M4425 1073 c-16 -3 -32 -8 -35 -12 -3 -4 -23 -12 -45 -19 -192 -56
-300 -294 -265 -586 31 -257 137 -377 367 -413 108 -17 234 -9 323 22 115 39
216 166 247 310 19 90 13 336 -11 411 -36 115 -126 215 -225 250 -25 9 -55 21
-66 27 -21 11 -239 19 -290 10z m204 -203 c97 -28 144 -138 144 -333 0 -74 -5
-123 -12 -130 -6 -6 -11 -18 -11 -26 0 -8 -10 -35 -21 -59 -29 -58 -85 -85
-180 -84 -122 0 -173 49 -202 191 -21 108 -7 283 28 350 19 37 67 81 101 91
40 12 113 12 153 0z"/>
<path d="M5740 1071 c-8 -5 -17 -8 -22 -5 -4 3 -15 0 -25 -5 -10 -6 -54 -24
-98 -42 -44 -17 -86 -33 -92 -36 -9 -3 -13 4 -13 20 0 14 -6 30 -14 34 -8 4
-91 7 -185 5 l-171 -3 0 -47 c0 -26 4 -52 8 -58 4 -6 32 -15 62 -20 l55 -9 3
-422 2 -423 125 0 125 0 2 367 3 366 80 34 c139 60 245 44 281 -43 11 -26 14
-107 14 -379 l0 -345 126 0 125 0 -3 403 c-3 395 -3 403 -26 452 -49 106 -127
154 -262 161 -48 3 -91 1 -100 -5z"/>
<path d="M7820 1074 c-14 -3 -32 -8 -40 -11 -8 -4 -17 -7 -20 -7 -3 -1 -31
-14 -62 -29 -58 -28 -154 -122 -183 -177 -70 -136 -76 -416 -11 -571 37 -87
137 -179 235 -214 156 -55 387 -36 552 46 32 16 59 31 59 33 0 10 -52 142 -59
149 -4 4 -26 1 -48 -7 -57 -20 -201 -46 -254 -46 -64 0 -144 26 -182 60 -33
29 -70 93 -82 142 l-7 28 323 2 324 3 -1 130 c-1 152 -16 215 -70 296 -49 72
-90 106 -177 141 -60 25 -89 30 -172 33 -55 2 -111 1 -125 -1z m207 -220 c38
-27 83 -118 83 -166 l0 -38 -195 0 c-219 0 -207 -5 -182 75 33 110 99 159 204
153 43 -3 72 -10 90 -24z"/>
<path d="M9090 1071 c-8 -5 -17 -8 -21 -6 -5 4 -135 -46 -216 -82 -9 -3 -13 4
-13 20 0 13 -6 28 -12 33 -7 5 -91 8 -186 6 l-173 -3 3 -57 3 -57 57 -9 58 -8
2 -422 3 -421 128 -3 127 -3 0 366 0 366 58 27 c31 14 62 27 67 29 81 21 107
23 142 14 44 -12 80 -42 94 -78 5 -13 9 -180 9 -374 l0 -349 130 0 131 0 -3
403 -3 402 -34 63 c-43 79 -99 124 -176 140 -47 10 -161 12 -175 3z"/>
</g>
</svg>
