<?xml version="1.0" standalone="no"?>
<!DOCTYPE svg PUBLIC "-//W3C//DTD SVG 20010904//EN"
 "http://www.w3.org/TR/2001/REC-SVG-20010904/DTD/svg10.dtd">
<svg version="1.0" xmlns="http://www.w3.org/2000/svg"
 width="1564.000000pt" height="400.000000pt" viewBox="0 0 1564.000000 400.000000"
 preserveAspectRatio="xMidYMid meet">

<g transform="translate(0.000000,400.000000) scale(0.100000,-0.100000)"
fill="#fafafa" stroke="none">
<path d="M8055 3968 c-3 -7 -4 -895 -3 -1973 l3 -1960 88 -3 87 -3 0 1976 0
1975 -85 0 c-59 0 -87 -4 -90 -12z"/>
<path d="M2795 3958 c-3 -7 -4 -386 -3 -843 l3 -830 90 0 90 0 0 840 0 840
-88 3 c-64 2 -89 -1 -92 -10z"/>
<path d="M3375 3958 c-3 -7 -4 -386 -3 -843 l3 -830 84 -3 c46 -2 87 1 90 7 3
5 5 385 3 845 l-2 836 -85 0 c-59 0 -87 -4 -90 -12z"/>
<path d="M2243 3891 c-37 -23 -47 -54 -44 -134 2 -43 51 -87 96 -87 76 0 115
42 115 125 0 90 -93 143 -167 96z"/>
<path d="M4005 3901 c-77 -32 -87 -182 -16 -221 33 -17 96 -12 124 11 59 46
56 162 -6 199 -34 21 -68 24 -102 11z"/>
<path d="M1820 3860 c-4 -3 -19 -50 -32 -105 -14 -55 -74 -289 -133 -520 -60
-231 -120 -477 -134 -547 -26 -123 -41 -167 -41 -117 0 13 -11 74 -25 134 -24
103 -59 222 -225 760 -37 121 -80 260 -94 308 l-27 88 -101 -3 -101 -3 -18
-60 c-9 -33 -28 -98 -42 -145 -174 -584 -262 -894 -279 -982 -12 -59 -25 -105
-30 -102 -4 3 -8 15 -8 27 0 43 -42 217 -170 722 -72 281 -133 518 -136 528
-5 15 -19 17 -106 17 -80 0 -99 -3 -95 -14 3 -7 64 -235 137 -507 72 -272 158
-595 191 -719 33 -124 68 -250 77 -280 l17 -55 88 -3 87 -3 11 28 c6 15 32
102 59 193 26 91 102 350 168 575 67 226 126 438 133 473 6 34 15 62 19 62 4
0 10 -18 14 -40 5 -33 73 -261 349 -1180 l32 -105 86 -3 c61 -2 89 1 96 10 6
7 56 186 112 398 57 212 111 414 121 450 10 36 35 128 55 205 20 77 45 169 55
205 59 212 81 302 77 307 -7 6 -177 9 -187 3z"/>
<path d="M4865 3481 c-71 -12 -160 -38 -228 -68 -45 -20 -56 -30 -51 -42 4 -9
15 -38 26 -66 11 -27 21 -52 23 -54 2 -2 37 10 78 27 99 42 229 67 300 58 146
-19 212 -104 205 -269 l-3 -72 -165 -6 c-307 -12 -471 -70 -551 -197 -41 -65
-52 -114 -47 -212 10 -173 106 -278 284 -311 78 -15 204 -5 283 22 51 17 79
36 137 91 68 65 74 68 79 46 2 -12 11 -50 18 -83 l12 -60 65 0 65 0 3 430 c2
290 0 452 -8 497 -22 127 -101 216 -223 253 -61 19 -231 27 -302 16z m353
-720 c-7 -121 -32 -191 -90 -248 -82 -80 -216 -117 -335 -93 -79 17 -138 73
-148 143 -10 68 2 130 35 176 55 76 157 107 383 119 78 4 146 6 151 4 5 -3 6
-48 4 -101z"/>
<path d="M6095 3476 c-74 -21 -139 -61 -188 -116 -46 -51 -57 -53 -57 -14 0
13 -5 46 -11 74 l-11 51 -71 -3 -72 -3 0 -590 0 -590 88 0 88 0 0 335 c1 184
5 368 10 408 27 206 124 302 307 305 83 1 137 -16 181 -57 66 -62 65 -54 71
-546 l5 -445 90 0 90 0 5 405 c5 396 6 406 29 464 49 121 145 180 296 179 116
-1 179 -39 223 -132 15 -32 17 -90 22 -476 l5 -440 85 0 85 0 3 435 c1 272 -2
454 -8 485 -39 188 -170 285 -385 285 -158 0 -308 -71 -376 -179 l-15 -24 -27
46 c-59 101 -155 148 -312 153 -66 3 -117 -1 -150 -10z"/>
<path d="M2212 2878 l3 -593 88 -3 87 -3 0 596 0 595 -90 0 -90 0 2 -592z"/>
<path d="M3960 3466 c-3 -2 -4 -270 -2 -596 l2 -591 88 3 87 3 0 590 0 590
-85 3 c-47 1 -88 1 -90 -2z"/>
<path d="M13091 1405 l4 -324 -50 48 c-83 79 -139 106 -257 121 -151 19 -285
-20 -382 -111 -120 -111 -176 -270 -176 -494 0 -377 147 -583 441 -619 130
-16 297 41 378 130 24 25 45 43 48 41 2 -3 9 -37 15 -76 l10 -71 74 0 74 0 0
840 0 840 -91 0 -91 0 3 -325z m-242 -316 c159 -34 227 -154 238 -419 11 -267
-40 -397 -182 -462 -42 -19 -67 -23 -155 -23 -120 0 -157 14 -221 82 -78 81
-109 186 -109 368 0 241 70 392 206 445 55 22 147 26 223 9z"/>
<path d="M60 840 l0 -790 258 0 c294 0 388 9 516 50 315 101 486 365 486 750
0 367 -163 628 -457 732 -110 38 -211 48 -515 48 l-288 0 0 -790z m663 606
c212 -59 342 -201 383 -421 20 -108 15 -307 -10 -400 -43 -157 -136 -275 -268
-339 -113 -54 -179 -67 -395 -73 l-193 -6 0 625 c0 344 3 628 8 632 14 15 412
0 475 -18z"/>
<path d="M8900 840 l0 -791 93 3 92 3 2 330 2 330 326 3 326 2 -3 83 -3 82
-323 5 -323 5 0 280 0 280 348 5 c191 3 347 8 346 13 -2 4 -3 41 -3 82 l0 75
-440 0 -440 0 0 -790z"/>
<path d="M6901 1403 c-46 -154 -39 -145 -130 -183 l-81 -35 0 -47 0 -48 85 0
85 0 0 -392 c0 -404 4 -449 43 -523 23 -45 76 -91 132 -116 62 -28 211 -36
295 -17 l55 13 3 74 c3 73 3 73 -20 67 -13 -4 -56 -9 -95 -13 -123 -10 -195
33 -222 132 -7 26 -11 173 -11 408 l0 367 170 0 171 0 -3 71 -3 70 -165 2
-165 2 -3 138 -3 137 -53 0 -53 0 -32 -107z"/>
<path d="M1830 1249 c-184 -30 -334 -182 -392 -398 -30 -114 -30 -316 1 -428
56 -200 190 -331 388 -378 138 -33 402 -7 514 51 28 14 29 17 29 90 0 88 17
83 -135 39 -120 -35 -276 -44 -362 -22 -152 39 -237 145 -261 323 -5 38 -8 72
-5 77 2 4 187 7 410 7 l406 0 -5 123 c-5 94 -12 140 -32 202 -77 238 -288 357
-556 314z m201 -160 c98 -24 176 -135 186 -263 l6 -66 -307 0 c-349 0 -318
-10 -291 95 50 192 208 284 406 234z"/>
<path d="M3000 1249 c-74 -14 -165 -65 -214 -120 -24 -27 -46 -46 -49 -42 -2
5 -10 38 -17 76 -7 37 -15 67 -19 67 -3 1 -35 2 -71 2 l-65 2 -3 -592 -2 -592
90 0 90 0 0 339 c0 371 8 466 47 554 46 101 116 146 245 155 99 6 159 -10 208
-57 67 -64 70 -86 70 -568 l0 -424 93 3 92 3 5 405 c5 387 6 407 27 458 32 78
66 117 130 149 52 25 68 28 158 28 91 0 104 -2 147 -27 36 -22 53 -41 75 -85
l28 -58 3 -438 3 -437 90 0 89 0 0 428 c0 461 -5 513 -54 609 -46 92 -122 140
-256 163 -81 14 -169 8 -248 -15 -67 -20 -163 -85 -197 -135 -28 -41 -45 -51
-45 -26 0 23 -89 115 -132 137 -82 42 -217 58 -318 38z"/>
<path d="M4865 1253 c-107 -9 -335 -79 -335 -102 0 -4 11 -34 24 -67 29 -69
26 -68 146 -25 148 53 278 58 361 15 68 -35 109 -127 109 -246 l0 -68 -92 -1
c-174 -2 -281 -13 -378 -40 -147 -40 -230 -101 -275 -200 -25 -57 -27 -69 -23
-163 3 -84 8 -109 30 -152 60 -116 175 -174 347 -174 150 0 245 36 336 129 27
28 52 51 56 51 4 0 13 -26 19 -57 23 -114 14 -104 89 -101 l66 3 0 465 0 465
-24 59 c-49 123 -145 187 -307 206 -49 5 -93 9 -99 8 -5 -1 -28 -3 -50 -5z
m299 -713 c-1 -129 -23 -191 -93 -261 -49 -49 -69 -61 -130 -79 -133 -41 -262
-17 -319 58 -37 48 -43 149 -14 215 47 106 206 157 472 153 l85 -1 -1 -85z"/>
<path d="M6021 1245 c-90 -20 -164 -60 -217 -117 -25 -26 -46 -48 -48 -48 -3
0 -10 32 -17 70 -7 39 -17 74 -22 77 -18 11 -128 8 -138 -3 -5 -7 -8 -247 -7
-590 l3 -579 90 0 90 0 6 390 c5 401 8 423 50 506 24 48 97 112 146 128 21 7
76 15 124 18 154 10 244 -36 286 -145 15 -42 18 -93 20 -472 l3 -425 88 0 87
0 3 395 c2 254 -1 423 -8 474 -32 221 -145 317 -390 331 -55 3 -107 0 -149
-10z"/>
<path d="M10340 1253 c-154 -13 -254 -58 -345 -154 -103 -110 -143 -217 -152
-414 -15 -324 116 -551 366 -633 61 -20 95 -25 176 -24 269 1 453 143 522 402
25 92 24 329 -1 420 -43 158 -141 287 -264 348 -83 41 -206 63 -302 55z m150
-168 c73 -19 127 -59 172 -125 48 -73 70 -152 76 -280 10 -238 -57 -399 -196
-467 -51 -25 -68 -28 -157 -28 -124 0 -183 23 -250 97 -74 82 -105 191 -105
367 0 243 83 393 241 435 70 19 150 19 219 1z"/>
<path d="M11575 1249 c-110 -14 -228 -74 -275 -139 -12 -17 -25 -30 -29 -30
-4 0 -14 35 -22 77 l-14 77 -70 -1 -70 0 -3 -591 -2 -592 90 0 90 0 0 349 c0
386 8 463 57 552 55 103 138 143 293 144 52 0 111 -6 131 -13 47 -16 97 -66
123 -122 20 -43 21 -63 24 -477 l3 -433 90 0 90 0 -3 457 c-3 453 -3 459 -26
516 -31 76 -77 135 -132 169 -78 48 -226 73 -345 57z"/>
<path d="M13900 1249 c-209 -24 -360 -167 -421 -396 -27 -102 -30 -315 -6
-416 23 -95 70 -181 135 -249 108 -114 240 -163 432 -161 120 1 258 26 330 61
l35 17 3 79 c3 72 1 78 -15 73 -10 -2 -58 -17 -108 -33 -80 -24 -106 -27 -235
-28 -136 -1 -148 1 -200 25 -73 35 -126 90 -161 166 -31 66 -57 199 -42 214 5
5 189 10 408 11 l400 3 -1 110 c-2 127 -21 213 -66 298 -37 68 -126 154 -192
185 -80 38 -192 53 -296 41z m206 -177 c64 -33 110 -91 134 -171 12 -38 20
-85 18 -106 l-3 -36 -300 0 -300 0 -3 24 c-4 35 34 143 69 193 34 50 72 79
137 105 64 26 190 21 248 -9z"/>
<path d="M15115 1249 c-33 -4 -79 -15 -103 -23 -58 -21 -142 -78 -170 -115
-12 -17 -26 -31 -31 -31 -5 0 -12 26 -16 57 -12 97 -13 98 -91 97 l-69 -1 -3
-591 -2 -592 89 0 89 0 4 383 c4 330 7 389 22 437 26 81 61 136 109 168 65 45
112 57 222 57 88 0 107 -3 150 -26 28 -14 60 -40 73 -59 49 -73 52 -104 52
-547 l0 -413 90 0 90 0 0 431 c0 356 -3 442 -16 500 -18 81 -61 150 -122 196
-77 59 -234 89 -367 72z"/>
</g>
</svg>
